<svg xmlns="http://www.w3.org/2000/svg" xmlns:xlink="http://www.w3.org/1999/xlink" xmlns:inkscape="http://www.inkscape.org/namespaces/inkscape" version="1.1" width="932.448" height="206.901" viewBox="0 0 932.448 206.901">
<defs>
<clipPath id="clip_1">
<path transform="matrix(1,0,0,-1,0,206.901)" d="M0 206.901H932.448V0H0Z"/>
</clipPath>
<clipPath id="clip_2">
<path transform="matrix(1,0,0,-1,0,206.901)" d="M0 206.901H932.448V0H0Z"/>
</clipPath>
<clipPath id="clip_3">
<path transform="matrix(1,0,0,-1,0,206.901)" d="M0 206.901H932.448V0H0Z"/>
</clipPath>
<clipPath id="clip_4">
<path transform="matrix(1,0,0,-1,0,206.901)" d="M0 206.901H932.448V0H0Z"/>
</clipPath>
<clipPath id="clip_5">
<path transform="matrix(1,0,0,-1,0,206.901)" d="M0 206.901H932.448V0H0Z"/>
</clipPath>
</defs>
<g inkscape:groupmode="layer" inkscape:label="Layer 1">
<path transform="matrix(1,0,0,-1,0,206.901)" d="M60.198 42.365H103.305V125.94501H60.198Z" fill="#abdda4" fill-rule="evenodd"/>
<path transform="matrix(1,0,0,-1,0,206.901)" d="M103.308 42.365H177.976V125.94501H103.308Z" fill="#fdae61" fill-rule="evenodd"/>
<path transform="matrix(1,0,0,-1,0,206.901)" d="M177.968 42.365H220.30501V125.94501H177.968Z" fill="#fdae61" fill-rule="evenodd"/>
<path transform="matrix(1,0,0,-1,0,206.901)" d="M220.308 42.365H262.645V125.94501H220.308Z" fill="#e59edd" fill-rule="evenodd"/>
<path transform="matrix(1,0,0,-1,0,206.901)" d="M262.648 42.365H301.13703V125.94501H262.648Z" fill="#e59edd" fill-rule="evenodd"/>
<path transform="matrix(1,0,0,-1,0,206.901)" d="M301.138 42.365H360.41V125.94501H301.138Z" fill="#e59edd" fill-rule="evenodd"/>
<path transform="matrix(1,0,0,-1,0,206.901)" d="M360.408 42.365H598.40798V125.94501H360.408Z" fill="#ffffbf" fill-rule="evenodd"/>
<path transform="matrix(1,0,0,-1,0,206.901)" d="M598.408 42.365H706.408V125.94501H598.408Z" fill="#66c2a5" fill-rule="evenodd"/>
<path transform="matrix(1,0,0,-1,0,206.901)" d="M706.408 42.365H754.14706V125.94501H706.408Z" fill="#66c2a5" fill-rule="evenodd"/>
<path transform="matrix(1,0,0,-1,0,206.901)" d="M754.148 42.365H797.974V125.94501H754.148Z" fill="#3288bd" fill-rule="evenodd"/>
<path transform="matrix(1,0,0,-1,0,206.901)" d="M797.968 42.365H842.577V125.94501H797.968Z" fill="#3288bd" fill-rule="evenodd"/>
<path transform="matrix(1,0,0,-1,0,206.901)" d="M842.578 42.365H931.938V125.94501H842.578Z" fill="#aeaeae" fill-rule="evenodd"/>
<path transform="matrix(1,0,0,-1,103.3078,80.456)" stroke-width="1" stroke-linecap="butt" stroke-linejoin="round" fill="none" stroke="#ffffff" d="M0 0V-85.58"/>
<path transform="matrix(1,0,0,-1,177.9678,80.456)" stroke-width="1" stroke-linecap="butt" stroke-linejoin="round" fill="none" stroke="#ffffff" d="M0 0V-85.58"/>
<path transform="matrix(1,0,0,-1,220.3078,80.456)" stroke-width="1" stroke-linecap="butt" stroke-linejoin="round" fill="none" stroke="#ffffff" d="M0 0V-85.58"/>
<path transform="matrix(1,0,0,-1,262.6478,80.456)" stroke-width="1" stroke-linecap="butt" stroke-linejoin="round" fill="none" stroke="#ffffff" d="M0 0V-85.58"/>
<path transform="matrix(1,0,0,-1,301.1378,80.456)" stroke-width="1" stroke-linecap="butt" stroke-linejoin="round" fill="none" stroke="#ffffff" d="M0 0V-85.58"/>
<path transform="matrix(1,0,0,-1,360.4077,80.456)" stroke-width="1" stroke-linecap="butt" stroke-linejoin="round" fill="none" stroke="#ffffff" d="M0 0V-85.58"/>
<path transform="matrix(1,0,0,-1,598.4078,80.456)" stroke-width="1" stroke-linecap="butt" stroke-linejoin="round" fill="none" stroke="#ffffff" d="M0 0V-85.58"/>
<path transform="matrix(1,0,0,-1,706.4078,80.456)" stroke-width="1" stroke-linecap="butt" stroke-linejoin="round" fill="none" stroke="#ffffff" d="M0 0V-85.58"/>
<path transform="matrix(1,0,0,-1,754.1478,80.456)" stroke-width="1" stroke-linecap="butt" stroke-linejoin="round" fill="none" stroke="#ffffff" d="M0 0V-85.58"/>
<path transform="matrix(1,0,0,-1,797.9678,80.456)" stroke-width="1" stroke-linecap="butt" stroke-linejoin="round" fill="none" stroke="#ffffff" d="M0 0V-85.58"/>
<path transform="matrix(1,0,0,-1,842.5778,80.456)" stroke-width="1" stroke-linecap="butt" stroke-linejoin="round" fill="none" stroke="#ffffff" d="M0 0V-85.58"/>
<path transform="matrix(1,0,0,-1,60.1978,80.456)" stroke-width="1" stroke-linecap="butt" stroke-linejoin="round" fill="none" stroke="#ffffff" d="M0 0V-85.58"/>
<g clip-path="url(#clip_1)">
<path transform="matrix(1,0,0,-1,931.9377,80.456)" stroke-width="1" stroke-linecap="butt" stroke-linejoin="round" fill="none" stroke="#ffffff" d="M0 0V-85.58"/>
<path transform="matrix(1,0,0,-1,59.6978,80.956)" stroke-width="1" stroke-linecap="butt" stroke-linejoin="round" fill="none" stroke="#ffffff" d="M0 0H872.74"/>
<path transform="matrix(1,0,0,-1,59.6978,164.536)" stroke-width="3" stroke-linecap="butt" stroke-linejoin="round" fill="none" stroke="#ffffff" d="M0 0H872.74"/>
</g>
<path transform="matrix(1,0,0,-1,60.1978,193.566)" stroke-width="1.5" stroke-linecap="butt" stroke-miterlimit="8" stroke-linejoin="miter" fill="none" stroke="#000000" d="M0 0H333.407"/>
<g clip-path="url(#clip_2)">
<path transform="matrix(1,0,0,-1,60.1978,181.56601)" stroke-width="1.5" stroke-linecap="butt" stroke-miterlimit="8" stroke-linejoin="miter" fill="none" stroke="#000000" d="M0 0V-25.335"/>
<path transform="matrix(1,0,0,-1,932.1978,193.566)" stroke-width="1.5" stroke-linecap="butt" stroke-miterlimit="8" stroke-linejoin="miter" fill="none" stroke="#000000" d="M0 0H-390.444"/>
<path transform="matrix(1,0,0,-1,931.6978,206.901)" stroke-width="1.5" stroke-linecap="butt" stroke-miterlimit="8" stroke-linejoin="miter" fill="none" stroke="#000000" d="M0 0V25.335"/>
<text xml:space="preserve" transform="matrix(1 0 -0 1 0 206.901)" font-size="18" font-family="MyriadPro-Regular"><tspan y="-191.2593" x="236.269 246.52899 256.41099 266.347 272.305 278.029 287.91099 292.15898 295.97499 304.27299 308.485 317.503 321.75099">Control Field</tspan><tspan y="-191.8353" x="95.41899 106.38099 112.32099 122.56299 126.77499 132.73299 138.52899 147.15099 153.109 157.321 167.203 177.19301 181.009 189.32498 193.53699 202.555 206.803">Arbitration Field</tspan></text>
<path transform="matrix(1,0,0,-1,103.3078,48.672304)" stroke-width="1.5" stroke-linecap="butt" stroke-miterlimit="8" stroke-linejoin="miter" fill="none" stroke="#156082" d="M0 0C0 7.212 1.326 13.056 2.969 13.056L51.75 13.05C53.393 13.05 54.727 18.894 54.727 26.106 54.727 18.894 56.053 13.05 57.696 13.05H106.478C108.121 13.05 109.447 7.206 109.447 0"/>
</g>
<text xml:space="preserve" transform="matrix(1 0 -0 1 0 206.901)" font-size="18" font-family="MyriadPro-Regular"><tspan y="-135.9375" x="8.0098 17.7658 21.9778 27.9358">Bits</tspan><tspan y="-78.139499" x="758.59188 769.3378 779.77786 802.7998 813.5458 823.9858">ACKACK</tspan><tspan y="-93.2775" x="616.7878 620.60379 624.41976 628.2357 632.0517 635.8677 639.68368 650.12368 659.84378">      CRC</tspan><tspan y="-71.6775" x="616.7877 625.7697 634.7877 644.9217 654.8397 663.8577 673.8477 681.8037">Sequence</tspan><tspan y="-78.2475" x="713.3037 723.7437 733.4637">CRC</tspan><tspan y="-78.697498" x="870.7317 879.5877 891.9897">EOF</tspan><tspan y="-131.2395" x="880.6137 813.63577">71</tspan><tspan y="-131.1675" x="771.29977">1</tspan><tspan y="-131.2395" x="275.25575">1</tspan><tspan y="-131.1675" x="192.49173">1</tspan><tspan y="-131.2395" x="237.04174 75.11372">11</tspan><tspan y="-131.9955" x="133.81172 143.04572">11</tspan><tspan y="-131.2395" x="324.14375 459.50373 468.73774 474.26374 483.49775">40-64</tspan><tspan y="-131.6535" x="641.60977 650.84378">15</tspan><tspan y="-130.80751" x="725.86776">1</tspan><tspan y="-76.08751" x="450.50373 462.49174 471.1137 477.07173">Data</tspan><tspan y="-75.565509" x="316.8537 328.8417 336.6537">DLC</tspan><tspan y="-76.08751" x="269.53169 279.25169">RO</tspan><tspan y="-75.565509" x="227.42969 231.73169 243.7197">IDE</tspan><tspan y="-76.08751" x="181.8357 191.68169 200.62769">RTR</tspan><tspan y="-75.565509" x="135.07169 139.37369">ID</tspan><tspan y="-76.08751" x="67.67969 76.66169 86.543689">SoF</tspan></text>
<g clip-path="url(#clip_3)">
<text xml:space="preserve" transform="matrix(1 0 -0 1 0 206.901)" font-size="18" font-family="MyriadPro-Regular"><tspan y="-76.0879" x="0">F</tspan></text>
</g>
<text xml:space="preserve" transform="matrix(1 0 -0 1 0 206.901)" font-size="18" font-family="MyriadPro-Regular"><tspan y="-76.0879" x="8.3159 12.527901 21.545903 25.793904 35.945905">ields</tspan></text>
<g clip-path="url(#clip_4)">
<text xml:space="preserve" transform="matrix(1 0 -0 1 0 206.901)" font-size="18" font-family="MyriadPro-Regular"><tspan y="-191.27" x="634.8599 645.2999 655.0379 665.4779 669.2939 677.5919 681.8039 690.8219 695.0699 755.2439 765.98989 776.4299 786.18588 790.00186 798.3179 802.52987 811.54788 815.79586">CRC FieldACK Field</tspan></text>
</g>
<text xml:space="preserve" transform="matrix(1 0 -0 1 0 206.901)" font-size="18" font-family="MyriadPro-Regular"><tspan y="-10.2617" x="406.2236 416.7356 427.7516 439.59559 443.4116 455.3996 464.0216 469.9796 478.6556 482.47163 490.7696 496.5836 505.25959 520.2716">CAN Data Frame</tspan></text>
<g clip-path="url(#clip_5)">
<path transform="matrix(1,0,0,-1,227.169,48.672304)" stroke-width="1.5" stroke-linecap="butt" stroke-miterlimit="8" stroke-linejoin="miter" fill="none" stroke="#156082" d="M0 0C0 7.212 1.326 13.056 2.969 13.056L51.75 13.05C53.393 13.05 54.727 18.894 54.727 26.106 54.727 18.894 56.053 13.05 57.696 13.05H106.478C108.121 13.05 109.447 7.206 109.447 0"/>
<path transform="matrix(1,0,0,-1,598.4078,48.672304)" stroke-width="1.5" stroke-linecap="butt" stroke-miterlimit="8" stroke-linejoin="miter" fill="none" stroke="#156082" d="M0 0C0 7.212 1.802 13.056 4.036 13.056L70.354 13.05C72.587 13.05 74.401 18.894 74.401 26.106 74.401 18.894 76.203 13.05 78.436 13.05H144.754C146.987 13.05 148.79 7.206 148.79 0"/>
<path transform="matrix(1,0,0,-1,755.6938,48.672304)" stroke-width="1.5" stroke-linecap="butt" stroke-miterlimit="8" stroke-linejoin="miter" fill="none" stroke="#156082" d="M0 0C0 7.212 .927 13.056 2.075 13.056L36.174 13.05C37.322 13.05 38.255 18.894 38.255 26.106 38.255 18.894 39.182 13.05 40.33 13.05H74.429C75.577 13.05 76.504 7.206 76.504 0"/>
</g>
</g>
</svg>
