<?xml version="1.0" encoding="UTF-8"?>
<svg id="Graph" xmlns="http://www.w3.org/2000/svg" xmlns:xlink="http://www.w3.org/1999/xlink" viewBox="0 0 559.2 377.69">
  <defs>
    <style>
      .cls-1 {
        clip-path: url(#clippath-51);
      }

      .cls-2 {
        fill: #cdd2d9;
      }

      .cls-3 {
        clip-path: url(#clippath-34);
      }

      .cls-4 {
        clip-path: url(#clippath-38);
      }

      .cls-5 {
        clip-path: url(#clippath-21);
      }

      .cls-6 {
        clip-path: url(#clippath-6);
      }

      .cls-7 {
        clip-path: url(#clippath-7);
      }

      .cls-8 {
        clip-path: url(#clippath-17);
      }

      .cls-9 {
        clip-path: url(#clippath-80);
      }

      .cls-10 {
        clip-path: url(#clippath-75);
      }

      .cls-11 {
        clip-path: url(#clippath-15);
      }

      .cls-12 {
        stroke-dasharray: 3 3;
      }

      .cls-12, .cls-13, .cls-14, .cls-15, .cls-16, .cls-17, .cls-18, .cls-19, .cls-20, .cls-21, .cls-22, .cls-23, .cls-24, .cls-25, .cls-26 {
        stroke-width: .5px;
      }

      .cls-12, .cls-14, .cls-15, .cls-17, .cls-27, .cls-20, .cls-28, .cls-23, .cls-24, .cls-25, .cls-26, .cls-29 {
        stroke-miterlimit: 10;
      }

      .cls-12, .cls-14, .cls-15, .cls-27, .cls-20, .cls-28, .cls-23, .cls-24, .cls-25, .cls-26, .cls-29 {
        stroke: #231f20;
      }

      .cls-12, .cls-17, .cls-30, .cls-27, .cls-20, .cls-28, .cls-29 {
        fill: none;
      }

      .cls-31 {
        clip-path: url(#clippath-61);
      }

      .cls-32, .cls-22 {
        fill: #9bb284;
      }

      .cls-33 {
        clip-path: url(#clippath-18);
      }

      .cls-34 {
        clip-path: url(#clippath-4);
      }

      .cls-35 {
        fill: #fdfad6;
        stroke: #010101;
        stroke-linecap: round;
        stroke-linejoin: round;
        stroke-width: .75px;
      }

      .cls-36 {
        clip-path: url(#clippath-71);
      }

      .cls-37 {
        fill: #b8d6e7;
      }

      .cls-38 {
        clip-path: url(#clippath-22);
      }

      .cls-13 {
        fill: #f79548;
      }

      .cls-13, .cls-16, .cls-18, .cls-19, .cls-21, .cls-22 {
        fill-rule: evenodd;
        stroke: #000;
        stroke-miterlimit: 8;
      }

      .cls-39 {
        clip-path: url(#clippath-23);
      }

      .cls-40, .cls-41, .cls-42, .cls-43 {
        fill: #231f20;
      }

      .cls-40, .cls-42, .cls-44, .cls-43 {
        font-size: 14px;
      }

      .cls-40, .cls-44, .cls-45 {
        font-family: TimesNewRomanPSMT, 'Times New Roman';
      }

      .cls-14 {
        fill: #e21f26;
        opacity: .8;
      }

      .cls-46 {
        fill: #ed5765;
      }

      .cls-47 {
        clip-path: url(#clippath-54);
      }

      .cls-48 {
        clip-path: url(#clippath-66);
      }

      .cls-15, .cls-44 {
        fill: #fff;
      }

      .cls-49 {
        clip-path: url(#clippath-9);
      }

      .cls-16 {
        fill: #edf5e4;
      }

      .cls-50 {
        clip-path: url(#clippath-70);
      }

      .cls-51 {
        clip-path: url(#clippath-10);
      }

      .cls-52 {
        fill: #dfedcd;
      }

      .cls-53 {
        clip-path: url(#clippath-59);
      }

      .cls-54 {
        clip-path: url(#clippath-64);
      }

      .cls-55 {
        clip-path: url(#clippath-25);
      }

      .cls-56, .cls-21 {
        fill: #c2df9f;
      }

      .cls-57 {
        clip-path: url(#clippath-27);
      }

      .cls-58 {
        font-family: TimesNewRomanPS-ItalicMT, 'Times New Roman';
        font-style: italic;
      }

      .cls-59 {
        letter-spacing: -.11em;
      }

      .cls-60 {
        clip-path: url(#clippath-60);
      }

      .cls-61 {
        fill: #444a54;
      }

      .cls-62 {
        clip-path: url(#clippath-11);
      }

      .cls-63 {
        clip-path: url(#clippath-57);
      }

      .cls-64 {
        fill: #a6bac5;
      }

      .cls-17 {
        stroke: #fff;
      }

      .cls-65 {
        clip-path: url(#clippath-35);
      }

      .cls-66 {
        clip-path: url(#clippath-28);
      }

      .cls-67 {
        letter-spacing: -.07em;
      }

      .cls-68 {
        fill: #f26b6d;
      }

      .cls-68, .cls-69 {
        isolation: isolate;
        opacity: .6;
      }

      .cls-70 {
        clip-path: url(#clippath-1);
      }

      .cls-71 {
        clip-path: url(#clippath-56);
      }

      .cls-72 {
        fill: #b4d88a;
      }

      .cls-73 {
        clip-path: url(#clippath-99);
      }

      .cls-74 {
        clip-path: url(#clippath-96);
      }

      .cls-75 {
        clip-path: url(#clippath-5);
      }

      .cls-76 {
        clip-path: url(#clippath-20);
      }

      .cls-77 {
        clip-path: url(#clippath-8);
      }

      .cls-18 {
        fill: #ffd7a3;
      }

      .cls-78 {
        clip-path: url(#clippath-52);
      }

      .cls-79 {
        clip-path: url(#clippath-41);
      }

      .cls-80 {
        clip-path: url(#clippath-67);
      }

      .cls-81 {
        clip-path: url(#clippath-74);
      }

      .cls-82 {
        fill: #95acb9;
      }

      .cls-83 {
        clip-path: url(#clippath-3);
      }

      .cls-84 {
        clip-path: url(#clippath-26);
      }

      .cls-19 {
        fill: #ffefdc;
      }

      .cls-85 {
        letter-spacing: -.02em;
      }

      .cls-86 {
        clip-path: url(#clippath-12);
      }

      .cls-87 {
        clip-path: url(#clippath-50);
      }

      .cls-88 {
        clip-path: url(#clippath-14);
      }

      .cls-27, .cls-29 {
        stroke-width: 1.5px;
      }

      .cls-89 {
        clip-path: url(#clippath-30);
      }

      .cls-90 {
        clip-path: url(#clippath-19);
      }

      .cls-91 {
        clip-path: url(#clippath-78);
      }

      .cls-92 {
        clip-path: url(#clippath-72);
      }

      .cls-93 {
        clip-path: url(#clippath-55);
      }

      .cls-94 {
        fill: #666e79;
      }

      .cls-95 {
        clip-path: url(#clippath-73);
      }

      .cls-96 {
        fill: #53739b;
      }

      .cls-97 {
        fill: #9eaac3;
      }

      .cls-98 {
        clip-path: url(#clippath-53);
      }

      .cls-23 {
        fill: #f36d44;
      }

      .cls-99 {
        clip-path: url(#clippath-16);
      }

      .cls-100 {
        clip-path: url(#clippath-2);
      }

      .cls-101 {
        clip-path: url(#clippath-29);
      }

      .cls-69, .cls-25 {
        fill: #88cdea;
      }

      .cls-102 {
        fill: #e7e9ed;
      }

      .cls-103 {
        clip-path: url(#clippath-49);
      }

      .cls-24 {
        fill: #bac1b3;
      }

      .cls-104 {
        clip-path: url(#clippath-58);
      }

      .cls-105 {
        clip-path: url(#clippath-13);
      }

      .cls-106 {
        fill: #da4553;
      }

      .cls-107 {
        fill: #e2e8ec;
      }

      .cls-108 {
        clip-path: url(#clippath-86);
      }

      .cls-109 {
        clip-path: url(#clippath-63);
      }

      .cls-110 {
        clip-path: url(#clippath-24);
      }

      .cls-111 {
        fill: #c8dfec;
      }

      .cls-112 {
        clip-path: url(#clippath);
      }

      .cls-25 {
        opacity: .81;
      }

      .cls-113 {
        fill: #a7cee2;
      }

      .cls-114 {
        clip-path: url(#clippath-68);
      }

      .cls-26 {
        fill: #3c6a50;
      }

      .cls-115 {
        clip-path: url(#clippath-65);
      }

      .cls-43 {
        font-family: TimesNewRomanPS-BoldMT, 'Times New Roman';
        font-weight: 700;
      }

      .cls-29 {
        stroke-dasharray: 3 3;
      }

      .cls-116 {
        clip-path: url(#clippath-62);
      }

      .cls-117 {
        clip-path: url(#clippath-69);
      }
    </style>
    <clipPath id="clippath">
      <rect class="cls-30" x="179.45" y="19.66" width="118.15" height="88.53"/>
    </clipPath>
    <clipPath id="clippath-1">
      <rect class="cls-30" x="179.45" y="19.66" width="118.15" height="88.53"/>
    </clipPath>
    <clipPath id="clippath-2">
      <rect class="cls-30" x="179.45" y="19.66" width="118.15" height="88.53"/>
    </clipPath>
    <clipPath id="clippath-3">
      <rect class="cls-30" x="179.45" y="19.66" width="118.15" height="88.53"/>
    </clipPath>
    <clipPath id="clippath-4">
      <rect class="cls-30" x="179.45" y="19.66" width="118.15" height="88.53"/>
    </clipPath>
    <clipPath id="clippath-5">
      <rect class="cls-30" x="179.45" y="19.66" width="118.15" height="88.53"/>
    </clipPath>
    <clipPath id="clippath-6">
      <rect class="cls-30" x="179.45" y="19.66" width="118.15" height="88.53"/>
    </clipPath>
    <clipPath id="clippath-7">
      <rect class="cls-30" x="179.45" y="19.66" width="118.15" height="88.53"/>
    </clipPath>
    <clipPath id="clippath-8">
      <rect class="cls-30" x="179.45" y="19.66" width="118.15" height="88.53"/>
    </clipPath>
    <clipPath id="clippath-9">
      <rect class="cls-30" x="179.45" y="19.66" width="118.15" height="88.53"/>
    </clipPath>
    <clipPath id="clippath-10">
      <rect class="cls-30" x="179.45" y="19.66" width="118.15" height="88.53"/>
    </clipPath>
    <clipPath id="clippath-11">
      <rect class="cls-30" x="179.45" y="19.66" width="118.15" height="88.53"/>
    </clipPath>
    <clipPath id="clippath-12">
      <rect class="cls-30" x="179.45" y="19.66" width="118.15" height="88.53"/>
    </clipPath>
    <clipPath id="clippath-13">
      <rect class="cls-30" x="179.45" y="19.66" width="118.15" height="88.53"/>
    </clipPath>
    <clipPath id="clippath-14">
      <rect class="cls-30" x="179.45" y="19.66" width="118.15" height="88.53"/>
    </clipPath>
    <clipPath id="clippath-15">
      <rect class="cls-30" x="179.45" y="19.66" width="118.15" height="88.53"/>
    </clipPath>
    <clipPath id="clippath-16">
      <rect class="cls-30" x="179.45" y="19.66" width="118.15" height="88.53"/>
    </clipPath>
    <clipPath id="clippath-17">
      <rect class="cls-30" x="179.45" y="19.66" width="118.15" height="88.53"/>
    </clipPath>
    <clipPath id="clippath-18">
      <rect class="cls-30" x="179.45" y="19.66" width="118.15" height="88.53"/>
    </clipPath>
    <clipPath id="clippath-19">
      <rect class="cls-30" x="179.45" y="19.66" width="118.15" height="88.53"/>
    </clipPath>
    <clipPath id="clippath-20">
      <rect class="cls-30" x="179.45" y="19.66" width="118.15" height="88.53"/>
    </clipPath>
    <clipPath id="clippath-21">
      <rect class="cls-30" x="179.45" y="19.66" width="118.15" height="88.53"/>
    </clipPath>
    <clipPath id="clippath-22">
      <rect class="cls-30" x="179.45" y="19.66" width="118.15" height="88.53"/>
    </clipPath>
    <clipPath id="clippath-23">
      <rect class="cls-30" x="179.45" y="19.66" width="118.15" height="88.53"/>
    </clipPath>
    <clipPath id="clippath-24">
      <rect class="cls-30" x="179.45" y="19.66" width="118.15" height="88.53"/>
    </clipPath>
    <clipPath id="clippath-25">
      <rect class="cls-30" x="179.45" y="19.66" width="118.15" height="88.53"/>
    </clipPath>
    <clipPath id="clippath-26">
      <rect class="cls-30" x="179.45" y="19.66" width="118.15" height="88.53"/>
    </clipPath>
    <clipPath id="clippath-27">
      <rect class="cls-30" x="179.45" y="19.66" width="118.15" height="88.53"/>
    </clipPath>
    <clipPath id="clippath-28">
      <rect class="cls-30" x="179.45" y="19.66" width="118.15" height="88.53"/>
    </clipPath>
    <clipPath id="clippath-29">
      <rect class="cls-30" x="179.45" y="19.66" width="118.15" height="88.53"/>
    </clipPath>
    <clipPath id="clippath-30">
      <rect class="cls-30" x="179.45" y="19.66" width="118.15" height="88.53"/>
    </clipPath>
    <clipPath id="clippath-34">
      <rect class="cls-30" x="179.45" y="19.66" width="118.15" height="88.53"/>
    </clipPath>
    <clipPath id="clippath-35">
      <rect class="cls-30" x="179.45" y="19.66" width="118.15" height="88.53"/>
    </clipPath>
    <clipPath id="clippath-38">
      <rect class="cls-30" x="179.45" y="19.66" width="118.15" height="88.53"/>
    </clipPath>
    <clipPath id="clippath-41">
      <rect class="cls-30" x="179.45" y="19.66" width="118.15" height="88.53"/>
    </clipPath>
    <clipPath id="clippath-49">
      <rect class="cls-30" x="179.45" y="19.66" width="118.15" height="88.53"/>
    </clipPath>
    <clipPath id="clippath-50">
      <rect class="cls-30" x="179.45" y="19.66" width="118.15" height="88.53"/>
    </clipPath>
    <clipPath id="clippath-51">
      <rect class="cls-30" x="179.45" y="19.66" width="118.15" height="88.53"/>
    </clipPath>
    <clipPath id="clippath-52">
      <rect class="cls-30" x="179.45" y="19.66" width="118.15" height="88.53"/>
    </clipPath>
    <clipPath id="clippath-53">
      <rect class="cls-30" x="179.45" y="19.66" width="118.15" height="88.53"/>
    </clipPath>
    <clipPath id="clippath-54">
      <rect class="cls-30" x="179.45" y="19.66" width="118.15" height="88.53"/>
    </clipPath>
    <clipPath id="clippath-55">
      <rect class="cls-30" x="179.45" y="19.66" width="118.15" height="88.53"/>
    </clipPath>
    <clipPath id="clippath-56">
      <rect class="cls-30" x="179.45" y="19.66" width="118.15" height="88.53"/>
    </clipPath>
    <clipPath id="clippath-57">
      <rect class="cls-30" x="179.45" y="19.66" width="118.15" height="88.53"/>
    </clipPath>
    <clipPath id="clippath-58">
      <rect class="cls-30" x="179.45" y="19.66" width="118.15" height="88.53"/>
    </clipPath>
    <clipPath id="clippath-59">
      <rect class="cls-30" x="179.45" y="19.66" width="118.15" height="88.53"/>
    </clipPath>
    <clipPath id="clippath-60">
      <rect class="cls-30" x="179.45" y="19.66" width="118.15" height="88.53"/>
    </clipPath>
    <clipPath id="clippath-61">
      <rect class="cls-30" x="179.45" y="19.66" width="118.15" height="88.53"/>
    </clipPath>
    <clipPath id="clippath-62">
      <rect class="cls-30" x="179.45" y="19.66" width="118.15" height="88.53"/>
    </clipPath>
    <clipPath id="clippath-63">
      <rect class="cls-30" x="179.45" y="19.66" width="118.15" height="88.53"/>
    </clipPath>
    <clipPath id="clippath-64">
      <rect class="cls-30" x="179.45" y="19.66" width="118.15" height="88.53"/>
    </clipPath>
    <clipPath id="clippath-65">
      <rect class="cls-30" x="179.45" y="19.66" width="118.15" height="88.53"/>
    </clipPath>
    <clipPath id="clippath-66">
      <rect class="cls-30" x="179.45" y="19.66" width="118.15" height="88.53"/>
    </clipPath>
    <clipPath id="clippath-67">
      <rect class="cls-30" x="179.45" y="19.66" width="118.15" height="88.53"/>
    </clipPath>
    <clipPath id="clippath-68">
      <rect class="cls-30" x="179.45" y="19.66" width="118.15" height="88.53"/>
    </clipPath>
    <clipPath id="clippath-69">
      <rect class="cls-30" x="179.45" y="19.66" width="118.15" height="88.53"/>
    </clipPath>
    <clipPath id="clippath-70">
      <rect class="cls-30" x="179.45" y="19.66" width="118.15" height="88.53"/>
    </clipPath>
    <clipPath id="clippath-71">
      <rect class="cls-30" x="179.45" y="19.66" width="118.15" height="88.53"/>
    </clipPath>
    <clipPath id="clippath-72">
      <rect class="cls-30" x="179.45" y="19.66" width="118.15" height="88.53"/>
    </clipPath>
    <clipPath id="clippath-73">
      <rect class="cls-30" x="179.45" y="19.66" width="118.15" height="88.53"/>
    </clipPath>
    <clipPath id="clippath-74">
      <rect class="cls-30" x="179.45" y="19.66" width="118.15" height="88.53"/>
    </clipPath>
    <clipPath id="clippath-75">
      <rect class="cls-30" x="179.45" y="19.66" width="118.15" height="88.53"/>
    </clipPath>
    <clipPath id="clippath-78">
      <rect class="cls-30" x="179.45" y="19.66" width="118.15" height="88.53"/>
    </clipPath>
    <clipPath id="clippath-80">
      <rect class="cls-30" x="179.45" y="19.66" width="118.15" height="88.53"/>
    </clipPath>
    <clipPath id="clippath-86">
      <rect class="cls-30" x="179.45" y="19.66" width="118.15" height="88.53"/>
    </clipPath>
    <clipPath id="clippath-96">
      <rect class="cls-30" x="179.45" y="19.66" width="118.15" height="88.53"/>
    </clipPath>
    <clipPath id="clippath-99">
      <rect class="cls-30" x="179.45" y="19.66" width="118.15" height="88.53"/>
    </clipPath>
  </defs>
  <g id="Teacher_GAT_block" data-name="Teacher GAT block">
    <rect class="cls-15" x="22.55" y="264.1" width="52.99" height="55.22" rx="6" ry="6" transform="translate(340.76 242.66) rotate(90)"/>
    <rect class="cls-15" x="21.31" y="267.65" width="52.99" height="55.22" rx="6" ry="6" transform="translate(343.06 247.45) rotate(90)"/>
    <rect class="cls-15" x="20.07" y="271.19" width="52.99" height="55.22" rx="6" ry="6" transform="translate(345.37 252.24) rotate(90)"/>
    <rect class="cls-15" x="18.83" y="274.74" width="52.99" height="55.22" rx="6" ry="6" transform="translate(347.67 257.03) rotate(90)"/>
  </g>
  <g>
    <line class="cls-20" x1="77.56" y1="300.72" x2="88.46" y2="300.72"/>
    <polygon class="cls-41" points="87.73 303.21 92.05 300.72 87.73 298.22 87.73 303.21"/>
  </g>
  <g>
    <line class="cls-12" x1="133.29" y1="288.05" x2="140.87" y2="288.05"/>
    <polygon class="cls-41" points="140.14 290.55 144.45 288.05 140.14 285.56 140.14 290.55"/>
  </g>
  <g>
    <path class="cls-12" d="M81.49,289.82c.66-1.05,46.62-78.51,90.43-3.01"/>
    <polygon class="cls-41" points="169.35 287.47 173.68 289.94 173.65 284.95 169.35 287.47"/>
  </g>
  <text class="cls-40" transform="translate(14.91 253.79)"><tspan x="0" y="0">G</tspan><tspan class="cls-59" x="10.11" y="0">A</tspan><tspan class="cls-85" x="18.67" y="0">T</tspan></text>
  <text class="cls-42" transform="translate(61.32 341.88)"><tspan class="cls-58" x="0" y="0">n </tspan><tspan class="cls-45" x="10.5" y="0">layers</tspan></text>
  <g>
    <rect class="cls-14" x="497.23" y="173.93" width="19.81" height="70.89" rx="6" ry="6" transform="translate(716.5 -297.76) rotate(90)"/>
    <text class="cls-44" transform="translate(483.24 212.99)"><tspan x="0" y="0">Attack: 1</tspan></text>
    <rect class="cls-25" x="497.19" y="99.48" width="19.81" height="70.89" rx="6" ry="6" transform="translate(642.02 -372.17) rotate(90)"/>
    <text class="cls-44" transform="translate(480.5 138.36)"><tspan x="0" y="0">Benign: 0</tspan></text>
    <circle class="cls-20" cx="510.99" cy="87.63" r="3.86"/>
    <circle class="cls-15" cx="524.11" cy="103.85" r="3.86"/>
    <path class="cls-20" d="M514.86,88.15l9.26,11.84-9.26-11.84Z"/>
    <circle class="cls-15" cx="492.61" cy="94.28" r="3.86"/>
    <circle class="cls-15" cx="496.47" cy="115.72" r="3.86"/>
    <path class="cls-23" d="M512.4,91.22l2.45,21.44-2.45-21.44Z"/>
    <circle class="cls-15" cx="513.91" cy="116.41" r="3.86"/>
    <path class="cls-20" d="M496.14,95.84l24.11,7.41-24.11-7.41Z"/>
    <path class="cls-20" d="M510.05,116.41h-9.72,9.72Z"/>
    <path class="cls-20" d="M509.13,91.01l-12.21,20.87,12.21-20.87Z"/>
    <path class="cls-20" d="M496.06,92.54l11.07-4.22-11.07,4.22Z"/>
    <circle class="cls-14" cx="509.09" cy="163.91" r="3.86"/>
    <circle class="cls-15" cx="522.21" cy="180.13" r="3.86"/>
    <path class="cls-20" d="M512.95,164.43l9.26,11.84-9.26-11.84Z"/>
    <circle class="cls-15" cx="490.71" cy="170.56" r="3.86"/>
    <circle class="cls-15" cx="494.57" cy="192" r="3.86"/>
    <path class="cls-23" d="M510.5,167.51l2.45,21.44-2.45-21.44Z"/>
    <circle class="cls-15" cx="512.01" cy="192.69" r="3.86"/>
    <path class="cls-20" d="M494.24,172.12l24.11,7.41-24.11-7.41Z"/>
    <path class="cls-20" d="M508.15,192.69h-9.72,9.72Z"/>
    <path class="cls-20" d="M507.22,167.29l-12.21,20.87,12.21-20.87Z"/>
    <path class="cls-20" d="M494.16,168.82l11.07-4.22-11.07,4.22Z"/>
  </g>
  <text class="cls-40" transform="translate(226.92 341.88)"><tspan x="0" y="0">Dense</tspan></text>
  <text class="cls-40" transform="translate(15.71 22.94)"><tspan x="0" y="0">VGAE</tspan></text>
  <g>
    <path class="cls-20" d="M19.18,86.45v-45.04c0-2.98,1.6-5.28,3.4-4.89l32.2,6.92c1.5.32,2.62,2.42,2.62,4.89v31.2c0,2.48-1.12,4.57-2.62,4.89l-32.2,6.92c-1.8.39-3.4-1.91-3.4-4.89Z"/>
    <g>
      <g>
        <g>
          <rect class="cls-96" x="22.45" y="42.66" width="8.51" height="8.54"/>
          <rect class="cls-17" x="22.45" y="42.66" width="8.51" height="8.54"/>
        </g>
        <g>
          <rect class="cls-96" x="22.45" y="51.12" width="8.51" height="8.54"/>
          <rect class="cls-17" x="22.45" y="51.12" width="8.51" height="8.54"/>
        </g>
        <g>
          <rect class="cls-96" x="22.45" y="59.66" width="8.51" height="8.54"/>
          <rect class="cls-17" x="22.45" y="59.66" width="8.51" height="8.54"/>
        </g>
      </g>
      <g>
        <g>
          <rect class="cls-96" x="22.45" y="68.2" width="8.51" height="8.54"/>
          <rect class="cls-17" x="22.45" y="68.2" width="8.51" height="8.54"/>
        </g>
        <g>
          <rect class="cls-96" x="22.45" y="76.66" width="8.51" height="8.54"/>
          <rect class="cls-17" x="22.45" y="76.66" width="8.51" height="8.54"/>
        </g>
      </g>
    </g>
    <g>
      <g>
        <rect class="cls-64" x="34.45" y="51.19" width="8.51" height="8.54"/>
        <rect class="cls-17" x="34.45" y="51.19" width="8.51" height="8.54"/>
      </g>
      <g>
        <rect class="cls-64" x="34.45" y="59.66" width="8.51" height="8.54"/>
        <rect class="cls-17" x="34.45" y="59.66" width="8.51" height="8.54"/>
      </g>
      <g>
        <rect class="cls-64" x="34.45" y="68.2" width="8.51" height="8.54"/>
        <rect class="cls-17" x="34.45" y="68.2" width="8.51" height="8.54"/>
      </g>
    </g>
    <g>
      <g>
        <rect class="cls-97" x="46.45" y="56.2" width="8.51" height="8.54"/>
        <rect class="cls-17" x="46.45" y="56.2" width="8.51" height="8.54"/>
      </g>
      <g>
        <rect class="cls-97" x="46.45" y="64.74" width="8.51" height="8.54"/>
        <rect class="cls-17" x="46.45" y="64.74" width="8.51" height="8.54"/>
      </g>
    </g>
  </g>
  <path class="cls-20" d="M145.18,42.5v45.04c0,2.98-1.65,5.28-3.5,4.89l-33.13-6.92c-1.54-.32-2.7-2.42-2.7-4.89v-31.2c0-2.48,1.15-4.57,2.7-4.89l33.13-6.92c1.86-.39,3.5,1.91,3.5,4.89Z"/>
  <g>
    <g>
      <rect class="cls-96" x="133.49" y="77.75" width="8.51" height="8.54"/>
      <rect class="cls-17" x="133.49" y="77.75" width="8.51" height="8.54"/>
    </g>
    <g>
      <rect class="cls-96" x="133.49" y="69.29" width="8.51" height="8.54"/>
      <rect class="cls-17" x="133.49" y="69.29" width="8.51" height="8.54"/>
    </g>
    <g>
      <rect class="cls-96" x="133.49" y="60.75" width="8.51" height="8.54"/>
      <rect class="cls-17" x="133.49" y="60.75" width="8.51" height="8.54"/>
    </g>
    <g>
      <rect class="cls-96" x="133.49" y="52.21" width="8.51" height="8.54"/>
      <rect class="cls-17" x="133.49" y="52.21" width="8.51" height="8.54"/>
    </g>
    <g>
      <rect class="cls-96" x="133.49" y="43.75" width="8.51" height="8.54"/>
      <rect class="cls-17" x="133.49" y="43.75" width="8.51" height="8.54"/>
    </g>
  </g>
  <g>
    <rect class="cls-64" x="121.49" y="69.22" width="8.51" height="8.54"/>
    <rect class="cls-17" x="121.49" y="69.22" width="8.51" height="8.54"/>
  </g>
  <g>
    <rect class="cls-64" x="121.49" y="60.75" width="8.51" height="8.54"/>
    <rect class="cls-17" x="121.49" y="60.75" width="8.51" height="8.54"/>
  </g>
  <g>
    <rect class="cls-64" x="121.49" y="52.21" width="8.51" height="8.54"/>
    <rect class="cls-17" x="121.49" y="52.21" width="8.51" height="8.54"/>
  </g>
  <g>
    <rect class="cls-97" x="109.49" y="64.21" width="8.51" height="8.54"/>
    <rect class="cls-17" x="109.49" y="64.21" width="8.51" height="8.54"/>
  </g>
  <g>
    <rect class="cls-97" x="109.49" y="55.67" width="8.51" height="8.54"/>
    <rect class="cls-17" x="109.49" y="55.67" width="8.51" height="8.54"/>
  </g>
  <text class="cls-40" transform="translate(11.74 107.3)"><tspan x="0" y="0">Encoder</tspan></text>
  <text class="cls-40" transform="translate(117.34 107.59)"><tspan x="0" y="0">Decoder</tspan></text>
  <rect class="cls-20" x="72.85" y="54.35" width="18.28" height="20" rx="6" ry="6" transform="translate(146.34 -17.64) rotate(90)"/>
  <text class="cls-40" transform="translate(77.49 107.77)"><tspan x="0" y="0">Z</tspan></text>
  <g>
    <line class="cls-20" x1="60.06" y1="65.02" x2="65.74" y2="65.02"/>
    <polygon class="cls-41" points="65.01 67.51 69.33 65.02 65.01 62.53 65.01 67.51"/>
  </g>
  <g>
    <line class="cls-28" x1="153.49" y1="65.02" x2="172.09" y2="65.02"/>
    <polygon class="cls-41" points="170.63 70.01 179.27 65.02 170.63 60.04 170.63 70.01"/>
  </g>
  <g>
    <circle class="cls-20" cx="188.55" cy="294.79" r="11.25"/>
    <line class="cls-20" x1="188.55" y1="282.65" x2="188.55" y2="305.15"/>
    <line class="cls-20" x1="177.3" y1="294.79" x2="199.8" y2="294.79"/>
  </g>
  <g>
    <line class="cls-20" x1="202.79" y1="294.71" x2="212.69" y2="294.71"/>
    <polygon class="cls-41" points="211.96 297.2 216.27 294.71 211.96 292.22 211.96 297.2"/>
  </g>
  <text class="cls-43" transform="translate(194.86 373.11)"><tspan x="0" y="0">RL-Fusion</tspan><tspan class="cls-85" x="64.57" y="0"> </tspan><tspan class="cls-67" x="67.82" y="0">T</tspan><tspan x="76.12" y="0">raining Framework</tspan></text>
  <rect class="cls-29" x=".75" y=".75" width="557.7" height="355.54" rx="5.73" ry="5.73"/>
  <g id="axes_4" data-name="axes 4">
    <g id="patch_318" data-name="patch 318">
      <g class="cls-112">
        <path class="cls-69" d="M184.82,108.19h.94v-3.15h-.94v3.15Z"/>
      </g>
    </g>
    <g id="patch_319" data-name="patch 319">
      <g class="cls-70">
        <path class="cls-69" d="M185.76,108.19h.94v-10.42h-.94v10.42Z"/>
      </g>
    </g>
    <g id="patch_320" data-name="patch 320">
      <g class="cls-100">
        <path class="cls-69" d="M186.7,108.19h.94v-27.86h-.94v27.86Z"/>
      </g>
    </g>
    <g id="patch_321" data-name="patch 321">
      <g class="cls-83">
        <path class="cls-69" d="M187.64,108.19h.94v-51.85h-.94v51.85Z"/>
      </g>
    </g>
    <g id="patch_322" data-name="patch 322">
      <g class="cls-34">
        <path class="cls-69" d="M188.58,108.19h.94V41.56h-.94v66.63Z"/>
      </g>
    </g>
    <g id="patch_323" data-name="patch 323">
      <g class="cls-75">
        <path class="cls-69" d="M189.52,108.19h.94V42.29h-.94v65.9Z"/>
      </g>
    </g>
    <g id="patch_324" data-name="patch 324">
      <g class="cls-6">
        <path class="cls-69" d="M190.46,108.19h.94v-55.24h-.94v55.24Z"/>
      </g>
    </g>
    <g id="patch_325" data-name="patch 325">
      <g class="cls-7">
        <path class="cls-69" d="M191.4,108.19h.94v-46.03h-.94v46.03Z"/>
      </g>
    </g>
    <g id="patch_326" data-name="patch 326">
      <g class="cls-77">
        <path class="cls-69" d="M192.34,108.19h.94v-57.42h-.94v57.42Z"/>
      </g>
    </g>
    <g id="patch_327" data-name="patch 327">
      <g class="cls-49">
        <path class="cls-69" d="M193.28,108.19h.94V35.75h-.94v72.44Z"/>
      </g>
    </g>
    <g id="patch_328" data-name="patch 328">
      <g class="cls-51">
        <path class="cls-69" d="M194.22,108.19h.94V23.88h-.94v84.31Z"/>
      </g>
    </g>
    <g id="patch_329" data-name="patch 329">
      <g class="cls-62">
        <path class="cls-69" d="M195.16,108.19h.94V35.99h-.94v72.2Z"/>
      </g>
    </g>
    <g id="patch_330" data-name="patch 330">
      <g class="cls-86">
        <path class="cls-69" d="M196.1,108.19h.94V36.23h-.94v71.96Z"/>
      </g>
    </g>
    <g id="patch_331" data-name="patch 331">
      <g class="cls-105">
        <path class="cls-69" d="M197.04,108.19h.94v-49.91h-.94v49.91Z"/>
      </g>
    </g>
    <g id="patch_332" data-name="patch 332">
      <g class="cls-88">
        <path class="cls-69" d="M197.98,108.19h.94v-34.4h-.94v34.4Z"/>
      </g>
    </g>
    <g id="patch_333" data-name="patch 333">
      <g class="cls-11">
        <path class="cls-69" d="M198.92,108.19h.94v-26.65h-.94v26.65Z"/>
      </g>
    </g>
    <g id="patch_334" data-name="patch 334">
      <g class="cls-99">
        <path class="cls-69" d="M199.86,108.19h.94v-21.81h-.94v21.81Z"/>
      </g>
    </g>
    <g id="patch_335" data-name="patch 335">
      <g class="cls-8">
        <path class="cls-69" d="M200.8,108.19h.94v-26.17h-.94v26.17Z"/>
      </g>
    </g>
    <g id="patch_336" data-name="patch 336">
      <g class="cls-33">
        <path class="cls-69" d="M201.74,108.19h.94v-29.56h-.94v29.56Z"/>
      </g>
    </g>
    <g id="patch_337" data-name="patch 337">
      <g class="cls-90">
        <path class="cls-69" d="M202.68,108.19h.94v-33.92h-.94v33.92Z"/>
      </g>
    </g>
    <g id="patch_338" data-name="patch 338">
      <g class="cls-76">
        <path class="cls-69" d="M203.62,108.19h.94v-31.98h-.94v31.98Z"/>
      </g>
    </g>
    <g id="patch_339" data-name="patch 339">
      <g class="cls-5">
        <path class="cls-69" d="M204.56,108.19h.94v-23.5h-.94v23.5Z"/>
      </g>
    </g>
    <g id="patch_340" data-name="patch 340">
      <g class="cls-38">
        <path class="cls-69" d="M205.5,108.19h.94v-16.48h-.94v16.48Z"/>
      </g>
    </g>
    <g id="patch_341" data-name="patch 341">
      <g class="cls-39">
        <path class="cls-69" d="M206.44,108.19h.94v-8.96h-.94v8.96Z"/>
      </g>
    </g>
    <g id="patch_342" data-name="patch 342">
      <g class="cls-110">
        <path class="cls-69" d="M207.38,108.19h.94v-4.12h-.94v4.12Z"/>
      </g>
    </g>
    <g id="patch_343" data-name="patch 343">
      <g class="cls-55">
        <path class="cls-69" d="M208.32,108.19h.94v-2.42h-.94v2.42Z"/>
      </g>
    </g>
    <g id="patch_344" data-name="patch 344">
      <g class="cls-84">
        <path class="cls-69" d="M209.26,108.19h.94v-.97h-.94v.97Z"/>
      </g>
    </g>
    <g id="patch_345" data-name="patch 345">
      <g class="cls-57">
        <path class="cls-69" d="M210.2,108.19h.94v-.48h-.94v.48Z"/>
      </g>
    </g>
    <g id="patch_346" data-name="patch 346">
      <g class="cls-66">
        <path class="cls-69" d="M211.14,108.19h.94v-1.45h-.94v1.45Z"/>
      </g>
    </g>
    <g id="patch_347" data-name="patch 347">
      <g class="cls-101">
        <path class="cls-69" d="M212.08,108.19h.94v-.97h-.94v.97Z"/>
      </g>
    </g>
    <g id="patch_348" data-name="patch 348">
      <g class="cls-89">
        <path class="cls-69" d="M213.02,108.19h.94v-.24h-.94v.24Z"/>
      </g>
    </g>
    <g id="patch_352" data-name="patch 352">
      <g class="cls-3">
        <path class="cls-69" d="M216.78,108.19h.94v-.24h-.94v.24Z"/>
      </g>
    </g>
    <g id="patch_353" data-name="patch 353">
      <g class="cls-65">
        <path class="cls-69" d="M217.72,108.19h.94v-.48h-.94v.48Z"/>
      </g>
    </g>
    <g id="patch_356" data-name="patch 356">
      <g class="cls-4">
        <path class="cls-69" d="M220.54,108.19h.94v-.24h-.94v.24Z"/>
      </g>
    </g>
    <g id="patch_359" data-name="patch 359">
      <g class="cls-79">
        <path class="cls-69" d="M223.36,108.19h.94v-.24h-.94v.24Z"/>
      </g>
    </g>
    <g id="patch_367" data-name="patch 367">
      <g class="cls-103">
        <path class="cls-69" d="M230.88,108.19h.94v-.24h-.94v.24Z"/>
      </g>
    </g>
    <g id="patch_368" data-name="patch 368">
      <g class="cls-87">
        <path class="cls-68" d="M193.78,108.19h1.97v-.37h-1.97v.37Z"/>
      </g>
    </g>
    <g id="patch_369" data-name="patch 369">
      <g class="cls-1">
        <path class="cls-68" d="M195.75,108.19h1.97v-.25h-1.97v.25Z"/>
      </g>
    </g>
    <g id="patch_370" data-name="patch 370">
      <g class="cls-78">
        <path class="cls-68" d="M197.72,108.19h1.97v-.12h-1.97v.12Z"/>
      </g>
    </g>
    <g id="patch_371" data-name="patch 371">
      <g class="cls-98">
        <path class="cls-68" d="M199.69,108.19h1.97v-.12h-1.97v.12Z"/>
      </g>
    </g>
    <g id="patch_372" data-name="patch 372">
      <g class="cls-47">
        <path class="cls-68" d="M201.66,108.19h1.97v-.12h-1.97v.12Z"/>
      </g>
    </g>
    <g id="patch_373" data-name="patch 373">
      <g class="cls-93">
        <path class="cls-68" d="M203.62,108.19h1.97v-.62h-1.97v.62Z"/>
      </g>
    </g>
    <g id="patch_374" data-name="patch 374">
      <g class="cls-71">
        <path class="cls-68" d="M205.59,108.19h1.97v-.74h-1.97v.74Z"/>
      </g>
    </g>
    <g id="patch_375" data-name="patch 375">
      <g class="cls-63">
        <path class="cls-68" d="M207.56,108.19h1.97v-6.07h-1.97v6.07Z"/>
      </g>
    </g>
    <g id="patch_376" data-name="patch 376">
      <g class="cls-104">
        <path class="cls-68" d="M209.53,108.19h1.97v-26.02h-1.97v26.02Z"/>
      </g>
    </g>
    <g id="patch_377" data-name="patch 377">
      <g class="cls-53">
        <path class="cls-68" d="M211.5,108.19h1.97V42.02h-1.97v66.17Z"/>
      </g>
    </g>
    <g id="patch_378" data-name="patch 378">
      <g class="cls-60">
        <path class="cls-68" d="M213.47,108.19h1.97V24.67h-1.97v83.52Z"/>
      </g>
    </g>
    <g id="patch_379" data-name="patch 379">
      <g class="cls-31">
        <path class="cls-68" d="M215.44,108.19h1.97V36.07h-1.97v72.12Z"/>
      </g>
    </g>
    <g id="patch_380" data-name="patch 380">
      <g class="cls-116">
        <path class="cls-68" d="M217.41,108.19h1.97v-49.81h-1.97v49.81Z"/>
      </g>
    </g>
    <g id="patch_381" data-name="patch 381">
      <g class="cls-109">
        <path class="cls-68" d="M219.38,108.19h1.97v-42.63h-1.97v42.63Z"/>
      </g>
    </g>
    <g id="patch_382" data-name="patch 382">
      <g class="cls-54">
        <path class="cls-68" d="M221.35,108.19h1.97v-35.32h-1.97v35.32Z"/>
      </g>
    </g>
    <g id="patch_383" data-name="patch 383">
      <g class="cls-115">
        <path class="cls-68" d="M223.31,108.19h1.97v-29.12h-1.97v29.12Z"/>
      </g>
    </g>
    <g id="patch_384" data-name="patch 384">
      <g class="cls-48">
        <path class="cls-68" d="M225.28,108.19h1.97v-22.8h-1.97v22.8Z"/>
      </g>
    </g>
    <g id="patch_385" data-name="patch 385">
      <g class="cls-80">
        <path class="cls-68" d="M227.25,108.19h1.97v-18.34h-1.97v18.34Z"/>
      </g>
    </g>
    <g id="patch_386" data-name="patch 386">
      <g class="cls-114">
        <path class="cls-68" d="M229.22,108.19h1.97v-11.9h-1.97v11.9Z"/>
      </g>
    </g>
    <g id="patch_387" data-name="patch 387">
      <g class="cls-117">
        <path class="cls-68" d="M231.19,108.19h1.97v-6.82h-1.97v6.82Z"/>
      </g>
    </g>
    <g id="patch_388" data-name="patch 388">
      <g class="cls-50">
        <path class="cls-68" d="M233.16,108.19h1.97v-2.35h-1.97v2.35Z"/>
      </g>
    </g>
    <g id="patch_389" data-name="patch 389">
      <g class="cls-36">
        <path class="cls-68" d="M235.13,108.19h1.97v-1.24h-1.97v1.24Z"/>
      </g>
    </g>
    <g id="patch_390" data-name="patch 390">
      <g class="cls-92">
        <path class="cls-68" d="M237.1,108.19h1.97v-.12h-1.97v.12Z"/>
      </g>
    </g>
    <g id="patch_391" data-name="patch 391">
      <g class="cls-95">
        <path class="cls-68" d="M239.07,108.19h1.97v-.12h-1.97v.12Z"/>
      </g>
    </g>
    <g id="patch_392" data-name="patch 392">
      <g class="cls-81">
        <path class="cls-68" d="M241.03,108.19h1.97v-.12h-1.97v.12Z"/>
      </g>
    </g>
    <g id="patch_393" data-name="patch 393">
      <g class="cls-10">
        <path class="cls-68" d="M243,108.19h1.97v-.25h-1.97v.25Z"/>
      </g>
    </g>
    <g id="patch_396" data-name="patch 396">
      <g class="cls-91">
        <path class="cls-68" d="M248.91,108.19h1.97v-.12h-1.97v.12Z"/>
      </g>
    </g>
    <g id="patch_398" data-name="patch 398">
      <g class="cls-9">
        <path class="cls-68" d="M252.85,108.19h1.97v-.12h-1.97v.12Z"/>
      </g>
    </g>
    <g id="patch_404" data-name="patch 404">
      <g class="cls-108">
        <path class="cls-68" d="M264.66,108.19h1.97v-.12h-1.97v.12Z"/>
      </g>
    </g>
    <g id="patch_414" data-name="patch 414">
      <g class="cls-74">
        <path class="cls-68" d="M284.35,108.19h1.97v-.12h-1.97v.12Z"/>
      </g>
    </g>
    <g id="patch_417" data-name="patch 417">
      <g class="cls-73">
        <path class="cls-68" d="M290.26,108.19h1.97v-.12h-1.97v.12Z"/>
      </g>
    </g>
  </g>
  <g>
    <line class="cls-20" x1="93.9" y1="64.74" x2="99.59" y2="64.74"/>
    <polygon class="cls-41" points="98.86 67.23 103.18 64.74 98.86 62.24 98.86 67.23"/>
  </g>
  <g>
    <ellipse class="cls-24" cx="49.18" cy="283.78" rx="5.07" ry="4.57"/>
    <ellipse class="cls-24" cx="66.39" cy="302.97" rx="5.07" ry="4.57"/>
    <path class="cls-20" d="M54.24,284.39l12.14,14.01-12.14-14.01Z"/>
    <ellipse class="cls-24" cx="25.06" cy="291.65" rx="5.07" ry="4.57"/>
    <ellipse class="cls-24" cx="30.12" cy="317.01" rx="5.07" ry="4.57"/>
    <path class="cls-27" d="M51.02,288.03l3.22,25.37-3.22-25.37Z"/>
    <ellipse class="cls-26" cx="53" cy="317.83" rx="5.07" ry="4.57"/>
    <path class="cls-20" d="M29.69,293.5l31.63,8.76-31.63-8.76Z"/>
    <path class="cls-27" d="M47.94,317.83h-12.75,12.75Z"/>
    <path class="cls-20" d="M46.73,287.78l-16.02,24.69,16.02-24.69Z"/>
    <path class="cls-15" d="M29.58,289.59l14.53-5-14.53,5Z"/>
  </g>
  <g>
    <rect class="cls-20" x="219.93" y="266.2" width="46.42" height="54.59" rx="6" ry="6" transform="translate(536.65 50.35) rotate(90)"/>
    <path class="cls-22" d="M225.85,284.59c-3.18,0-5.76-2.58-5.76-5.76s2.58-5.76,5.76-5.76,5.76,2.58,5.76,5.76-2.58,5.76-5.76,5.76Z"/>
    <path class="cls-22" d="M225.85,299.93c-3.18,0-5.76-2.58-5.76-5.76s2.58-5.76,5.76-5.76,5.76,2.58,5.76,5.76-2.58,5.76-5.76,5.76Z"/>
    <path class="cls-22" d="M225.85,315.27c-3.18,0-5.76-2.58-5.76-5.76s2.58-5.76,5.76-5.76,5.76,2.58,5.76,5.76-2.58,5.76-5.76,5.76Z"/>
    <path class="cls-21" d="M243.61,292.8c-3.18,0-5.76-2.58-5.76-5.76s2.58-5.76,5.76-5.76,5.76,2.58,5.76,5.76-2.58,5.76-5.76,5.76Z"/>
    <path class="cls-21" d="M243.61,308.79c-3.18,0-5.76-2.58-5.76-5.76s2.58-5.76,5.76-5.76,5.76,2.58,5.76,5.76-2.58,5.76-5.76,5.76Z"/>
    <path class="cls-16" d="M260.85,300.47c-3.18,0-5.76-2.58-5.76-5.76s2.58-5.76,5.76-5.76,5.76,2.58,5.76,5.76-2.58,5.76-5.76,5.76Z"/>
    <line class="cls-20" x1="231.61" y1="278.82" x2="237.85" y2="287.04"/>
    <line class="cls-20" x1="231.61" y1="278.82" x2="237.85" y2="303.03"/>
    <line class="cls-20" x1="231.61" y1="294.16" x2="237.85" y2="303.03"/>
    <line class="cls-20" x1="231.61" y1="294.16" x2="237.85" y2="287.04"/>
    <line class="cls-20" x1="231.61" y1="309.51" x2="237.85" y2="303.03"/>
    <line class="cls-20" x1="237.85" y1="287.04" x2="231.61" y2="309.51"/>
    <line class="cls-20" x1="249.37" y1="287.04" x2="255.09" y2="294.71"/>
    <line class="cls-20" x1="255.09" y1="294.71" x2="249.37" y2="303.03"/>
  </g>
  <text class="cls-40" transform="translate(153.71 341.88)"><tspan x="0" y="0">Pooling</tspan></text>
  <text class="cls-40" transform="translate(380.56 117.3)"><tspan x="0" y="0">Fusion</tspan></text>
  <g>
    <rect class="cls-20" x="359.41" y="121.27" width="74.28" height="87.35" rx="6" ry="6" transform="translate(561.49 -231.61) rotate(90)"/>
    <path class="cls-13" d="M368.87,150.68c-5.09,0-9.22-4.12-9.22-9.22s4.13-9.22,9.22-9.22,9.22,4.12,9.22,9.22-4.13,9.22-9.22,9.22Z"/>
    <path class="cls-13" d="M368.87,175.22c-5.09,0-9.22-4.12-9.22-9.22s4.13-9.22,9.22-9.22,9.22,4.12,9.22,9.22-4.13,9.22-9.22,9.22Z"/>
    <path class="cls-13" d="M368.87,199.77c-5.09,0-9.22-4.12-9.22-9.22s4.13-9.22,9.22-9.22,9.22,4.12,9.22,9.22-4.13,9.22-9.22,9.22Z"/>
    <path class="cls-18" d="M397.29,163.82c-5.09,0-9.22-4.12-9.22-9.22s4.13-9.22,9.22-9.22,9.22,4.12,9.22,9.22-4.13,9.22-9.22,9.22Z"/>
    <path class="cls-18" d="M397.29,189.41c-5.09,0-9.22-4.12-9.22-9.22s4.13-9.22,9.22-9.22,9.22,4.12,9.22,9.22-4.13,9.22-9.22,9.22Z"/>
    <path class="cls-19" d="M424.87,176.1c-5.09,0-9.22-4.12-9.22-9.22s4.13-9.22,9.22-9.22,9.22,4.12,9.22,9.22-4.13,9.22-9.22,9.22Z"/>
    <line class="cls-20" x1="378.09" y1="141.46" x2="388.07" y2="154.61"/>
    <line class="cls-20" x1="378.09" y1="141.46" x2="388.07" y2="180.19"/>
    <line class="cls-20" x1="378.09" y1="166" x2="388.07" y2="180.19"/>
    <line class="cls-20" x1="378.09" y1="166" x2="388.07" y2="154.61"/>
    <line class="cls-20" x1="378.09" y1="190.55" x2="388.07" y2="180.19"/>
    <line class="cls-20" x1="388.07" y1="154.61" x2="378.09" y2="190.55"/>
    <line class="cls-20" x1="406.51" y1="154.61" x2="415.65" y2="166.88"/>
    <line class="cls-20" x1="415.65" y1="166.88" x2="406.51" y2="180.19"/>
  </g>
  <g>
    <rect class="cls-107" x="77.73" y="60.75" width="8.51" height="8.54"/>
    <rect class="cls-17" x="77.73" y="60.75" width="8.51" height="8.54"/>
  </g>
  <g id="Teacher_GAT_block-2" data-name="Teacher GAT block">
    <rect class="cls-15" x="100.85" y="264.95" width="52.99" height="55.22" rx="6" ry="6" transform="translate(419.9 165.22) rotate(90)"/>
    <rect class="cls-15" x="99.6" y="268.49" width="52.99" height="55.22" rx="6" ry="6" transform="translate(422.21 170.01) rotate(90)"/>
    <rect class="cls-15" x="98.36" y="272.04" width="52.99" height="55.22" rx="6" ry="6" transform="translate(424.51 174.8) rotate(90)"/>
    <rect class="cls-15" x="97.12" y="275.59" width="52.99" height="55.22" rx="6" ry="6" transform="translate(426.81 179.58) rotate(90)"/>
  </g>
  <g>
    <ellipse class="cls-24" cx="127.47" cy="284.63" rx="5.07" ry="4.57"/>
    <ellipse class="cls-24" cx="144.68" cy="303.82" rx="5.07" ry="4.57"/>
    <path class="cls-20" d="M132.54,285.24l12.14,14.01-12.14-14.01Z"/>
    <ellipse class="cls-24" cx="103.35" cy="292.5" rx="5.07" ry="4.57"/>
    <ellipse class="cls-24" cx="108.42" cy="317.86" rx="5.07" ry="4.57"/>
    <path class="cls-27" d="M129.32,288.88l3.22,25.37-3.22-25.37Z"/>
    <ellipse class="cls-26" cx="131.3" cy="318.68" rx="5.07" ry="4.57"/>
    <path class="cls-20" d="M107.98,294.35l31.63,8.76-31.63-8.76Z"/>
    <path class="cls-27" d="M126.23,318.68h-12.75,12.75Z"/>
    <path class="cls-20" d="M125.02,288.63l-16.02,24.69,16.02-24.69Z"/>
    <path class="cls-15" d="M107.88,290.44l14.53-5-14.53,5Z"/>
  </g>
  <g>
    <line class="cls-20" x1="160.82" y1="294.35" x2="170.72" y2="294.35"/>
    <polygon class="cls-41" points="169.99 296.84 174.31 294.35 169.99 291.85 169.99 296.84"/>
  </g>
  <g>
    <path class="cls-35" d="M38.14,166.28h-21.14c-2.82,0-5.29-2.29-5.29-5.29h0c0-2.82,2.29-5.29,5.29-5.29h21.14c2.82,0,5.29,2.29,5.29,5.29h0c0,3-2.29,5.29-5.29,5.29Z"/>
    <path class="cls-35" d="M32.85,134.56h-7.05v8.81h-5.29c-3.88,0-7.05,3.17-7.05,7.05h26.43v-7.05l-7.05-8.81Z"/>
    <line class="cls-35" x1="18.76" y1="160.99" x2="18.76" y2="160.99"/>
    <line class="cls-35" x1="36.38" y1="160.99" x2="36.38" y2="160.99"/>
    <line class="cls-35" x1="27.57" y1="160.99" x2="27.57" y2="160.99"/>
    <path class="cls-35" d="M45.19,143.37l12.33-3.52-.88,4.58c-.53,2.47-2.64,4.23-5.11,4.23h0c-1.76,0-3.35-.88-4.4-2.29l-1.94-3Z"/>
    <polyline class="cls-35" points="57.52 139.85 48.71 120.47 36.38 120.47 25.81 134.56 32.85 134.56 36.38 120.47"/>
    <line class="cls-35" x1="52.24" y1="139.85" x2="43.43" y2="120.47"/>
    <line class="cls-35" x1="45.19" y1="139.85" x2="45.19" y2="143.37"/>
    <path class="cls-35" d="M25.81,139.85h4.76c.88,2.11,3,3.52,5.11,3.52h4.23"/>
  </g>
  <g>
    <path class="cls-102" d="M46.68,181.76H13.7c-1.13,0-2.06.81-2.06,1.8v24.27c0,.99.93,1.8,2.06,1.8h32.98c1.14,0,2.06-.81,2.06-1.8v-24.27c0-.99-.93-1.8-2.06-1.8Z"/>
    <path class="cls-61" d="M60.09,207.83H22.98c-.57,0-1.03.4-1.03.9v3.59c0,.5.46.9,1.03.9h37.11c.57,0,1.03-.4,1.03-.9v-3.59c0-.5-.46-.9-1.03-.9Z"/>
    <path class="cls-46" d="M46.68,181.76H13.7c-1.13,0-2.06.81-2.06,1.8v4.49h37.11v-4.49c0-.99-.93-1.8-2.06-1.8Z"/>
    <g>
      <path class="cls-61" d="M18.85,185.35c-.57,0-1.03-.4-1.03-.9v-3.6c0-.5.46-.9,1.03-.9s1.03.4,1.03.9v3.6c0,.5-.46.9-1.03.9Z"/>
      <path class="cls-61" d="M27.1,185.35c-.57,0-1.03-.4-1.03-.9v-3.6c0-.5.46-.9,1.03-.9s1.03.4,1.03.9v3.6c0,.5-.46.9-1.03.9Z"/>
      <path class="cls-61" d="M35.35,185.35c-.57,0-1.03-.4-1.03-.9v-3.6c0-.5.46-.9,1.03-.9s1.03.4,1.03.9v3.6c0,.5-.46.9-1.03.9Z"/>
      <path class="cls-61" d="M43.59,185.35c-.57,0-1.03-.4-1.03-.9v-3.6c0-.5.46-.9,1.03-.9s1.03.4,1.03.9v3.6c0,.5-.46.9-1.03.9Z"/>
    </g>
    <g>
      <rect class="cls-2" x="16.79" y="190.75" width="6.18" height="5.39"/>
      <rect class="cls-2" x="27.1" y="190.75" width="6.18" height="5.39"/>
      <rect class="cls-2" x="37.41" y="190.75" width="6.18" height="5.39"/>
      <rect class="cls-2" x="16.79" y="199.74" width="6.18" height="5.39"/>
      <rect class="cls-2" x="27.1" y="199.74" width="6.18" height="5.39"/>
      <rect class="cls-2" x="37.41" y="199.74" width="6.18" height="5.39"/>
    </g>
    <path class="cls-106" d="M29.16,204.23c-1.71,0-3.09,1.21-3.09,2.7v7.19c0,1.49,1.39,2.7,3.09,2.7s3.09-1.21,3.09-2.7v-7.19c0-1.49-1.39-2.7-3.09-2.7Z"/>
    <path class="cls-46" d="M34.32,201.53c-1.7,0-3.09,1.21-3.09,2.7v12.59c0,1.49,1.39,2.7,3.09,2.7s3.09-1.21,3.09-2.7v-12.59c0-1.49-1.39-2.7-3.09-2.7Z"/>
    <path class="cls-106" d="M53.9,204.23c-1.71,0-3.09,1.21-3.09,2.7v7.19c0,1.49,1.39,2.7,3.09,2.7s3.09-1.21,3.09-2.7v-7.19c0-1.49-1.39-2.7-3.09-2.7Z"/>
    <path class="cls-46" d="M48.75,201.53c-1.71,0-3.09,1.21-3.09,2.7v12.59c0,1.49,1.39,2.7,3.09,2.7s3.09-1.21,3.09-2.7v-12.59c0-1.49-1.39-2.7-3.09-2.7Z"/>
    <g>
      <path class="cls-94" d="M61.11,209.62c-.26,0-.53.09-.73.26-.4.35-.4.92,0,1.27.2.18.47.26.73.26v-1.8Z"/>
      <path class="cls-94" d="M21.95,209.62v1.8c.26,0,.53-.09.73-.26.4-.35.4-.92,0-1.27-.2-.18-.47-.26-.73-.26Z"/>
    </g>
  </g>
  <text class="cls-40" transform="translate(72.95 140.94)"><tspan x="0" y="0">VGAE “hard mining” </tspan><tspan x="0" y="16.8">normal samples</tspan></text>
  <text class="cls-40" transform="translate(69.22 202.43)"><tspan x="0" y="0">G</tspan><tspan class="cls-59" x="10.11" y="0">A</tspan><tspan class="cls-85" x="18.67" y="0">T</tspan><tspan x="26.97" y="0" xml:space="preserve"> curriculum learning</tspan></text>
  <text class="cls-40" transform="translate(238.37 244.3)"><tspan x="0" y="0">15D State Space</tspan></text>
  <g>
    <rect class="cls-20" x="224.92" y="133.91" width="119.3" height="72.87" rx="6" ry="6" transform="translate(454.93 -114.23) rotate(90)"/>
    <g>
      <rect class="cls-37" x="284.83" y="136.23" width="12.81" height="12.77"/>
      <rect class="cls-17" x="284.83" y="136.23" width="12.81" height="12.77"/>
    </g>
    <g>
      <rect class="cls-113" x="270.54" y="136.23" width="12.81" height="12.77"/>
      <rect class="cls-17" x="270.54" y="136.23" width="12.81" height="12.77"/>
    </g>
    <g>
      <rect class="cls-111" x="299.13" y="136.23" width="12.81" height="12.77"/>
      <rect class="cls-17" x="299.13" y="136.23" width="12.81" height="12.77"/>
    </g>
    <g>
      <rect class="cls-82" x="256.25" y="136.23" width="12.81" height="12.77"/>
      <rect class="cls-17" x="256.25" y="136.23" width="12.81" height="12.77"/>
    </g>
    <g>
      <rect class="cls-37" x="284.83" y="114.89" width="12.81" height="12.77"/>
      <rect class="cls-17" x="284.83" y="114.89" width="12.81" height="12.77"/>
    </g>
    <g>
      <rect class="cls-113" x="270.54" y="114.89" width="12.81" height="12.77"/>
      <rect class="cls-17" x="270.54" y="114.89" width="12.81" height="12.77"/>
    </g>
    <g>
      <rect class="cls-111" x="299.13" y="114.89" width="12.81" height="12.77"/>
      <rect class="cls-17" x="299.13" y="114.89" width="12.81" height="12.77"/>
    </g>
    <g>
      <rect class="cls-82" x="256.25" y="114.89" width="12.81" height="12.77"/>
      <rect class="cls-17" x="256.25" y="114.89" width="12.81" height="12.77"/>
    </g>
    <g>
      <g>
        <rect class="cls-56" x="285.58" y="198.79" width="12.81" height="12.77"/>
        <rect class="cls-17" x="285.58" y="198.79" width="12.81" height="12.77"/>
      </g>
      <g>
        <rect class="cls-72" x="271.28" y="198.79" width="12.81" height="12.77"/>
        <rect class="cls-17" x="271.28" y="198.79" width="12.81" height="12.77"/>
      </g>
      <g>
        <rect class="cls-52" x="299.87" y="198.79" width="12.81" height="12.77"/>
        <rect class="cls-17" x="299.87" y="198.79" width="12.81" height="12.77"/>
      </g>
      <g>
        <rect class="cls-32" x="256.99" y="198.79" width="12.81" height="12.77"/>
        <rect class="cls-17" x="256.99" y="198.79" width="12.81" height="12.77"/>
      </g>
      <g>
        <rect class="cls-56" x="285.58" y="177.45" width="12.81" height="12.77"/>
        <rect class="cls-17" x="285.58" y="177.45" width="12.81" height="12.77"/>
      </g>
      <g>
        <rect class="cls-72" x="271.28" y="177.45" width="12.81" height="12.77"/>
        <rect class="cls-17" x="271.28" y="177.45" width="12.81" height="12.77"/>
      </g>
      <g>
        <rect class="cls-32" x="256.99" y="177.45" width="12.81" height="12.77"/>
        <rect class="cls-17" x="256.99" y="177.45" width="12.81" height="12.77"/>
      </g>
    </g>
    <text class="cls-40" transform="translate(262.65 166.37)"><tspan x="0" y="0">VGAE</tspan></text>
    <text class="cls-40" transform="translate(268.11 224.32)"><tspan x="0" y="0">G</tspan><tspan class="cls-59" x="10.11" y="0">A</tspan><tspan class="cls-85" x="18.67" y="0">T</tspan></text>
  </g>
  <g>
    <line class="cls-28" x1="324.98" y1="166.28" x2="343.58" y2="166.28"/>
    <polygon class="cls-41" points="342.13 171.26 350.76 166.28 342.13 161.29 342.13 171.26"/>
  </g>
  <g>
    <line class="cls-28" x1="443.38" y1="166.08" x2="461.98" y2="166.08"/>
    <polygon class="cls-41" points="460.52 171.07 469.16 166.08 460.52 161.1 460.52 171.07"/>
  </g>
</svg>