<?xml version="1.0" encoding="UTF-8" standalone="no"?>
<!DOCTYPE svg PUBLIC "-//W3C//DTD SVG 1.1//EN"
 "http://www.w3.org/Graphics/SVG/1.1/DTD/svg11.dtd">
<!-- Generated by graphviz version 2.44.0 (0)
 -->
<!-- Pages: 1 -->
<svg width="1804pt" height="405pt"
 viewBox="14.40 14.40 1789.40 390.40" xmlns="http://www.w3.org/2000/svg" xmlns:xlink="http://www.w3.org/1999/xlink">
<g id="graph0" class="graph" transform="scale(1 1) rotate(0) translate(18.4 386.4)">
<polygon fill="white" stroke="transparent" points="-4,4 -4,-372 1771,-372 1771,4 -4,4"/>
<!-- input_0x1A0 -->
<g id="node1" class="node">
<title>input_0x1A0</title>
<ellipse fill="#d9edeb" stroke="#76b7b2" cx="29" cy="-222" rx="29" ry="29"/>
<text text-anchor="middle" x="29" y="-220.1" font-family="CMU Serif" font-size="8.00" fill="#333333">0x1A0</text>
</g>
<!-- input_0x2B3 -->
<g id="node2" class="node">
<title>input_0x2B3</title>
<ellipse fill="#d9edeb" stroke="#76b7b2" cx="196" cy="-339" rx="29" ry="29"/>
<text text-anchor="middle" x="196" y="-337.1" font-family="CMU Serif" font-size="8.00" fill="#333333">0x2B3</text>
</g>
<!-- input_0x1A0&#45;&gt;input_0x2B3 -->
<g id="edge1" class="edge">
<title>input_0x1A0&#45;&gt;input_0x2B3</title>
<path fill="none" stroke="#76b7b2" stroke-width="0.6" stroke-opacity="0.501961" d="M53.29,-238.52C84.74,-260.81 140.44,-300.31 171.83,-322.57"/>
</g>
<!-- input_0x3C1 -->
<g id="node3" class="node">
<title>input_0x3C1</title>
<ellipse fill="#d9edeb" stroke="#76b7b2" cx="363" cy="-222" rx="29" ry="29"/>
<text text-anchor="middle" x="363" y="-220.1" font-family="CMU Serif" font-size="8.00" fill="#333333">0x3C1</text>
</g>
<!-- input_0x1A0&#45;&gt;input_0x3C1 -->
<g id="edge2" class="edge">
<title>input_0x1A0&#45;&gt;input_0x3C1</title>
<path fill="none" stroke="#76b7b2" stroke-width="0.6" stroke-opacity="0.501961" d="M58.02,-222C120.55,-222 270.91,-222 333.7,-222"/>
</g>
<!-- input_0x2B3&#45;&gt;input_0x3C1 -->
<g id="edge3" class="edge">
<title>input_0x2B3&#45;&gt;input_0x3C1</title>
<path fill="none" stroke="#76b7b2" stroke-width="0.6" stroke-opacity="0.501961" d="M220.29,-322.48C251.74,-300.19 307.44,-260.69 338.83,-238.43"/>
</g>
<!-- input_0x4D5 -->
<g id="node4" class="node">
<title>input_0x4D5</title>
<ellipse fill="#d9edeb" stroke="#76b7b2" cx="530" cy="-221" rx="29" ry="29"/>
<text text-anchor="middle" x="530" y="-219.1" font-family="CMU Serif" font-size="8.00" fill="#333333">0x4D5</text>
</g>
<!-- input_0x3C1&#45;&gt;input_0x4D5 -->
<g id="edge4" class="edge">
<title>input_0x3C1&#45;&gt;input_0x4D5</title>
<path fill="none" stroke="#76b7b2" stroke-width="0.6" stroke-opacity="0.501961" d="M392.36,-221.83C422.68,-221.64 470.45,-221.35 500.73,-221.17"/>
</g>
<!-- input_0x5E2 -->
<g id="node5" class="node">
<title>input_0x5E2</title>
<ellipse fill="#d9edeb" stroke="#76b7b2" cx="697" cy="-136" rx="29" ry="29"/>
<text text-anchor="middle" x="697" y="-134.1" font-family="CMU Serif" font-size="8.00" fill="#333333">0x5E2</text>
</g>
<!-- input_0x4D5&#45;&gt;input_0x5E2 -->
<g id="edge5" class="edge">
<title>input_0x4D5&#45;&gt;input_0x5E2</title>
<path fill="none" stroke="#76b7b2" stroke-width="0.6" stroke-opacity="0.501961" d="M556.06,-208.09C587.16,-192.07 639.89,-164.91 670.98,-148.89"/>
</g>
<!-- input_0x5E2&#45;&gt;input_0x1A0 -->
<g id="edge6" class="edge">
<title>input_0x5E2&#45;&gt;input_0x1A0</title>
<path fill="none" stroke="#76b7b2" stroke-width="0.6" stroke-opacity="0.501961" d="M669.16,-127.51C636.76,-118.03 580.46,-104 531,-104 195,-104 195,-104 195,-104 130.38,-104 73.62,-164.63 46.66,-198.97"/>
</g>
<!-- vgae_t -->
<g id="node6" class="node">
<title>vgae_t</title>
<path fill="#dae3ef" stroke="#4e79a7" d="M902,-154C902,-154 847,-154 847,-154 841,-154 835,-148 835,-142 835,-142 835,-130 835,-130 835,-124 841,-118 847,-118 847,-118 902,-118 902,-118 908,-118 914,-124 914,-130 914,-130 914,-142 914,-142 914,-148 908,-154 902,-154"/>
<text text-anchor="middle" x="874.5" y="-133.8" font-family="CMU Serif" font-size="9.00" fill="#333333">VGAE Teacher</text>
</g>
<!-- input_0x5E2&#45;&gt;vgae_t -->
<g id="edge7" class="edge">
<title>input_0x5E2&#45;&gt;vgae_t</title>
<path fill="none" stroke="#bab0ac" d="M726.2,-136C752.66,-136 792.81,-136 824.51,-136"/>
<polygon fill="#bab0ac" stroke="#bab0ac" points="824.9,-139.5 834.9,-136 824.9,-132.5 824.9,-139.5"/>
</g>
<!-- gat_t -->
<g id="node7" class="node">
<title>gat_t</title>
<path fill="#fde8d0" stroke="#f28e2b" d="M1122,-266C1122,-266 1075,-266 1075,-266 1069,-266 1063,-260 1063,-254 1063,-254 1063,-242 1063,-242 1063,-236 1069,-230 1075,-230 1075,-230 1122,-230 1122,-230 1128,-230 1134,-236 1134,-242 1134,-242 1134,-254 1134,-254 1134,-260 1128,-266 1122,-266"/>
<text text-anchor="middle" x="1098.5" y="-245.8" font-family="CMU Serif" font-size="9.00" fill="#333333">GAT Teacher</text>
</g>
<!-- vgae_t&#45;&gt;gat_t -->
<g id="edge8" class="edge">
<title>vgae_t&#45;&gt;gat_t</title>
<path fill="none" stroke="#bab0ac" d="M911.66,-154.24C950.5,-173.84 1012.21,-204.97 1053.76,-225.93"/>
<polygon fill="#bab0ac" stroke="#bab0ac" points="1052.31,-229.12 1062.82,-230.5 1055.46,-222.87 1052.31,-229.12"/>
<text text-anchor="middle" x="988.5" y="-204.2" font-family="CMU Serif" font-size="6.00" fill="grey">hard samples</text>
</g>
<!-- dqn -->
<g id="node8" class="node">
<title>dqn</title>
<path fill="#d7e8d3" stroke="#59a14f" d="M1562,-207C1562,-207 1518,-207 1518,-207 1512,-207 1506,-201 1506,-195 1506,-195 1506,-183 1506,-183 1506,-177 1512,-171 1518,-171 1518,-171 1562,-171 1562,-171 1568,-171 1574,-177 1574,-183 1574,-183 1574,-195 1574,-195 1574,-201 1568,-207 1562,-207"/>
<text text-anchor="middle" x="1540" y="-186.8" font-family="CMU Serif" font-size="9.00" fill="#333333">DQN Fusion</text>
</g>
<!-- vgae_t&#45;&gt;dqn -->
<g id="edge9" class="edge">
<title>vgae_t&#45;&gt;dqn</title>
<path fill="none" stroke="#bab0ac" d="M914.04,-139.08C1029.87,-148.33 1374.34,-175.85 1495.92,-185.56"/>
<polygon fill="#bab0ac" stroke="#bab0ac" points="1495.73,-189.05 1505.97,-186.36 1496.29,-182.08 1495.73,-189.05"/>
<text text-anchor="middle" x="1228.5" y="-169.2" font-family="CMU Serif" font-size="6.00" fill="grey">recon error</text>
</g>
<!-- vgae_s -->
<g id="node9" class="node">
<title>vgae_s</title>
<path fill="#dae3ef" stroke="#4e79a7" d="M1257,-36C1257,-36 1200,-36 1200,-36 1194,-36 1188,-30 1188,-24 1188,-24 1188,-12 1188,-12 1188,-6 1194,0 1200,0 1200,0 1257,0 1257,0 1263,0 1269,-6 1269,-12 1269,-12 1269,-24 1269,-24 1269,-30 1263,-36 1257,-36"/>
<text text-anchor="middle" x="1228.5" y="-15.8" font-family="CMU Serif" font-size="9.00" fill="#333333">VGAE Student</text>
</g>
<!-- vgae_t&#45;&gt;vgae_s -->
<!-- vgae_t&#45;&gt;vgae_s -->
<g id="edge11" class="edge">
<title>vgae_t&#45;&gt;vgae_s</title>
<path fill="none" stroke="#e15759" stroke-dasharray="5,2" d="M892.27,-117.86C909.65,-100.04 938.37,-73.25 968,-57 1034.05,-20.78 1123.03,-15.08 1177.77,-15.58"/>
<polygon fill="#e15759" stroke="#e15759" points="1177.85,-19.08 1187.91,-15.75 1177.97,-12.09 1177.85,-19.08"/>
<text text-anchor="middle" x="988.5" y="-59.2" font-family="CMU Serif" font-size="6.00" fill="grey">KD</text>
</g>
<!-- gat_t&#45;&gt;dqn -->
<g id="edge12" class="edge">
<title>gat_t&#45;&gt;dqn</title>
<path fill="none" stroke="#bab0ac" d="M1129.87,-266.07C1146.44,-274.88 1167.66,-284.52 1188,-289 1278.71,-308.99 1306.99,-311.95 1397,-289 1444.6,-276.86 1489.13,-239.67 1515.21,-214.23"/>
<polygon fill="#bab0ac" stroke="#bab0ac" points="1517.78,-216.62 1522.38,-207.08 1512.83,-211.66 1517.78,-216.62"/>
<text text-anchor="middle" x="1360" y="-305.2" font-family="CMU Serif" font-size="6.00" fill="grey">classification</text>
</g>
<!-- gat_s -->
<g id="node10" class="node">
<title>gat_s</title>
<path fill="#fde8d0" stroke="#f28e2b" d="M1385,-260C1385,-260 1335,-260 1335,-260 1329,-260 1323,-254 1323,-248 1323,-248 1323,-236 1323,-236 1323,-230 1329,-224 1335,-224 1335,-224 1385,-224 1385,-224 1391,-224 1397,-230 1397,-236 1397,-236 1397,-248 1397,-248 1397,-254 1391,-260 1385,-260"/>
<text text-anchor="middle" x="1360" y="-239.8" font-family="CMU Serif" font-size="9.00" fill="#333333">GAT Student</text>
</g>
<!-- gat_t&#45;&gt;gat_s -->
<!-- gat_t&#45;&gt;gat_s -->
<g id="edge14" class="edge">
<title>gat_t&#45;&gt;gat_s</title>
<path fill="none" stroke="#e15759" stroke-dasharray="5,2" d="M1134.34,-235.76C1150.45,-230.73 1169.97,-225.5 1188,-223 1223.66,-218.06 1233.19,-219.26 1269,-223 1283.44,-224.51 1298.98,-227.34 1313.01,-230.37"/>
<polygon fill="#e15759" stroke="#e15759" points="1312.4,-233.82 1322.93,-232.59 1313.93,-226.99 1312.4,-233.82"/>
<text text-anchor="middle" x="1228.5" y="-225.2" font-family="CMU Serif" font-size="6.00" fill="grey">KD</text>
</g>
<!-- output -->
<g id="node11" class="node">
<title>output</title>
<path fill="#d9edeb" stroke="#76b7b2" d="M1755,-207C1755,-207 1695,-207 1695,-207 1689,-207 1683,-201 1683,-195 1683,-195 1683,-183 1683,-183 1683,-177 1689,-171 1695,-171 1695,-171 1755,-171 1755,-171 1761,-171 1767,-177 1767,-183 1767,-183 1767,-195 1767,-195 1767,-201 1761,-207 1755,-207"/>
<text text-anchor="middle" x="1725" y="-186.8" font-family="CMU Serif" font-size="9.00" fill="#333333">Anomaly Score</text>
</g>
<!-- dqn&#45;&gt;output -->
<g id="edge15" class="edge">
<title>dqn&#45;&gt;output</title>
<path fill="none" stroke="#bab0ac" d="M1574.14,-189C1601.53,-189 1640.9,-189 1672.41,-189"/>
<polygon fill="#bab0ac" stroke="#bab0ac" points="1672.77,-192.5 1682.77,-189 1672.77,-185.5 1672.77,-192.5"/>
</g>
<!-- vgae_s&#45;&gt;dqn -->
<g id="edge16" class="edge">
<title>vgae_s&#45;&gt;dqn</title>
<path fill="none" stroke="#bab0ac" stroke-dasharray="5,2" d="M1269.19,-24.76C1315.93,-34.11 1394.47,-54.27 1452,-92 1480.39,-110.62 1505.39,-140.74 1521.22,-162.48"/>
<polygon fill="#bab0ac" stroke="#bab0ac" points="1518.38,-164.53 1527.03,-170.65 1524.09,-160.48 1518.38,-164.53"/>
</g>
<!-- gat_s&#45;&gt;dqn -->
<g id="edge17" class="edge">
<title>gat_s&#45;&gt;dqn</title>
<path fill="none" stroke="#bab0ac" stroke-dasharray="5,2" d="M1397.02,-231.27C1425.59,-222.77 1465.6,-210.85 1495.88,-201.84"/>
<polygon fill="#bab0ac" stroke="#bab0ac" points="1497.15,-205.11 1505.74,-198.9 1495.16,-198.4 1497.15,-205.11"/>
</g>
</g>
</svg>
