<?xml version="1.0" encoding="UTF-8" standalone="no"?>
<!DOCTYPE svg PUBLIC "-//W3C//DTD SVG 1.1//EN"
 "http://www.w3.org/Graphics/SVG/1.1/DTD/svg11.dtd">
<!-- Generated by graphviz version 2.44.0 (0)
 -->
<!-- Pages: 1 -->
<svg width="293pt" height="356pt"
 viewBox="14.40 14.40 278.54 341.83" xmlns="http://www.w3.org/2000/svg" xmlns:xlink="http://www.w3.org/1999/xlink">
<g id="graph0" class="graph" transform="scale(1 1) rotate(0) translate(18.4 337.83)">
<polygon fill="white" stroke="transparent" points="-4,4 -4,-323.43 260.14,-323.43 260.14,4 -4,4"/>
<!-- input_0x1A0 -->
<g id="node1" class="node">
<title>input_0x1A0</title>
<ellipse fill="#d9edeb" stroke="#76b7b2" cx="234.64" cy="-231.69" rx="21.5" ry="21.5"/>
<text text-anchor="middle" x="234.64" y="-229.79" font-family="CMU Serif" font-size="8.00" fill="#333333">0x1A0</text>
</g>
<!-- input_0x2B3 -->
<g id="node2" class="node">
<title>input_0x2B3</title>
<ellipse fill="#d9edeb" stroke="#76b7b2" cx="233.92" cy="-159.69" rx="21.5" ry="21.5"/>
<text text-anchor="middle" x="233.92" y="-157.79" font-family="CMU Serif" font-size="8.00" fill="#333333">0x2B3</text>
</g>
<!-- input_0x1A0&#45;&gt;input_0x2B3 -->
<g id="edge1" class="edge">
<title>input_0x1A0&#45;&gt;input_0x2B3</title>
<path fill="none" stroke="#76b7b2" stroke-opacity="0.501961" d="M234.43,-210.08C234.33,-200.97 234.23,-190.38 234.14,-181.27"/>
</g>
<!-- input_0x3C1 -->
<g id="node3" class="node">
<title>input_0x3C1</title>
<ellipse fill="#d9edeb" stroke="#76b7b2" cx="168.4" cy="-189.93" rx="21.5" ry="21.5"/>
<text text-anchor="middle" x="168.4" y="-188.03" font-family="CMU Serif" font-size="8.00" fill="#333333">0x3C1</text>
</g>
<!-- input_0x1A0&#45;&gt;input_0x3C1 -->
<g id="edge2" class="edge">
<title>input_0x1A0&#45;&gt;input_0x3C1</title>
<path fill="none" stroke="#76b7b2" stroke-opacity="0.501961" d="M216.19,-220.05C207,-214.26 195.93,-207.28 186.75,-201.5"/>
</g>
<!-- input_0x2B3&#45;&gt;input_0x3C1 -->
<g id="edge3" class="edge">
<title>input_0x2B3&#45;&gt;input_0x3C1</title>
<path fill="none" stroke="#76b7b2" stroke-opacity="0.501961" d="M214.26,-168.76C205.97,-172.59 196.34,-177.03 188.05,-180.86"/>
</g>
<!-- input_0x4D5 -->
<g id="node4" class="node">
<title>input_0x4D5</title>
<ellipse fill="#d9edeb" stroke="#76b7b2" cx="128.08" cy="-256.89" rx="21.5" ry="21.5"/>
<text text-anchor="middle" x="128.08" y="-254.99" font-family="CMU Serif" font-size="8.00" fill="#333333">0x4D5</text>
</g>
<!-- input_0x3C1&#45;&gt;input_0x4D5 -->
<g id="edge4" class="edge">
<title>input_0x3C1&#45;&gt;input_0x4D5</title>
<path fill="none" stroke="#76b7b2" stroke-opacity="0.501961" d="M157.17,-208.58C151.58,-217.86 144.84,-229.06 139.25,-238.33"/>
</g>
<!-- input_0x5E2 -->
<g id="node5" class="node">
<title>input_0x5E2</title>
<ellipse fill="#d9edeb" stroke="#76b7b2" cx="193.6" cy="-297.93" rx="21.5" ry="21.5"/>
<text text-anchor="middle" x="193.6" y="-296.03" font-family="CMU Serif" font-size="8.00" fill="#333333">0x5E2</text>
</g>
<!-- input_0x4D5&#45;&gt;input_0x5E2 -->
<g id="edge5" class="edge">
<title>input_0x4D5&#45;&gt;input_0x5E2</title>
<path fill="none" stroke="#76b7b2" stroke-opacity="0.501961" d="M146.33,-268.32C155.27,-273.91 166.01,-280.64 174.99,-286.27"/>
</g>
<!-- input_0x5E2&#45;&gt;input_0x1A0 -->
<g id="edge6" class="edge">
<title>input_0x5E2&#45;&gt;input_0x1A0</title>
<path fill="none" stroke="#76b7b2" stroke-opacity="0.501961" d="M205.03,-279.47C210.73,-270.29 217.59,-259.21 223.27,-250.04"/>
</g>
<!-- vgae_t -->
<g id="node6" class="node">
<title>vgae_t</title>
<path fill="#dae3ef" stroke="#4e79a7" d="M173.14,-182.48C173.14,-182.48 118.14,-182.48 118.14,-182.48 112.14,-182.48 106.14,-176.48 106.14,-170.48 106.14,-170.48 106.14,-158.48 106.14,-158.48 106.14,-152.48 112.14,-146.48 118.14,-146.48 118.14,-146.48 173.14,-146.48 173.14,-146.48 179.14,-146.48 185.14,-152.48 185.14,-158.48 185.14,-158.48 185.14,-170.48 185.14,-170.48 185.14,-176.48 179.14,-182.48 173.14,-182.48"/>
<text text-anchor="middle" x="145.64" y="-162.28" font-family="CMU Serif" font-size="9.00" fill="#333333">VGAE Teacher</text>
</g>
<!-- input_0x5E2&#45;&gt;vgae_t -->
<g id="edge7" class="edge">
<title>input_0x5E2&#45;&gt;vgae_t</title>
<path fill="none" stroke="#bab0ac" d="M186.32,-277.66C177.62,-253.46 163.11,-213.08 153.97,-187.66"/>
<polygon fill="#bab0ac" stroke="#bab0ac" points="155.56,-186.9 152.22,-182.79 152.26,-188.08 155.56,-186.9"/>
</g>
<!-- gat_t -->
<g id="node7" class="node">
<title>gat_t</title>
<path fill="#fde8d0" stroke="#f28e2b" d="M204.45,-103.17C204.45,-103.17 157.45,-103.17 157.45,-103.17 151.45,-103.17 145.45,-97.17 145.45,-91.17 145.45,-91.17 145.45,-79.17 145.45,-79.17 145.45,-73.17 151.45,-67.17 157.45,-67.17 157.45,-67.17 204.45,-67.17 204.45,-67.17 210.45,-67.17 216.45,-73.17 216.45,-79.17 216.45,-79.17 216.45,-91.17 216.45,-91.17 216.45,-97.17 210.45,-103.17 204.45,-103.17"/>
<text text-anchor="middle" x="180.95" y="-82.97" font-family="CMU Serif" font-size="9.00" fill="#333333">GAT Teacher</text>
</g>
<!-- vgae_t&#45;&gt;gat_t -->
<g id="edge8" class="edge">
<title>vgae_t&#45;&gt;gat_t</title>
<path fill="none" stroke="#bab0ac" d="M153.83,-146.08C158.9,-134.69 165.46,-119.98 170.85,-107.86"/>
<polygon fill="#bab0ac" stroke="#bab0ac" points="172.49,-108.47 172.93,-103.19 169.3,-107.05 172.49,-108.47"/>
<text text-anchor="middle" x="141.84" y="-122.17" font-family="CMU Serif" font-size="6.00" fill="grey">hard samples</text>
</g>
<!-- dqn -->
<g id="node8" class="node">
<title>dqn</title>
<path fill="#d7e8d3" stroke="#59a14f" d="M132.21,-105.77C132.21,-105.77 88.21,-105.77 88.21,-105.77 82.21,-105.77 76.21,-99.77 76.21,-93.77 76.21,-93.77 76.21,-81.77 76.21,-81.77 76.21,-75.77 82.21,-69.77 88.21,-69.77 88.21,-69.77 132.21,-69.77 132.21,-69.77 138.21,-69.77 144.21,-75.77 144.21,-81.77 144.21,-81.77 144.21,-93.77 144.21,-93.77 144.21,-99.77 138.21,-105.77 132.21,-105.77"/>
<text text-anchor="middle" x="110.21" y="-85.57" font-family="CMU Serif" font-size="9.00" fill="#333333">DQN Fusion</text>
</g>
<!-- vgae_t&#45;&gt;dqn -->
<g id="edge9" class="edge">
<title>vgae_t&#45;&gt;dqn</title>
<path fill="none" stroke="#bab0ac" d="M137.24,-146.3C132.3,-135.6 126.01,-121.97 120.74,-110.56"/>
<polygon fill="#bab0ac" stroke="#bab0ac" points="122.23,-109.63 118.55,-105.82 119.06,-111.09 122.23,-109.63"/>
<text text-anchor="middle" x="145.99" y="-130.63" font-family="CMU Serif" font-size="6.00" fill="grey">recon error</text>
</g>
<!-- vgae_s -->
<g id="node9" class="node">
<title>vgae_s</title>
<path fill="#dae3ef" stroke="#4e79a7" d="M96.45,-169.32C96.45,-169.32 39.45,-169.32 39.45,-169.32 33.45,-169.32 27.45,-163.32 27.45,-157.32 27.45,-157.32 27.45,-145.32 27.45,-145.32 27.45,-139.32 33.45,-133.32 39.45,-133.32 39.45,-133.32 96.45,-133.32 96.45,-133.32 102.45,-133.32 108.45,-139.32 108.45,-145.32 108.45,-145.32 108.45,-157.32 108.45,-157.32 108.45,-163.32 102.45,-169.32 96.45,-169.32"/>
<text text-anchor="middle" x="67.95" y="-149.12" font-family="CMU Serif" font-size="9.00" fill="#333333">VGAE Student</text>
</g>
<!-- vgae_t&#45;&gt;vgae_s -->
<g id="edge10" class="edge">
<title>vgae_t&#45;&gt;vgae_s</title>
<path fill="none" stroke="#e15759" stroke-dasharray="5,2" d="M105.89,-157.74C105.81,-157.73 105.74,-157.72 105.66,-157.71"/>
<polygon fill="#e15759" stroke="#e15759" points="110.66,-156.78 105.44,-157.67 110.07,-160.23 110.66,-156.78"/>
<text text-anchor="middle" x="101.27" y="-159.93" font-family="CMU Serif" font-size="6.00" fill="grey">KD</text>
</g>
<!-- gat_t&#45;&gt;dqn -->
<g id="edge11" class="edge">
<title>gat_t&#45;&gt;dqn</title>
<path fill="none" stroke="#bab0ac" d="M145.17,-86.49C145.03,-86.49 144.9,-86.5 144.76,-86.5"/>
<polygon fill="#bab0ac" stroke="#bab0ac" points="149.28,-84.58 144.35,-86.52 149.41,-88.08 149.28,-84.58"/>
<text text-anchor="middle" x="163.96" y="-88.7" font-family="CMU Serif" font-size="6.00" fill="grey">classification</text>
</g>
<!-- gat_s -->
<g id="node10" class="node">
<title>gat_s</title>
<path fill="#fde8d0" stroke="#f28e2b" d="M179.96,-36C179.96,-36 129.96,-36 129.96,-36 123.96,-36 117.96,-30 117.96,-24 117.96,-24 117.96,-12 117.96,-12 117.96,-6 123.96,0 129.96,0 129.96,0 179.96,0 179.96,0 185.96,0 191.96,-6 191.96,-12 191.96,-12 191.96,-24 191.96,-24 191.96,-30 185.96,-36 179.96,-36"/>
<text text-anchor="middle" x="154.96" y="-15.8" font-family="CMU Serif" font-size="9.00" fill="#333333">GAT Student</text>
</g>
<!-- gat_t&#45;&gt;gat_s -->
<g id="edge12" class="edge">
<title>gat_t&#45;&gt;gat_s</title>
<path fill="none" stroke="#e15759" stroke-dasharray="5,2" d="M173.99,-67.17C170.84,-59.04 167.09,-49.34 163.75,-40.72"/>
<polygon fill="#e15759" stroke="#e15759" points="165.38,-40.08 161.94,-36.05 162.12,-41.35 165.38,-40.08"/>
<text text-anchor="middle" x="164.37" y="-56.14" font-family="CMU Serif" font-size="6.00" fill="grey">KD</text>
</g>
<!-- output -->
<g id="node11" class="node">
<title>output</title>
<path fill="#d9edeb" stroke="#76b7b2" d="M72,-61.05C72,-61.05 12,-61.05 12,-61.05 6,-61.05 0,-55.05 0,-49.05 0,-49.05 0,-37.05 0,-37.05 0,-31.05 6,-25.05 12,-25.05 12,-25.05 72,-25.05 72,-25.05 78,-25.05 84,-31.05 84,-37.05 84,-37.05 84,-49.05 84,-49.05 84,-55.05 78,-61.05 72,-61.05"/>
<text text-anchor="middle" x="42" y="-40.85" font-family="CMU Serif" font-size="9.00" fill="#333333">Anomaly Score</text>
</g>
<!-- dqn&#45;&gt;output -->
<g id="edge13" class="edge">
<title>dqn&#45;&gt;output</title>
<path fill="none" stroke="#bab0ac" d="M82.47,-69.58C79.66,-67.74 76.79,-65.86 73.95,-64"/>
<polygon fill="#bab0ac" stroke="#bab0ac" points="74.64,-62.36 69.5,-61.08 72.72,-65.29 74.64,-62.36"/>
</g>
<!-- vgae_s&#45;&gt;dqn -->
<g id="edge14" class="edge">
<title>vgae_s&#45;&gt;dqn</title>
<path fill="none" stroke="#bab0ac" stroke-dasharray="5,2" d="M79.95,-133.28C84.64,-126.23 90.07,-118.06 95.03,-110.61"/>
<polygon fill="#bab0ac" stroke="#bab0ac" points="96.73,-111.21 98.04,-106.08 93.81,-109.27 96.73,-111.21"/>
</g>
<!-- gat_s&#45;&gt;dqn -->
<g id="edge15" class="edge">
<title>gat_s&#45;&gt;dqn</title>
<path fill="none" stroke="#bab0ac" stroke-dasharray="5,2" d="M143.2,-36.33C137.59,-45.08 130.83,-55.63 124.89,-64.89"/>
<polygon fill="#bab0ac" stroke="#bab0ac" points="123.27,-64.17 122.05,-69.32 126.22,-66.06 123.27,-64.17"/>
</g>
</g>
</svg>
