<?xml version="1.0" encoding="UTF-8" standalone="no"?>
<!DOCTYPE svg PUBLIC "-//W3C//DTD SVG 1.1//EN"
 "http://www.w3.org/Graphics/SVG/1.1/DTD/svg11.dtd">
<!-- Generated by graphviz version 2.44.0 (0)
 -->
<!-- Pages: 1 -->
<svg width="597pt" height="197pt"
 viewBox="14.40 14.40 582.96 182.64" xmlns="http://www.w3.org/2000/svg" xmlns:xlink="http://www.w3.org/1999/xlink">
<g id="graph0" class="graph" transform="scale(1 1) rotate(0) translate(18.4 178.64)">
<g id="clust1" class="cluster">
<title>cluster_attn</title>
<polygon fill="#b07aa1" fill-opacity="0.062745" stroke="#b07aa1" stroke-dasharray="5,2" stroke-opacity="0.376471" points="216,0 216,-160.24 344.56,-160.24 344.56,0 216,0"/>
<text text-anchor="middle" x="255" y="-149.04" font-family="CMU Serif" font-size="9.00" fill="#b07aa1" fill-opacity="0.564706">Attention: αᵥᵤ</text>
</g>
<g id="clust2" class="cluster">
<title>cluster_input</title>
<polygon fill="#f28e2b" fill-opacity="0.062745" stroke="#f28e2b" stroke-dasharray="5,2" stroke-opacity="0.376471" points="0,0 0,-160.24 128.56,-160.24 128.56,0 0,0"/>
<text text-anchor="middle" x="28.5" y="-149.04" font-family="CMU Serif" font-size="9.00" fill="#f28e2b" fill-opacity="0.564706">Input: hᵥ</text>
</g>
<g id="clust3" class="cluster">
<title>cluster_output</title>
<polygon fill="#f28e2b" fill-opacity="0.062745" stroke="#f28e2b" stroke-dasharray="5,2" stroke-opacity="0.376471" points="432,0 432,-160.24 560.56,-160.24 560.56,0 432,0"/>
<text text-anchor="middle" x="465.5" y="-149.04" font-family="CMU Serif" font-size="9.00" fill="#f28e2b" fill-opacity="0.564706">Output: h&#39;ᵥ</text>
</g>
<!-- attn_Wh₁ -->
<g id="node1" class="node">
<title>attn_Wh₁</title>
<ellipse fill="#e6d9e1" stroke="#b07aa1" cx="333.56" cy="-83" rx="11" ry="11"/>
<text text-anchor="middle" x="333.56" y="-81.1" font-family="CMU Serif" font-size="8.00" fill="#333333">Wh₁</text>
</g>
<!-- attn_Wh₂ -->
<g id="node2" class="node">
<title>attn_Wh₂</title>
<ellipse fill="#e6d9e1" stroke="#b07aa1" cx="332.84" cy="-11" rx="11" ry="11"/>
<text text-anchor="middle" x="332.84" y="-9.1" font-family="CMU Serif" font-size="8.00" fill="#333333">Wh₂</text>
</g>
<!-- attn_Wh₁&#45;&gt;attn_Wh₂ -->
<g id="edge14" class="edge">
<title>attn_Wh₁&#45;&gt;attn_Wh₂</title>
<path fill="none" stroke="#b07aa1" stroke-width="1.5" stroke-opacity="0.431373" d="M340.56,-74.39C344.49,-62.01 344.71,-39.06 341.39,-24.44"/>
<polygon fill="#b07aa1" fill-opacity="0.431373" stroke="#b07aa1" stroke-width="1.5" stroke-opacity="0.431373" points="343.03,-23.81 340.01,-19.46 339.66,-24.75 343.03,-23.81"/>
</g>
<!-- attn_Wh₃ -->
<g id="node3" class="node">
<title>attn_Wh₃</title>
<ellipse fill="#e6d9e1" stroke="#b07aa1" cx="267.32" cy="-41.96" rx="11" ry="11"/>
<text text-anchor="middle" x="267.32" y="-40.06" font-family="CMU Serif" font-size="8.00" fill="#333333">Wh₃</text>
</g>
<!-- attn_Wh₁&#45;&gt;attn_Wh₃ -->
<g id="edge15" class="edge">
<title>attn_Wh₁&#45;&gt;attn_Wh₃</title>
<path fill="none" stroke="#b07aa1" stroke-width="1.6" stroke-opacity="0.450980" d="M329.64,-72.35C320.38,-61.66 298.74,-47.76 283.42,-42.23"/>
<polygon fill="#b07aa1" fill-opacity="0.450980" stroke="#b07aa1" stroke-width="1.6" stroke-opacity="0.450980" points="283.79,-40.51 278.49,-40.7 282.75,-43.86 283.79,-40.51"/>
</g>
<!-- attn_Wh₅ -->
<g id="node5" class="node">
<title>attn_Wh₅</title>
<ellipse fill="#e6d9e1" stroke="#b07aa1" cx="292.52" cy="-149.24" rx="11" ry="11"/>
<text text-anchor="middle" x="292.52" y="-147.34" font-family="CMU Serif" font-size="8.00" fill="#333333">Wh₅</text>
</g>
<!-- attn_Wh₁&#45;&gt;attn_Wh₅ -->
<g id="edge16" class="edge">
<title>attn_Wh₁&#45;&gt;attn_Wh₅</title>
<path fill="none" stroke="#b07aa1" stroke-width="1.8" stroke-opacity="0.486275" d="M322.91,-86.92C312.22,-96.18 298.32,-117.82 292.79,-133.14"/>
<polygon fill="#b07aa1" fill-opacity="0.486275" stroke="#b07aa1" stroke-width="1.8" stroke-opacity="0.486275" points="291.07,-132.77 291.26,-138.07 294.42,-133.81 291.07,-132.77"/>
</g>
<!-- output_h&#39;₄ -->
<g id="node14" class="node">
<title>output_h&#39;₄</title>
<ellipse fill="#fde8d0" stroke="#f28e2b" cx="443" cy="-108.2" rx="11" ry="11"/>
<text text-anchor="middle" x="443" y="-106.3" font-family="CMU Serif" font-size="8.00" fill="#333333">h&#39;₄</text>
</g>
<!-- attn_Wh₁&#45;&gt;output_h&#39;₄ -->
<g id="edge17" class="edge">
<title>attn_Wh₁&#45;&gt;output_h&#39;₄</title>
<path fill="none" stroke="#bab0ac" stroke-dasharray="5,2" d="M344.45,-85.51C363.87,-89.98 404.55,-99.35 427.1,-104.54"/>
<polygon fill="#bab0ac" stroke="#bab0ac" points="426.89,-106.29 432.15,-105.7 427.67,-102.87 426.89,-106.29"/>
<text text-anchor="middle" x="371.78" y="-97.22" font-family="CMU Serif" font-size="6.00" fill="grey">σ(Σα·Wh)</text>
</g>
<!-- attn_Wh₂&#45;&gt;attn_Wh₁ -->
<g id="edge18" class="edge">
<title>attn_Wh₂&#45;&gt;attn_Wh₁</title>
<path fill="none" stroke="#b07aa1" stroke-width="1.6" stroke-opacity="0.447059" d="M325.43,-19.33C321.08,-31.75 320.84,-55.21 324.5,-69.92"/>
<polygon fill="#b07aa1" fill-opacity="0.447059" stroke="#b07aa1" stroke-width="1.6" stroke-opacity="0.447059" points="322.89,-70.64 326.02,-74.91 326.23,-69.62 322.89,-70.64"/>
</g>
<!-- attn_Wh₂&#45;&gt;attn_Wh₃ -->
<g id="edge19" class="edge">
<title>attn_Wh₂&#45;&gt;attn_Wh₃</title>
<path fill="none" stroke="#b07aa1" stroke-width="1.1" stroke-opacity="0.364706" d="M322.04,-8.27C309.08,-9.91 288.01,-19.37 276.03,-28.54"/>
<polygon fill="#b07aa1" fill-opacity="0.364706" stroke="#b07aa1" stroke-width="1.1" stroke-opacity="0.364706" points="274.75,-27.33 272.06,-31.89 277.01,-30 274.75,-27.33"/>
</g>
<!-- attn_Wh₃&#45;&gt;attn_Wh₁ -->
<g id="edge20" class="edge">
<title>attn_Wh₃&#45;&gt;attn_Wh₁</title>
<path fill="none" stroke="#b07aa1" stroke-width="1.2" stroke-opacity="0.372549" d="M270.57,-52.54C279.47,-63.63 301.71,-77.99 317.41,-83.32"/>
<polygon fill="#b07aa1" fill-opacity="0.372549" stroke="#b07aa1" stroke-width="1.2" stroke-opacity="0.372549" points="317.16,-85.07 322.45,-84.76 318.13,-81.7 317.16,-85.07"/>
</g>
<!-- attn_Wh₃&#45;&gt;attn_Wh₂ -->
<g id="edge21" class="edge">
<title>attn_Wh₃&#45;&gt;attn_Wh₂</title>
<path fill="none" stroke="#b07aa1" stroke-width="2.5" stroke-opacity="0.615686" d="M278.04,-45.18C291.2,-43.91 312.75,-34.26 324.67,-24.74"/>
<polygon fill="#b07aa1" fill-opacity="0.615686" stroke="#b07aa1" stroke-width="2.5" stroke-opacity="0.615686" points="326.02,-25.88 328.6,-21.25 323.7,-23.26 326.02,-25.88"/>
</g>
<!-- attn_Wh₄ -->
<g id="node4" class="node">
<title>attn_Wh₄</title>
<ellipse fill="#e6d9e1" stroke="#b07aa1" cx="227" cy="-108.2" rx="11" ry="11"/>
<text text-anchor="middle" x="227" y="-106.3" font-family="CMU Serif" font-size="8.00" fill="#333333">Wh₄</text>
</g>
<!-- attn_Wh₃&#45;&gt;attn_Wh₄ -->
<g id="edge22" class="edge">
<title>attn_Wh₃&#45;&gt;attn_Wh₄</title>
<path fill="none" stroke="#b07aa1" stroke-width="1.5" stroke-opacity="0.431373" d="M256.72,-45.92C246.14,-55.21 232.47,-76.85 227.11,-92.15"/>
<polygon fill="#b07aa1" fill-opacity="0.431373" stroke="#b07aa1" stroke-width="1.5" stroke-opacity="0.431373" points="225.4,-91.78 225.63,-97.07 228.75,-92.79 225.4,-91.78"/>
</g>
<!-- attn_Wh₄&#45;&gt;attn_Wh₃ -->
<g id="edge23" class="edge">
<title>attn_Wh₄&#45;&gt;attn_Wh₃</title>
<path fill="none" stroke="#b07aa1" stroke-width="1.8" stroke-opacity="0.478431" d="M237.54,-104.9C248.52,-95.96 262.64,-73.72 267.8,-58.05"/>
<polygon fill="#b07aa1" fill-opacity="0.478431" stroke="#b07aa1" stroke-width="1.8" stroke-opacity="0.478431" points="269.54,-58.3 269.19,-53.02 266.17,-57.37 269.54,-58.3"/>
</g>
<!-- attn_Wh₄&#45;&gt;attn_Wh₅ -->
<g id="edge24" class="edge">
<title>attn_Wh₄&#45;&gt;attn_Wh₅</title>
<path fill="none" stroke="#b07aa1" stroke-width="2.2" stroke-opacity="0.564706" d="M230.81,-118.83C239.92,-129.52 261.32,-143.41 276.51,-148.95"/>
<polygon fill="#b07aa1" fill-opacity="0.564706" stroke="#b07aa1" stroke-width="2.2" stroke-opacity="0.564706" points="276.1,-150.65 281.4,-150.48 277.15,-147.31 276.1,-150.65"/>
</g>
<!-- attn_Wh₅&#45;&gt;attn_Wh₁ -->
<g id="edge25" class="edge">
<title>attn_Wh₅&#45;&gt;attn_Wh₁</title>
<path fill="none" stroke="#b07aa1" stroke-width="1.7" stroke-opacity="0.474510" d="M303.1,-145.99C314.19,-137.09 328.55,-114.85 333.88,-99.15"/>
<polygon fill="#b07aa1" fill-opacity="0.474510" stroke="#b07aa1" stroke-width="1.7" stroke-opacity="0.474510" points="335.63,-99.4 335.32,-94.11 332.26,-98.43 335.63,-99.4"/>
</g>
<!-- attn_Wh₅&#45;&gt;attn_Wh₄ -->
<g id="edge26" class="edge">
<title>attn_Wh₅&#45;&gt;attn_Wh₄</title>
<path fill="none" stroke="#b07aa1" stroke-width="2.5" stroke-opacity="0.615686" d="M289.37,-138.68C280.62,-127.6 258.63,-113.24 243.06,-107.91"/>
<polygon fill="#b07aa1" fill-opacity="0.615686" stroke="#b07aa1" stroke-width="2.5" stroke-opacity="0.615686" points="243.35,-106.17 238.06,-106.46 242.38,-109.53 243.35,-106.17"/>
</g>
<!-- input_h₁ -->
<g id="node6" class="node">
<title>input_h₁</title>
<ellipse fill="#fde8d0" stroke="#f28e2b" cx="117.56" cy="-83" rx="11" ry="11"/>
<text text-anchor="middle" x="117.56" y="-81.1" font-family="CMU Serif" font-size="8.00" fill="#333333">h₁</text>
</g>
<!-- input_h₁&#45;&gt;attn_Wh₄ -->
<g id="edge13" class="edge">
<title>input_h₁&#45;&gt;attn_Wh₄</title>
<path fill="none" stroke="#bab0ac" stroke-dasharray="5,2" d="M128.45,-85.51C147.87,-89.98 188.55,-99.35 211.1,-104.54"/>
<polygon fill="#bab0ac" stroke="#bab0ac" points="210.89,-106.29 216.15,-105.7 211.67,-102.87 210.89,-106.29"/>
<text text-anchor="middle" x="162.28" y="-97.22" font-family="CMU Serif" font-size="6.00" fill="grey">W, a</text>
</g>
<!-- input_h₂ -->
<g id="node7" class="node">
<title>input_h₂</title>
<ellipse fill="#fde8d0" stroke="#f28e2b" cx="116.84" cy="-11" rx="11" ry="11"/>
<text text-anchor="middle" x="116.84" y="-9.1" font-family="CMU Serif" font-size="8.00" fill="#333333">h₂</text>
</g>
<!-- input_h₁&#45;&gt;input_h₂ -->
<g id="edge1" class="edge">
<title>input_h₁&#45;&gt;input_h₂</title>
<path fill="none" stroke="#f28e2b" stroke-opacity="0.501961" d="M117.45,-71.75C117.31,-58.3 117.09,-35.93 116.95,-22.41"/>
</g>
<!-- input_h₃ -->
<g id="node8" class="node">
<title>input_h₃</title>
<ellipse fill="#fde8d0" stroke="#f28e2b" cx="51.32" cy="-41.96" rx="11" ry="11"/>
<text text-anchor="middle" x="51.32" y="-40.06" font-family="CMU Serif" font-size="8.00" fill="#333333">h₃</text>
</g>
<!-- input_h₁&#45;&gt;input_h₃ -->
<g id="edge2" class="edge">
<title>input_h₁&#45;&gt;input_h₃</title>
<path fill="none" stroke="#f28e2b" stroke-opacity="0.501961" d="M108.07,-77.12C95.48,-69.32 73.38,-55.63 60.79,-47.83"/>
</g>
<!-- input_h₂&#45;&gt;input_h₃ -->
<g id="edge3" class="edge">
<title>input_h₂&#45;&gt;input_h₃</title>
<path fill="none" stroke="#f28e2b" stroke-opacity="0.501961" d="M106.89,-15.7C94.57,-21.52 73.72,-31.37 61.36,-37.21"/>
</g>
<!-- input_h₄ -->
<g id="node9" class="node">
<title>input_h₄</title>
<ellipse fill="#fde8d0" stroke="#f28e2b" cx="11" cy="-108.2" rx="11" ry="11"/>
<text text-anchor="middle" x="11" y="-106.3" font-family="CMU Serif" font-size="8.00" fill="#333333">h₄</text>
</g>
<!-- input_h₃&#45;&gt;input_h₄ -->
<g id="edge4" class="edge">
<title>input_h₃&#45;&gt;input_h₄</title>
<path fill="none" stroke="#f28e2b" stroke-opacity="0.501961" d="M45.54,-51.45C37.88,-64.04 24.43,-86.14 16.77,-98.73"/>
</g>
<!-- input_h₅ -->
<g id="node10" class="node">
<title>input_h₅</title>
<ellipse fill="#fde8d0" stroke="#f28e2b" cx="76.52" cy="-149.24" rx="11" ry="11"/>
<text text-anchor="middle" x="76.52" y="-147.34" font-family="CMU Serif" font-size="8.00" fill="#333333">h₅</text>
</g>
<!-- input_h₄&#45;&gt;input_h₅ -->
<g id="edge5" class="edge">
<title>input_h₄&#45;&gt;input_h₅</title>
<path fill="none" stroke="#f28e2b" stroke-opacity="0.501961" d="M20.39,-114.08C32.84,-121.88 54.7,-135.57 67.15,-143.37"/>
</g>
<!-- input_h₅&#45;&gt;input_h₁ -->
<g id="edge6" class="edge">
<title>input_h₅&#45;&gt;input_h₁</title>
<path fill="none" stroke="#f28e2b" stroke-opacity="0.501961" d="M82.4,-139.75C90.2,-127.16 103.89,-105.06 111.69,-92.47"/>
</g>
<!-- output_h&#39;₁ -->
<g id="node11" class="node">
<title>output_h&#39;₁</title>
<ellipse fill="#fde8d0" stroke="#f28e2b" cx="549.56" cy="-83" rx="11" ry="11"/>
<text text-anchor="middle" x="549.56" y="-81.1" font-family="CMU Serif" font-size="8.00" fill="#333333">h&#39;₁</text>
</g>
<!-- output_h&#39;₂ -->
<g id="node12" class="node">
<title>output_h&#39;₂</title>
<ellipse fill="#fde8d0" stroke="#f28e2b" cx="548.84" cy="-11" rx="11" ry="11"/>
<text text-anchor="middle" x="548.84" y="-9.1" font-family="CMU Serif" font-size="8.00" fill="#333333">h&#39;₂</text>
</g>
<!-- output_h&#39;₁&#45;&gt;output_h&#39;₂ -->
<g id="edge7" class="edge">
<title>output_h&#39;₁&#45;&gt;output_h&#39;₂</title>
<path fill="none" stroke="#f28e2b" stroke-opacity="0.501961" d="M549.45,-71.75C549.31,-58.3 549.09,-35.93 548.95,-22.41"/>
</g>
<!-- output_h&#39;₃ -->
<g id="node13" class="node">
<title>output_h&#39;₃</title>
<ellipse fill="#fde8d0" stroke="#f28e2b" cx="483.32" cy="-41.96" rx="11" ry="11"/>
<text text-anchor="middle" x="483.32" y="-40.06" font-family="CMU Serif" font-size="8.00" fill="#333333">h&#39;₃</text>
</g>
<!-- output_h&#39;₁&#45;&gt;output_h&#39;₃ -->
<g id="edge8" class="edge">
<title>output_h&#39;₁&#45;&gt;output_h&#39;₃</title>
<path fill="none" stroke="#f28e2b" stroke-opacity="0.501961" d="M540.07,-77.12C527.48,-69.32 505.38,-55.63 492.79,-47.83"/>
</g>
<!-- output_h&#39;₂&#45;&gt;output_h&#39;₃ -->
<g id="edge9" class="edge">
<title>output_h&#39;₂&#45;&gt;output_h&#39;₃</title>
<path fill="none" stroke="#f28e2b" stroke-opacity="0.501961" d="M538.89,-15.7C526.57,-21.52 505.72,-31.37 493.36,-37.21"/>
</g>
<!-- output_h&#39;₃&#45;&gt;output_h&#39;₄ -->
<g id="edge10" class="edge">
<title>output_h&#39;₃&#45;&gt;output_h&#39;₄</title>
<path fill="none" stroke="#f28e2b" stroke-opacity="0.501961" d="M477.54,-51.45C469.88,-64.04 456.43,-86.14 448.77,-98.73"/>
</g>
<!-- output_h&#39;₅ -->
<g id="node15" class="node">
<title>output_h&#39;₅</title>
<ellipse fill="#fde8d0" stroke="#f28e2b" cx="508.52" cy="-149.24" rx="11" ry="11"/>
<text text-anchor="middle" x="508.52" y="-147.34" font-family="CMU Serif" font-size="8.00" fill="#333333">h&#39;₅</text>
</g>
<!-- output_h&#39;₄&#45;&gt;output_h&#39;₅ -->
<g id="edge11" class="edge">
<title>output_h&#39;₄&#45;&gt;output_h&#39;₅</title>
<path fill="none" stroke="#f28e2b" stroke-opacity="0.501961" d="M452.39,-114.08C464.84,-121.88 486.7,-135.57 499.15,-143.37"/>
</g>
<!-- output_h&#39;₅&#45;&gt;output_h&#39;₁ -->
<g id="edge12" class="edge">
<title>output_h&#39;₅&#45;&gt;output_h&#39;₁</title>
<path fill="none" stroke="#f28e2b" stroke-opacity="0.501961" d="M514.4,-139.75C522.2,-127.16 535.89,-105.06 543.69,-92.47"/>
</g>
</g>
</svg>
