<?xml version="1.0" encoding="utf-8" standalone="no"?>
<!DOCTYPE svg PUBLIC "-//W3C//DTD SVG 1.1//EN"
  "http://www.w3.org/Graphics/SVG/1.1/DTD/svg11.dtd">
<svg xmlns:xlink="http://www.w3.org/1999/xlink" width="424.8pt" height="617.929412pt" viewBox="0 0 424.8 617.929412" xmlns="http://www.w3.org/2000/svg" version="1.1">
 <metadata>
  <rdf:RDF xmlns:dc="http://purl.org/dc/elements/1.1/" xmlns:cc="http://creativecommons.org/ns#" xmlns:rdf="http://www.w3.org/1999/02/22-rdf-syntax-ns#">
   <cc:Work>
    <dc:type rdf:resource="http://purl.org/dc/dcmitype/StillImage"/>
    <dc:date>2026-03-24T14:09:26.309128</dc:date>
    <dc:format>image/svg+xml</dc:format>
    <dc:creator>
     <cc:Agent>
      <dc:title>Matplotlib v3.8.4, https://matplotlib.org/</dc:title>
     </cc:Agent>
    </dc:creator>
   </cc:Work>
  </rdf:RDF>
 </metadata>
 <defs>
  <style type="text/css">*{stroke-linejoin: round; stroke-linecap: butt}</style>
 </defs>
 <g id="figure_1">
  <g id="patch_1">
   <path d="M 0 617.929412 
L 424.8 617.929412 
L 424.8 0 
L 0 0 
L 0 617.929412 
z
" style="fill: none"/>
  </g>
  <g id="axes_1">
   <g id="patch_2">
    <path d="M 36.827807 583.296257 
L 387.972193 583.296257 
Q 398.945455 583.296257 398.945455 572.322995 
L 398.945455 45.606417 
Q 398.945455 34.633155 387.972193 34.633155 
L 36.827807 34.633155 
Q 25.854545 34.633155 25.854545 45.606417 
L 25.854545 572.322995 
Q 25.854545 583.296257 36.827807 583.296257 
z
" clip-path="url(#p5286ade9e6)" style="fill: #f28e2b; fill-opacity: 0.062745; stroke-dasharray: 3.7,1.6; stroke-dashoffset: 0; stroke: #f28e2b; stroke-opacity: 0.376471; stroke-linejoin: miter"/>
   </g>
   <g id="patch_3">
    <path d="M 86.841075 89.499465 
Q 113.637145 89.499465 139.315182 89.499465 
" clip-path="url(#p5286ade9e6)" style="fill: none; stroke: #f28e2b; stroke-opacity: 0.6; stroke-linecap: round"/>
    <path d="M 135.315182 87.499465 
L 139.315182 89.499465 
L 135.315182 91.499465 
z
" clip-path="url(#p5286ade9e6)" style="fill: #f28e2b; fill-opacity: 0.6; stroke: #f28e2b; stroke-opacity: 0.6; stroke-linecap: round"/>
   </g>
   <g id="patch_4">
    <path d="M 86.841075 89.499465 
Q 212.396537 89.499465 336.833965 89.499465 
" clip-path="url(#p5286ade9e6)" style="fill: none; stroke: #f28e2b; stroke-opacity: 0.6; stroke-linecap: round"/>
    <path d="M 332.833965 87.499465 
L 336.833965 89.499465 
L 332.833965 91.499465 
z
" clip-path="url(#p5286ade9e6)" style="fill: #f28e2b; fill-opacity: 0.6; stroke: #f28e2b; stroke-opacity: 0.6; stroke-linecap: round"/>
   </g>
   <g id="patch_5">
    <path d="M 86.841075 89.499465 
Q 146.55705 89.499465 205.154991 89.499465 
" clip-path="url(#p5286ade9e6)" style="fill: none; stroke: #f28e2b; stroke-opacity: 0.6; stroke-linecap: round"/>
    <path d="M 201.154991 87.499465 
L 205.154991 89.499465 
L 201.154991 91.499465 
z
" clip-path="url(#p5286ade9e6)" style="fill: #f28e2b; fill-opacity: 0.6; stroke: #f28e2b; stroke-opacity: 0.6; stroke-linecap: round"/>
   </g>
   <g id="patch_6">
    <path d="M 152.680647 89.499465 
Q 179.476718 89.499465 205.154755 89.499465 
" clip-path="url(#p5286ade9e6)" style="fill: none; stroke: #f28e2b; stroke-opacity: 0.6; stroke-linecap: round"/>
    <path d="M 201.154755 87.499465 
L 205.154755 89.499465 
L 201.154755 91.499465 
z
" clip-path="url(#p5286ade9e6)" style="fill: #f28e2b; fill-opacity: 0.6; stroke: #f28e2b; stroke-opacity: 0.6; stroke-linecap: round"/>
   </g>
   <g id="patch_7">
    <path d="M 218.520219 89.499465 
Q 245.31629 89.499465 270.994327 89.499465 
" clip-path="url(#p5286ade9e6)" style="fill: none; stroke: #f28e2b; stroke-opacity: 0.6; stroke-linecap: round"/>
    <path d="M 266.994327 87.499465 
L 270.994327 89.499465 
L 266.994327 91.499465 
z
" clip-path="url(#p5286ade9e6)" style="fill: #f28e2b; fill-opacity: 0.6; stroke: #f28e2b; stroke-opacity: 0.6; stroke-linecap: round"/>
   </g>
   <g id="patch_8">
    <path d="M 284.359791 89.499465 
Q 311.155862 89.499465 336.833899 89.499465 
" clip-path="url(#p5286ade9e6)" style="fill: none; stroke: #f28e2b; stroke-opacity: 0.6; stroke-linecap: round"/>
    <path d="M 332.833899 87.499465 
L 336.833899 89.499465 
L 332.833899 91.499465 
z
" clip-path="url(#p5286ade9e6)" style="fill: #f28e2b; fill-opacity: 0.6; stroke: #f28e2b; stroke-opacity: 0.6; stroke-linecap: round"/>
   </g>
   <g id="patch_9">
    <path d="M 86.841075 199.232086 
Q 113.637145 199.232086 139.315182 199.232086 
" clip-path="url(#p5286ade9e6)" style="fill: none; stroke: #f28e2b; stroke-opacity: 0.6; stroke-linecap: round"/>
    <path d="M 135.315182 197.232086 
L 139.315182 199.232086 
L 135.315182 201.232086 
z
" clip-path="url(#p5286ade9e6)" style="fill: #f28e2b; fill-opacity: 0.6; stroke: #f28e2b; stroke-opacity: 0.6; stroke-linecap: round"/>
   </g>
   <g id="patch_10">
    <path d="M 86.841075 199.232086 
Q 212.396537 199.232086 336.833965 199.232086 
" clip-path="url(#p5286ade9e6)" style="fill: none; stroke: #f28e2b; stroke-opacity: 0.6; stroke-linecap: round"/>
    <path d="M 332.833965 197.232086 
L 336.833965 199.232086 
L 332.833965 201.232086 
z
" clip-path="url(#p5286ade9e6)" style="fill: #f28e2b; fill-opacity: 0.6; stroke: #f28e2b; stroke-opacity: 0.6; stroke-linecap: round"/>
   </g>
   <g id="patch_11">
    <path d="M 86.841075 199.232086 
Q 146.55705 199.232086 205.154991 199.232086 
" clip-path="url(#p5286ade9e6)" style="fill: none; stroke: #f28e2b; stroke-opacity: 0.6; stroke-linecap: round"/>
    <path d="M 201.154991 197.232086 
L 205.154991 199.232086 
L 201.154991 201.232086 
z
" clip-path="url(#p5286ade9e6)" style="fill: #f28e2b; fill-opacity: 0.6; stroke: #f28e2b; stroke-opacity: 0.6; stroke-linecap: round"/>
   </g>
   <g id="patch_12">
    <path d="M 152.680647 199.232086 
Q 179.476718 199.232086 205.154755 199.232086 
" clip-path="url(#p5286ade9e6)" style="fill: none; stroke: #f28e2b; stroke-opacity: 0.6; stroke-linecap: round"/>
    <path d="M 201.154755 197.232086 
L 205.154755 199.232086 
L 201.154755 201.232086 
z
" clip-path="url(#p5286ade9e6)" style="fill: #f28e2b; fill-opacity: 0.6; stroke: #f28e2b; stroke-opacity: 0.6; stroke-linecap: round"/>
   </g>
   <g id="patch_13">
    <path d="M 218.520219 199.232086 
Q 245.31629 199.232086 270.994327 199.232086 
" clip-path="url(#p5286ade9e6)" style="fill: none; stroke: #f28e2b; stroke-opacity: 0.6; stroke-linecap: round"/>
    <path d="M 266.994327 197.232086 
L 270.994327 199.232086 
L 266.994327 201.232086 
z
" clip-path="url(#p5286ade9e6)" style="fill: #f28e2b; fill-opacity: 0.6; stroke: #f28e2b; stroke-opacity: 0.6; stroke-linecap: round"/>
   </g>
   <g id="patch_14">
    <path d="M 284.359791 199.232086 
Q 311.155862 199.232086 336.833899 199.232086 
" clip-path="url(#p5286ade9e6)" style="fill: none; stroke: #f28e2b; stroke-opacity: 0.6; stroke-linecap: round"/>
    <path d="M 332.833899 197.232086 
L 336.833899 199.232086 
L 332.833899 201.232086 
z
" clip-path="url(#p5286ade9e6)" style="fill: #f28e2b; fill-opacity: 0.6; stroke: #f28e2b; stroke-opacity: 0.6; stroke-linecap: round"/>
   </g>
   <g id="patch_15">
    <path d="M 86.841075 308.964706 
Q 113.637145 308.964706 139.315182 308.964706 
" clip-path="url(#p5286ade9e6)" style="fill: none; stroke: #f28e2b; stroke-opacity: 0.6; stroke-linecap: round"/>
    <path d="M 135.315182 306.964706 
L 139.315182 308.964706 
L 135.315182 310.964706 
z
" clip-path="url(#p5286ade9e6)" style="fill: #f28e2b; fill-opacity: 0.6; stroke: #f28e2b; stroke-opacity: 0.6; stroke-linecap: round"/>
   </g>
   <g id="patch_16">
    <path d="M 86.841075 308.964706 
Q 212.396537 308.964706 336.833965 308.964706 
" clip-path="url(#p5286ade9e6)" style="fill: none; stroke: #f28e2b; stroke-opacity: 0.6; stroke-linecap: round"/>
    <path d="M 332.833965 306.964706 
L 336.833965 308.964706 
L 332.833965 310.964706 
z
" clip-path="url(#p5286ade9e6)" style="fill: #f28e2b; fill-opacity: 0.6; stroke: #f28e2b; stroke-opacity: 0.6; stroke-linecap: round"/>
   </g>
   <g id="patch_17">
    <path d="M 86.841075 308.964706 
Q 146.55705 308.964706 205.154991 308.964706 
" clip-path="url(#p5286ade9e6)" style="fill: none; stroke: #f28e2b; stroke-opacity: 0.6; stroke-linecap: round"/>
    <path d="M 201.154991 306.964706 
L 205.154991 308.964706 
L 201.154991 310.964706 
z
" clip-path="url(#p5286ade9e6)" style="fill: #f28e2b; fill-opacity: 0.6; stroke: #f28e2b; stroke-opacity: 0.6; stroke-linecap: round"/>
   </g>
   <g id="patch_18">
    <path d="M 152.680647 308.964706 
Q 179.476718 308.964706 205.154755 308.964706 
" clip-path="url(#p5286ade9e6)" style="fill: none; stroke: #f28e2b; stroke-opacity: 0.6; stroke-linecap: round"/>
    <path d="M 201.154755 306.964706 
L 205.154755 308.964706 
L 201.154755 310.964706 
z
" clip-path="url(#p5286ade9e6)" style="fill: #f28e2b; fill-opacity: 0.6; stroke: #f28e2b; stroke-opacity: 0.6; stroke-linecap: round"/>
   </g>
   <g id="patch_19">
    <path d="M 218.520219 308.964706 
Q 245.31629 308.964706 270.994327 308.964706 
" clip-path="url(#p5286ade9e6)" style="fill: none; stroke: #f28e2b; stroke-opacity: 0.6; stroke-linecap: round"/>
    <path d="M 266.994327 306.964706 
L 270.994327 308.964706 
L 266.994327 310.964706 
z
" clip-path="url(#p5286ade9e6)" style="fill: #f28e2b; fill-opacity: 0.6; stroke: #f28e2b; stroke-opacity: 0.6; stroke-linecap: round"/>
   </g>
   <g id="patch_20">
    <path d="M 284.359791 308.964706 
Q 311.155862 308.964706 336.833899 308.964706 
" clip-path="url(#p5286ade9e6)" style="fill: none; stroke: #f28e2b; stroke-opacity: 0.6; stroke-linecap: round"/>
    <path d="M 332.833899 306.964706 
L 336.833899 308.964706 
L 332.833899 310.964706 
z
" clip-path="url(#p5286ade9e6)" style="fill: #f28e2b; fill-opacity: 0.6; stroke: #f28e2b; stroke-opacity: 0.6; stroke-linecap: round"/>
   </g>
   <g id="patch_21">
    <path d="M 212.4 432.839198 
Q 212.4 473.564743 212.4 513.172253 
" clip-path="url(#p5286ade9e6)" style="fill: none; stroke: #808080; stroke-opacity: 0.6; stroke-linecap: round"/>
    <path d="M 214.4 509.172253 
L 212.4 513.172253 
L 210.4 509.172253 
z
" clip-path="url(#p5286ade9e6)" style="fill: #808080; fill-opacity: 0.6; stroke: #808080; stroke-opacity: 0.6; stroke-linecap: round"/>
   </g>
   <g id="patch_22">
    <path d="M 338.425075 91.855328 
Q 212.39829 144.366488 87.403536 196.447635 
" clip-path="url(#p5286ade9e6)" style="fill: none; stroke-dasharray: 3.7,1.6; stroke-dashoffset: 0; stroke: #808080; stroke-opacity: 0.6; stroke-linecap: round"/>
    <path d="M 91.865075 196.755328 
L 87.403536 196.447635 
L 90.326613 193.06302 
z
" clip-path="url(#p5286ade9e6)" style="fill: #808080; fill-opacity: 0.6; stroke-dasharray: 3.7,1.6; stroke-dashoffset: 0; stroke: #808080; stroke-opacity: 0.6; stroke-linecap: round"/>
   </g>
   <g id="patch_23">
    <path d="M 341.805662 95.183172 
Q 279.72852 250.376025 218.066606 404.530811 
" clip-path="url(#p5286ade9e6)" style="fill: none; stroke-dasharray: 3.7,1.6; stroke-dashoffset: 0; stroke: #808080; stroke-opacity: 0.6; stroke-linecap: round"/>
    <path d="M 221.409122 401.559685 
L 218.066606 404.530811 
L 217.695215 400.074123 
z
" clip-path="url(#p5286ade9e6)" style="fill: #808080; fill-opacity: 0.6; stroke-dasharray: 3.7,1.6; stroke-dashoffset: 0; stroke: #808080; stroke-opacity: 0.6; stroke-linecap: round"/>
   </g>
   <g id="patch_24">
    <path d="M 338.425075 201.587948 
Q 212.39829 254.099108 87.403536 306.180256 
" clip-path="url(#p5286ade9e6)" style="fill: none; stroke-dasharray: 3.7,1.6; stroke-dashoffset: 0; stroke: #808080; stroke-opacity: 0.6; stroke-linecap: round"/>
    <path d="M 91.865075 306.487948 
L 87.403536 306.180256 
L 90.326613 302.79564 
z
" clip-path="url(#p5286ade9e6)" style="fill: #808080; fill-opacity: 0.6; stroke-dasharray: 3.7,1.6; stroke-dashoffset: 0; stroke: #808080; stroke-opacity: 0.6; stroke-linecap: round"/>
   </g>
   <g id="patch_25">
    <path d="M 340.926609 204.486312 
Q 280.302238 305.52693 220.25309 405.608843 
" clip-path="url(#p5286ade9e6)" style="fill: none; stroke-dasharray: 3.7,1.6; stroke-dashoffset: 0; stroke: #808080; stroke-opacity: 0.6; stroke-linecap: round"/>
    <path d="M 224.026059 403.207863 
L 220.25309 405.608843 
L 220.596087 401.14988 
z
" clip-path="url(#p5286ade9e6)" style="fill: #808080; fill-opacity: 0.6; stroke-dasharray: 3.7,1.6; stroke-dashoffset: 0; stroke: #808080; stroke-opacity: 0.6; stroke-linecap: round"/>
   </g>
   <g id="patch_26">
    <path d="M 339.375457 312.884446 
Q 281.319486 361.264421 224.122414 408.928648 
" clip-path="url(#p5286ade9e6)" style="fill: none; stroke-dasharray: 3.7,1.6; stroke-dashoffset: 0; stroke: #808080; stroke-opacity: 0.6; stroke-linecap: round"/>
    <path d="M 228.475667 407.904353 
L 224.122414 408.928648 
L 225.91493 404.831468 
z
" clip-path="url(#p5286ade9e6)" style="fill: #808080; fill-opacity: 0.6; stroke-dasharray: 3.7,1.6; stroke-dashoffset: 0; stroke: #808080; stroke-opacity: 0.6; stroke-linecap: round"/>
   </g>
   <g id="PathCollection_1">
    <path d="M 80.720856 95.62319 
C 82.344886 95.62319 83.90262 94.977955 85.050983 93.829592 
C 86.199346 92.681229 86.84458 91.123496 86.84458 89.499465 
C 86.84458 87.875435 86.199346 86.317701 85.050983 85.169338 
C 83.90262 84.020975 82.344886 83.375741 80.720856 83.375741 
C 79.096825 83.375741 77.539092 84.020975 76.390729 85.169338 
C 75.242365 86.317701 74.597131 87.875435 74.597131 89.499465 
C 74.597131 91.123496 75.242365 92.681229 76.390729 93.829592 
C 77.539092 94.977955 79.096825 95.62319 80.720856 95.62319 
z
" clip-path="url(#p5286ade9e6)" style="fill: #fde8d0; stroke: #f28e2b"/>
    <path d="M 146.560428 95.62319 
C 148.184458 95.62319 149.742192 94.977955 150.890555 93.829592 
C 152.038918 92.681229 152.684152 91.123496 152.684152 89.499465 
C 152.684152 87.875435 152.038918 86.317701 150.890555 85.169338 
C 149.742192 84.020975 148.184458 83.375741 146.560428 83.375741 
C 144.936397 83.375741 143.378664 84.020975 142.230301 85.169338 
C 141.081938 86.317701 140.436703 87.875435 140.436703 89.499465 
C 140.436703 91.123496 141.081938 92.681229 142.230301 93.829592 
C 143.378664 94.977955 144.936397 95.62319 146.560428 95.62319 
z
" clip-path="url(#p5286ade9e6)" style="fill: #fde8d0; stroke: #f28e2b"/>
    <path d="M 212.4 95.62319 
C 214.024031 95.62319 215.581764 94.977955 216.730127 93.829592 
C 217.87849 92.681229 218.523724 91.123496 218.523724 89.499465 
C 218.523724 87.875435 217.87849 86.317701 216.730127 85.169338 
C 215.581764 84.020975 214.024031 83.375741 212.4 83.375741 
C 210.775969 83.375741 209.218236 84.020975 208.069873 85.169338 
C 206.92151 86.317701 206.276276 87.875435 206.276276 89.499465 
C 206.276276 91.123496 206.92151 92.681229 208.069873 93.829592 
C 209.218236 94.977955 210.775969 95.62319 212.4 95.62319 
z
" clip-path="url(#p5286ade9e6)" style="fill: #fde8d0; stroke: #f28e2b"/>
    <path d="M 278.239572 95.62319 
C 279.863603 95.62319 281.421336 94.977955 282.569699 93.829592 
C 283.718062 92.681229 284.363297 91.123496 284.363297 89.499465 
C 284.363297 87.875435 283.718062 86.317701 282.569699 85.169338 
C 281.421336 84.020975 279.863603 83.375741 278.239572 83.375741 
C 276.615542 83.375741 275.057808 84.020975 273.909445 85.169338 
C 272.761082 86.317701 272.115848 87.875435 272.115848 89.499465 
C 272.115848 91.123496 272.761082 92.681229 273.909445 93.829592 
C 275.057808 94.977955 276.615542 95.62319 278.239572 95.62319 
z
" clip-path="url(#p5286ade9e6)" style="fill: #fde8d0; stroke: #f28e2b"/>
    <path d="M 344.079144 95.62319 
C 345.703175 95.62319 347.260908 94.977955 348.409271 93.829592 
C 349.557635 92.681229 350.202869 91.123496 350.202869 89.499465 
C 350.202869 87.875435 349.557635 86.317701 348.409271 85.169338 
C 347.260908 84.020975 345.703175 83.375741 344.079144 83.375741 
C 342.455114 83.375741 340.89738 84.020975 339.749017 85.169338 
C 338.600654 86.317701 337.95542 87.875435 337.95542 89.499465 
C 337.95542 91.123496 338.600654 92.681229 339.749017 93.829592 
C 340.89738 94.977955 342.455114 95.62319 344.079144 95.62319 
z
" clip-path="url(#p5286ade9e6)" style="fill: #fde8d0; stroke: #f28e2b"/>
    <path d="M 80.720856 205.35581 
C 82.344886 205.35581 83.90262 204.710576 85.050983 203.562213 
C 86.199346 202.413849 86.84458 200.856116 86.84458 199.232086 
C 86.84458 197.608055 86.199346 196.050322 85.050983 194.901959 
C 83.90262 193.753595 82.344886 193.108361 80.720856 193.108361 
C 79.096825 193.108361 77.539092 193.753595 76.390729 194.901959 
C 75.242365 196.050322 74.597131 197.608055 74.597131 199.232086 
C 74.597131 200.856116 75.242365 202.413849 76.390729 203.562213 
C 77.539092 204.710576 79.096825 205.35581 80.720856 205.35581 
z
" clip-path="url(#p5286ade9e6)" style="fill: #fde8d0; stroke: #f28e2b"/>
    <path d="M 146.560428 205.35581 
C 148.184458 205.35581 149.742192 204.710576 150.890555 203.562213 
C 152.038918 202.413849 152.684152 200.856116 152.684152 199.232086 
C 152.684152 197.608055 152.038918 196.050322 150.890555 194.901959 
C 149.742192 193.753595 148.184458 193.108361 146.560428 193.108361 
C 144.936397 193.108361 143.378664 193.753595 142.230301 194.901959 
C 141.081938 196.050322 140.436703 197.608055 140.436703 199.232086 
C 140.436703 200.856116 141.081938 202.413849 142.230301 203.562213 
C 143.378664 204.710576 144.936397 205.35581 146.560428 205.35581 
z
" clip-path="url(#p5286ade9e6)" style="fill: #fde8d0; stroke: #f28e2b"/>
    <path d="M 212.4 205.35581 
C 214.024031 205.35581 215.581764 204.710576 216.730127 203.562213 
C 217.87849 202.413849 218.523724 200.856116 218.523724 199.232086 
C 218.523724 197.608055 217.87849 196.050322 216.730127 194.901959 
C 215.581764 193.753595 214.024031 193.108361 212.4 193.108361 
C 210.775969 193.108361 209.218236 193.753595 208.069873 194.901959 
C 206.92151 196.050322 206.276276 197.608055 206.276276 199.232086 
C 206.276276 200.856116 206.92151 202.413849 208.069873 203.562213 
C 209.218236 204.710576 210.775969 205.35581 212.4 205.35581 
z
" clip-path="url(#p5286ade9e6)" style="fill: #fde8d0; stroke: #f28e2b"/>
    <path d="M 278.239572 205.35581 
C 279.863603 205.35581 281.421336 204.710576 282.569699 203.562213 
C 283.718062 202.413849 284.363297 200.856116 284.363297 199.232086 
C 284.363297 197.608055 283.718062 196.050322 282.569699 194.901959 
C 281.421336 193.753595 279.863603 193.108361 278.239572 193.108361 
C 276.615542 193.108361 275.057808 193.753595 273.909445 194.901959 
C 272.761082 196.050322 272.115848 197.608055 272.115848 199.232086 
C 272.115848 200.856116 272.761082 202.413849 273.909445 203.562213 
C 275.057808 204.710576 276.615542 205.35581 278.239572 205.35581 
z
" clip-path="url(#p5286ade9e6)" style="fill: #fde8d0; stroke: #f28e2b"/>
    <path d="M 344.079144 205.35581 
C 345.703175 205.35581 347.260908 204.710576 348.409271 203.562213 
C 349.557635 202.413849 350.202869 200.856116 350.202869 199.232086 
C 350.202869 197.608055 349.557635 196.050322 348.409271 194.901959 
C 347.260908 193.753595 345.703175 193.108361 344.079144 193.108361 
C 342.455114 193.108361 340.89738 193.753595 339.749017 194.901959 
C 338.600654 196.050322 337.95542 197.608055 337.95542 199.232086 
C 337.95542 200.856116 338.600654 202.413849 339.749017 203.562213 
C 340.89738 204.710576 342.455114 205.35581 344.079144 205.35581 
z
" clip-path="url(#p5286ade9e6)" style="fill: #fde8d0; stroke: #f28e2b"/>
    <path d="M 80.720856 315.08843 
C 82.344886 315.08843 83.90262 314.443196 85.050983 313.294833 
C 86.199346 312.14647 86.84458 310.588737 86.84458 308.964706 
C 86.84458 307.340675 86.199346 305.782942 85.050983 304.634579 
C 83.90262 303.486216 82.344886 302.840982 80.720856 302.840982 
C 79.096825 302.840982 77.539092 303.486216 76.390729 304.634579 
C 75.242365 305.782942 74.597131 307.340675 74.597131 308.964706 
C 74.597131 310.588737 75.242365 312.14647 76.390729 313.294833 
C 77.539092 314.443196 79.096825 315.08843 80.720856 315.08843 
z
" clip-path="url(#p5286ade9e6)" style="fill: #fde8d0; stroke: #f28e2b"/>
    <path d="M 146.560428 315.08843 
C 148.184458 315.08843 149.742192 314.443196 150.890555 313.294833 
C 152.038918 312.14647 152.684152 310.588737 152.684152 308.964706 
C 152.684152 307.340675 152.038918 305.782942 150.890555 304.634579 
C 149.742192 303.486216 148.184458 302.840982 146.560428 302.840982 
C 144.936397 302.840982 143.378664 303.486216 142.230301 304.634579 
C 141.081938 305.782942 140.436703 307.340675 140.436703 308.964706 
C 140.436703 310.588737 141.081938 312.14647 142.230301 313.294833 
C 143.378664 314.443196 144.936397 315.08843 146.560428 315.08843 
z
" clip-path="url(#p5286ade9e6)" style="fill: #fde8d0; stroke: #f28e2b"/>
    <path d="M 212.4 315.08843 
C 214.024031 315.08843 215.581764 314.443196 216.730127 313.294833 
C 217.87849 312.14647 218.523724 310.588737 218.523724 308.964706 
C 218.523724 307.340675 217.87849 305.782942 216.730127 304.634579 
C 215.581764 303.486216 214.024031 302.840982 212.4 302.840982 
C 210.775969 302.840982 209.218236 303.486216 208.069873 304.634579 
C 206.92151 305.782942 206.276276 307.340675 206.276276 308.964706 
C 206.276276 310.588737 206.92151 312.14647 208.069873 313.294833 
C 209.218236 314.443196 210.775969 315.08843 212.4 315.08843 
z
" clip-path="url(#p5286ade9e6)" style="fill: #fde8d0; stroke: #f28e2b"/>
    <path d="M 278.239572 315.08843 
C 279.863603 315.08843 281.421336 314.443196 282.569699 313.294833 
C 283.718062 312.14647 284.363297 310.588737 284.363297 308.964706 
C 284.363297 307.340675 283.718062 305.782942 282.569699 304.634579 
C 281.421336 303.486216 279.863603 302.840982 278.239572 302.840982 
C 276.615542 302.840982 275.057808 303.486216 273.909445 304.634579 
C 272.761082 305.782942 272.115848 307.340675 272.115848 308.964706 
C 272.115848 310.588737 272.761082 312.14647 273.909445 313.294833 
C 275.057808 314.443196 276.615542 315.08843 278.239572 315.08843 
z
" clip-path="url(#p5286ade9e6)" style="fill: #fde8d0; stroke: #f28e2b"/>
    <path d="M 344.079144 315.08843 
C 345.703175 315.08843 347.260908 314.443196 348.409271 313.294833 
C 349.557635 312.14647 350.202869 310.588737 350.202869 308.964706 
C 350.202869 307.340675 349.557635 305.782942 348.409271 304.634579 
C 347.260908 303.486216 345.703175 302.840982 344.079144 302.840982 
C 342.455114 302.840982 340.89738 303.486216 339.749017 304.634579 
C 338.600654 305.782942 337.95542 307.340675 337.95542 308.964706 
C 337.95542 310.588737 338.600654 312.14647 339.749017 313.294833 
C 340.89738 314.443196 342.455114 315.08843 344.079144 315.08843 
z
" clip-path="url(#p5286ade9e6)" style="fill: #fde8d0; stroke: #f28e2b"/>
   </g>
   <g id="PathCollection_2">
    <path d="M 198.257864 432.839462 
L 226.542136 432.839462 
L 226.542136 404.555191 
L 198.257864 404.555191 
z
" clip-path="url(#p5286ade9e6)" style="fill: #fde8d0; stroke: #f28e2b"/>
    <path d="M 198.257864 542.572082 
L 226.542136 542.572082 
L 226.542136 514.287811 
L 198.257864 514.287811 
z
" clip-path="url(#p5286ade9e6)" style="fill: #fde8d0; stroke: #f28e2b"/>
   </g>
   <g id="text_1">
    <!-- GAT Model -->
    <g style="fill: #f28e2b; opacity: 0.564706" transform="translate(53.287701 67.385216) scale(0.07 -0.07)">
     <defs>
      <path id="DejaVuSans-Oblique-47" d="M 3494 697 
L 3738 1919 
L 2700 1919 
L 2797 2438 
L 4453 2438 
L 4050 384 
Q 3634 156 3143 32 
Q 2653 -91 2156 -91 
Q 1278 -91 783 396 
Q 288 884 288 1753 
Q 288 2475 589 3126 
Q 891 3778 1422 4213 
Q 1756 4484 2153 4617 
Q 2550 4750 3034 4750 
Q 3472 4750 3873 4639 
Q 4275 4528 4641 4306 
L 4513 3634 
Q 4231 3928 3853 4083 
Q 3475 4238 3047 4238 
Q 2550 4238 2172 4048 
Q 1794 3859 1497 3463 
Q 1244 3125 1098 2667 
Q 953 2209 953 1734 
Q 953 1081 1287 751 
Q 1622 422 2284 422 
Q 2616 422 2925 492 
Q 3234 563 3494 697 
z
" transform="scale(0.015625)"/>
      <path id="DejaVuSans-Oblique-41" d="M 2356 4666 
L 3072 4666 
L 3938 0 
L 3278 0 
L 3084 1197 
L 984 1197 
L 325 0 
L -341 0 
L 2356 4666 
z
M 2584 4044 
L 1275 1722 
L 2988 1722 
L 2584 4044 
z
" transform="scale(0.015625)"/>
      <path id="DejaVuSans-Oblique-54" d="M 378 4666 
L 4325 4666 
L 4225 4134 
L 2559 4134 
L 1759 0 
L 1125 0 
L 1925 4134 
L 275 4134 
L 378 4666 
z
" transform="scale(0.015625)"/>
      <path id="DejaVuSans-Oblique-20" transform="scale(0.015625)"/>
      <path id="DejaVuSans-Oblique-4d" d="M 1081 4666 
L 2028 4666 
L 2572 1522 
L 4378 4666 
L 5350 4666 
L 4441 0 
L 3828 0 
L 4622 4091 
L 2791 897 
L 2175 897 
L 1581 4103 
L 788 0 
L 172 0 
L 1081 4666 
z
" transform="scale(0.015625)"/>
      <path id="DejaVuSans-Oblique-6f" d="M 1625 -91 
Q 1009 -91 651 289 
Q 294 669 294 1325 
Q 294 1706 417 2101 
Q 541 2497 738 2766 
Q 1047 3184 1428 3384 
Q 1809 3584 2291 3584 
Q 2888 3584 3255 3212 
Q 3622 2841 3622 2241 
Q 3622 1825 3500 1412 
Q 3378 1000 3181 728 
Q 2875 309 2494 109 
Q 2113 -91 1625 -91 
z
M 891 1344 
Q 891 869 1089 633 
Q 1288 397 1691 397 
Q 2269 397 2648 901 
Q 3028 1406 3028 2181 
Q 3028 2634 2825 2865 
Q 2622 3097 2228 3097 
Q 1903 3097 1650 2945 
Q 1397 2794 1197 2484 
Q 1050 2253 970 1956 
Q 891 1659 891 1344 
z
" transform="scale(0.015625)"/>
      <path id="DejaVuSans-Oblique-64" d="M 2675 525 
Q 2444 222 2128 65 
Q 1813 -91 1428 -91 
Q 903 -91 598 267 
Q 294 625 294 1247 
Q 294 1766 478 2236 
Q 663 2706 1013 3078 
Q 1244 3325 1534 3454 
Q 1825 3584 2144 3584 
Q 2481 3584 2739 3421 
Q 2997 3259 3138 2956 
L 3513 4863 
L 4091 4863 
L 3144 0 
L 2566 0 
L 2675 525 
z
M 891 1350 
Q 891 897 1095 644 
Q 1300 391 1663 391 
Q 1931 391 2161 520 
Q 2391 650 2566 903 
Q 2750 1166 2856 1509 
Q 2963 1853 2963 2188 
Q 2963 2622 2758 2865 
Q 2553 3109 2194 3109 
Q 1922 3109 1687 2981 
Q 1453 2853 1288 2613 
Q 1106 2353 998 2009 
Q 891 1666 891 1350 
z
" transform="scale(0.015625)"/>
      <path id="DejaVuSans-Oblique-65" d="M 3078 2063 
Q 3088 2113 3092 2166 
Q 3097 2219 3097 2272 
Q 3097 2653 2873 2875 
Q 2650 3097 2266 3097 
Q 1838 3097 1509 2826 
Q 1181 2556 1013 2059 
L 3078 2063 
z
M 3578 1613 
L 903 1613 
Q 884 1494 878 1425 
Q 872 1356 872 1306 
Q 872 872 1139 634 
Q 1406 397 1894 397 
Q 2269 397 2603 481 
Q 2938 566 3225 728 
L 3116 159 
Q 2806 34 2476 -28 
Q 2147 -91 1806 -91 
Q 1078 -91 686 257 
Q 294 606 294 1247 
Q 294 1794 489 2264 
Q 684 2734 1063 3103 
Q 1306 3334 1642 3459 
Q 1978 3584 2356 3584 
Q 2950 3584 3301 3228 
Q 3653 2872 3653 2272 
Q 3653 2128 3634 1964 
Q 3616 1800 3578 1613 
z
" transform="scale(0.015625)"/>
      <path id="DejaVuSans-Oblique-6c" d="M 1172 4863 
L 1747 4863 
L 800 0 
L 225 0 
L 1172 4863 
z
" transform="scale(0.015625)"/>
     </defs>
     <use xlink:href="#DejaVuSans-Oblique-47"/>
     <use xlink:href="#DejaVuSans-Oblique-41" x="77.490234"/>
     <use xlink:href="#DejaVuSans-Oblique-54" x="138.648438"/>
     <use xlink:href="#DejaVuSans-Oblique-20" x="199.732422"/>
     <use xlink:href="#DejaVuSans-Oblique-4d" x="231.519531"/>
     <use xlink:href="#DejaVuSans-Oblique-6f" x="317.798828"/>
     <use xlink:href="#DejaVuSans-Oblique-64" x="378.980469"/>
     <use xlink:href="#DejaVuSans-Oblique-65" x="442.457031"/>
     <use xlink:href="#DejaVuSans-Oblique-6c" x="503.980469"/>
    </g>
   </g>
   <g id="text_2">
    <g clip-path="url(#p5286ade9e6)">
     <!-- $v_{1}$ -->
     <g transform="translate(76.440856 91.706965) scale(0.08 -0.08)">
      <defs>
       <path id="DejaVuSans-Oblique-76" d="M 459 3500 
L 1069 3500 
L 1581 525 
L 3256 3500 
L 3866 3500 
L 1875 0 
L 1100 0 
L 459 3500 
z
" transform="scale(0.015625)"/>
       <path id="DejaVuSans-31" d="M 794 531 
L 1825 531 
L 1825 4091 
L 703 3866 
L 703 4441 
L 1819 4666 
L 2450 4666 
L 2450 531 
L 3481 531 
L 3481 0 
L 794 0 
L 794 531 
z
" transform="scale(0.015625)"/>
      </defs>
      <use xlink:href="#DejaVuSans-Oblique-76" transform="translate(0 0.3125)"/>
      <use xlink:href="#DejaVuSans-31" transform="translate(59.179688 -16.09375) scale(0.7)"/>
     </g>
    </g>
   </g>
   <g id="text_3">
    <g clip-path="url(#p5286ade9e6)">
     <!-- $v_{2}$ -->
     <g transform="translate(142.280428 91.706965) scale(0.08 -0.08)">
      <defs>
       <path id="DejaVuSans-32" d="M 1228 531 
L 3431 531 
L 3431 0 
L 469 0 
L 469 531 
Q 828 903 1448 1529 
Q 2069 2156 2228 2338 
Q 2531 2678 2651 2914 
Q 2772 3150 2772 3378 
Q 2772 3750 2511 3984 
Q 2250 4219 1831 4219 
Q 1534 4219 1204 4116 
Q 875 4013 500 3803 
L 500 4441 
Q 881 4594 1212 4672 
Q 1544 4750 1819 4750 
Q 2544 4750 2975 4387 
Q 3406 4025 3406 3419 
Q 3406 3131 3298 2873 
Q 3191 2616 2906 2266 
Q 2828 2175 2409 1742 
Q 1991 1309 1228 531 
z
" transform="scale(0.015625)"/>
      </defs>
      <use xlink:href="#DejaVuSans-Oblique-76" transform="translate(0 0.3125)"/>
      <use xlink:href="#DejaVuSans-32" transform="translate(59.179688 -16.09375) scale(0.7)"/>
     </g>
    </g>
   </g>
   <g id="text_4">
    <g clip-path="url(#p5286ade9e6)">
     <!-- $v_{3}$ -->
     <g transform="translate(208.12 91.706965) scale(0.08 -0.08)">
      <defs>
       <path id="DejaVuSans-33" d="M 2597 2516 
Q 3050 2419 3304 2112 
Q 3559 1806 3559 1356 
Q 3559 666 3084 287 
Q 2609 -91 1734 -91 
Q 1441 -91 1130 -33 
Q 819 25 488 141 
L 488 750 
Q 750 597 1062 519 
Q 1375 441 1716 441 
Q 2309 441 2620 675 
Q 2931 909 2931 1356 
Q 2931 1769 2642 2001 
Q 2353 2234 1838 2234 
L 1294 2234 
L 1294 2753 
L 1863 2753 
Q 2328 2753 2575 2939 
Q 2822 3125 2822 3475 
Q 2822 3834 2567 4026 
Q 2313 4219 1838 4219 
Q 1578 4219 1281 4162 
Q 984 4106 628 3988 
L 628 4550 
Q 988 4650 1302 4700 
Q 1616 4750 1894 4750 
Q 2613 4750 3031 4423 
Q 3450 4097 3450 3541 
Q 3450 3153 3228 2886 
Q 3006 2619 2597 2516 
z
" transform="scale(0.015625)"/>
      </defs>
      <use xlink:href="#DejaVuSans-Oblique-76" transform="translate(0 0.3125)"/>
      <use xlink:href="#DejaVuSans-33" transform="translate(59.179688 -16.09375) scale(0.7)"/>
     </g>
    </g>
   </g>
   <g id="text_5">
    <g clip-path="url(#p5286ade9e6)">
     <!-- $v_{4}$ -->
     <g transform="translate(273.959572 91.706965) scale(0.08 -0.08)">
      <defs>
       <path id="DejaVuSans-34" d="M 2419 4116 
L 825 1625 
L 2419 1625 
L 2419 4116 
z
M 2253 4666 
L 3047 4666 
L 3047 1625 
L 3713 1625 
L 3713 1100 
L 3047 1100 
L 3047 0 
L 2419 0 
L 2419 1100 
L 313 1100 
L 313 1709 
L 2253 4666 
z
" transform="scale(0.015625)"/>
      </defs>
      <use xlink:href="#DejaVuSans-Oblique-76" transform="translate(0 0.3125)"/>
      <use xlink:href="#DejaVuSans-34" transform="translate(59.179688 -16.09375) scale(0.7)"/>
     </g>
    </g>
   </g>
   <g id="text_6">
    <g clip-path="url(#p5286ade9e6)">
     <!-- $v_{5}$ -->
     <g transform="translate(339.799144 91.706965) scale(0.08 -0.08)">
      <defs>
       <path id="DejaVuSans-35" d="M 691 4666 
L 3169 4666 
L 3169 4134 
L 1269 4134 
L 1269 2991 
Q 1406 3038 1543 3061 
Q 1681 3084 1819 3084 
Q 2600 3084 3056 2656 
Q 3513 2228 3513 1497 
Q 3513 744 3044 326 
Q 2575 -91 1722 -91 
Q 1428 -91 1123 -41 
Q 819 9 494 109 
L 494 744 
Q 775 591 1075 516 
Q 1375 441 1709 441 
Q 2250 441 2565 725 
Q 2881 1009 2881 1497 
Q 2881 1984 2565 2268 
Q 2250 2553 1709 2553 
Q 1456 2553 1204 2497 
Q 953 2441 691 2322 
L 691 4666 
z
" transform="scale(0.015625)"/>
      </defs>
      <use xlink:href="#DejaVuSans-Oblique-76" transform="translate(0 0.3125)"/>
      <use xlink:href="#DejaVuSans-35" transform="translate(59.179688 -16.09375) scale(0.7)"/>
     </g>
    </g>
   </g>
   <g id="text_7">
    <g clip-path="url(#p5286ade9e6)">
     <!-- $v_{1}$ -->
     <g transform="translate(76.440856 201.439586) scale(0.08 -0.08)">
      <use xlink:href="#DejaVuSans-Oblique-76" transform="translate(0 0.3125)"/>
      <use xlink:href="#DejaVuSans-31" transform="translate(59.179688 -16.09375) scale(0.7)"/>
     </g>
    </g>
   </g>
   <g id="text_8">
    <g clip-path="url(#p5286ade9e6)">
     <!-- $v_{2}$ -->
     <g transform="translate(142.280428 201.439586) scale(0.08 -0.08)">
      <use xlink:href="#DejaVuSans-Oblique-76" transform="translate(0 0.3125)"/>
      <use xlink:href="#DejaVuSans-32" transform="translate(59.179688 -16.09375) scale(0.7)"/>
     </g>
    </g>
   </g>
   <g id="text_9">
    <g clip-path="url(#p5286ade9e6)">
     <!-- $v_{3}$ -->
     <g transform="translate(208.12 201.439586) scale(0.08 -0.08)">
      <use xlink:href="#DejaVuSans-Oblique-76" transform="translate(0 0.3125)"/>
      <use xlink:href="#DejaVuSans-33" transform="translate(59.179688 -16.09375) scale(0.7)"/>
     </g>
    </g>
   </g>
   <g id="text_10">
    <g clip-path="url(#p5286ade9e6)">
     <!-- $v_{4}$ -->
     <g transform="translate(273.959572 201.439586) scale(0.08 -0.08)">
      <use xlink:href="#DejaVuSans-Oblique-76" transform="translate(0 0.3125)"/>
      <use xlink:href="#DejaVuSans-34" transform="translate(59.179688 -16.09375) scale(0.7)"/>
     </g>
    </g>
   </g>
   <g id="text_11">
    <g clip-path="url(#p5286ade9e6)">
     <!-- $v_{5}$ -->
     <g transform="translate(339.799144 201.439586) scale(0.08 -0.08)">
      <use xlink:href="#DejaVuSans-Oblique-76" transform="translate(0 0.3125)"/>
      <use xlink:href="#DejaVuSans-35" transform="translate(59.179688 -16.09375) scale(0.7)"/>
     </g>
    </g>
   </g>
   <g id="text_12">
    <g clip-path="url(#p5286ade9e6)">
     <!-- $v_{1}$ -->
     <g transform="translate(76.440856 311.172206) scale(0.08 -0.08)">
      <use xlink:href="#DejaVuSans-Oblique-76" transform="translate(0 0.3125)"/>
      <use xlink:href="#DejaVuSans-31" transform="translate(59.179688 -16.09375) scale(0.7)"/>
     </g>
    </g>
   </g>
   <g id="text_13">
    <g clip-path="url(#p5286ade9e6)">
     <!-- $v_{2}$ -->
     <g transform="translate(142.280428 311.172206) scale(0.08 -0.08)">
      <use xlink:href="#DejaVuSans-Oblique-76" transform="translate(0 0.3125)"/>
      <use xlink:href="#DejaVuSans-32" transform="translate(59.179688 -16.09375) scale(0.7)"/>
     </g>
    </g>
   </g>
   <g id="text_14">
    <g clip-path="url(#p5286ade9e6)">
     <!-- $v_{3}$ -->
     <g transform="translate(208.12 311.172206) scale(0.08 -0.08)">
      <use xlink:href="#DejaVuSans-Oblique-76" transform="translate(0 0.3125)"/>
      <use xlink:href="#DejaVuSans-33" transform="translate(59.179688 -16.09375) scale(0.7)"/>
     </g>
    </g>
   </g>
   <g id="text_15">
    <g clip-path="url(#p5286ade9e6)">
     <!-- $v_{4}$ -->
     <g transform="translate(273.959572 311.172206) scale(0.08 -0.08)">
      <use xlink:href="#DejaVuSans-Oblique-76" transform="translate(0 0.3125)"/>
      <use xlink:href="#DejaVuSans-34" transform="translate(59.179688 -16.09375) scale(0.7)"/>
     </g>
    </g>
   </g>
   <g id="text_16">
    <g clip-path="url(#p5286ade9e6)">
     <!-- $v_{5}$ -->
     <g transform="translate(339.799144 311.172206) scale(0.08 -0.08)">
      <use xlink:href="#DejaVuSans-Oblique-76" transform="translate(0 0.3125)"/>
      <use xlink:href="#DejaVuSans-35" transform="translate(59.179688 -16.09375) scale(0.7)"/>
     </g>
    </g>
   </g>
   <g id="text_17">
    <g clip-path="url(#p5286ade9e6)">
     <!-- JK Concat -->
     <g transform="translate(193.33125 420.904826) scale(0.08 -0.08)">
      <defs>
       <path id="DejaVuSans-4a" d="M 628 4666 
L 1259 4666 
L 1259 325 
Q 1259 -519 939 -900 
Q 619 -1281 -91 -1281 
L -331 -1281 
L -331 -750 
L -134 -750 
Q 284 -750 456 -515 
Q 628 -281 628 325 
L 628 4666 
z
" transform="scale(0.015625)"/>
       <path id="DejaVuSans-4b" d="M 628 4666 
L 1259 4666 
L 1259 2694 
L 3353 4666 
L 4166 4666 
L 1850 2491 
L 4331 0 
L 3500 0 
L 1259 2247 
L 1259 0 
L 628 0 
L 628 4666 
z
" transform="scale(0.015625)"/>
       <path id="DejaVuSans-20" transform="scale(0.015625)"/>
       <path id="DejaVuSans-43" d="M 4122 4306 
L 4122 3641 
Q 3803 3938 3442 4084 
Q 3081 4231 2675 4231 
Q 1875 4231 1450 3742 
Q 1025 3253 1025 2328 
Q 1025 1406 1450 917 
Q 1875 428 2675 428 
Q 3081 428 3442 575 
Q 3803 722 4122 1019 
L 4122 359 
Q 3791 134 3420 21 
Q 3050 -91 2638 -91 
Q 1578 -91 968 557 
Q 359 1206 359 2328 
Q 359 3453 968 4101 
Q 1578 4750 2638 4750 
Q 3056 4750 3426 4639 
Q 3797 4528 4122 4306 
z
" transform="scale(0.015625)"/>
       <path id="DejaVuSans-6f" d="M 1959 3097 
Q 1497 3097 1228 2736 
Q 959 2375 959 1747 
Q 959 1119 1226 758 
Q 1494 397 1959 397 
Q 2419 397 2687 759 
Q 2956 1122 2956 1747 
Q 2956 2369 2687 2733 
Q 2419 3097 1959 3097 
z
M 1959 3584 
Q 2709 3584 3137 3096 
Q 3566 2609 3566 1747 
Q 3566 888 3137 398 
Q 2709 -91 1959 -91 
Q 1206 -91 779 398 
Q 353 888 353 1747 
Q 353 2609 779 3096 
Q 1206 3584 1959 3584 
z
" transform="scale(0.015625)"/>
       <path id="DejaVuSans-6e" d="M 3513 2113 
L 3513 0 
L 2938 0 
L 2938 2094 
Q 2938 2591 2744 2837 
Q 2550 3084 2163 3084 
Q 1697 3084 1428 2787 
Q 1159 2491 1159 1978 
L 1159 0 
L 581 0 
L 581 3500 
L 1159 3500 
L 1159 2956 
Q 1366 3272 1645 3428 
Q 1925 3584 2291 3584 
Q 2894 3584 3203 3211 
Q 3513 2838 3513 2113 
z
" transform="scale(0.015625)"/>
       <path id="DejaVuSans-63" d="M 3122 3366 
L 3122 2828 
Q 2878 2963 2633 3030 
Q 2388 3097 2138 3097 
Q 1578 3097 1268 2742 
Q 959 2388 959 1747 
Q 959 1106 1268 751 
Q 1578 397 2138 397 
Q 2388 397 2633 464 
Q 2878 531 3122 666 
L 3122 134 
Q 2881 22 2623 -34 
Q 2366 -91 2075 -91 
Q 1284 -91 818 406 
Q 353 903 353 1747 
Q 353 2603 823 3093 
Q 1294 3584 2113 3584 
Q 2378 3584 2631 3529 
Q 2884 3475 3122 3366 
z
" transform="scale(0.015625)"/>
       <path id="DejaVuSans-61" d="M 2194 1759 
Q 1497 1759 1228 1600 
Q 959 1441 959 1056 
Q 959 750 1161 570 
Q 1363 391 1709 391 
Q 2188 391 2477 730 
Q 2766 1069 2766 1631 
L 2766 1759 
L 2194 1759 
z
M 3341 1997 
L 3341 0 
L 2766 0 
L 2766 531 
Q 2569 213 2275 61 
Q 1981 -91 1556 -91 
Q 1019 -91 701 211 
Q 384 513 384 1019 
Q 384 1609 779 1909 
Q 1175 2209 1959 2209 
L 2766 2209 
L 2766 2266 
Q 2766 2663 2505 2880 
Q 2244 3097 1772 3097 
Q 1472 3097 1187 3025 
Q 903 2953 641 2809 
L 641 3341 
Q 956 3463 1253 3523 
Q 1550 3584 1831 3584 
Q 2591 3584 2966 3190 
Q 3341 2797 3341 1997 
z
" transform="scale(0.015625)"/>
       <path id="DejaVuSans-74" d="M 1172 4494 
L 1172 3500 
L 2356 3500 
L 2356 3053 
L 1172 3053 
L 1172 1153 
Q 1172 725 1289 603 
Q 1406 481 1766 481 
L 2356 481 
L 2356 0 
L 1766 0 
Q 1100 0 847 248 
Q 594 497 594 1153 
L 594 3053 
L 172 3053 
L 172 3500 
L 594 3500 
L 594 4494 
L 1172 4494 
z
" transform="scale(0.015625)"/>
      </defs>
      <use xlink:href="#DejaVuSans-4a"/>
      <use xlink:href="#DejaVuSans-4b" x="29.492188"/>
      <use xlink:href="#DejaVuSans-20" x="95.068359"/>
      <use xlink:href="#DejaVuSans-43" x="126.855469"/>
      <use xlink:href="#DejaVuSans-6f" x="196.679688"/>
      <use xlink:href="#DejaVuSans-6e" x="257.861328"/>
      <use xlink:href="#DejaVuSans-63" x="321.240234"/>
      <use xlink:href="#DejaVuSans-61" x="376.220703"/>
      <use xlink:href="#DejaVuSans-74" x="437.5"/>
     </g>
    </g>
   </g>
   <g id="text_18">
    <g clip-path="url(#p5286ade9e6)">
     <!-- FC → class -->
     <g transform="translate(191.4825 530.637447) scale(0.08 -0.08)">
      <defs>
       <path id="DejaVuSans-46" d="M 628 4666 
L 3309 4666 
L 3309 4134 
L 1259 4134 
L 1259 2759 
L 3109 2759 
L 3109 2228 
L 1259 2228 
L 1259 0 
L 628 0 
L 628 4666 
z
" transform="scale(0.015625)"/>
       <path id="DejaVuSans-2192" d="M 5050 2147 
L 5050 1866 
L 3822 638 
L 3447 1013 
L 4175 1741 
L 366 1741 
L 366 2272 
L 4175 2272 
L 3447 3000 
L 3822 3375 
L 5050 2147 
z
" transform="scale(0.015625)"/>
       <path id="DejaVuSans-6c" d="M 603 4863 
L 1178 4863 
L 1178 0 
L 603 0 
L 603 4863 
z
" transform="scale(0.015625)"/>
       <path id="DejaVuSans-73" d="M 2834 3397 
L 2834 2853 
Q 2591 2978 2328 3040 
Q 2066 3103 1784 3103 
Q 1356 3103 1142 2972 
Q 928 2841 928 2578 
Q 928 2378 1081 2264 
Q 1234 2150 1697 2047 
L 1894 2003 
Q 2506 1872 2764 1633 
Q 3022 1394 3022 966 
Q 3022 478 2636 193 
Q 2250 -91 1575 -91 
Q 1294 -91 989 -36 
Q 684 19 347 128 
L 347 722 
Q 666 556 975 473 
Q 1284 391 1588 391 
Q 1994 391 2212 530 
Q 2431 669 2431 922 
Q 2431 1156 2273 1281 
Q 2116 1406 1581 1522 
L 1381 1569 
Q 847 1681 609 1914 
Q 372 2147 372 2553 
Q 372 3047 722 3315 
Q 1072 3584 1716 3584 
Q 2034 3584 2315 3537 
Q 2597 3491 2834 3397 
z
" transform="scale(0.015625)"/>
      </defs>
      <use xlink:href="#DejaVuSans-46"/>
      <use xlink:href="#DejaVuSans-43" x="57.519531"/>
      <use xlink:href="#DejaVuSans-20" x="127.34375"/>
      <use xlink:href="#DejaVuSans-2192" x="159.130859"/>
      <use xlink:href="#DejaVuSans-20" x="242.919922"/>
      <use xlink:href="#DejaVuSans-63" x="274.707031"/>
      <use xlink:href="#DejaVuSans-6c" x="329.6875"/>
      <use xlink:href="#DejaVuSans-61" x="357.470703"/>
      <use xlink:href="#DejaVuSans-73" x="418.75"/>
      <use xlink:href="#DejaVuSans-73" x="470.849609"/>
     </g>
    </g>
   </g>
  </g>
 </g>
 <defs>
  <clipPath id="p5286ade9e6">
   <rect x="7.2" y="7.2" width="410.4" height="603.529412"/>
  </clipPath>
 </defs>
</svg>
