<?xml version="1.0" encoding="UTF-8" standalone="no"?>
<!DOCTYPE svg PUBLIC "-//W3C//DTD SVG 1.1//EN"
 "http://www.w3.org/Graphics/SVG/1.1/DTD/svg11.dtd">
<!-- Generated by graphviz version 2.44.0 (0)
 -->
<!-- Pages: 1 -->
<svg width="341pt" height="709pt"
 viewBox="14.40 14.40 326.40 694.40" xmlns="http://www.w3.org/2000/svg" xmlns:xlink="http://www.w3.org/1999/xlink">
<g id="graph0" class="graph" transform="scale(1 1) rotate(0) translate(18.4 690.4)">
<g id="clust1" class="cluster">
<title>cluster_gat</title>
<polygon fill="#f28e2b" fill-opacity="0.062745" stroke="#f28e2b" stroke-dasharray="5,2" stroke-opacity="0.376471" points="8,-8 8,-596 296,-596 296,-8 8,-8"/>
<text text-anchor="middle" x="39.5" y="-584.8" font-family="CMU Serif" font-size="9.00" fill="#f28e2b" fill-opacity="0.564706">GAT Model</text>
</g>
<!-- gat_L2_0 -->
<g id="node1" class="node">
<title>gat_L2_0</title>
<ellipse fill="#fde8d0" stroke="#f28e2b" cx="19" cy="-307" rx="11" ry="11"/>
<text text-anchor="middle" x="19" y="-305.4" font-family="CMU Serif" font-size="7.00" fill="#333333">v₁</text>
</g>
<!-- gat_L2_1 -->
<g id="node2" class="node">
<title>gat_L2_1</title>
<ellipse fill="#fde8d0" stroke="#f28e2b" cx="70" cy="-307" rx="11" ry="11"/>
<text text-anchor="middle" x="70" y="-305.4" font-family="CMU Serif" font-size="7.00" fill="#333333">v₂</text>
</g>
<!-- gat_L2_0&#45;&gt;gat_L2_1 -->
<g id="edge17" class="edge">
<title>gat_L2_0&#45;&gt;gat_L2_1</title>
<path fill="none" stroke="#f28e2b" stroke-width="0.6" stroke-opacity="0.501961" d="M30.16,-307C37.91,-307 45.67,-307 53.42,-307"/>
<polygon fill="#f28e2b" fill-opacity="0.501961" stroke="#f28e2b" stroke-width="0.6" stroke-opacity="0.501961" points="53.79,-308.75 58.79,-307 53.79,-305.25 53.79,-308.75"/>
</g>
<!-- gat_L2_2 -->
<g id="node3" class="node">
<title>gat_L2_2</title>
<ellipse fill="#fde8d0" stroke="#f28e2b" cx="121" cy="-307" rx="11" ry="11"/>
<text text-anchor="middle" x="121" y="-305.4" font-family="CMU Serif" font-size="7.00" fill="#333333">v₃</text>
</g>
<!-- gat_L2_0&#45;&gt;gat_L2_2 -->
<g id="edge18" class="edge">
<title>gat_L2_0&#45;&gt;gat_L2_2</title>
<path fill="none" stroke="#f28e2b" stroke-width="0.6" stroke-opacity="0.501961" d="M22.06,-317.71C27.05,-332.97 38.58,-360.38 59.5,-372 68.05,-376.75 72.98,-376.79 81.5,-372 100.11,-361.53 110.97,-338.35 116.45,-322.7"/>
<polygon fill="#f28e2b" fill-opacity="0.501961" stroke="#f28e2b" stroke-width="0.6" stroke-opacity="0.501961" points="118.19,-323 118.1,-317.7 114.87,-321.9 118.19,-323"/>
</g>
<!-- gat_L2_1&#45;&gt;gat_L2_2 -->
<g id="edge19" class="edge">
<title>gat_L2_1&#45;&gt;gat_L2_2</title>
<path fill="none" stroke="#f28e2b" stroke-width="0.6" stroke-opacity="0.501961" d="M81.16,-307C88.91,-307 96.67,-307 104.42,-307"/>
<polygon fill="#f28e2b" fill-opacity="0.501961" stroke="#f28e2b" stroke-width="0.6" stroke-opacity="0.501961" points="104.79,-308.75 109.79,-307 104.79,-305.25 104.79,-308.75"/>
</g>
<!-- gat_L2_3 -->
<g id="node4" class="node">
<title>gat_L2_3</title>
<ellipse fill="#fde8d0" stroke="#f28e2b" cx="172" cy="-307" rx="11" ry="11"/>
<text text-anchor="middle" x="172" y="-305.4" font-family="CMU Serif" font-size="7.00" fill="#333333">v₄</text>
</g>
<!-- gat_L2_2&#45;&gt;gat_L2_3 -->
<g id="edge20" class="edge">
<title>gat_L2_2&#45;&gt;gat_L2_3</title>
<path fill="none" stroke="#f28e2b" stroke-width="0.6" stroke-opacity="0.501961" d="M132.16,-307C139.91,-307 147.67,-307 155.42,-307"/>
<polygon fill="#f28e2b" fill-opacity="0.501961" stroke="#f28e2b" stroke-width="0.6" stroke-opacity="0.501961" points="155.79,-308.75 160.79,-307 155.79,-305.25 155.79,-308.75"/>
</g>
<!-- gat_L2_4 -->
<g id="node5" class="node">
<title>gat_L2_4</title>
<ellipse fill="#fde8d0" stroke="#f28e2b" cx="223" cy="-307" rx="11" ry="11"/>
<text text-anchor="middle" x="223" y="-305.4" font-family="CMU Serif" font-size="7.00" fill="#333333">v₅</text>
</g>
<!-- gat_L2_3&#45;&gt;gat_L2_4 -->
<g id="edge21" class="edge">
<title>gat_L2_3&#45;&gt;gat_L2_4</title>
<path fill="none" stroke="#f28e2b" stroke-width="0.6" stroke-opacity="0.501961" d="M183.16,-307C190.91,-307 198.67,-307 206.42,-307"/>
<polygon fill="#f28e2b" fill-opacity="0.501961" stroke="#f28e2b" stroke-width="0.6" stroke-opacity="0.501961" points="206.79,-308.75 211.79,-307 206.79,-305.25 206.79,-308.75"/>
</g>
<!-- gat_L2_4&#45;&gt;gat_L2_0 -->
<g id="edge22" class="edge">
<title>gat_L2_4&#45;&gt;gat_L2_0</title>
<path fill="none" stroke="#f28e2b" stroke-width="0.6" stroke-opacity="0.501961" d="M220.1,-317.7C215.33,-332.95 204.22,-360.35 183.5,-372 135.47,-399.02 107.68,-398.75 59.5,-372 40.7,-361.56 29.49,-338.37 23.78,-322.71"/>
<polygon fill="#f28e2b" fill-opacity="0.501961" stroke="#f28e2b" stroke-width="0.6" stroke-opacity="0.501961" points="25.34,-321.87 22.06,-317.71 22.04,-323.01 25.34,-321.87"/>
</g>
<!-- gat_jk -->
<g id="node16" class="node">
<title>gat_jk</title>
<path fill="#fde8d0" stroke="#f28e2b" d="M279.5,-188C279.5,-188 248.5,-188 248.5,-188 242.5,-188 236.5,-182 236.5,-176 236.5,-176 236.5,-164 236.5,-164 236.5,-158 242.5,-152 248.5,-152 248.5,-152 279.5,-152 279.5,-152 285.5,-152 291.5,-158 291.5,-164 291.5,-164 291.5,-176 291.5,-176 291.5,-182 285.5,-188 279.5,-188"/>
<text text-anchor="middle" x="264" y="-168.1" font-family="CMU Serif" font-size="8.00" fill="#333333">JK Concat</text>
</g>
<!-- gat_L2_4&#45;&gt;gat_jk -->
<g id="edge23" class="edge">
<title>gat_L2_4&#45;&gt;gat_jk</title>
<path fill="none" stroke="grey" stroke-width="0.6" stroke-dasharray="5,2" d="M225.95,-296.29C232.47,-274.8 248.28,-222.77 257.33,-192.95"/>
<polygon fill="grey" stroke="grey" stroke-width="0.6" points="259.05,-193.31 258.83,-188.01 255.71,-192.29 259.05,-193.31"/>
</g>
<!-- gat_L0_0 -->
<g id="node6" class="node">
<title>gat_L0_0</title>
<ellipse fill="#fde8d0" stroke="#f28e2b" cx="132" cy="-567" rx="11" ry="11"/>
<text text-anchor="middle" x="132" y="-565.4" font-family="CMU Serif" font-size="7.00" fill="#333333">v₁</text>
</g>
<!-- gat_L0_1 -->
<g id="node7" class="node">
<title>gat_L0_1</title>
<ellipse fill="#fde8d0" stroke="#f28e2b" cx="183" cy="-567" rx="11" ry="11"/>
<text text-anchor="middle" x="183" y="-565.4" font-family="CMU Serif" font-size="7.00" fill="#333333">v₂</text>
</g>
<!-- gat_L0_0&#45;&gt;gat_L0_1 -->
<g id="edge1" class="edge">
<title>gat_L0_0&#45;&gt;gat_L0_1</title>
<path fill="none" stroke="#f28e2b" stroke-width="0.6" stroke-opacity="0.501961" d="M143.16,-567C150.91,-567 158.67,-567 166.42,-567"/>
<polygon fill="#f28e2b" fill-opacity="0.501961" stroke="#f28e2b" stroke-width="0.6" stroke-opacity="0.501961" points="166.79,-568.75 171.79,-567 166.79,-565.25 166.79,-568.75"/>
</g>
<!-- gat_L0_2 -->
<g id="node8" class="node">
<title>gat_L0_2</title>
<ellipse fill="#fde8d0" stroke="#f28e2b" cx="234" cy="-567" rx="11" ry="11"/>
<text text-anchor="middle" x="234" y="-565.4" font-family="CMU Serif" font-size="7.00" fill="#333333">v₃</text>
</g>
<!-- gat_L0_0&#45;&gt;gat_L0_2 -->
<g id="edge2" class="edge">
<title>gat_L0_0&#45;&gt;gat_L0_2</title>
<path fill="none" stroke="#f28e2b" stroke-width="0.6" stroke-opacity="0.501961" d="M134.73,-577.92C141.96,-604.64 163.23,-669.75 194.5,-650 217.79,-635.29 227.63,-602.7 231.57,-583.01"/>
<polygon fill="#f28e2b" fill-opacity="0.501961" stroke="#f28e2b" stroke-width="0.6" stroke-opacity="0.501961" points="233.29,-583.3 232.49,-578.07 229.85,-582.66 233.29,-583.3"/>
</g>
<!-- gat_L0_1&#45;&gt;gat_L0_2 -->
<g id="edge3" class="edge">
<title>gat_L0_1&#45;&gt;gat_L0_2</title>
<path fill="none" stroke="#f28e2b" stroke-width="0.6" stroke-opacity="0.501961" d="M194.16,-567C201.91,-567 209.67,-567 217.42,-567"/>
<polygon fill="#f28e2b" fill-opacity="0.501961" stroke="#f28e2b" stroke-width="0.6" stroke-opacity="0.501961" points="217.79,-568.75 222.79,-567 217.79,-565.25 217.79,-568.75"/>
</g>
<!-- gat_L0_3 -->
<g id="node9" class="node">
<title>gat_L0_3</title>
<ellipse fill="#fde8d0" stroke="#f28e2b" cx="285" cy="-567" rx="11" ry="11"/>
<text text-anchor="middle" x="285" y="-565.4" font-family="CMU Serif" font-size="7.00" fill="#333333">v₄</text>
</g>
<!-- gat_L0_2&#45;&gt;gat_L0_3 -->
<g id="edge4" class="edge">
<title>gat_L0_2&#45;&gt;gat_L0_3</title>
<path fill="none" stroke="#f28e2b" stroke-width="0.6" stroke-opacity="0.501961" d="M245.16,-567C252.91,-567 260.67,-567 268.42,-567"/>
<polygon fill="#f28e2b" fill-opacity="0.501961" stroke="#f28e2b" stroke-width="0.6" stroke-opacity="0.501961" points="268.79,-568.75 273.79,-567 268.79,-565.25 268.79,-568.75"/>
</g>
<!-- gat_L0_4 -->
<g id="node10" class="node">
<title>gat_L0_4</title>
<ellipse fill="#fde8d0" stroke="#f28e2b" cx="81" cy="-567" rx="11" ry="11"/>
<text text-anchor="middle" x="81" y="-565.4" font-family="CMU Serif" font-size="7.00" fill="#333333">v₅</text>
</g>
<!-- gat_L0_3&#45;&gt;gat_L0_4 -->
<g id="edge5" class="edge">
<title>gat_L0_3&#45;&gt;gat_L0_4</title>
<path fill="none" stroke="#f28e2b" stroke-width="0.6" stroke-opacity="0.501961" d="M283.49,-578.07C280.28,-596.73 270.87,-633.98 245.5,-650 198.9,-679.43 168.24,-679.2 121.5,-650 98.03,-635.34 87.8,-602.73 83.62,-583.03"/>
<polygon fill="#f28e2b" fill-opacity="0.501961" stroke="#f28e2b" stroke-width="0.6" stroke-opacity="0.501961" points="85.33,-582.64 82.64,-578.08 81.9,-583.32 85.33,-582.64"/>
</g>
<!-- gat_L0_4&#45;&gt;gat_L0_0 -->
<g id="edge6" class="edge">
<title>gat_L0_4&#45;&gt;gat_L0_0</title>
<path fill="none" stroke="#f28e2b" stroke-width="0.6" stroke-opacity="0.501961" d="M92.16,-567C99.91,-567 107.67,-567 115.42,-567"/>
<polygon fill="#f28e2b" fill-opacity="0.501961" stroke="#f28e2b" stroke-width="0.6" stroke-opacity="0.501961" points="115.79,-568.75 120.79,-567 115.79,-565.25 115.79,-568.75"/>
</g>
<!-- gat_L1_0 -->
<g id="node11" class="node">
<title>gat_L1_0</title>
<ellipse fill="#fde8d0" stroke="#f28e2b" cx="81" cy="-437" rx="11" ry="11"/>
<text text-anchor="middle" x="81" y="-435.4" font-family="CMU Serif" font-size="7.00" fill="#333333">v₁</text>
</g>
<!-- gat_L0_4&#45;&gt;gat_L1_0 -->
<g id="edge7" class="edge">
<title>gat_L0_4&#45;&gt;gat_L1_0</title>
<path fill="none" stroke="grey" stroke-dasharray="5,2" d="M81,-555.96C81,-533.73 81,-480.24 81,-453.61"/>
<polygon fill="grey" stroke="grey" points="82.75,-453.35 81,-448.35 79.25,-453.35 82.75,-453.35"/>
</g>
<!-- gat_L0_4&#45;&gt;gat_jk -->
<g id="edge8" class="edge">
<title>gat_L0_4&#45;&gt;gat_jk</title>
<path fill="none" stroke="grey" stroke-width="0.6" stroke-dasharray="5,2" d="M90.85,-561.08C125.47,-543.57 240.58,-483.41 260,-448 306.08,-363.98 282.86,-242.96 270.29,-193.42"/>
<polygon fill="grey" stroke="grey" stroke-width="0.6" points="271.91,-192.7 268.97,-188.3 268.53,-193.58 271.91,-192.7"/>
</g>
<!-- gat_L1_1 -->
<g id="node12" class="node">
<title>gat_L1_1</title>
<ellipse fill="#fde8d0" stroke="#f28e2b" cx="132" cy="-437" rx="11" ry="11"/>
<text text-anchor="middle" x="132" y="-435.4" font-family="CMU Serif" font-size="7.00" fill="#333333">v₂</text>
</g>
<!-- gat_L1_0&#45;&gt;gat_L1_1 -->
<g id="edge9" class="edge">
<title>gat_L1_0&#45;&gt;gat_L1_1</title>
<path fill="none" stroke="#f28e2b" stroke-width="0.6" stroke-opacity="0.501961" d="M92.16,-437C99.91,-437 107.67,-437 115.42,-437"/>
<polygon fill="#f28e2b" fill-opacity="0.501961" stroke="#f28e2b" stroke-width="0.6" stroke-opacity="0.501961" points="115.79,-438.75 120.79,-437 115.79,-435.25 115.79,-438.75"/>
</g>
<!-- gat_L1_2 -->
<g id="node13" class="node">
<title>gat_L1_2</title>
<ellipse fill="#fde8d0" stroke="#f28e2b" cx="183" cy="-437" rx="11" ry="11"/>
<text text-anchor="middle" x="183" y="-435.4" font-family="CMU Serif" font-size="7.00" fill="#333333">v₃</text>
</g>
<!-- gat_L1_0&#45;&gt;gat_L1_2 -->
<g id="edge10" class="edge">
<title>gat_L1_0&#45;&gt;gat_L1_2</title>
<path fill="none" stroke="#f28e2b" stroke-width="0.6" stroke-opacity="0.501961" d="M84.06,-447.71C89.05,-462.97 100.58,-490.38 121.5,-502 130.05,-506.75 134.98,-506.79 143.5,-502 162.11,-491.53 172.97,-468.35 178.45,-452.7"/>
<polygon fill="#f28e2b" fill-opacity="0.501961" stroke="#f28e2b" stroke-width="0.6" stroke-opacity="0.501961" points="180.19,-453 180.1,-447.7 176.87,-451.9 180.19,-453"/>
</g>
<!-- gat_L1_1&#45;&gt;gat_L1_2 -->
<g id="edge11" class="edge">
<title>gat_L1_1&#45;&gt;gat_L1_2</title>
<path fill="none" stroke="#f28e2b" stroke-width="0.6" stroke-opacity="0.501961" d="M143.16,-437C150.91,-437 158.67,-437 166.42,-437"/>
<polygon fill="#f28e2b" fill-opacity="0.501961" stroke="#f28e2b" stroke-width="0.6" stroke-opacity="0.501961" points="166.79,-438.75 171.79,-437 166.79,-435.25 166.79,-438.75"/>
</g>
<!-- gat_L1_3 -->
<g id="node14" class="node">
<title>gat_L1_3</title>
<ellipse fill="#fde8d0" stroke="#f28e2b" cx="234" cy="-437" rx="11" ry="11"/>
<text text-anchor="middle" x="234" y="-435.4" font-family="CMU Serif" font-size="7.00" fill="#333333">v₄</text>
</g>
<!-- gat_L1_2&#45;&gt;gat_L1_3 -->
<g id="edge12" class="edge">
<title>gat_L1_2&#45;&gt;gat_L1_3</title>
<path fill="none" stroke="#f28e2b" stroke-width="0.6" stroke-opacity="0.501961" d="M194.16,-437C201.91,-437 209.67,-437 217.42,-437"/>
<polygon fill="#f28e2b" fill-opacity="0.501961" stroke="#f28e2b" stroke-width="0.6" stroke-opacity="0.501961" points="217.79,-438.75 222.79,-437 217.79,-435.25 217.79,-438.75"/>
</g>
<!-- gat_L1_4 -->
<g id="node15" class="node">
<title>gat_L1_4</title>
<ellipse fill="#fde8d0" stroke="#f28e2b" cx="30" cy="-437" rx="11" ry="11"/>
<text text-anchor="middle" x="30" y="-435.4" font-family="CMU Serif" font-size="7.00" fill="#333333">v₅</text>
</g>
<!-- gat_L1_3&#45;&gt;gat_L1_4 -->
<g id="edge13" class="edge">
<title>gat_L1_3&#45;&gt;gat_L1_4</title>
<path fill="none" stroke="#f28e2b" stroke-width="0.6" stroke-opacity="0.501961" d="M231.1,-447.7C226.33,-462.95 215.22,-490.35 194.5,-502 146.47,-529.02 118.68,-528.75 70.5,-502 51.7,-491.56 40.49,-468.37 34.78,-452.71"/>
<polygon fill="#f28e2b" fill-opacity="0.501961" stroke="#f28e2b" stroke-width="0.6" stroke-opacity="0.501961" points="36.34,-451.87 33.06,-447.71 33.04,-453.01 36.34,-451.87"/>
</g>
<!-- gat_L1_4&#45;&gt;gat_L2_0 -->
<g id="edge15" class="edge">
<title>gat_L1_4&#45;&gt;gat_L2_0</title>
<path fill="none" stroke="grey" stroke-dasharray="5,2" d="M29.14,-425.96C27.22,-403.62 22.58,-349.71 20.31,-323.21"/>
<polygon fill="grey" stroke="grey" points="22.03,-322.83 19.86,-318 18.54,-323.13 22.03,-322.83"/>
</g>
<!-- gat_L1_4&#45;&gt;gat_L1_0 -->
<g id="edge14" class="edge">
<title>gat_L1_4&#45;&gt;gat_L1_0</title>
<path fill="none" stroke="#f28e2b" stroke-width="0.6" stroke-opacity="0.501961" d="M41.16,-437C48.91,-437 56.67,-437 64.42,-437"/>
<polygon fill="#f28e2b" fill-opacity="0.501961" stroke="#f28e2b" stroke-width="0.6" stroke-opacity="0.501961" points="64.79,-438.75 69.79,-437 64.79,-435.25 64.79,-438.75"/>
</g>
<!-- gat_L1_4&#45;&gt;gat_jk -->
<g id="edge16" class="edge">
<title>gat_L1_4&#45;&gt;gat_jk</title>
<path fill="none" stroke="grey" stroke-width="0.6" stroke-dasharray="5,2" d="M39.94,-432.11C79.19,-416.52 222.54,-357.59 249,-318 274.33,-280.09 271.72,-223.97 267.76,-193.2"/>
<polygon fill="grey" stroke="grey" stroke-width="0.6" points="269.47,-192.83 267.06,-188.12 266.01,-193.31 269.47,-192.83"/>
</g>
<!-- gat_fc -->
<g id="node17" class="node">
<title>gat_fc</title>
<path fill="#fde8d0" stroke="#f28e2b" d="M281.5,-44C281.5,-44 246.5,-44 246.5,-44 240.5,-44 234.5,-38 234.5,-32 234.5,-32 234.5,-20 234.5,-20 234.5,-14 240.5,-8 246.5,-8 246.5,-8 281.5,-8 281.5,-8 287.5,-8 293.5,-14 293.5,-20 293.5,-20 293.5,-32 293.5,-32 293.5,-38 287.5,-44 281.5,-44"/>
<text text-anchor="middle" x="264" y="-24.1" font-family="CMU Serif" font-size="8.00" fill="#333333">FC → class</text>
</g>
<!-- gat_jk&#45;&gt;gat_fc -->
<g id="edge24" class="edge">
<title>gat_jk&#45;&gt;gat_fc</title>
<path fill="none" stroke="grey" d="M264,-151.87C264,-126.18 264,-77.65 264,-49.25"/>
<polygon fill="grey" stroke="grey" points="265.75,-49.19 264,-44.19 262.25,-49.19 265.75,-49.19"/>
</g>
</g>
</svg>
