<?xml version="1.0" encoding="UTF-8" standalone="no"?>
<!DOCTYPE svg PUBLIC "-//W3C//DTD SVG 1.1//EN"
 "http://www.w3.org/Graphics/SVG/1.1/DTD/svg11.dtd">
<!-- Generated by graphviz version 2.44.0 (0)
 -->
<!-- Pages: 1 -->
<svg width="227pt" height="629pt"
 viewBox="14.40 14.40 212.74 614.64" xmlns="http://www.w3.org/2000/svg" xmlns:xlink="http://www.w3.org/1999/xlink">
<g id="graph0" class="graph" transform="scale(1 1) rotate(0) translate(18.4 610.64)">
<g id="clust1" class="cluster">
<title>cluster_gat_L0</title>
<polygon fill="#f28e2b" fill-opacity="0.062745" stroke="#f28e2b" stroke-dasharray="5,2" stroke-opacity="0.376471" points="61.78,0 61.78,-160.24 190.34,-160.24 190.34,0 61.78,0"/>
<text text-anchor="middle" x="93.28" y="-149.04" font-family="CMU Serif" font-size="9.00" fill="#f28e2b" fill-opacity="0.564706">GAT Model</text>
</g>
<!-- gat_L0_v₁ -->
<g id="node1" class="node">
<title>gat_L0_v₁</title>
<ellipse fill="#fde8d0" stroke="#f28e2b" cx="179.34" cy="-83" rx="11" ry="11"/>
<text text-anchor="middle" x="179.34" y="-81.1" font-family="CMU Serif" font-size="8.00" fill="#333333">v₁</text>
</g>
<!-- gat_L0_v₂ -->
<g id="node2" class="node">
<title>gat_L0_v₂</title>
<ellipse fill="#fde8d0" stroke="#f28e2b" cx="178.62" cy="-11" rx="11" ry="11"/>
<text text-anchor="middle" x="178.62" y="-9.1" font-family="CMU Serif" font-size="8.00" fill="#333333">v₂</text>
</g>
<!-- gat_L0_v₁&#45;&gt;gat_L0_v₂ -->
<g id="edge1" class="edge">
<title>gat_L0_v₁&#45;&gt;gat_L0_v₂</title>
<path fill="none" stroke="#f28e2b" stroke-opacity="0.501961" d="M179.23,-71.75C179.11,-59.88 178.92,-41.05 178.79,-27.5"/>
<polygon fill="#f28e2b" fill-opacity="0.501961" stroke="#f28e2b" stroke-opacity="0.501961" points="180.54,-27.39 178.74,-22.41 177.04,-27.43 180.54,-27.39"/>
</g>
<!-- gat_L0_v₃ -->
<g id="node3" class="node">
<title>gat_L0_v₃</title>
<ellipse fill="#fde8d0" stroke="#f28e2b" cx="113.1" cy="-41.24" rx="11" ry="11"/>
<text text-anchor="middle" x="113.1" y="-39.34" font-family="CMU Serif" font-size="8.00" fill="#333333">v₃</text>
</g>
<!-- gat_L0_v₁&#45;&gt;gat_L0_v₃ -->
<g id="edge2" class="edge">
<title>gat_L0_v₁&#45;&gt;gat_L0_v₃</title>
<path fill="none" stroke="#f28e2b" stroke-opacity="0.501961" d="M169.85,-77.02C158.64,-69.95 139.88,-58.12 127.02,-50.01"/>
<polygon fill="#f28e2b" fill-opacity="0.501961" stroke="#f28e2b" stroke-opacity="0.501961" points="127.74,-48.4 122.58,-47.21 125.87,-51.36 127.74,-48.4"/>
</g>
<!-- gat_L1_v₄ -->
<g id="node6" class="node">
<title>gat_L1_v₄</title>
<ellipse fill="#fde8d0" stroke="#f28e2b" cx="72.78" cy="-324.2" rx="11" ry="11"/>
<text text-anchor="middle" x="72.78" y="-322.3" font-family="CMU Serif" font-size="8.00" fill="#333333">v₄</text>
</g>
<!-- gat_L0_v₁&#45;&gt;gat_L1_v₄ -->
<g id="edge7" class="edge">
<title>gat_L0_v₁&#45;&gt;gat_L1_v₄</title>
<path fill="none" stroke="#f28e2b" stroke-dasharray="5,2" d="M174.76,-93.36C157.93,-131.48 99.38,-264 79.47,-309.06"/>
<polygon fill="#f28e2b" stroke="#f28e2b" points="77.76,-308.59 77.34,-313.87 80.97,-310.01 77.76,-308.59"/>
</g>
<!-- gat_L0_v₂&#45;&gt;gat_L0_v₃ -->
<g id="edge3" class="edge">
<title>gat_L0_v₂&#45;&gt;gat_L0_v₃</title>
<path fill="none" stroke="#f28e2b" stroke-opacity="0.501961" d="M168.39,-15.73C157.58,-20.71 140.45,-28.62 128.12,-34.31"/>
<polygon fill="#f28e2b" fill-opacity="0.501961" stroke="#f28e2b" stroke-opacity="0.501961" points="127.29,-32.76 123.49,-36.45 128.76,-35.94 127.29,-32.76"/>
</g>
<!-- gat_L0_v₄ -->
<g id="node4" class="node">
<title>gat_L0_v₄</title>
<ellipse fill="#fde8d0" stroke="#f28e2b" cx="72.78" cy="-108.2" rx="11" ry="11"/>
<text text-anchor="middle" x="72.78" y="-106.3" font-family="CMU Serif" font-size="8.00" fill="#333333">v₄</text>
</g>
<!-- gat_L0_v₃&#45;&gt;gat_L0_v₄ -->
<g id="edge4" class="edge">
<title>gat_L0_v₃&#45;&gt;gat_L0_v₄</title>
<path fill="none" stroke="#f28e2b" stroke-opacity="0.501961" d="M107.33,-50.83C100.5,-62.17 89.08,-81.13 81.26,-94.13"/>
<polygon fill="#f28e2b" fill-opacity="0.501961" stroke="#f28e2b" stroke-opacity="0.501961" points="79.63,-93.44 78.55,-98.62 82.63,-95.24 79.63,-93.44"/>
</g>
<!-- gat_L0_v₅ -->
<g id="node5" class="node">
<title>gat_L0_v₅</title>
<ellipse fill="#fde8d0" stroke="#f28e2b" cx="138.3" cy="-149.24" rx="11" ry="11"/>
<text text-anchor="middle" x="138.3" y="-147.34" font-family="CMU Serif" font-size="8.00" fill="#333333">v₅</text>
</g>
<!-- gat_L0_v₄&#45;&gt;gat_L0_v₅ -->
<g id="edge5" class="edge">
<title>gat_L0_v₄&#45;&gt;gat_L0_v₅</title>
<path fill="none" stroke="#f28e2b" stroke-opacity="0.501961" d="M82.17,-114.08C93.26,-121.03 111.82,-132.65 124.54,-140.62"/>
<polygon fill="#f28e2b" fill-opacity="0.501961" stroke="#f28e2b" stroke-opacity="0.501961" points="123.77,-142.2 128.93,-143.37 125.62,-139.23 123.77,-142.2"/>
</g>
<!-- gat_L0_v₅&#45;&gt;gat_L0_v₁ -->
<g id="edge6" class="edge">
<title>gat_L0_v₅&#45;&gt;gat_L0_v₁</title>
<path fill="none" stroke="#f28e2b" stroke-opacity="0.501961" d="M144.18,-139.75C151.13,-128.53 162.75,-109.78 170.72,-96.92"/>
<polygon fill="#f28e2b" fill-opacity="0.501961" stroke="#f28e2b" stroke-opacity="0.501961" points="172.33,-97.65 173.47,-92.47 169.35,-95.8 172.33,-97.65"/>
</g>
<!-- jk -->
<g id="node7" class="node">
<title>jk</title>
<path fill="#fde8d0" stroke="#f28e2b" d="M133,-291.13C133,-291.13 97,-291.13 97,-291.13 91,-291.13 85,-285.13 85,-279.13 85,-279.13 85,-267.13 85,-267.13 85,-261.13 91,-255.13 97,-255.13 97,-255.13 133,-255.13 133,-255.13 139,-255.13 145,-261.13 145,-267.13 145,-267.13 145,-279.13 145,-279.13 145,-285.13 139,-291.13 133,-291.13"/>
<text text-anchor="middle" x="115" y="-270.93" font-family="CMU Serif" font-size="9.00" fill="#333333">JK Concat</text>
</g>
<!-- gat_L0_v₅&#45;&gt;jk -->
<g id="edge8" class="edge">
<title>gat_L0_v₅&#45;&gt;jk</title>
<path fill="none" stroke="#f28e2b" stroke-dasharray="5,2" d="M136.24,-160.23C132.48,-180.22 124.44,-222.91 119.41,-249.69"/>
<polygon fill="#f28e2b" stroke="#f28e2b" points="117.65,-249.58 118.44,-254.82 121.09,-250.23 117.65,-249.58"/>
</g>
<!-- gat_L1_v₅ -->
<g id="node12" class="node">
<title>gat_L1_v₅</title>
<ellipse fill="#fde8d0" stroke="#f28e2b" cx="138.3" cy="-365.24" rx="11" ry="11"/>
<text text-anchor="middle" x="138.3" y="-363.34" font-family="CMU Serif" font-size="8.00" fill="#333333">v₅</text>
</g>
<!-- gat_L1_v₄&#45;&gt;gat_L1_v₅ -->
<g id="edge14" class="edge">
<title>gat_L1_v₄&#45;&gt;gat_L1_v₅</title>
<path fill="none" stroke="#f28e2b" stroke-opacity="0.501961" d="M82.17,-330.08C93.26,-337.03 111.82,-348.65 124.54,-356.62"/>
<polygon fill="#f28e2b" fill-opacity="0.501961" stroke="#f28e2b" stroke-opacity="0.501961" points="123.77,-358.2 128.93,-359.37 125.62,-355.23 123.77,-358.2"/>
</g>
<!-- fc -->
<g id="node17" class="node">
<title>fc</title>
<path fill="#fde8d0" stroke="#f28e2b" d="M51,-259.38C51,-259.38 12,-259.38 12,-259.38 6,-259.38 0,-253.38 0,-247.38 0,-247.38 0,-235.38 0,-235.38 0,-229.38 6,-223.38 12,-223.38 12,-223.38 51,-223.38 51,-223.38 57,-223.38 63,-229.38 63,-235.38 63,-235.38 63,-247.38 63,-247.38 63,-253.38 57,-259.38 51,-259.38"/>
<text text-anchor="middle" x="31.5" y="-239.18" font-family="CMU Serif" font-size="9.00" fill="#333333">FC → class</text>
</g>
<!-- jk&#45;&gt;fc -->
<g id="edge24" class="edge">
<title>jk&#45;&gt;fc</title>
<path fill="none" stroke="#f28e2b" d="M84.85,-261.66C79.31,-259.55 73.46,-257.33 67.76,-255.16"/>
<polygon fill="#f28e2b" stroke="#f28e2b" points="68.3,-253.5 63.01,-253.36 67.06,-256.77 68.3,-253.5"/>
</g>
<!-- gat_L1_v₁ -->
<g id="node8" class="node">
<title>gat_L1_v₁</title>
<ellipse fill="#fde8d0" stroke="#f28e2b" cx="179.34" cy="-299" rx="11" ry="11"/>
<text text-anchor="middle" x="179.34" y="-297.1" font-family="CMU Serif" font-size="8.00" fill="#333333">v₁</text>
</g>
<!-- gat_L1_v₂ -->
<g id="node9" class="node">
<title>gat_L1_v₂</title>
<ellipse fill="#fde8d0" stroke="#f28e2b" cx="178.62" cy="-227" rx="11" ry="11"/>
<text text-anchor="middle" x="178.62" y="-225.1" font-family="CMU Serif" font-size="8.00" fill="#333333">v₂</text>
</g>
<!-- gat_L1_v₁&#45;&gt;gat_L1_v₂ -->
<g id="edge9" class="edge">
<title>gat_L1_v₁&#45;&gt;gat_L1_v₂</title>
<path fill="none" stroke="#f28e2b" stroke-opacity="0.501961" d="M179.23,-287.75C179.11,-275.88 178.92,-257.05 178.79,-243.5"/>
<polygon fill="#f28e2b" fill-opacity="0.501961" stroke="#f28e2b" stroke-opacity="0.501961" points="180.54,-243.39 178.74,-238.41 177.04,-243.43 180.54,-243.39"/>
</g>
<!-- gat_L1_v₃ -->
<g id="node10" class="node">
<title>gat_L1_v₃</title>
<ellipse fill="#fde8d0" stroke="#f28e2b" cx="113.1" cy="-257.24" rx="11" ry="11"/>
<text text-anchor="middle" x="113.1" y="-255.34" font-family="CMU Serif" font-size="8.00" fill="#333333">v₃</text>
</g>
<!-- gat_L1_v₁&#45;&gt;gat_L1_v₃ -->
<g id="edge10" class="edge">
<title>gat_L1_v₁&#45;&gt;gat_L1_v₃</title>
<path fill="none" stroke="#f28e2b" stroke-opacity="0.501961" d="M169.85,-293.02C158.64,-285.95 139.88,-274.12 127.02,-266.01"/>
<polygon fill="#f28e2b" fill-opacity="0.501961" stroke="#f28e2b" stroke-opacity="0.501961" points="127.74,-264.4 122.58,-263.21 125.87,-267.36 127.74,-264.4"/>
</g>
<!-- gat_L2_v₄ -->
<g id="node11" class="node">
<title>gat_L2_v₄</title>
<ellipse fill="#fde8d0" stroke="#f28e2b" cx="72.78" cy="-540.2" rx="11" ry="11"/>
<text text-anchor="middle" x="72.78" y="-538.3" font-family="CMU Serif" font-size="8.00" fill="#333333">v₄</text>
</g>
<!-- gat_L1_v₁&#45;&gt;gat_L2_v₄ -->
<g id="edge11" class="edge">
<title>gat_L1_v₁&#45;&gt;gat_L2_v₄</title>
<path fill="none" stroke="#f28e2b" stroke-dasharray="5,2" d="M174.76,-309.36C157.93,-347.48 99.38,-480 79.47,-525.06"/>
<polygon fill="#f28e2b" stroke="#f28e2b" points="77.76,-524.59 77.34,-529.87 80.97,-526.01 77.76,-524.59"/>
</g>
<!-- gat_L1_v₂&#45;&gt;gat_L1_v₃ -->
<g id="edge12" class="edge">
<title>gat_L1_v₂&#45;&gt;gat_L1_v₃</title>
<path fill="none" stroke="#f28e2b" stroke-opacity="0.501961" d="M168.39,-231.73C157.58,-236.71 140.45,-244.62 128.12,-250.31"/>
<polygon fill="#f28e2b" fill-opacity="0.501961" stroke="#f28e2b" stroke-opacity="0.501961" points="127.29,-248.76 123.49,-252.45 128.76,-251.94 127.29,-248.76"/>
</g>
<!-- gat_L1_v₃&#45;&gt;gat_L1_v₄ -->
<g id="edge13" class="edge">
<title>gat_L1_v₃&#45;&gt;gat_L1_v₄</title>
<path fill="none" stroke="#f28e2b" stroke-opacity="0.501961" d="M107.33,-266.83C100.5,-278.17 89.08,-297.13 81.26,-310.13"/>
<polygon fill="#f28e2b" fill-opacity="0.501961" stroke="#f28e2b" stroke-opacity="0.501961" points="79.63,-309.44 78.55,-314.62 82.63,-311.24 79.63,-309.44"/>
</g>
<!-- gat_L2_v₅ -->
<g id="node16" class="node">
<title>gat_L2_v₅</title>
<ellipse fill="#fde8d0" stroke="#f28e2b" cx="138.3" cy="-581.24" rx="11" ry="11"/>
<text text-anchor="middle" x="138.3" y="-579.34" font-family="CMU Serif" font-size="8.00" fill="#333333">v₅</text>
</g>
<!-- gat_L2_v₄&#45;&gt;gat_L2_v₅ -->
<g id="edge21" class="edge">
<title>gat_L2_v₄&#45;&gt;gat_L2_v₅</title>
<path fill="none" stroke="#f28e2b" stroke-opacity="0.501961" d="M82.17,-546.08C93.26,-553.03 111.82,-564.65 124.54,-572.62"/>
<polygon fill="#f28e2b" fill-opacity="0.501961" stroke="#f28e2b" stroke-opacity="0.501961" points="123.77,-574.2 128.93,-575.37 125.62,-571.23 123.77,-574.2"/>
</g>
<!-- gat_L1_v₅&#45;&gt;jk -->
<g id="edge16" class="edge">
<title>gat_L1_v₅&#45;&gt;jk</title>
<path fill="none" stroke="#f28e2b" stroke-dasharray="5,2" d="M135.54,-354.31C131.95,-340.11 125.58,-314.94 120.88,-296.38"/>
<polygon fill="#f28e2b" stroke="#f28e2b" points="122.53,-295.75 119.6,-291.33 119.13,-296.61 122.53,-295.75"/>
</g>
<!-- gat_L1_v₅&#45;&gt;gat_L1_v₁ -->
<g id="edge15" class="edge">
<title>gat_L1_v₅&#45;&gt;gat_L1_v₁</title>
<path fill="none" stroke="#f28e2b" stroke-opacity="0.501961" d="M144.18,-355.75C151.13,-344.53 162.75,-325.78 170.72,-312.92"/>
<polygon fill="#f28e2b" fill-opacity="0.501961" stroke="#f28e2b" stroke-opacity="0.501961" points="172.33,-313.65 173.47,-308.47 169.35,-311.8 172.33,-313.65"/>
</g>
<!-- gat_L2_v₁ -->
<g id="node13" class="node">
<title>gat_L2_v₁</title>
<ellipse fill="#fde8d0" stroke="#f28e2b" cx="179.34" cy="-515" rx="11" ry="11"/>
<text text-anchor="middle" x="179.34" y="-513.1" font-family="CMU Serif" font-size="8.00" fill="#333333">v₁</text>
</g>
<!-- gat_L2_v₂ -->
<g id="node14" class="node">
<title>gat_L2_v₂</title>
<ellipse fill="#fde8d0" stroke="#f28e2b" cx="178.62" cy="-443" rx="11" ry="11"/>
<text text-anchor="middle" x="178.62" y="-441.1" font-family="CMU Serif" font-size="8.00" fill="#333333">v₂</text>
</g>
<!-- gat_L2_v₁&#45;&gt;gat_L2_v₂ -->
<g id="edge17" class="edge">
<title>gat_L2_v₁&#45;&gt;gat_L2_v₂</title>
<path fill="none" stroke="#f28e2b" stroke-opacity="0.501961" d="M179.23,-503.75C179.11,-491.88 178.92,-473.05 178.79,-459.5"/>
<polygon fill="#f28e2b" fill-opacity="0.501961" stroke="#f28e2b" stroke-opacity="0.501961" points="180.54,-459.39 178.74,-454.41 177.04,-459.43 180.54,-459.39"/>
</g>
<!-- gat_L2_v₃ -->
<g id="node15" class="node">
<title>gat_L2_v₃</title>
<ellipse fill="#fde8d0" stroke="#f28e2b" cx="113.1" cy="-473.24" rx="11" ry="11"/>
<text text-anchor="middle" x="113.1" y="-471.34" font-family="CMU Serif" font-size="8.00" fill="#333333">v₃</text>
</g>
<!-- gat_L2_v₁&#45;&gt;gat_L2_v₃ -->
<g id="edge18" class="edge">
<title>gat_L2_v₁&#45;&gt;gat_L2_v₃</title>
<path fill="none" stroke="#f28e2b" stroke-opacity="0.501961" d="M169.85,-509.02C158.64,-501.95 139.88,-490.12 127.02,-482.01"/>
<polygon fill="#f28e2b" fill-opacity="0.501961" stroke="#f28e2b" stroke-opacity="0.501961" points="127.74,-480.4 122.58,-479.21 125.87,-483.36 127.74,-480.4"/>
</g>
<!-- gat_L2_v₂&#45;&gt;gat_L2_v₃ -->
<g id="edge19" class="edge">
<title>gat_L2_v₂&#45;&gt;gat_L2_v₃</title>
<path fill="none" stroke="#f28e2b" stroke-opacity="0.501961" d="M168.39,-447.73C157.58,-452.71 140.45,-460.62 128.12,-466.31"/>
<polygon fill="#f28e2b" fill-opacity="0.501961" stroke="#f28e2b" stroke-opacity="0.501961" points="127.29,-464.76 123.49,-468.45 128.76,-467.94 127.29,-464.76"/>
</g>
<!-- gat_L2_v₃&#45;&gt;gat_L2_v₄ -->
<g id="edge20" class="edge">
<title>gat_L2_v₃&#45;&gt;gat_L2_v₄</title>
<path fill="none" stroke="#f28e2b" stroke-opacity="0.501961" d="M107.33,-482.83C100.5,-494.17 89.08,-513.13 81.26,-526.13"/>
<polygon fill="#f28e2b" fill-opacity="0.501961" stroke="#f28e2b" stroke-opacity="0.501961" points="79.63,-525.44 78.55,-530.62 82.63,-527.24 79.63,-525.44"/>
</g>
<!-- gat_L2_v₅&#45;&gt;jk -->
<g id="edge23" class="edge">
<title>gat_L2_v₅&#45;&gt;jk</title>
<path fill="none" stroke="#f28e2b" stroke-dasharray="5,2" d="M137.45,-569.91C134.05,-525.01 121.5,-359.04 116.79,-296.86"/>
<polygon fill="#f28e2b" stroke="#f28e2b" points="118.51,-296.37 116.39,-291.52 115.02,-296.64 118.51,-296.37"/>
</g>
<!-- gat_L2_v₅&#45;&gt;gat_L2_v₁ -->
<g id="edge22" class="edge">
<title>gat_L2_v₅&#45;&gt;gat_L2_v₁</title>
<path fill="none" stroke="#f28e2b" stroke-opacity="0.501961" d="M144.18,-571.75C151.13,-560.53 162.75,-541.78 170.72,-528.92"/>
<polygon fill="#f28e2b" fill-opacity="0.501961" stroke="#f28e2b" stroke-opacity="0.501961" points="172.33,-529.65 173.47,-524.47 169.35,-527.8 172.33,-529.65"/>
</g>
</g>
</svg>
