<?xml version="1.0" encoding="UTF-8" standalone="no"?>
<!DOCTYPE svg PUBLIC "-//W3C//DTD SVG 1.1//EN"
 "http://www.w3.org/Graphics/SVG/1.1/DTD/svg11.dtd">
<!-- Generated by graphviz version 2.44.0 (0)
 -->
<!-- Pages: 1 -->
<svg width="202pt" height="233pt"
 viewBox="14.40 14.40 187.45 218.67" xmlns="http://www.w3.org/2000/svg" xmlns:xlink="http://www.w3.org/1999/xlink">
<g id="graph0" class="graph" transform="scale(1 1) rotate(0) translate(18.4 214.67)">
<!-- g_0x1A0 -->
<g id="node1" class="node">
<title>g_0x1A0</title>
<ellipse fill="#dae3ef" stroke="#4e79a7" cx="136.05" cy="-100.94" rx="29" ry="29"/>
<text text-anchor="middle" x="136.05" y="-99.04" font-family="CMU Serif" font-size="8.00" fill="#333333">0x1A0</text>
</g>
<!-- g_0x2B3 -->
<g id="node2" class="node">
<title>g_0x2B3</title>
<ellipse fill="#dae3ef" stroke="#4e79a7" cx="135.27" cy="-29" rx="29" ry="29"/>
<text text-anchor="middle" x="135.27" y="-27.1" font-family="CMU Serif" font-size="8.00" fill="#333333">0x2B3</text>
</g>
<!-- g_0x1A0&#45;&gt;g_0x2B3 -->
<g id="edge1" class="edge">
<title>g_0x1A0&#45;&gt;g_0x2B3</title>
<path fill="none" stroke="#4e79a7" stroke-width="0.6" stroke-opacity="0.501961" d="M135.73,-71.68C135.68,-67.16 135.63,-62.51 135.58,-58"/>
</g>
<!-- g_0x3C1 -->
<g id="node3" class="node">
<title>g_0x3C1</title>
<ellipse fill="#dae3ef" stroke="#4e79a7" cx="69.97" cy="-59.59" rx="29" ry="29"/>
<text text-anchor="middle" x="69.97" y="-57.69" font-family="CMU Serif" font-size="8.00" fill="#333333">0x3C1</text>
</g>
<!-- g_0x1A0&#45;&gt;g_0x3C1 -->
<g id="edge2" class="edge">
<title>g_0x1A0&#45;&gt;g_0x3C1</title>
<path fill="none" stroke="#4e79a7" stroke-width="0.6" stroke-opacity="0.501961" d="M111.45,-85.54C106.01,-82.14 100.26,-78.54 94.82,-75.14"/>
</g>
<!-- g_0x2B3&#45;&gt;g_0x3C1 -->
<g id="edge3" class="edge">
<title>g_0x2B3&#45;&gt;g_0x3C1</title>
<path fill="none" stroke="#4e79a7" stroke-width="0.6" stroke-opacity="0.501961" d="M108.71,-41.44C104.61,-43.36 100.38,-45.34 96.29,-47.26"/>
</g>
<!-- g_0x4D5 -->
<g id="node4" class="node">
<title>g_0x4D5</title>
<ellipse fill="#dae3ef" stroke="#4e79a7" cx="29" cy="-126" rx="29" ry="29"/>
<text text-anchor="middle" x="29" y="-124.1" font-family="CMU Serif" font-size="8.00" fill="#333333">0x4D5</text>
</g>
<!-- g_0x3C1&#45;&gt;g_0x4D5 -->
<g id="edge4" class="edge">
<title>g_0x3C1&#45;&gt;g_0x4D5</title>
<path fill="none" stroke="#4e79a7" stroke-width="0.6" stroke-opacity="0.501961" d="M54.72,-84.32C51.35,-89.78 47.78,-95.56 44.41,-101.03"/>
</g>
<!-- g_0x5E2 -->
<g id="node5" class="node">
<title>g_0x5E2</title>
<ellipse fill="#dae3ef" stroke="#4e79a7" cx="95.15" cy="-167.27" rx="29" ry="29"/>
<text text-anchor="middle" x="95.15" y="-165.37" font-family="CMU Serif" font-size="8.00" fill="#333333">0x5E2</text>
</g>
<!-- g_0x4D5&#45;&gt;g_0x5E2 -->
<g id="edge5" class="edge">
<title>g_0x4D5&#45;&gt;g_0x5E2</title>
<path fill="none" stroke="#4e79a7" stroke-width="0.6" stroke-opacity="0.501961" d="M53.63,-141.37C59.07,-144.76 64.83,-148.36 70.28,-151.75"/>
</g>
<!-- g_0x5E2&#45;&gt;g_0x1A0 -->
<g id="edge6" class="edge">
<title>g_0x5E2&#45;&gt;g_0x1A0</title>
<path fill="none" stroke="#4e79a7" stroke-width="0.6" stroke-opacity="0.501961" d="M110.38,-142.57C113.74,-137.12 117.31,-131.34 120.67,-125.88"/>
</g>
</g>
</svg>
