<?xml version="1.0" encoding="UTF-8" standalone="no"?>
<!DOCTYPE svg PUBLIC "-//W3C//DTD SVG 1.1//EN"
 "http://www.w3.org/Graphics/SVG/1.1/DTD/svg11.dtd">
<!-- Generated by graphviz version 2.44.0 (0)
 -->
<!-- Pages: 1 -->
<svg width="186pt" height="218pt"
 viewBox="14.40 14.40 171.96 203.64" xmlns="http://www.w3.org/2000/svg" xmlns:xlink="http://www.w3.org/1999/xlink">
<g id="graph0" class="graph" transform="scale(1 1) rotate(0) translate(18.4 199.64)">
<!-- gat_0 -->
<g id="node1" class="node">
<title>gat_0</title>
<ellipse fill="#fde8d0" stroke="#f28e2b" cx="128.06" cy="-93.5" rx="21.5" ry="21.5"/>
<text text-anchor="middle" x="128.06" y="-91.6" font-family="CMU Serif" font-size="8.00" fill="#333333">v₁</text>
</g>
<!-- gat_1 -->
<g id="node2" class="node">
<title>gat_1</title>
<ellipse fill="#fde8d0" stroke="#f28e2b" cx="127.34" cy="-21.5" rx="21.5" ry="21.5"/>
<text text-anchor="middle" x="127.34" y="-19.6" font-family="CMU Serif" font-size="8.00" fill="#333333">v₂</text>
</g>
<!-- gat_0&#45;&gt;gat_1 -->
<g id="edge1" class="edge">
<title>gat_0&#45;&gt;gat_1</title>
<path fill="none" stroke="#f28e2b" stroke-opacity="0.501961" d="M127.84,-71.9C127.75,-62.78 127.65,-52.2 127.56,-43.09"/>
</g>
<!-- gat_2 -->
<g id="node3" class="node">
<title>gat_2</title>
<ellipse fill="#fde8d0" stroke="#f28e2b" cx="61.82" cy="-51.74" rx="21.5" ry="21.5"/>
<text text-anchor="middle" x="61.82" y="-49.84" font-family="CMU Serif" font-size="8.00" fill="#333333">v₃</text>
</g>
<!-- gat_0&#45;&gt;gat_2 -->
<g id="edge2" class="edge">
<title>gat_0&#45;&gt;gat_2</title>
<path fill="none" stroke="#f28e2b" stroke-opacity="0.501961" d="M109.61,-81.87C100.42,-76.08 89.35,-69.09 80.17,-63.31"/>
</g>
<!-- gat_1&#45;&gt;gat_2 -->
<g id="edge3" class="edge">
<title>gat_1&#45;&gt;gat_2</title>
<path fill="none" stroke="#f28e2b" stroke-opacity="0.501961" d="M107.68,-30.57C99.39,-34.4 89.76,-38.85 81.46,-42.67"/>
</g>
<!-- gat_3 -->
<g id="node4" class="node">
<title>gat_3</title>
<ellipse fill="#fde8d0" stroke="#f28e2b" cx="21.5" cy="-118.7" rx="21.5" ry="21.5"/>
<text text-anchor="middle" x="21.5" y="-116.8" font-family="CMU Serif" font-size="8.00" fill="#333333">v₄</text>
</g>
<!-- gat_2&#45;&gt;gat_3 -->
<g id="edge4" class="edge">
<title>gat_2&#45;&gt;gat_3</title>
<path fill="none" stroke="#f28e2b" stroke-opacity="0.501961" d="M50.59,-70.39C45,-79.68 38.26,-90.87 32.67,-100.15"/>
</g>
<!-- gat_4 -->
<g id="node5" class="node">
<title>gat_4</title>
<ellipse fill="#fde8d0" stroke="#f28e2b" cx="87.02" cy="-159.74" rx="21.5" ry="21.5"/>
<text text-anchor="middle" x="87.02" y="-157.84" font-family="CMU Serif" font-size="8.00" fill="#333333">v₅</text>
</g>
<!-- gat_3&#45;&gt;gat_4 -->
<g id="edge5" class="edge">
<title>gat_3&#45;&gt;gat_4</title>
<path fill="none" stroke="#f28e2b" stroke-opacity="0.501961" d="M39.75,-130.13C48.69,-135.73 59.43,-142.46 68.41,-148.08"/>
</g>
<!-- gat_4&#45;&gt;gat_0 -->
<g id="edge6" class="edge">
<title>gat_4&#45;&gt;gat_0</title>
<path fill="none" stroke="#f28e2b" stroke-opacity="0.501961" d="M98.45,-141.29C104.14,-132.1 111.01,-121.03 116.69,-111.85"/>
</g>
</g>
</svg>
