<?xml version="1.0" encoding="utf-8" standalone="no"?>
<!DOCTYPE svg PUBLIC "-//W3C//DTD SVG 1.1//EN"
  "http://www.w3.org/Graphics/SVG/1.1/DTD/svg11.dtd">
<svg xmlns:xlink="http://www.w3.org/1999/xlink" width="322.466272pt" height="280.8pt" viewBox="0 0 322.466272 280.8" xmlns="http://www.w3.org/2000/svg" version="1.1">
 <metadata>
  <rdf:RDF xmlns:dc="http://purl.org/dc/elements/1.1/" xmlns:cc="http://creativecommons.org/ns#" xmlns:rdf="http://www.w3.org/1999/02/22-rdf-syntax-ns#">
   <cc:Work>
    <dc:type rdf:resource="http://purl.org/dc/dcmitype/StillImage"/>
    <dc:date>2026-03-24T14:09:26.455702</dc:date>
    <dc:format>image/svg+xml</dc:format>
    <dc:creator>
     <cc:Agent>
      <dc:title>Matplotlib v3.8.4, https://matplotlib.org/</dc:title>
     </cc:Agent>
    </dc:creator>
   </cc:Work>
  </rdf:RDF>
 </metadata>
 <defs>
  <style type="text/css">*{stroke-linejoin: round; stroke-linecap: butt}</style>
 </defs>
 <g id="figure_1">
  <g id="patch_1">
   <path d="M 0 280.8 
L 322.466272 280.8 
L 322.466272 0 
L 0 0 
L 0 280.8 
z
" style="fill: none"/>
  </g>
  <g id="axes_1">
   <g id="LineCollection_1">
    <path d="M 179.043749 147.697959 
L 187.540216 250.482645 
" clip-path="url(#pfefcf9929c)" style="fill: none; stroke: #4e79a7; stroke-opacity: 0.6"/>
    <path d="M 179.043749 147.697959 
L 288.533248 45.711222 
" clip-path="url(#pfefcf9929c)" style="fill: none; stroke: #4e79a7; stroke-opacity: 0.6"/>
    <path d="M 179.043749 147.697959 
L 33.933024 185.126963 
" clip-path="url(#pfefcf9929c)" style="fill: none; stroke: #4e79a7; stroke-opacity: 0.6"/>
    <path d="M 187.540216 250.482645 
L 33.933024 185.126963 
" clip-path="url(#pfefcf9929c)" style="fill: none; stroke: #4e79a7; stroke-opacity: 0.6"/>
    <path d="M 33.933024 185.126963 
L 104.977926 30.317355 
" clip-path="url(#pfefcf9929c)" style="fill: none; stroke: #4e79a7; stroke-opacity: 0.6"/>
    <path d="M 104.977926 30.317355 
L 288.533248 45.711222 
" clip-path="url(#pfefcf9929c)" style="fill: none; stroke: #4e79a7; stroke-opacity: 0.6"/>
   </g>
   <g id="PathCollection_1">
    <path d="M 179.043749 157.697959 
C 181.69578 157.697959 184.239548 156.644296 186.114817 154.769027 
C 187.990086 152.893758 189.043749 150.34999 189.043749 147.697959 
C 189.043749 145.045928 187.990086 142.502161 186.114817 140.626892 
C 184.239548 138.751623 181.69578 137.697959 179.043749 137.697959 
C 176.391718 137.697959 173.847951 138.751623 171.972682 140.626892 
C 170.097413 142.502161 169.043749 145.045928 169.043749 147.697959 
C 169.043749 150.34999 170.097413 152.893758 171.972682 154.769027 
C 173.847951 156.644296 176.391718 157.697959 179.043749 157.697959 
z
" clip-path="url(#pfefcf9929c)" style="fill: #dae3ef; stroke: #4e79a7"/>
    <path d="M 187.540216 260.482645 
C 190.192247 260.482645 192.736015 259.428982 194.611284 257.553712 
C 196.486553 255.678443 197.540216 253.134676 197.540216 250.482645 
C 197.540216 247.830614 196.486553 245.286846 194.611284 243.411577 
C 192.736015 241.536308 190.192247 240.482645 187.540216 240.482645 
C 184.888185 240.482645 182.344418 241.536308 180.469149 243.411577 
C 178.593879 245.286846 177.540216 247.830614 177.540216 250.482645 
C 177.540216 253.134676 178.593879 255.678443 180.469149 257.553712 
C 182.344418 259.428982 184.888185 260.482645 187.540216 260.482645 
z
" clip-path="url(#pfefcf9929c)" style="fill: #dae3ef; stroke: #4e79a7"/>
    <path d="M 33.933024 195.126963 
C 36.585055 195.126963 39.128822 194.0733 41.004091 192.19803 
C 42.87936 190.322761 43.933024 187.778994 43.933024 185.126963 
C 43.933024 182.474932 42.87936 179.931164 41.004091 178.055895 
C 39.128822 176.180626 36.585055 175.126963 33.933024 175.126963 
C 31.280993 175.126963 28.737225 176.180626 26.861956 178.055895 
C 24.986687 179.931164 23.933024 182.474932 23.933024 185.126963 
C 23.933024 187.778994 24.986687 190.322761 26.861956 192.19803 
C 28.737225 194.0733 31.280993 195.126963 33.933024 195.126963 
z
" clip-path="url(#pfefcf9929c)" style="fill: #dae3ef; stroke: #4e79a7"/>
    <path d="M 104.977926 40.317355 
C 107.629957 40.317355 110.173725 39.263692 112.048994 37.388423 
C 113.924263 35.513154 114.977926 32.969386 114.977926 30.317355 
C 114.977926 27.665324 113.924263 25.121557 112.048994 23.246288 
C 110.173725 21.371018 107.629957 20.317355 104.977926 20.317355 
C 102.325895 20.317355 99.782128 21.371018 97.906859 23.246288 
C 96.03159 25.121557 94.977926 27.665324 94.977926 30.317355 
C 94.977926 32.969386 96.03159 35.513154 97.906859 37.388423 
C 99.782128 39.263692 102.325895 40.317355 104.977926 40.317355 
z
" clip-path="url(#pfefcf9929c)" style="fill: #dae3ef; stroke: #4e79a7"/>
    <path d="M 288.533248 55.711222 
C 291.185279 55.711222 293.729047 54.657559 295.604316 52.78229 
C 297.479585 50.907021 298.533248 48.363253 298.533248 45.711222 
C 298.533248 43.059191 297.479585 40.515424 295.604316 38.640155 
C 293.729047 36.764886 291.185279 35.711222 288.533248 35.711222 
C 285.881217 35.711222 283.337449 36.764886 281.46218 38.640155 
C 279.586911 40.515424 278.533248 43.059191 278.533248 45.711222 
C 278.533248 48.363253 279.586911 50.907021 281.46218 52.78229 
C 283.337449 54.657559 285.881217 55.711222 288.533248 55.711222 
z
" clip-path="url(#pfefcf9929c)" style="fill: #dae3ef; stroke: #4e79a7"/>
   </g>
   <g id="text_1">
    <g clip-path="url(#pfefcf9929c)">
     <!-- 0x1A0 -->
     <g transform="translate(166.304999 149.905459) scale(0.08 -0.08)">
      <defs>
       <path id="DejaVuSans-30" d="M 2034 4250 
Q 1547 4250 1301 3770 
Q 1056 3291 1056 2328 
Q 1056 1369 1301 889 
Q 1547 409 2034 409 
Q 2525 409 2770 889 
Q 3016 1369 3016 2328 
Q 3016 3291 2770 3770 
Q 2525 4250 2034 4250 
z
M 2034 4750 
Q 2819 4750 3233 4129 
Q 3647 3509 3647 2328 
Q 3647 1150 3233 529 
Q 2819 -91 2034 -91 
Q 1250 -91 836 529 
Q 422 1150 422 2328 
Q 422 3509 836 4129 
Q 1250 4750 2034 4750 
z
" transform="scale(0.015625)"/>
       <path id="DejaVuSans-78" d="M 3513 3500 
L 2247 1797 
L 3578 0 
L 2900 0 
L 1881 1375 
L 863 0 
L 184 0 
L 1544 1831 
L 300 3500 
L 978 3500 
L 1906 2253 
L 2834 3500 
L 3513 3500 
z
" transform="scale(0.015625)"/>
       <path id="DejaVuSans-31" d="M 794 531 
L 1825 531 
L 1825 4091 
L 703 3866 
L 703 4441 
L 1819 4666 
L 2450 4666 
L 2450 531 
L 3481 531 
L 3481 0 
L 794 0 
L 794 531 
z
" transform="scale(0.015625)"/>
       <path id="DejaVuSans-41" d="M 2188 4044 
L 1331 1722 
L 3047 1722 
L 2188 4044 
z
M 1831 4666 
L 2547 4666 
L 4325 0 
L 3669 0 
L 3244 1197 
L 1141 1197 
L 716 0 
L 50 0 
L 1831 4666 
z
" transform="scale(0.015625)"/>
      </defs>
      <use xlink:href="#DejaVuSans-30"/>
      <use xlink:href="#DejaVuSans-78" x="63.623047"/>
      <use xlink:href="#DejaVuSans-31" x="122.802734"/>
      <use xlink:href="#DejaVuSans-41" x="186.425781"/>
      <use xlink:href="#DejaVuSans-30" x="254.833984"/>
     </g>
    </g>
   </g>
   <g id="text_2">
    <g clip-path="url(#pfefcf9929c)">
     <!-- 0x2B3 -->
     <g transform="translate(174.793341 252.690145) scale(0.08 -0.08)">
      <defs>
       <path id="DejaVuSans-32" d="M 1228 531 
L 3431 531 
L 3431 0 
L 469 0 
L 469 531 
Q 828 903 1448 1529 
Q 2069 2156 2228 2338 
Q 2531 2678 2651 2914 
Q 2772 3150 2772 3378 
Q 2772 3750 2511 3984 
Q 2250 4219 1831 4219 
Q 1534 4219 1204 4116 
Q 875 4013 500 3803 
L 500 4441 
Q 881 4594 1212 4672 
Q 1544 4750 1819 4750 
Q 2544 4750 2975 4387 
Q 3406 4025 3406 3419 
Q 3406 3131 3298 2873 
Q 3191 2616 2906 2266 
Q 2828 2175 2409 1742 
Q 1991 1309 1228 531 
z
" transform="scale(0.015625)"/>
       <path id="DejaVuSans-42" d="M 1259 2228 
L 1259 519 
L 2272 519 
Q 2781 519 3026 730 
Q 3272 941 3272 1375 
Q 3272 1813 3026 2020 
Q 2781 2228 2272 2228 
L 1259 2228 
z
M 1259 4147 
L 1259 2741 
L 2194 2741 
Q 2656 2741 2882 2914 
Q 3109 3088 3109 3444 
Q 3109 3797 2882 3972 
Q 2656 4147 2194 4147 
L 1259 4147 
z
M 628 4666 
L 2241 4666 
Q 2963 4666 3353 4366 
Q 3744 4066 3744 3513 
Q 3744 3084 3544 2831 
Q 3344 2578 2956 2516 
Q 3422 2416 3680 2098 
Q 3938 1781 3938 1306 
Q 3938 681 3513 340 
Q 3088 0 2303 0 
L 628 0 
L 628 4666 
z
" transform="scale(0.015625)"/>
       <path id="DejaVuSans-33" d="M 2597 2516 
Q 3050 2419 3304 2112 
Q 3559 1806 3559 1356 
Q 3559 666 3084 287 
Q 2609 -91 1734 -91 
Q 1441 -91 1130 -33 
Q 819 25 488 141 
L 488 750 
Q 750 597 1062 519 
Q 1375 441 1716 441 
Q 2309 441 2620 675 
Q 2931 909 2931 1356 
Q 2931 1769 2642 2001 
Q 2353 2234 1838 2234 
L 1294 2234 
L 1294 2753 
L 1863 2753 
Q 2328 2753 2575 2939 
Q 2822 3125 2822 3475 
Q 2822 3834 2567 4026 
Q 2313 4219 1838 4219 
Q 1578 4219 1281 4162 
Q 984 4106 628 3988 
L 628 4550 
Q 988 4650 1302 4700 
Q 1616 4750 1894 4750 
Q 2613 4750 3031 4423 
Q 3450 4097 3450 3541 
Q 3450 3153 3228 2886 
Q 3006 2619 2597 2516 
z
" transform="scale(0.015625)"/>
      </defs>
      <use xlink:href="#DejaVuSans-30"/>
      <use xlink:href="#DejaVuSans-78" x="63.623047"/>
      <use xlink:href="#DejaVuSans-32" x="122.802734"/>
      <use xlink:href="#DejaVuSans-42" x="186.425781"/>
      <use xlink:href="#DejaVuSans-33" x="255.029297"/>
     </g>
    </g>
   </g>
   <g id="text_3">
    <g clip-path="url(#pfefcf9929c)">
     <!-- 0x3C1 -->
     <g transform="translate(21.137399 187.334463) scale(0.08 -0.08)">
      <defs>
       <path id="DejaVuSans-43" d="M 4122 4306 
L 4122 3641 
Q 3803 3938 3442 4084 
Q 3081 4231 2675 4231 
Q 1875 4231 1450 3742 
Q 1025 3253 1025 2328 
Q 1025 1406 1450 917 
Q 1875 428 2675 428 
Q 3081 428 3442 575 
Q 3803 722 4122 1019 
L 4122 359 
Q 3791 134 3420 21 
Q 3050 -91 2638 -91 
Q 1578 -91 968 557 
Q 359 1206 359 2328 
Q 359 3453 968 4101 
Q 1578 4750 2638 4750 
Q 3056 4750 3426 4639 
Q 3797 4528 4122 4306 
z
" transform="scale(0.015625)"/>
      </defs>
      <use xlink:href="#DejaVuSans-30"/>
      <use xlink:href="#DejaVuSans-78" x="63.623047"/>
      <use xlink:href="#DejaVuSans-33" x="122.802734"/>
      <use xlink:href="#DejaVuSans-43" x="186.425781"/>
      <use xlink:href="#DejaVuSans-31" x="256.25"/>
     </g>
    </g>
   </g>
   <g id="text_4">
    <g clip-path="url(#pfefcf9929c)">
     <!-- 0x4D5 -->
     <g transform="translate(91.895426 32.524855) scale(0.08 -0.08)">
      <defs>
       <path id="DejaVuSans-34" d="M 2419 4116 
L 825 1625 
L 2419 1625 
L 2419 4116 
z
M 2253 4666 
L 3047 4666 
L 3047 1625 
L 3713 1625 
L 3713 1100 
L 3047 1100 
L 3047 0 
L 2419 0 
L 2419 1100 
L 313 1100 
L 313 1709 
L 2253 4666 
z
" transform="scale(0.015625)"/>
       <path id="DejaVuSans-44" d="M 1259 4147 
L 1259 519 
L 2022 519 
Q 2988 519 3436 956 
Q 3884 1394 3884 2338 
Q 3884 3275 3436 3711 
Q 2988 4147 2022 4147 
L 1259 4147 
z
M 628 4666 
L 1925 4666 
Q 3281 4666 3915 4102 
Q 4550 3538 4550 2338 
Q 4550 1131 3912 565 
Q 3275 0 1925 0 
L 628 0 
L 628 4666 
z
" transform="scale(0.015625)"/>
       <path id="DejaVuSans-35" d="M 691 4666 
L 3169 4666 
L 3169 4134 
L 1269 4134 
L 1269 2991 
Q 1406 3038 1543 3061 
Q 1681 3084 1819 3084 
Q 2600 3084 3056 2656 
Q 3513 2228 3513 1497 
Q 3513 744 3044 326 
Q 2575 -91 1722 -91 
Q 1428 -91 1123 -41 
Q 819 9 494 109 
L 494 744 
Q 775 591 1075 516 
Q 1375 441 1709 441 
Q 2250 441 2565 725 
Q 2881 1009 2881 1497 
Q 2881 1984 2565 2268 
Q 2250 2553 1709 2553 
Q 1456 2553 1204 2497 
Q 953 2441 691 2322 
L 691 4666 
z
" transform="scale(0.015625)"/>
      </defs>
      <use xlink:href="#DejaVuSans-30"/>
      <use xlink:href="#DejaVuSans-78" x="63.623047"/>
      <use xlink:href="#DejaVuSans-34" x="122.802734"/>
      <use xlink:href="#DejaVuSans-44" x="186.425781"/>
      <use xlink:href="#DejaVuSans-35" x="263.427734"/>
     </g>
    </g>
   </g>
   <g id="text_5">
    <g clip-path="url(#pfefcf9929c)">
     <!-- 0x5E2 -->
     <g transform="translate(276.003248 47.918722) scale(0.08 -0.08)">
      <defs>
       <path id="DejaVuSans-45" d="M 628 4666 
L 3578 4666 
L 3578 4134 
L 1259 4134 
L 1259 2753 
L 3481 2753 
L 3481 2222 
L 1259 2222 
L 1259 531 
L 3634 531 
L 3634 0 
L 628 0 
L 628 4666 
z
" transform="scale(0.015625)"/>
      </defs>
      <use xlink:href="#DejaVuSans-30"/>
      <use xlink:href="#DejaVuSans-78" x="63.623047"/>
      <use xlink:href="#DejaVuSans-35" x="122.802734"/>
      <use xlink:href="#DejaVuSans-45" x="186.425781"/>
      <use xlink:href="#DejaVuSans-32" x="249.609375"/>
     </g>
    </g>
   </g>
  </g>
 </g>
 <defs>
  <clipPath id="pfefcf9929c">
   <rect x="7.2" y="7.2" width="308.066272" height="266.4"/>
  </clipPath>
 </defs>
</svg>
