<?xml version="1.0" encoding="utf-8" standalone="no"?>
<!DOCTYPE svg PUBLIC "-//W3C//DTD SVG 1.1//EN"
  "http://www.w3.org/Graphics/SVG/1.1/DTD/svg11.dtd">
<svg xmlns:xlink="http://www.w3.org/1999/xlink" width="856.8pt" height="675.105882pt" viewBox="0 0 856.8 675.105882" xmlns="http://www.w3.org/2000/svg" version="1.1">
 <metadata>
  <rdf:RDF xmlns:dc="http://purl.org/dc/elements/1.1/" xmlns:cc="http://creativecommons.org/ns#" xmlns:rdf="http://www.w3.org/1999/02/22-rdf-syntax-ns#">
   <cc:Work>
    <dc:type rdf:resource="http://purl.org/dc/dcmitype/StillImage"/>
    <dc:date>2026-03-24T14:09:26.815906</dc:date>
    <dc:format>image/svg+xml</dc:format>
    <dc:creator>
     <cc:Agent>
      <dc:title>Matplotlib v3.8.4, https://matplotlib.org/</dc:title>
     </cc:Agent>
    </dc:creator>
   </cc:Work>
  </rdf:RDF>
 </metadata>
 <defs>
  <style type="text/css">*{stroke-linejoin: round; stroke-linecap: butt}</style>
 </defs>
 <g id="figure_1">
  <g id="patch_1">
   <path d="M 0 675.105882 
L 856.8 675.105882 
L 856.8 -0 
L 0 -0 
L 0 675.105882 
z
" style="fill: none"/>
  </g>
  <g id="axes_1">
   <g id="patch_2">
    <path d="M 86.424756 64.533982 
Q 121.255965 64.533982 154.96914 64.533982 
" clip-path="url(#pad48559076)" style="fill: none; stroke: #f28e2b; stroke-opacity: 0.6; stroke-linecap: round"/>
    <path d="M 150.96914 62.533982 
L 154.96914 64.533982 
L 150.96914 66.533982 
z
" clip-path="url(#pad48559076)" style="fill: #f28e2b; fill-opacity: 0.6; stroke: #f28e2b; stroke-opacity: 0.6; stroke-linecap: round"/>
   </g>
   <g id="patch_3">
    <path d="M 86.424756 64.533982 
Q 244.110568 64.533982 400.678346 64.533982 
" clip-path="url(#pad48559076)" style="fill: none; stroke: #f28e2b; stroke-opacity: 0.6; stroke-linecap: round"/>
    <path d="M 396.678346 62.533982 
L 400.678346 64.533982 
L 396.678346 66.533982 
z
" clip-path="url(#pad48559076)" style="fill: #f28e2b; fill-opacity: 0.6; stroke: #f28e2b; stroke-opacity: 0.6; stroke-linecap: round"/>
   </g>
   <g id="patch_4">
    <path d="M 86.424756 64.533982 
Q 162.205489 64.533982 236.868188 64.533982 
" clip-path="url(#pad48559076)" style="fill: none; stroke: #f28e2b; stroke-opacity: 0.6; stroke-linecap: round"/>
    <path d="M 232.868188 62.533982 
L 236.868188 64.533982 
L 232.868188 66.533982 
z
" clip-path="url(#pad48559076)" style="fill: #f28e2b; fill-opacity: 0.6; stroke: #f28e2b; stroke-opacity: 0.6; stroke-linecap: round"/>
   </g>
   <g id="patch_5">
    <path d="M 168.330444 64.533982 
Q 203.161653 64.533982 236.874828 64.533982 
" clip-path="url(#pad48559076)" style="fill: none; stroke: #f28e2b; stroke-opacity: 0.6; stroke-linecap: round"/>
    <path d="M 232.874828 62.533982 
L 236.874828 64.533982 
L 232.874828 66.533982 
z
" clip-path="url(#pad48559076)" style="fill: #f28e2b; fill-opacity: 0.6; stroke: #f28e2b; stroke-opacity: 0.6; stroke-linecap: round"/>
   </g>
   <g id="patch_6">
    <path d="M 250.236132 64.533982 
Q 285.067341 64.533982 318.780516 64.533982 
" clip-path="url(#pad48559076)" style="fill: none; stroke: #f28e2b; stroke-opacity: 0.6; stroke-linecap: round"/>
    <path d="M 314.780516 62.533982 
L 318.780516 64.533982 
L 314.780516 66.533982 
z
" clip-path="url(#pad48559076)" style="fill: #f28e2b; fill-opacity: 0.6; stroke: #f28e2b; stroke-opacity: 0.6; stroke-linecap: round"/>
   </g>
   <g id="patch_7">
    <path d="M 332.14182 64.533982 
Q 366.973029 64.533982 400.686204 64.533982 
" clip-path="url(#pad48559076)" style="fill: none; stroke: #f28e2b; stroke-opacity: 0.6; stroke-linecap: round"/>
    <path d="M 396.686204 62.533982 
L 400.686204 64.533982 
L 396.686204 66.533982 
z
" clip-path="url(#pad48559076)" style="fill: #f28e2b; fill-opacity: 0.6; stroke: #f28e2b; stroke-opacity: 0.6; stroke-linecap: round"/>
   </g>
   <g id="patch_8">
    <path d="M 86.424756 201.043461 
Q 121.255965 201.043461 154.96914 201.043461 
" clip-path="url(#pad48559076)" style="fill: none; stroke: #f28e2b; stroke-opacity: 0.6; stroke-linecap: round"/>
    <path d="M 150.96914 199.043461 
L 154.96914 201.043461 
L 150.96914 203.043461 
z
" clip-path="url(#pad48559076)" style="fill: #f28e2b; fill-opacity: 0.6; stroke: #f28e2b; stroke-opacity: 0.6; stroke-linecap: round"/>
   </g>
   <g id="patch_9">
    <path d="M 86.424756 201.043461 
Q 244.110568 201.043461 400.678346 201.043461 
" clip-path="url(#pad48559076)" style="fill: none; stroke: #f28e2b; stroke-opacity: 0.6; stroke-linecap: round"/>
    <path d="M 396.678346 199.043461 
L 400.678346 201.043461 
L 396.678346 203.043461 
z
" clip-path="url(#pad48559076)" style="fill: #f28e2b; fill-opacity: 0.6; stroke: #f28e2b; stroke-opacity: 0.6; stroke-linecap: round"/>
   </g>
   <g id="patch_10">
    <path d="M 86.424756 201.043461 
Q 162.205489 201.043461 236.868188 201.043461 
" clip-path="url(#pad48559076)" style="fill: none; stroke: #f28e2b; stroke-opacity: 0.6; stroke-linecap: round"/>
    <path d="M 232.868188 199.043461 
L 236.868188 201.043461 
L 232.868188 203.043461 
z
" clip-path="url(#pad48559076)" style="fill: #f28e2b; fill-opacity: 0.6; stroke: #f28e2b; stroke-opacity: 0.6; stroke-linecap: round"/>
   </g>
   <g id="patch_11">
    <path d="M 168.330444 201.043461 
Q 203.161653 201.043461 236.874828 201.043461 
" clip-path="url(#pad48559076)" style="fill: none; stroke: #f28e2b; stroke-opacity: 0.6; stroke-linecap: round"/>
    <path d="M 232.874828 199.043461 
L 236.874828 201.043461 
L 232.874828 203.043461 
z
" clip-path="url(#pad48559076)" style="fill: #f28e2b; fill-opacity: 0.6; stroke: #f28e2b; stroke-opacity: 0.6; stroke-linecap: round"/>
   </g>
   <g id="patch_12">
    <path d="M 250.236132 201.043461 
Q 285.067341 201.043461 318.780516 201.043461 
" clip-path="url(#pad48559076)" style="fill: none; stroke: #f28e2b; stroke-opacity: 0.6; stroke-linecap: round"/>
    <path d="M 314.780516 199.043461 
L 318.780516 201.043461 
L 314.780516 203.043461 
z
" clip-path="url(#pad48559076)" style="fill: #f28e2b; fill-opacity: 0.6; stroke: #f28e2b; stroke-opacity: 0.6; stroke-linecap: round"/>
   </g>
   <g id="patch_13">
    <path d="M 332.14182 201.043461 
Q 366.973029 201.043461 400.686204 201.043461 
" clip-path="url(#pad48559076)" style="fill: none; stroke: #f28e2b; stroke-opacity: 0.6; stroke-linecap: round"/>
    <path d="M 396.686204 199.043461 
L 400.686204 201.043461 
L 396.686204 203.043461 
z
" clip-path="url(#pad48559076)" style="fill: #f28e2b; fill-opacity: 0.6; stroke: #f28e2b; stroke-opacity: 0.6; stroke-linecap: round"/>
   </g>
   <g id="patch_14">
    <path d="M 86.424756 337.552941 
Q 121.255965 337.552941 154.96914 337.552941 
" clip-path="url(#pad48559076)" style="fill: none; stroke: #f28e2b; stroke-opacity: 0.6; stroke-linecap: round"/>
    <path d="M 150.96914 335.552941 
L 154.96914 337.552941 
L 150.96914 339.552941 
z
" clip-path="url(#pad48559076)" style="fill: #f28e2b; fill-opacity: 0.6; stroke: #f28e2b; stroke-opacity: 0.6; stroke-linecap: round"/>
   </g>
   <g id="patch_15">
    <path d="M 86.424756 337.552941 
Q 244.110568 337.552941 400.678346 337.552941 
" clip-path="url(#pad48559076)" style="fill: none; stroke: #f28e2b; stroke-opacity: 0.6; stroke-linecap: round"/>
    <path d="M 396.678346 335.552941 
L 400.678346 337.552941 
L 396.678346 339.552941 
z
" clip-path="url(#pad48559076)" style="fill: #f28e2b; fill-opacity: 0.6; stroke: #f28e2b; stroke-opacity: 0.6; stroke-linecap: round"/>
   </g>
   <g id="patch_16">
    <path d="M 86.424756 337.552941 
Q 162.205489 337.552941 236.868188 337.552941 
" clip-path="url(#pad48559076)" style="fill: none; stroke: #f28e2b; stroke-opacity: 0.6; stroke-linecap: round"/>
    <path d="M 232.868188 335.552941 
L 236.868188 337.552941 
L 232.868188 339.552941 
z
" clip-path="url(#pad48559076)" style="fill: #f28e2b; fill-opacity: 0.6; stroke: #f28e2b; stroke-opacity: 0.6; stroke-linecap: round"/>
   </g>
   <g id="patch_17">
    <path d="M 168.330444 337.552941 
Q 203.161653 337.552941 236.874828 337.552941 
" clip-path="url(#pad48559076)" style="fill: none; stroke: #f28e2b; stroke-opacity: 0.6; stroke-linecap: round"/>
    <path d="M 232.874828 335.552941 
L 236.874828 337.552941 
L 232.874828 339.552941 
z
" clip-path="url(#pad48559076)" style="fill: #f28e2b; fill-opacity: 0.6; stroke: #f28e2b; stroke-opacity: 0.6; stroke-linecap: round"/>
   </g>
   <g id="patch_18">
    <path d="M 250.236132 337.552941 
Q 285.067341 337.552941 318.780516 337.552941 
" clip-path="url(#pad48559076)" style="fill: none; stroke: #f28e2b; stroke-opacity: 0.6; stroke-linecap: round"/>
    <path d="M 314.780516 335.552941 
L 318.780516 337.552941 
L 314.780516 339.552941 
z
" clip-path="url(#pad48559076)" style="fill: #f28e2b; fill-opacity: 0.6; stroke: #f28e2b; stroke-opacity: 0.6; stroke-linecap: round"/>
   </g>
   <g id="patch_19">
    <path d="M 332.14182 337.552941 
Q 366.973029 337.552941 400.686204 337.552941 
" clip-path="url(#pad48559076)" style="fill: none; stroke: #f28e2b; stroke-opacity: 0.6; stroke-linecap: round"/>
    <path d="M 396.686204 335.552941 
L 400.686204 337.552941 
L 396.686204 339.552941 
z
" clip-path="url(#pad48559076)" style="fill: #f28e2b; fill-opacity: 0.6; stroke: #f28e2b; stroke-opacity: 0.6; stroke-linecap: round"/>
   </g>
   <g id="patch_20">
    <path d="M 244.112202 488.205783 
Q 244.112202 542.317912 244.112202 595.312006 
" clip-path="url(#pad48559076)" style="fill: none; stroke: #808080; stroke-opacity: 0.6; stroke-linecap: round"/>
    <path d="M 246.112202 591.312006 
L 244.112202 595.312006 
L 242.112202 591.312006 
z
" clip-path="url(#pad48559076)" style="fill: #808080; fill-opacity: 0.6; stroke: #808080; stroke-opacity: 0.6; stroke-linecap: round"/>
   </g>
   <g id="patch_21">
    <path d="M 618.811728 64.533982 
Q 653.642937 64.533982 687.356112 64.533982 
" clip-path="url(#pad48559076)" style="fill: none; stroke: #f28e2b; stroke-opacity: 0.6; stroke-linecap: round"/>
    <path d="M 683.356112 62.533982 
L 687.356112 64.533982 
L 683.356112 66.533982 
z
" clip-path="url(#pad48559076)" style="fill: #f28e2b; fill-opacity: 0.6; stroke: #f28e2b; stroke-opacity: 0.6; stroke-linecap: round"/>
   </g>
   <g id="patch_22">
    <path d="M 618.811728 64.533982 
Q 694.592461 64.533982 769.255159 64.533982 
" clip-path="url(#pad48559076)" style="fill: none; stroke: #f28e2b; stroke-opacity: 0.6; stroke-linecap: round"/>
    <path d="M 765.255159 62.533982 
L 769.255159 64.533982 
L 765.255159 66.533982 
z
" clip-path="url(#pad48559076)" style="fill: #f28e2b; fill-opacity: 0.6; stroke: #f28e2b; stroke-opacity: 0.6; stroke-linecap: round"/>
   </g>
   <g id="patch_23">
    <path d="M 700.717416 64.533982 
Q 735.548625 64.533982 769.2618 64.533982 
" clip-path="url(#pad48559076)" style="fill: none; stroke: #f28e2b; stroke-opacity: 0.6; stroke-linecap: round"/>
    <path d="M 765.2618 62.533982 
L 769.2618 64.533982 
L 765.2618 66.533982 
z
" clip-path="url(#pad48559076)" style="fill: #f28e2b; fill-opacity: 0.6; stroke: #f28e2b; stroke-opacity: 0.6; stroke-linecap: round"/>
   </g>
   <g id="patch_24">
    <path d="M 618.811728 201.043461 
Q 653.642937 201.043461 687.356112 201.043461 
" clip-path="url(#pad48559076)" style="fill: none; stroke: #f28e2b; stroke-opacity: 0.6; stroke-linecap: round"/>
    <path d="M 683.356112 199.043461 
L 687.356112 201.043461 
L 683.356112 203.043461 
z
" clip-path="url(#pad48559076)" style="fill: #f28e2b; fill-opacity: 0.6; stroke: #f28e2b; stroke-opacity: 0.6; stroke-linecap: round"/>
   </g>
   <g id="patch_25">
    <path d="M 618.811728 201.043461 
Q 694.592461 201.043461 769.255159 201.043461 
" clip-path="url(#pad48559076)" style="fill: none; stroke: #f28e2b; stroke-opacity: 0.6; stroke-linecap: round"/>
    <path d="M 765.255159 199.043461 
L 769.255159 201.043461 
L 765.255159 203.043461 
z
" clip-path="url(#pad48559076)" style="fill: #f28e2b; fill-opacity: 0.6; stroke: #f28e2b; stroke-opacity: 0.6; stroke-linecap: round"/>
   </g>
   <g id="patch_26">
    <path d="M 700.717416 201.043461 
Q 735.548625 201.043461 769.2618 201.043461 
" clip-path="url(#pad48559076)" style="fill: none; stroke: #f28e2b; stroke-opacity: 0.6; stroke-linecap: round"/>
    <path d="M 765.2618 199.043461 
L 769.2618 201.043461 
L 765.2618 203.043461 
z
" clip-path="url(#pad48559076)" style="fill: #f28e2b; fill-opacity: 0.6; stroke: #f28e2b; stroke-opacity: 0.6; stroke-linecap: round"/>
   </g>
   <g id="patch_27">
    <path d="M 694.593486 351.696303 
Q 694.593486 405.808432 694.593486 458.802526 
" clip-path="url(#pad48559076)" style="fill: none; stroke: #808080; stroke-opacity: 0.6; stroke-linecap: round"/>
    <path d="M 696.593486 454.802526 
L 694.593486 458.802526 
L 692.593486 454.802526 
z
" clip-path="url(#pad48559076)" style="fill: #808080; fill-opacity: 0.6; stroke: #808080; stroke-opacity: 0.6; stroke-linecap: round"/>
   </g>
   <g id="patch_28">
    <path d="M 402.272066 66.888778 
Q 244.112587 132.788561 86.985139 198.258331 
" clip-path="url(#pad48559076)" style="fill: none; stroke-dasharray: 3.7,1.6; stroke-dashoffset: 0; stroke: #808080; stroke-opacity: 0.6; stroke-linecap: round"/>
    <path d="M 91.446678 198.566023 
L 86.985139 198.258331 
L 89.908216 194.873716 
z
" clip-path="url(#pad48559076)" style="fill: #808080; fill-opacity: 0.6; stroke-dasharray: 3.7,1.6; stroke-dashoffset: 0; stroke: #808080; stroke-opacity: 0.6; stroke-linecap: round"/>
   </g>
   <g id="patch_29">
    <path d="M 405.650225 70.217363 
Q 327.506921 265.575623 249.778845 459.895814 
" clip-path="url(#pad48559076)" style="fill: none; stroke-dasharray: 3.7,1.6; stroke-dashoffset: 0; stroke: #808080; stroke-opacity: 0.6; stroke-linecap: round"/>
    <path d="M 253.121361 456.924689 
L 249.778845 459.895814 
L 249.407454 455.439126 
z
" clip-path="url(#pad48559076)" style="fill: #808080; fill-opacity: 0.6; stroke-dasharray: 3.7,1.6; stroke-dashoffset: 0; stroke: #808080; stroke-opacity: 0.6; stroke-linecap: round"/>
   </g>
   <g id="patch_30">
    <path d="M 402.272066 203.398258 
Q 244.112587 269.298041 86.985139 334.767811 
" clip-path="url(#pad48559076)" style="fill: none; stroke-dasharray: 3.7,1.6; stroke-dashoffset: 0; stroke: #808080; stroke-opacity: 0.6; stroke-linecap: round"/>
    <path d="M 91.446678 335.075503 
L 86.985139 334.767811 
L 89.908216 331.383195 
z
" clip-path="url(#pad48559076)" style="fill: #808080; fill-opacity: 0.6; stroke-dasharray: 3.7,1.6; stroke-dashoffset: 0; stroke: #808080; stroke-opacity: 0.6; stroke-linecap: round"/>
   </g>
   <g id="patch_31">
    <path d="M 404.771629 206.29671 
Q 328.08112 334.114224 251.965835 460.973032 
" clip-path="url(#pad48559076)" style="fill: none; stroke-dasharray: 3.7,1.6; stroke-dashoffset: 0; stroke: #808080; stroke-opacity: 0.6; stroke-linecap: round"/>
    <path d="M 255.738804 458.572052 
L 251.965835 460.973032 
L 252.308833 456.514069 
z
" clip-path="url(#pad48559076)" style="fill: #808080; fill-opacity: 0.6; stroke-dasharray: 3.7,1.6; stroke-dashoffset: 0; stroke: #808080; stroke-opacity: 0.6; stroke-linecap: round"/>
   </g>
   <g id="patch_32">
    <path d="M 403.2169 341.475172 
Q 329.096631 403.242064 255.835259 464.293207 
" clip-path="url(#pad48559076)" style="fill: none; stroke-dasharray: 3.7,1.6; stroke-dashoffset: 0; stroke: #808080; stroke-opacity: 0.6; stroke-linecap: round"/>
    <path d="M 260.188513 463.268912 
L 255.835259 464.293207 
L 257.627775 460.196027 
z
" clip-path="url(#pad48559076)" style="fill: #808080; fill-opacity: 0.6; stroke-dasharray: 3.7,1.6; stroke-dashoffset: 0; stroke: #808080; stroke-opacity: 0.6; stroke-linecap: round"/>
   </g>
   <g id="patch_33">
    <path d="M 257.643275 606.471576 
Q 469.352706 542.317203 678.922166 478.811306 
" clip-path="url(#pad48559076)" style="fill: none; stroke-dasharray: 7.4,3.2; stroke-dashoffset: 0; stroke: #e15759; stroke-opacity: 0.6; stroke-width: 2; stroke-linecap: round"/>
    <path d="M 674.514053 478.057287 
L 678.922166 478.811306 
L 675.674083 481.885384 
z
" clip-path="url(#pad48559076)" style="fill: #e15759; fill-opacity: 0.6; stroke-dasharray: 7.4,3.2; stroke-dashoffset: 0; stroke: #e15759; stroke-opacity: 0.6; stroke-width: 2; stroke-linecap: round"/>
   </g>
   <g id="patch_34">
    <path d="M 771.792496 68.456213 
Q 694.591418 132.790445 618.249237 196.408928 
" clip-path="url(#pad48559076)" style="fill: none; stroke-dasharray: 3.7,1.6; stroke-dashoffset: 0; stroke: #808080; stroke-opacity: 0.6; stroke-linecap: round"/>
    <path d="M 622.602491 195.384633 
L 618.249237 196.408928 
L 620.041754 192.311748 
z
" clip-path="url(#pad48559076)" style="fill: #808080; fill-opacity: 0.6; stroke-dasharray: 3.7,1.6; stroke-dashoffset: 0; stroke: #808080; stroke-opacity: 0.6; stroke-linecap: round"/>
   </g>
   <g id="patch_35">
    <path d="M 774.740731 70.395457 
Q 736.69904 197.201095 698.978613 322.93585 
" clip-path="url(#pad48559076)" style="fill: none; stroke-dasharray: 3.7,1.6; stroke-dashoffset: 0; stroke: #808080; stroke-opacity: 0.6; stroke-linecap: round"/>
    <path d="M 702.043657 319.679241 
L 698.978613 322.93585 
L 698.212352 318.529849 
z
" clip-path="url(#pad48559076)" style="fill: #808080; fill-opacity: 0.6; stroke-dasharray: 3.7,1.6; stroke-dashoffset: 0; stroke: #808080; stroke-opacity: 0.6; stroke-linecap: round"/>
   </g>
   <g id="patch_36">
    <path d="M 773.347224 206.29671 
Q 737.607861 265.862316 702.443721 324.469216 
" clip-path="url(#pad48559076)" style="fill: none; stroke-dasharray: 3.7,1.6; stroke-dashoffset: 0; stroke: #808080; stroke-opacity: 0.6; stroke-linecap: round"/>
    <path d="M 706.216689 322.068236 
L 702.443721 324.469216 
L 702.786718 320.010253 
z
" clip-path="url(#pad48559076)" style="fill: #808080; fill-opacity: 0.6; stroke-dasharray: 3.7,1.6; stroke-dashoffset: 0; stroke: #808080; stroke-opacity: 0.6; stroke-linecap: round"/>
   </g>
   <g id="text_1">
    <g id="patch_37">
     <path d="M 466.711928 548.100201 
L 474.859873 545.493735 
Q 476.57429 544.945306 476.025861 543.230889 
L 474.256606 537.700108 
Q 473.708177 535.985691 471.99376 536.53412 
L 463.845815 539.140587 
Q 462.131398 539.689016 462.679827 541.403433 
L 464.449082 546.934213 
Q 464.997511 548.64863 466.711928 548.100201 
z
" clip-path="url(#pad48559076)" style="fill: #ffffff; stroke: #ffffff; stroke-linejoin: miter"/>
    </g>
    <g clip-path="url(#pad48559076)">
     <!-- KD -->
     <g style="fill: #808080" transform="translate(465.783312 545.197301) rotate(-17.739083) scale(0.06 -0.06)">
      <defs>
       <path id="DejaVuSans-4b" d="M 628 4666 
L 1259 4666 
L 1259 2694 
L 3353 4666 
L 4166 4666 
L 1850 2491 
L 4331 0 
L 3500 0 
L 1259 2247 
L 1259 0 
L 628 0 
L 628 4666 
z
" transform="scale(0.015625)"/>
       <path id="DejaVuSans-44" d="M 1259 4147 
L 1259 519 
L 2022 519 
Q 2988 519 3436 956 
Q 3884 1394 3884 2338 
Q 3884 3275 3436 3711 
Q 2988 4147 2022 4147 
L 1259 4147 
z
M 628 4666 
L 1925 4666 
Q 3281 4666 3915 4102 
Q 4550 3538 4550 2338 
Q 4550 1131 3912 565 
Q 3275 0 1925 0 
L 628 0 
L 628 4666 
z
" transform="scale(0.015625)"/>
      </defs>
      <use xlink:href="#DejaVuSans-4b"/>
      <use xlink:href="#DejaVuSans-44" x="65.576172"/>
     </g>
    </g>
   </g>
   <g id="PathCollection_1">
    <path d="M 80.300826 70.657706 
C 81.924857 70.657706 83.48259 70.012472 84.630953 68.864109 
C 85.779317 67.715745 86.424551 66.158012 86.424551 64.533982 
C 86.424551 62.909951 85.779317 61.352218 84.630953 60.203855 
C 83.48259 59.055491 81.924857 58.410257 80.300826 58.410257 
C 78.676796 58.410257 77.119063 59.055491 75.970699 60.203855 
C 74.822336 61.352218 74.177102 62.909951 74.177102 64.533982 
C 74.177102 66.158012 74.822336 67.715745 75.970699 68.864109 
C 77.119063 70.012472 78.676796 70.657706 80.300826 70.657706 
z
" clip-path="url(#pad48559076)" style="fill: #fde8d0; stroke: #f28e2b"/>
    <path d="M 162.206514 70.657706 
C 163.830545 70.657706 165.388278 70.012472 166.536641 68.864109 
C 167.685004 67.715745 168.330239 66.158012 168.330239 64.533982 
C 168.330239 62.909951 167.685004 61.352218 166.536641 60.203855 
C 165.388278 59.055491 163.830545 58.410257 162.206514 58.410257 
C 160.582484 58.410257 159.02475 59.055491 157.876387 60.203855 
C 156.728024 61.352218 156.08279 62.909951 156.08279 64.533982 
C 156.08279 66.158012 156.728024 67.715745 157.876387 68.864109 
C 159.02475 70.012472 160.582484 70.657706 162.206514 70.657706 
z
" clip-path="url(#pad48559076)" style="fill: #fde8d0; stroke: #f28e2b"/>
    <path d="M 244.112202 70.657706 
C 245.736233 70.657706 247.293966 70.012472 248.442329 68.864109 
C 249.590692 67.715745 250.235927 66.158012 250.235927 64.533982 
C 250.235927 62.909951 249.590692 61.352218 248.442329 60.203855 
C 247.293966 59.055491 245.736233 58.410257 244.112202 58.410257 
C 242.488172 58.410257 240.930438 59.055491 239.782075 60.203855 
C 238.633712 61.352218 237.988478 62.909951 237.988478 64.533982 
C 237.988478 66.158012 238.633712 67.715745 239.782075 68.864109 
C 240.930438 70.012472 242.488172 70.657706 244.112202 70.657706 
z
" clip-path="url(#pad48559076)" style="fill: #fde8d0; stroke: #f28e2b"/>
    <path d="M 326.01789 70.657706 
C 327.641921 70.657706 329.199654 70.012472 330.348017 68.864109 
C 331.49638 67.715745 332.141614 66.158012 332.141614 64.533982 
C 332.141614 62.909951 331.49638 61.352218 330.348017 60.203855 
C 329.199654 59.055491 327.641921 58.410257 326.01789 58.410257 
C 324.393859 58.410257 322.836126 59.055491 321.687763 60.203855 
C 320.5394 61.352218 319.894166 62.909951 319.894166 64.533982 
C 319.894166 66.158012 320.5394 67.715745 321.687763 68.864109 
C 322.836126 70.012472 324.393859 70.657706 326.01789 70.657706 
z
" clip-path="url(#pad48559076)" style="fill: #fde8d0; stroke: #f28e2b"/>
    <path d="M 407.923578 70.657706 
C 409.547609 70.657706 411.105342 70.012472 412.253705 68.864109 
C 413.402068 67.715745 414.047302 66.158012 414.047302 64.533982 
C 414.047302 62.909951 413.402068 61.352218 412.253705 60.203855 
C 411.105342 59.055491 409.547609 58.410257 407.923578 58.410257 
C 406.299547 58.410257 404.741814 59.055491 403.593451 60.203855 
C 402.445088 61.352218 401.799854 62.909951 401.799854 64.533982 
C 401.799854 66.158012 402.445088 67.715745 403.593451 68.864109 
C 404.741814 70.012472 406.299547 70.657706 407.923578 70.657706 
z
" clip-path="url(#pad48559076)" style="fill: #fde8d0; stroke: #f28e2b"/>
    <path d="M 80.300826 207.167186 
C 81.924857 207.167186 83.48259 206.521951 84.630953 205.373588 
C 85.779317 204.225225 86.424551 202.667492 86.424551 201.043461 
C 86.424551 199.419431 85.779317 197.861697 84.630953 196.713334 
C 83.48259 195.564971 81.924857 194.919737 80.300826 194.919737 
C 78.676796 194.919737 77.119063 195.564971 75.970699 196.713334 
C 74.822336 197.861697 74.177102 199.419431 74.177102 201.043461 
C 74.177102 202.667492 74.822336 204.225225 75.970699 205.373588 
C 77.119063 206.521951 78.676796 207.167186 80.300826 207.167186 
z
" clip-path="url(#pad48559076)" style="fill: #fde8d0; stroke: #f28e2b"/>
    <path d="M 162.206514 207.167186 
C 163.830545 207.167186 165.388278 206.521951 166.536641 205.373588 
C 167.685004 204.225225 168.330239 202.667492 168.330239 201.043461 
C 168.330239 199.419431 167.685004 197.861697 166.536641 196.713334 
C 165.388278 195.564971 163.830545 194.919737 162.206514 194.919737 
C 160.582484 194.919737 159.02475 195.564971 157.876387 196.713334 
C 156.728024 197.861697 156.08279 199.419431 156.08279 201.043461 
C 156.08279 202.667492 156.728024 204.225225 157.876387 205.373588 
C 159.02475 206.521951 160.582484 207.167186 162.206514 207.167186 
z
" clip-path="url(#pad48559076)" style="fill: #fde8d0; stroke: #f28e2b"/>
    <path d="M 244.112202 207.167186 
C 245.736233 207.167186 247.293966 206.521951 248.442329 205.373588 
C 249.590692 204.225225 250.235927 202.667492 250.235927 201.043461 
C 250.235927 199.419431 249.590692 197.861697 248.442329 196.713334 
C 247.293966 195.564971 245.736233 194.919737 244.112202 194.919737 
C 242.488172 194.919737 240.930438 195.564971 239.782075 196.713334 
C 238.633712 197.861697 237.988478 199.419431 237.988478 201.043461 
C 237.988478 202.667492 238.633712 204.225225 239.782075 205.373588 
C 240.930438 206.521951 242.488172 207.167186 244.112202 207.167186 
z
" clip-path="url(#pad48559076)" style="fill: #fde8d0; stroke: #f28e2b"/>
    <path d="M 326.01789 207.167186 
C 327.641921 207.167186 329.199654 206.521951 330.348017 205.373588 
C 331.49638 204.225225 332.141614 202.667492 332.141614 201.043461 
C 332.141614 199.419431 331.49638 197.861697 330.348017 196.713334 
C 329.199654 195.564971 327.641921 194.919737 326.01789 194.919737 
C 324.393859 194.919737 322.836126 195.564971 321.687763 196.713334 
C 320.5394 197.861697 319.894166 199.419431 319.894166 201.043461 
C 319.894166 202.667492 320.5394 204.225225 321.687763 205.373588 
C 322.836126 206.521951 324.393859 207.167186 326.01789 207.167186 
z
" clip-path="url(#pad48559076)" style="fill: #fde8d0; stroke: #f28e2b"/>
    <path d="M 407.923578 207.167186 
C 409.547609 207.167186 411.105342 206.521951 412.253705 205.373588 
C 413.402068 204.225225 414.047302 202.667492 414.047302 201.043461 
C 414.047302 199.419431 413.402068 197.861697 412.253705 196.713334 
C 411.105342 195.564971 409.547609 194.919737 407.923578 194.919737 
C 406.299547 194.919737 404.741814 195.564971 403.593451 196.713334 
C 402.445088 197.861697 401.799854 199.419431 401.799854 201.043461 
C 401.799854 202.667492 402.445088 204.225225 403.593451 205.373588 
C 404.741814 206.521951 406.299547 207.167186 407.923578 207.167186 
z
" clip-path="url(#pad48559076)" style="fill: #fde8d0; stroke: #f28e2b"/>
    <path d="M 80.300826 343.676666 
C 81.924857 343.676666 83.48259 343.031431 84.630953 341.883068 
C 85.779317 340.734705 86.424551 339.176972 86.424551 337.552941 
C 86.424551 335.92891 85.779317 334.371177 84.630953 333.222814 
C 83.48259 332.074451 81.924857 331.429217 80.300826 331.429217 
C 78.676796 331.429217 77.119063 332.074451 75.970699 333.222814 
C 74.822336 334.371177 74.177102 335.92891 74.177102 337.552941 
C 74.177102 339.176972 74.822336 340.734705 75.970699 341.883068 
C 77.119063 343.031431 78.676796 343.676666 80.300826 343.676666 
z
" clip-path="url(#pad48559076)" style="fill: #fde8d0; stroke: #f28e2b"/>
    <path d="M 162.206514 343.676666 
C 163.830545 343.676666 165.388278 343.031431 166.536641 341.883068 
C 167.685004 340.734705 168.330239 339.176972 168.330239 337.552941 
C 168.330239 335.92891 167.685004 334.371177 166.536641 333.222814 
C 165.388278 332.074451 163.830545 331.429217 162.206514 331.429217 
C 160.582484 331.429217 159.02475 332.074451 157.876387 333.222814 
C 156.728024 334.371177 156.08279 335.92891 156.08279 337.552941 
C 156.08279 339.176972 156.728024 340.734705 157.876387 341.883068 
C 159.02475 343.031431 160.582484 343.676666 162.206514 343.676666 
z
" clip-path="url(#pad48559076)" style="fill: #fde8d0; stroke: #f28e2b"/>
    <path d="M 244.112202 343.676666 
C 245.736233 343.676666 247.293966 343.031431 248.442329 341.883068 
C 249.590692 340.734705 250.235927 339.176972 250.235927 337.552941 
C 250.235927 335.92891 249.590692 334.371177 248.442329 333.222814 
C 247.293966 332.074451 245.736233 331.429217 244.112202 331.429217 
C 242.488172 331.429217 240.930438 332.074451 239.782075 333.222814 
C 238.633712 334.371177 237.988478 335.92891 237.988478 337.552941 
C 237.988478 339.176972 238.633712 340.734705 239.782075 341.883068 
C 240.930438 343.031431 242.488172 343.676666 244.112202 343.676666 
z
" clip-path="url(#pad48559076)" style="fill: #fde8d0; stroke: #f28e2b"/>
    <path d="M 326.01789 343.676666 
C 327.641921 343.676666 329.199654 343.031431 330.348017 341.883068 
C 331.49638 340.734705 332.141614 339.176972 332.141614 337.552941 
C 332.141614 335.92891 331.49638 334.371177 330.348017 333.222814 
C 329.199654 332.074451 327.641921 331.429217 326.01789 331.429217 
C 324.393859 331.429217 322.836126 332.074451 321.687763 333.222814 
C 320.5394 334.371177 319.894166 335.92891 319.894166 337.552941 
C 319.894166 339.176972 320.5394 340.734705 321.687763 341.883068 
C 322.836126 343.031431 324.393859 343.676666 326.01789 343.676666 
z
" clip-path="url(#pad48559076)" style="fill: #fde8d0; stroke: #f28e2b"/>
    <path d="M 407.923578 343.676666 
C 409.547609 343.676666 411.105342 343.031431 412.253705 341.883068 
C 413.402068 340.734705 414.047302 339.176972 414.047302 337.552941 
C 414.047302 335.92891 413.402068 334.371177 412.253705 333.222814 
C 411.105342 332.074451 409.547609 331.429217 407.923578 331.429217 
C 406.299547 331.429217 404.741814 332.074451 403.593451 333.222814 
C 402.445088 334.371177 401.799854 335.92891 401.799854 337.552941 
C 401.799854 339.176972 402.445088 340.734705 403.593451 341.883068 
C 404.741814 343.031431 406.299547 343.676666 407.923578 343.676666 
z
" clip-path="url(#pad48559076)" style="fill: #fde8d0; stroke: #f28e2b"/>
    <path d="M 612.687798 70.657706 
C 614.311828 70.657706 615.869562 70.012472 617.017925 68.864109 
C 618.166288 67.715745 618.811522 66.158012 618.811522 64.533982 
C 618.811522 62.909951 618.166288 61.352218 617.017925 60.203855 
C 615.869562 59.055491 614.311828 58.410257 612.687798 58.410257 
C 611.063767 58.410257 609.506034 59.055491 608.357671 60.203855 
C 607.209308 61.352218 606.564073 62.909951 606.564073 64.533982 
C 606.564073 66.158012 607.209308 67.715745 608.357671 68.864109 
C 609.506034 70.012472 611.063767 70.657706 612.687798 70.657706 
z
" clip-path="url(#pad48559076)" style="fill: #fde8d0; stroke: #f28e2b"/>
    <path d="M 694.593486 70.657706 
C 696.217516 70.657706 697.77525 70.012472 698.923613 68.864109 
C 700.071976 67.715745 700.71721 66.158012 700.71721 64.533982 
C 700.71721 62.909951 700.071976 61.352218 698.923613 60.203855 
C 697.77525 59.055491 696.217516 58.410257 694.593486 58.410257 
C 692.969455 58.410257 691.411722 59.055491 690.263359 60.203855 
C 689.114996 61.352218 688.469761 62.909951 688.469761 64.533982 
C 688.469761 66.158012 689.114996 67.715745 690.263359 68.864109 
C 691.411722 70.012472 692.969455 70.657706 694.593486 70.657706 
z
" clip-path="url(#pad48559076)" style="fill: #fde8d0; stroke: #f28e2b"/>
    <path d="M 776.499174 70.657706 
C 778.123204 70.657706 779.680937 70.012472 780.829301 68.864109 
C 781.977664 67.715745 782.622898 66.158012 782.622898 64.533982 
C 782.622898 62.909951 781.977664 61.352218 780.829301 60.203855 
C 779.680937 59.055491 778.123204 58.410257 776.499174 58.410257 
C 774.875143 58.410257 773.31741 59.055491 772.169047 60.203855 
C 771.020683 61.352218 770.375449 62.909951 770.375449 64.533982 
C 770.375449 66.158012 771.020683 67.715745 772.169047 68.864109 
C 773.31741 70.012472 774.875143 70.657706 776.499174 70.657706 
z
" clip-path="url(#pad48559076)" style="fill: #fde8d0; stroke: #f28e2b"/>
    <path d="M 612.687798 207.167186 
C 614.311828 207.167186 615.869562 206.521951 617.017925 205.373588 
C 618.166288 204.225225 618.811522 202.667492 618.811522 201.043461 
C 618.811522 199.419431 618.166288 197.861697 617.017925 196.713334 
C 615.869562 195.564971 614.311828 194.919737 612.687798 194.919737 
C 611.063767 194.919737 609.506034 195.564971 608.357671 196.713334 
C 607.209308 197.861697 606.564073 199.419431 606.564073 201.043461 
C 606.564073 202.667492 607.209308 204.225225 608.357671 205.373588 
C 609.506034 206.521951 611.063767 207.167186 612.687798 207.167186 
z
" clip-path="url(#pad48559076)" style="fill: #fde8d0; stroke: #f28e2b"/>
    <path d="M 694.593486 207.167186 
C 696.217516 207.167186 697.77525 206.521951 698.923613 205.373588 
C 700.071976 204.225225 700.71721 202.667492 700.71721 201.043461 
C 700.71721 199.419431 700.071976 197.861697 698.923613 196.713334 
C 697.77525 195.564971 696.217516 194.919737 694.593486 194.919737 
C 692.969455 194.919737 691.411722 195.564971 690.263359 196.713334 
C 689.114996 197.861697 688.469761 199.419431 688.469761 201.043461 
C 688.469761 202.667492 689.114996 204.225225 690.263359 205.373588 
C 691.411722 206.521951 692.969455 207.167186 694.593486 207.167186 
z
" clip-path="url(#pad48559076)" style="fill: #fde8d0; stroke: #f28e2b"/>
    <path d="M 776.499174 207.167186 
C 778.123204 207.167186 779.680937 206.521951 780.829301 205.373588 
C 781.977664 204.225225 782.622898 202.667492 782.622898 201.043461 
C 782.622898 199.419431 781.977664 197.861697 780.829301 196.713334 
C 779.680937 195.564971 778.123204 194.919737 776.499174 194.919737 
C 774.875143 194.919737 773.31741 195.564971 772.169047 196.713334 
C 771.020683 197.861697 770.375449 199.419431 770.375449 201.043461 
C 770.375449 202.667492 771.020683 204.225225 772.169047 205.373588 
C 773.31741 206.521951 774.875143 207.167186 776.499174 207.167186 
z
" clip-path="url(#pad48559076)" style="fill: #fde8d0; stroke: #f28e2b"/>
   </g>
   <g id="PathCollection_2">
    <path d="M 229.970067 488.204557 
L 258.254338 488.204557 
L 258.254338 459.920285 
L 229.970067 459.920285 
z
" clip-path="url(#pad48559076)" style="fill: #fde8d0; stroke: #f28e2b"/>
    <path d="M 229.970067 624.714036 
L 258.254338 624.714036 
L 258.254338 596.429765 
L 229.970067 596.429765 
z
" clip-path="url(#pad48559076)" style="fill: #fde8d0; stroke: #f28e2b"/>
    <path d="M 680.45135 351.695077 
L 708.735621 351.695077 
L 708.735621 323.410806 
L 680.45135 323.410806 
z
" clip-path="url(#pad48559076)" style="fill: #fde8d0; stroke: #f28e2b"/>
    <path d="M 680.45135 488.204557 
L 708.735621 488.204557 
L 708.735621 459.920285 
L 680.45135 459.920285 
z
" clip-path="url(#pad48559076)" style="fill: #fde8d0; stroke: #f28e2b"/>
   </g>
   <g id="text_2">
    <g clip-path="url(#pad48559076)">
     <!-- $v_{1}$ -->
     <g transform="translate(76.020826 66.741482) scale(0.08 -0.08)">
      <defs>
       <path id="DejaVuSans-Oblique-76" d="M 459 3500 
L 1069 3500 
L 1581 525 
L 3256 3500 
L 3866 3500 
L 1875 0 
L 1100 0 
L 459 3500 
z
" transform="scale(0.015625)"/>
       <path id="DejaVuSans-31" d="M 794 531 
L 1825 531 
L 1825 4091 
L 703 3866 
L 703 4441 
L 1819 4666 
L 2450 4666 
L 2450 531 
L 3481 531 
L 3481 0 
L 794 0 
L 794 531 
z
" transform="scale(0.015625)"/>
      </defs>
      <use xlink:href="#DejaVuSans-Oblique-76" transform="translate(0 0.3125)"/>
      <use xlink:href="#DejaVuSans-31" transform="translate(59.179688 -16.09375) scale(0.7)"/>
     </g>
    </g>
   </g>
   <g id="text_3">
    <g clip-path="url(#pad48559076)">
     <!-- $v_{2}$ -->
     <g transform="translate(157.926514 66.741482) scale(0.08 -0.08)">
      <defs>
       <path id="DejaVuSans-32" d="M 1228 531 
L 3431 531 
L 3431 0 
L 469 0 
L 469 531 
Q 828 903 1448 1529 
Q 2069 2156 2228 2338 
Q 2531 2678 2651 2914 
Q 2772 3150 2772 3378 
Q 2772 3750 2511 3984 
Q 2250 4219 1831 4219 
Q 1534 4219 1204 4116 
Q 875 4013 500 3803 
L 500 4441 
Q 881 4594 1212 4672 
Q 1544 4750 1819 4750 
Q 2544 4750 2975 4387 
Q 3406 4025 3406 3419 
Q 3406 3131 3298 2873 
Q 3191 2616 2906 2266 
Q 2828 2175 2409 1742 
Q 1991 1309 1228 531 
z
" transform="scale(0.015625)"/>
      </defs>
      <use xlink:href="#DejaVuSans-Oblique-76" transform="translate(0 0.3125)"/>
      <use xlink:href="#DejaVuSans-32" transform="translate(59.179688 -16.09375) scale(0.7)"/>
     </g>
    </g>
   </g>
   <g id="text_4">
    <g clip-path="url(#pad48559076)">
     <!-- $v_{3}$ -->
     <g transform="translate(239.832202 66.741482) scale(0.08 -0.08)">
      <defs>
       <path id="DejaVuSans-33" d="M 2597 2516 
Q 3050 2419 3304 2112 
Q 3559 1806 3559 1356 
Q 3559 666 3084 287 
Q 2609 -91 1734 -91 
Q 1441 -91 1130 -33 
Q 819 25 488 141 
L 488 750 
Q 750 597 1062 519 
Q 1375 441 1716 441 
Q 2309 441 2620 675 
Q 2931 909 2931 1356 
Q 2931 1769 2642 2001 
Q 2353 2234 1838 2234 
L 1294 2234 
L 1294 2753 
L 1863 2753 
Q 2328 2753 2575 2939 
Q 2822 3125 2822 3475 
Q 2822 3834 2567 4026 
Q 2313 4219 1838 4219 
Q 1578 4219 1281 4162 
Q 984 4106 628 3988 
L 628 4550 
Q 988 4650 1302 4700 
Q 1616 4750 1894 4750 
Q 2613 4750 3031 4423 
Q 3450 4097 3450 3541 
Q 3450 3153 3228 2886 
Q 3006 2619 2597 2516 
z
" transform="scale(0.015625)"/>
      </defs>
      <use xlink:href="#DejaVuSans-Oblique-76" transform="translate(0 0.3125)"/>
      <use xlink:href="#DejaVuSans-33" transform="translate(59.179688 -16.09375) scale(0.7)"/>
     </g>
    </g>
   </g>
   <g id="text_5">
    <g clip-path="url(#pad48559076)">
     <!-- $v_{4}$ -->
     <g transform="translate(321.73789 66.741482) scale(0.08 -0.08)">
      <defs>
       <path id="DejaVuSans-34" d="M 2419 4116 
L 825 1625 
L 2419 1625 
L 2419 4116 
z
M 2253 4666 
L 3047 4666 
L 3047 1625 
L 3713 1625 
L 3713 1100 
L 3047 1100 
L 3047 0 
L 2419 0 
L 2419 1100 
L 313 1100 
L 313 1709 
L 2253 4666 
z
" transform="scale(0.015625)"/>
      </defs>
      <use xlink:href="#DejaVuSans-Oblique-76" transform="translate(0 0.3125)"/>
      <use xlink:href="#DejaVuSans-34" transform="translate(59.179688 -16.09375) scale(0.7)"/>
     </g>
    </g>
   </g>
   <g id="text_6">
    <g clip-path="url(#pad48559076)">
     <!-- $v_{5}$ -->
     <g transform="translate(403.643578 66.741482) scale(0.08 -0.08)">
      <defs>
       <path id="DejaVuSans-35" d="M 691 4666 
L 3169 4666 
L 3169 4134 
L 1269 4134 
L 1269 2991 
Q 1406 3038 1543 3061 
Q 1681 3084 1819 3084 
Q 2600 3084 3056 2656 
Q 3513 2228 3513 1497 
Q 3513 744 3044 326 
Q 2575 -91 1722 -91 
Q 1428 -91 1123 -41 
Q 819 9 494 109 
L 494 744 
Q 775 591 1075 516 
Q 1375 441 1709 441 
Q 2250 441 2565 725 
Q 2881 1009 2881 1497 
Q 2881 1984 2565 2268 
Q 2250 2553 1709 2553 
Q 1456 2553 1204 2497 
Q 953 2441 691 2322 
L 691 4666 
z
" transform="scale(0.015625)"/>
      </defs>
      <use xlink:href="#DejaVuSans-Oblique-76" transform="translate(0 0.3125)"/>
      <use xlink:href="#DejaVuSans-35" transform="translate(59.179688 -16.09375) scale(0.7)"/>
     </g>
    </g>
   </g>
   <g id="text_7">
    <g clip-path="url(#pad48559076)">
     <!-- $v_{1}$ -->
     <g transform="translate(76.020826 203.250961) scale(0.08 -0.08)">
      <use xlink:href="#DejaVuSans-Oblique-76" transform="translate(0 0.3125)"/>
      <use xlink:href="#DejaVuSans-31" transform="translate(59.179688 -16.09375) scale(0.7)"/>
     </g>
    </g>
   </g>
   <g id="text_8">
    <g clip-path="url(#pad48559076)">
     <!-- $v_{2}$ -->
     <g transform="translate(157.926514 203.250961) scale(0.08 -0.08)">
      <use xlink:href="#DejaVuSans-Oblique-76" transform="translate(0 0.3125)"/>
      <use xlink:href="#DejaVuSans-32" transform="translate(59.179688 -16.09375) scale(0.7)"/>
     </g>
    </g>
   </g>
   <g id="text_9">
    <g clip-path="url(#pad48559076)">
     <!-- $v_{3}$ -->
     <g transform="translate(239.832202 203.250961) scale(0.08 -0.08)">
      <use xlink:href="#DejaVuSans-Oblique-76" transform="translate(0 0.3125)"/>
      <use xlink:href="#DejaVuSans-33" transform="translate(59.179688 -16.09375) scale(0.7)"/>
     </g>
    </g>
   </g>
   <g id="text_10">
    <g clip-path="url(#pad48559076)">
     <!-- $v_{4}$ -->
     <g transform="translate(321.73789 203.250961) scale(0.08 -0.08)">
      <use xlink:href="#DejaVuSans-Oblique-76" transform="translate(0 0.3125)"/>
      <use xlink:href="#DejaVuSans-34" transform="translate(59.179688 -16.09375) scale(0.7)"/>
     </g>
    </g>
   </g>
   <g id="text_11">
    <g clip-path="url(#pad48559076)">
     <!-- $v_{5}$ -->
     <g transform="translate(403.643578 203.250961) scale(0.08 -0.08)">
      <use xlink:href="#DejaVuSans-Oblique-76" transform="translate(0 0.3125)"/>
      <use xlink:href="#DejaVuSans-35" transform="translate(59.179688 -16.09375) scale(0.7)"/>
     </g>
    </g>
   </g>
   <g id="text_12">
    <g clip-path="url(#pad48559076)">
     <!-- $v_{1}$ -->
     <g transform="translate(76.020826 339.760441) scale(0.08 -0.08)">
      <use xlink:href="#DejaVuSans-Oblique-76" transform="translate(0 0.3125)"/>
      <use xlink:href="#DejaVuSans-31" transform="translate(59.179688 -16.09375) scale(0.7)"/>
     </g>
    </g>
   </g>
   <g id="text_13">
    <g clip-path="url(#pad48559076)">
     <!-- $v_{2}$ -->
     <g transform="translate(157.926514 339.760441) scale(0.08 -0.08)">
      <use xlink:href="#DejaVuSans-Oblique-76" transform="translate(0 0.3125)"/>
      <use xlink:href="#DejaVuSans-32" transform="translate(59.179688 -16.09375) scale(0.7)"/>
     </g>
    </g>
   </g>
   <g id="text_14">
    <g clip-path="url(#pad48559076)">
     <!-- $v_{3}$ -->
     <g transform="translate(239.832202 339.760441) scale(0.08 -0.08)">
      <use xlink:href="#DejaVuSans-Oblique-76" transform="translate(0 0.3125)"/>
      <use xlink:href="#DejaVuSans-33" transform="translate(59.179688 -16.09375) scale(0.7)"/>
     </g>
    </g>
   </g>
   <g id="text_15">
    <g clip-path="url(#pad48559076)">
     <!-- $v_{4}$ -->
     <g transform="translate(321.73789 339.760441) scale(0.08 -0.08)">
      <use xlink:href="#DejaVuSans-Oblique-76" transform="translate(0 0.3125)"/>
      <use xlink:href="#DejaVuSans-34" transform="translate(59.179688 -16.09375) scale(0.7)"/>
     </g>
    </g>
   </g>
   <g id="text_16">
    <g clip-path="url(#pad48559076)">
     <!-- $v_{5}$ -->
     <g transform="translate(403.643578 339.760441) scale(0.08 -0.08)">
      <use xlink:href="#DejaVuSans-Oblique-76" transform="translate(0 0.3125)"/>
      <use xlink:href="#DejaVuSans-35" transform="translate(59.179688 -16.09375) scale(0.7)"/>
     </g>
    </g>
   </g>
   <g id="text_17">
    <g clip-path="url(#pad48559076)">
     <!-- JK Concat -->
     <g transform="translate(225.043452 476.269921) scale(0.08 -0.08)">
      <defs>
       <path id="DejaVuSans-4a" d="M 628 4666 
L 1259 4666 
L 1259 325 
Q 1259 -519 939 -900 
Q 619 -1281 -91 -1281 
L -331 -1281 
L -331 -750 
L -134 -750 
Q 284 -750 456 -515 
Q 628 -281 628 325 
L 628 4666 
z
" transform="scale(0.015625)"/>
       <path id="DejaVuSans-20" transform="scale(0.015625)"/>
       <path id="DejaVuSans-43" d="M 4122 4306 
L 4122 3641 
Q 3803 3938 3442 4084 
Q 3081 4231 2675 4231 
Q 1875 4231 1450 3742 
Q 1025 3253 1025 2328 
Q 1025 1406 1450 917 
Q 1875 428 2675 428 
Q 3081 428 3442 575 
Q 3803 722 4122 1019 
L 4122 359 
Q 3791 134 3420 21 
Q 3050 -91 2638 -91 
Q 1578 -91 968 557 
Q 359 1206 359 2328 
Q 359 3453 968 4101 
Q 1578 4750 2638 4750 
Q 3056 4750 3426 4639 
Q 3797 4528 4122 4306 
z
" transform="scale(0.015625)"/>
       <path id="DejaVuSans-6f" d="M 1959 3097 
Q 1497 3097 1228 2736 
Q 959 2375 959 1747 
Q 959 1119 1226 758 
Q 1494 397 1959 397 
Q 2419 397 2687 759 
Q 2956 1122 2956 1747 
Q 2956 2369 2687 2733 
Q 2419 3097 1959 3097 
z
M 1959 3584 
Q 2709 3584 3137 3096 
Q 3566 2609 3566 1747 
Q 3566 888 3137 398 
Q 2709 -91 1959 -91 
Q 1206 -91 779 398 
Q 353 888 353 1747 
Q 353 2609 779 3096 
Q 1206 3584 1959 3584 
z
" transform="scale(0.015625)"/>
       <path id="DejaVuSans-6e" d="M 3513 2113 
L 3513 0 
L 2938 0 
L 2938 2094 
Q 2938 2591 2744 2837 
Q 2550 3084 2163 3084 
Q 1697 3084 1428 2787 
Q 1159 2491 1159 1978 
L 1159 0 
L 581 0 
L 581 3500 
L 1159 3500 
L 1159 2956 
Q 1366 3272 1645 3428 
Q 1925 3584 2291 3584 
Q 2894 3584 3203 3211 
Q 3513 2838 3513 2113 
z
" transform="scale(0.015625)"/>
       <path id="DejaVuSans-63" d="M 3122 3366 
L 3122 2828 
Q 2878 2963 2633 3030 
Q 2388 3097 2138 3097 
Q 1578 3097 1268 2742 
Q 959 2388 959 1747 
Q 959 1106 1268 751 
Q 1578 397 2138 397 
Q 2388 397 2633 464 
Q 2878 531 3122 666 
L 3122 134 
Q 2881 22 2623 -34 
Q 2366 -91 2075 -91 
Q 1284 -91 818 406 
Q 353 903 353 1747 
Q 353 2603 823 3093 
Q 1294 3584 2113 3584 
Q 2378 3584 2631 3529 
Q 2884 3475 3122 3366 
z
" transform="scale(0.015625)"/>
       <path id="DejaVuSans-61" d="M 2194 1759 
Q 1497 1759 1228 1600 
Q 959 1441 959 1056 
Q 959 750 1161 570 
Q 1363 391 1709 391 
Q 2188 391 2477 730 
Q 2766 1069 2766 1631 
L 2766 1759 
L 2194 1759 
z
M 3341 1997 
L 3341 0 
L 2766 0 
L 2766 531 
Q 2569 213 2275 61 
Q 1981 -91 1556 -91 
Q 1019 -91 701 211 
Q 384 513 384 1019 
Q 384 1609 779 1909 
Q 1175 2209 1959 2209 
L 2766 2209 
L 2766 2266 
Q 2766 2663 2505 2880 
Q 2244 3097 1772 3097 
Q 1472 3097 1187 3025 
Q 903 2953 641 2809 
L 641 3341 
Q 956 3463 1253 3523 
Q 1550 3584 1831 3584 
Q 2591 3584 2966 3190 
Q 3341 2797 3341 1997 
z
" transform="scale(0.015625)"/>
       <path id="DejaVuSans-74" d="M 1172 4494 
L 1172 3500 
L 2356 3500 
L 2356 3053 
L 1172 3053 
L 1172 1153 
Q 1172 725 1289 603 
Q 1406 481 1766 481 
L 2356 481 
L 2356 0 
L 1766 0 
Q 1100 0 847 248 
Q 594 497 594 1153 
L 594 3053 
L 172 3053 
L 172 3500 
L 594 3500 
L 594 4494 
L 1172 4494 
z
" transform="scale(0.015625)"/>
      </defs>
      <use xlink:href="#DejaVuSans-4a"/>
      <use xlink:href="#DejaVuSans-4b" x="29.492188"/>
      <use xlink:href="#DejaVuSans-20" x="95.068359"/>
      <use xlink:href="#DejaVuSans-43" x="126.855469"/>
      <use xlink:href="#DejaVuSans-6f" x="196.679688"/>
      <use xlink:href="#DejaVuSans-6e" x="257.861328"/>
      <use xlink:href="#DejaVuSans-63" x="321.240234"/>
      <use xlink:href="#DejaVuSans-61" x="376.220703"/>
      <use xlink:href="#DejaVuSans-74" x="437.5"/>
     </g>
    </g>
   </g>
   <g id="text_18">
    <g clip-path="url(#pad48559076)">
     <!-- FC → class -->
     <g transform="translate(223.194702 612.779401) scale(0.08 -0.08)">
      <defs>
       <path id="DejaVuSans-46" d="M 628 4666 
L 3309 4666 
L 3309 4134 
L 1259 4134 
L 1259 2759 
L 3109 2759 
L 3109 2228 
L 1259 2228 
L 1259 0 
L 628 0 
L 628 4666 
z
" transform="scale(0.015625)"/>
       <path id="DejaVuSans-2192" d="M 5050 2147 
L 5050 1866 
L 3822 638 
L 3447 1013 
L 4175 1741 
L 366 1741 
L 366 2272 
L 4175 2272 
L 3447 3000 
L 3822 3375 
L 5050 2147 
z
" transform="scale(0.015625)"/>
       <path id="DejaVuSans-6c" d="M 603 4863 
L 1178 4863 
L 1178 0 
L 603 0 
L 603 4863 
z
" transform="scale(0.015625)"/>
       <path id="DejaVuSans-73" d="M 2834 3397 
L 2834 2853 
Q 2591 2978 2328 3040 
Q 2066 3103 1784 3103 
Q 1356 3103 1142 2972 
Q 928 2841 928 2578 
Q 928 2378 1081 2264 
Q 1234 2150 1697 2047 
L 1894 2003 
Q 2506 1872 2764 1633 
Q 3022 1394 3022 966 
Q 3022 478 2636 193 
Q 2250 -91 1575 -91 
Q 1294 -91 989 -36 
Q 684 19 347 128 
L 347 722 
Q 666 556 975 473 
Q 1284 391 1588 391 
Q 1994 391 2212 530 
Q 2431 669 2431 922 
Q 2431 1156 2273 1281 
Q 2116 1406 1581 1522 
L 1381 1569 
Q 847 1681 609 1914 
Q 372 2147 372 2553 
Q 372 3047 722 3315 
Q 1072 3584 1716 3584 
Q 2034 3584 2315 3537 
Q 2597 3491 2834 3397 
z
" transform="scale(0.015625)"/>
      </defs>
      <use xlink:href="#DejaVuSans-46"/>
      <use xlink:href="#DejaVuSans-43" x="57.519531"/>
      <use xlink:href="#DejaVuSans-20" x="127.34375"/>
      <use xlink:href="#DejaVuSans-2192" x="159.130859"/>
      <use xlink:href="#DejaVuSans-20" x="242.919922"/>
      <use xlink:href="#DejaVuSans-63" x="274.707031"/>
      <use xlink:href="#DejaVuSans-6c" x="329.6875"/>
      <use xlink:href="#DejaVuSans-61" x="357.470703"/>
      <use xlink:href="#DejaVuSans-73" x="418.75"/>
      <use xlink:href="#DejaVuSans-73" x="470.849609"/>
     </g>
    </g>
   </g>
   <g id="text_19">
    <g clip-path="url(#pad48559076)">
     <!-- $v_{1}$ -->
     <g transform="translate(608.407798 66.741482) scale(0.08 -0.08)">
      <use xlink:href="#DejaVuSans-Oblique-76" transform="translate(0 0.3125)"/>
      <use xlink:href="#DejaVuSans-31" transform="translate(59.179688 -16.09375) scale(0.7)"/>
     </g>
    </g>
   </g>
   <g id="text_20">
    <g clip-path="url(#pad48559076)">
     <!-- $v_{2}$ -->
     <g transform="translate(690.313486 66.741482) scale(0.08 -0.08)">
      <use xlink:href="#DejaVuSans-Oblique-76" transform="translate(0 0.3125)"/>
      <use xlink:href="#DejaVuSans-32" transform="translate(59.179688 -16.09375) scale(0.7)"/>
     </g>
    </g>
   </g>
   <g id="text_21">
    <g clip-path="url(#pad48559076)">
     <!-- $v_{3}$ -->
     <g transform="translate(772.219174 66.741482) scale(0.08 -0.08)">
      <use xlink:href="#DejaVuSans-Oblique-76" transform="translate(0 0.3125)"/>
      <use xlink:href="#DejaVuSans-33" transform="translate(59.179688 -16.09375) scale(0.7)"/>
     </g>
    </g>
   </g>
   <g id="text_22">
    <g clip-path="url(#pad48559076)">
     <!-- $v_{1}$ -->
     <g transform="translate(608.407798 203.250961) scale(0.08 -0.08)">
      <use xlink:href="#DejaVuSans-Oblique-76" transform="translate(0 0.3125)"/>
      <use xlink:href="#DejaVuSans-31" transform="translate(59.179688 -16.09375) scale(0.7)"/>
     </g>
    </g>
   </g>
   <g id="text_23">
    <g clip-path="url(#pad48559076)">
     <!-- $v_{2}$ -->
     <g transform="translate(690.313486 203.250961) scale(0.08 -0.08)">
      <use xlink:href="#DejaVuSans-Oblique-76" transform="translate(0 0.3125)"/>
      <use xlink:href="#DejaVuSans-32" transform="translate(59.179688 -16.09375) scale(0.7)"/>
     </g>
    </g>
   </g>
   <g id="text_24">
    <g clip-path="url(#pad48559076)">
     <!-- $v_{3}$ -->
     <g transform="translate(772.219174 203.250961) scale(0.08 -0.08)">
      <use xlink:href="#DejaVuSans-Oblique-76" transform="translate(0 0.3125)"/>
      <use xlink:href="#DejaVuSans-33" transform="translate(59.179688 -16.09375) scale(0.7)"/>
     </g>
    </g>
   </g>
   <g id="text_25">
    <g clip-path="url(#pad48559076)">
     <!-- JK Concat -->
     <g transform="translate(675.524736 339.760441) scale(0.08 -0.08)">
      <use xlink:href="#DejaVuSans-4a"/>
      <use xlink:href="#DejaVuSans-4b" x="29.492188"/>
      <use xlink:href="#DejaVuSans-20" x="95.068359"/>
      <use xlink:href="#DejaVuSans-43" x="126.855469"/>
      <use xlink:href="#DejaVuSans-6f" x="196.679688"/>
      <use xlink:href="#DejaVuSans-6e" x="257.861328"/>
      <use xlink:href="#DejaVuSans-63" x="321.240234"/>
      <use xlink:href="#DejaVuSans-61" x="376.220703"/>
      <use xlink:href="#DejaVuSans-74" x="437.5"/>
     </g>
    </g>
   </g>
   <g id="text_26">
    <g clip-path="url(#pad48559076)">
     <!-- FC → class -->
     <g transform="translate(673.675986 476.269921) scale(0.08 -0.08)">
      <use xlink:href="#DejaVuSans-46"/>
      <use xlink:href="#DejaVuSans-43" x="57.519531"/>
      <use xlink:href="#DejaVuSans-20" x="127.34375"/>
      <use xlink:href="#DejaVuSans-2192" x="159.130859"/>
      <use xlink:href="#DejaVuSans-20" x="242.919922"/>
      <use xlink:href="#DejaVuSans-63" x="274.707031"/>
      <use xlink:href="#DejaVuSans-6c" x="329.6875"/>
      <use xlink:href="#DejaVuSans-61" x="357.470703"/>
      <use xlink:href="#DejaVuSans-73" x="418.75"/>
      <use xlink:href="#DejaVuSans-73" x="470.849609"/>
     </g>
    </g>
   </g>
  </g>
 </g>
 <defs>
  <clipPath id="pad48559076">
   <rect x="7.2" y="7.2" width="842.4" height="660.705882"/>
  </clipPath>
 </defs>
</svg>
