<?xml version="1.0" encoding="UTF-8" standalone="no"?>
<!DOCTYPE svg PUBLIC "-//W3C//DTD SVG 1.1//EN"
 "http://www.w3.org/Graphics/SVG/1.1/DTD/svg11.dtd">
<!-- Generated by graphviz version 2.44.0 (0)
 -->
<!-- Pages: 1 -->
<svg width="707pt" height="629pt"
 viewBox="14.40 14.40 692.40 614.64" xmlns="http://www.w3.org/2000/svg" xmlns:xlink="http://www.w3.org/1999/xlink">
<g id="graph0" class="graph" transform="scale(1 1) rotate(0) translate(18.4 610.64)">
<!-- t_L0_v₁ -->
<g id="node1" class="node">
<title>t_L0_v₁</title>
<ellipse fill="#fde8d0" stroke="#f28e2b" cx="117.56" cy="-83" rx="11" ry="11"/>
<text text-anchor="middle" x="117.56" y="-81.1" font-family="CMU Serif" font-size="8.00" fill="#333333">v₁</text>
</g>
<!-- t_L0_v₂ -->
<g id="node2" class="node">
<title>t_L0_v₂</title>
<ellipse fill="#fde8d0" stroke="#f28e2b" cx="116.84" cy="-11" rx="11" ry="11"/>
<text text-anchor="middle" x="116.84" y="-9.1" font-family="CMU Serif" font-size="8.00" fill="#333333">v₂</text>
</g>
<!-- t_L0_v₁&#45;&gt;t_L0_v₂ -->
<g id="edge1" class="edge">
<title>t_L0_v₁&#45;&gt;t_L0_v₂</title>
<path fill="none" stroke="#f28e2b" stroke-opacity="0.501961" d="M117.45,-71.75C117.33,-59.88 117.14,-41.05 117,-27.5"/>
<polygon fill="#f28e2b" fill-opacity="0.501961" stroke="#f28e2b" stroke-opacity="0.501961" points="118.75,-27.39 116.95,-22.41 115.25,-27.43 118.75,-27.39"/>
</g>
<!-- t_L0_v₃ -->
<g id="node3" class="node">
<title>t_L0_v₃</title>
<ellipse fill="#fde8d0" stroke="#f28e2b" cx="51.32" cy="-41.24" rx="11" ry="11"/>
<text text-anchor="middle" x="51.32" y="-39.34" font-family="CMU Serif" font-size="8.00" fill="#333333">v₃</text>
</g>
<!-- t_L0_v₁&#45;&gt;t_L0_v₃ -->
<g id="edge2" class="edge">
<title>t_L0_v₁&#45;&gt;t_L0_v₃</title>
<path fill="none" stroke="#f28e2b" stroke-opacity="0.501961" d="M108.07,-77.02C96.85,-69.95 78.1,-58.12 65.24,-50.01"/>
<polygon fill="#f28e2b" fill-opacity="0.501961" stroke="#f28e2b" stroke-opacity="0.501961" points="65.96,-48.4 60.79,-47.21 64.09,-51.36 65.96,-48.4"/>
</g>
<!-- t_L1_v₄ -->
<g id="node4" class="node">
<title>t_L1_v₄</title>
<ellipse fill="#fde8d0" stroke="#f28e2b" cx="11" cy="-324.2" rx="11" ry="11"/>
<text text-anchor="middle" x="11" y="-322.3" font-family="CMU Serif" font-size="8.00" fill="#333333">v₄</text>
</g>
<!-- t_L0_v₁&#45;&gt;t_L1_v₄ -->
<g id="edge3" class="edge">
<title>t_L0_v₁&#45;&gt;t_L1_v₄</title>
<path fill="none" stroke="#f28e2b" stroke-dasharray="5,2" d="M112.98,-93.36C96.14,-131.48 37.6,-264 17.69,-309.06"/>
<polygon fill="#f28e2b" stroke="#f28e2b" points="15.98,-308.59 15.56,-313.87 19.18,-310.01 15.98,-308.59"/>
</g>
<!-- t_L0_v₂&#45;&gt;t_L0_v₃ -->
<g id="edge4" class="edge">
<title>t_L0_v₂&#45;&gt;t_L0_v₃</title>
<path fill="none" stroke="#f28e2b" stroke-opacity="0.501961" d="M106.6,-15.72C95.8,-20.71 78.66,-28.62 66.33,-34.31"/>
<polygon fill="#f28e2b" fill-opacity="0.501961" stroke="#f28e2b" stroke-opacity="0.501961" points="65.51,-32.76 61.7,-36.45 66.98,-35.94 65.51,-32.76"/>
</g>
<!-- t_L0_v₄ -->
<g id="node5" class="node">
<title>t_L0_v₄</title>
<ellipse fill="#fde8d0" stroke="#f28e2b" cx="11" cy="-108.2" rx="11" ry="11"/>
<text text-anchor="middle" x="11" y="-106.3" font-family="CMU Serif" font-size="8.00" fill="#333333">v₄</text>
</g>
<!-- t_L0_v₃&#45;&gt;t_L0_v₄ -->
<g id="edge5" class="edge">
<title>t_L0_v₃&#45;&gt;t_L0_v₄</title>
<path fill="none" stroke="#f28e2b" stroke-opacity="0.501961" d="M45.54,-50.83C38.72,-62.17 27.3,-81.13 19.47,-94.13"/>
<polygon fill="#f28e2b" fill-opacity="0.501961" stroke="#f28e2b" stroke-opacity="0.501961" points="17.85,-93.44 16.77,-98.62 20.84,-95.24 17.85,-93.44"/>
</g>
<!-- t_L1_v₅ -->
<g id="node12" class="node">
<title>t_L1_v₅</title>
<ellipse fill="#fde8d0" stroke="#f28e2b" cx="76.52" cy="-365.24" rx="11" ry="11"/>
<text text-anchor="middle" x="76.52" y="-363.34" font-family="CMU Serif" font-size="8.00" fill="#333333">v₅</text>
</g>
<!-- t_L1_v₄&#45;&gt;t_L1_v₅ -->
<g id="edge14" class="edge">
<title>t_L1_v₄&#45;&gt;t_L1_v₅</title>
<path fill="none" stroke="#f28e2b" stroke-opacity="0.501961" d="M20.39,-330.08C31.48,-337.03 50.03,-348.65 62.75,-356.62"/>
<polygon fill="#f28e2b" fill-opacity="0.501961" stroke="#f28e2b" stroke-opacity="0.501961" points="61.98,-358.2 67.15,-359.37 63.84,-355.23 61.98,-358.2"/>
</g>
<!-- t_L0_v₅ -->
<g id="node6" class="node">
<title>t_L0_v₅</title>
<ellipse fill="#fde8d0" stroke="#f28e2b" cx="76.52" cy="-149.24" rx="11" ry="11"/>
<text text-anchor="middle" x="76.52" y="-147.34" font-family="CMU Serif" font-size="8.00" fill="#333333">v₅</text>
</g>
<!-- t_L0_v₄&#45;&gt;t_L0_v₅ -->
<g id="edge6" class="edge">
<title>t_L0_v₄&#45;&gt;t_L0_v₅</title>
<path fill="none" stroke="#f28e2b" stroke-opacity="0.501961" d="M20.39,-114.08C31.48,-121.03 50.03,-132.65 62.75,-140.62"/>
<polygon fill="#f28e2b" fill-opacity="0.501961" stroke="#f28e2b" stroke-opacity="0.501961" points="61.98,-142.2 67.15,-143.37 63.84,-139.23 61.98,-142.2"/>
</g>
<!-- t_L0_v₅&#45;&gt;t_L0_v₁ -->
<g id="edge7" class="edge">
<title>t_L0_v₅&#45;&gt;t_L0_v₁</title>
<path fill="none" stroke="#f28e2b" stroke-opacity="0.501961" d="M82.4,-139.75C89.35,-128.53 100.97,-109.78 108.94,-96.92"/>
<polygon fill="#f28e2b" fill-opacity="0.501961" stroke="#f28e2b" stroke-opacity="0.501961" points="110.55,-97.65 111.69,-92.47 107.57,-95.8 110.55,-97.65"/>
</g>
<!-- t_jk -->
<g id="node7" class="node">
<title>t_jk</title>
<path fill="#fde8d0" stroke="#f28e2b" d="M134.33,-261.63C134.33,-261.63 98.33,-261.63 98.33,-261.63 92.33,-261.63 86.33,-255.63 86.33,-249.63 86.33,-249.63 86.33,-237.63 86.33,-237.63 86.33,-231.63 92.33,-225.63 98.33,-225.63 98.33,-225.63 134.33,-225.63 134.33,-225.63 140.33,-225.63 146.33,-231.63 146.33,-237.63 146.33,-237.63 146.33,-249.63 146.33,-249.63 146.33,-255.63 140.33,-261.63 134.33,-261.63"/>
<text text-anchor="middle" x="116.33" y="-241.43" font-family="CMU Serif" font-size="9.00" fill="#333333">JK Concat</text>
</g>
<!-- t_L0_v₅&#45;&gt;t_jk -->
<g id="edge8" class="edge">
<title>t_L0_v₅&#45;&gt;t_jk</title>
<path fill="none" stroke="#f28e2b" stroke-dasharray="5,2" d="M80.93,-159.7C87.09,-174.31 98.43,-201.19 106.62,-220.6"/>
<polygon fill="#f28e2b" stroke="#f28e2b" points="105.07,-221.43 108.63,-225.36 108.3,-220.07 105.07,-221.43"/>
</g>
<!-- t_fc -->
<g id="node17" class="node">
<title>t_fc</title>
<path fill="#fde8d0" stroke="#f28e2b" d="M225.2,-218.19C225.2,-218.19 186.2,-218.19 186.2,-218.19 180.2,-218.19 174.2,-212.19 174.2,-206.19 174.2,-206.19 174.2,-194.19 174.2,-194.19 174.2,-188.19 180.2,-182.19 186.2,-182.19 186.2,-182.19 225.2,-182.19 225.2,-182.19 231.2,-182.19 237.2,-188.19 237.2,-194.19 237.2,-194.19 237.2,-206.19 237.2,-206.19 237.2,-212.19 231.2,-218.19 225.2,-218.19"/>
<text text-anchor="middle" x="205.7" y="-197.99" font-family="CMU Serif" font-size="9.00" fill="#333333">FC → class</text>
</g>
<!-- t_jk&#45;&gt;t_fc -->
<g id="edge24" class="edge">
<title>t_jk&#45;&gt;t_fc</title>
<path fill="none" stroke="#f28e2b" d="M146.59,-228.93C153.89,-225.38 161.76,-221.55 169.3,-217.89"/>
<polygon fill="#f28e2b" stroke="#f28e2b" points="170.22,-219.39 173.95,-215.63 168.69,-216.24 170.22,-219.39"/>
</g>
<!-- t_L1_v₁ -->
<g id="node8" class="node">
<title>t_L1_v₁</title>
<ellipse fill="#fde8d0" stroke="#f28e2b" cx="117.56" cy="-299" rx="11" ry="11"/>
<text text-anchor="middle" x="117.56" y="-297.1" font-family="CMU Serif" font-size="8.00" fill="#333333">v₁</text>
</g>
<!-- t_L1_v₂ -->
<g id="node9" class="node">
<title>t_L1_v₂</title>
<ellipse fill="#fde8d0" stroke="#f28e2b" cx="116.84" cy="-227" rx="11" ry="11"/>
<text text-anchor="middle" x="116.84" y="-225.1" font-family="CMU Serif" font-size="8.00" fill="#333333">v₂</text>
</g>
<!-- t_L1_v₁&#45;&gt;t_L1_v₂ -->
<g id="edge9" class="edge">
<title>t_L1_v₁&#45;&gt;t_L1_v₂</title>
<path fill="none" stroke="#f28e2b" stroke-opacity="0.501961" d="M117.45,-287.75C117.33,-275.88 117.14,-257.05 117,-243.5"/>
<polygon fill="#f28e2b" fill-opacity="0.501961" stroke="#f28e2b" stroke-opacity="0.501961" points="118.75,-243.39 116.95,-238.41 115.25,-243.43 118.75,-243.39"/>
</g>
<!-- t_L1_v₃ -->
<g id="node10" class="node">
<title>t_L1_v₃</title>
<ellipse fill="#fde8d0" stroke="#f28e2b" cx="51.32" cy="-257.24" rx="11" ry="11"/>
<text text-anchor="middle" x="51.32" y="-255.34" font-family="CMU Serif" font-size="8.00" fill="#333333">v₃</text>
</g>
<!-- t_L1_v₁&#45;&gt;t_L1_v₃ -->
<g id="edge10" class="edge">
<title>t_L1_v₁&#45;&gt;t_L1_v₃</title>
<path fill="none" stroke="#f28e2b" stroke-opacity="0.501961" d="M108.07,-293.02C96.85,-285.95 78.1,-274.12 65.24,-266.01"/>
<polygon fill="#f28e2b" fill-opacity="0.501961" stroke="#f28e2b" stroke-opacity="0.501961" points="65.96,-264.4 60.79,-263.21 64.09,-267.36 65.96,-264.4"/>
</g>
<!-- t_L2_v₄ -->
<g id="node11" class="node">
<title>t_L2_v₄</title>
<ellipse fill="#fde8d0" stroke="#f28e2b" cx="11" cy="-540.2" rx="11" ry="11"/>
<text text-anchor="middle" x="11" y="-538.3" font-family="CMU Serif" font-size="8.00" fill="#333333">v₄</text>
</g>
<!-- t_L1_v₁&#45;&gt;t_L2_v₄ -->
<g id="edge11" class="edge">
<title>t_L1_v₁&#45;&gt;t_L2_v₄</title>
<path fill="none" stroke="#f28e2b" stroke-dasharray="5,2" d="M112.98,-309.36C96.14,-347.48 37.6,-480 17.69,-525.06"/>
<polygon fill="#f28e2b" stroke="#f28e2b" points="15.98,-524.59 15.56,-529.87 19.18,-526.01 15.98,-524.59"/>
</g>
<!-- t_L1_v₂&#45;&gt;t_L1_v₃ -->
<g id="edge12" class="edge">
<title>t_L1_v₂&#45;&gt;t_L1_v₃</title>
<path fill="none" stroke="#f28e2b" stroke-opacity="0.501961" d="M106.6,-231.72C95.8,-236.71 78.66,-244.62 66.33,-250.31"/>
<polygon fill="#f28e2b" fill-opacity="0.501961" stroke="#f28e2b" stroke-opacity="0.501961" points="65.51,-248.76 61.7,-252.45 66.98,-251.94 65.51,-248.76"/>
</g>
<!-- t_L1_v₃&#45;&gt;t_L1_v₄ -->
<g id="edge13" class="edge">
<title>t_L1_v₃&#45;&gt;t_L1_v₄</title>
<path fill="none" stroke="#f28e2b" stroke-opacity="0.501961" d="M45.54,-266.83C38.72,-278.17 27.3,-297.13 19.47,-310.13"/>
<polygon fill="#f28e2b" fill-opacity="0.501961" stroke="#f28e2b" stroke-opacity="0.501961" points="17.85,-309.44 16.77,-314.62 20.84,-311.24 17.85,-309.44"/>
</g>
<!-- t_L2_v₅ -->
<g id="node16" class="node">
<title>t_L2_v₅</title>
<ellipse fill="#fde8d0" stroke="#f28e2b" cx="76.52" cy="-581.24" rx="11" ry="11"/>
<text text-anchor="middle" x="76.52" y="-579.34" font-family="CMU Serif" font-size="8.00" fill="#333333">v₅</text>
</g>
<!-- t_L2_v₄&#45;&gt;t_L2_v₅ -->
<g id="edge21" class="edge">
<title>t_L2_v₄&#45;&gt;t_L2_v₅</title>
<path fill="none" stroke="#f28e2b" stroke-opacity="0.501961" d="M20.39,-546.08C31.48,-553.03 50.03,-564.65 62.75,-572.62"/>
<polygon fill="#f28e2b" fill-opacity="0.501961" stroke="#f28e2b" stroke-opacity="0.501961" points="61.98,-574.2 67.15,-575.37 63.84,-571.23 61.98,-574.2"/>
</g>
<!-- t_L1_v₅&#45;&gt;t_jk -->
<g id="edge16" class="edge">
<title>t_L1_v₅&#45;&gt;t_jk</title>
<path fill="none" stroke="#f28e2b" stroke-dasharray="5,2" d="M80.05,-354.45C86.44,-334.94 100.04,-293.39 108.66,-267.08"/>
<polygon fill="#f28e2b" stroke="#f28e2b" points="110.42,-267.33 110.31,-262.03 107.09,-266.24 110.42,-267.33"/>
</g>
<!-- t_L1_v₅&#45;&gt;t_L1_v₁ -->
<g id="edge15" class="edge">
<title>t_L1_v₅&#45;&gt;t_L1_v₁</title>
<path fill="none" stroke="#f28e2b" stroke-opacity="0.501961" d="M82.4,-355.75C89.35,-344.53 100.97,-325.78 108.94,-312.92"/>
<polygon fill="#f28e2b" fill-opacity="0.501961" stroke="#f28e2b" stroke-opacity="0.501961" points="110.55,-313.65 111.69,-308.47 107.57,-311.8 110.55,-313.65"/>
</g>
<!-- t_L2_v₁ -->
<g id="node13" class="node">
<title>t_L2_v₁</title>
<ellipse fill="#fde8d0" stroke="#f28e2b" cx="117.56" cy="-515" rx="11" ry="11"/>
<text text-anchor="middle" x="117.56" y="-513.1" font-family="CMU Serif" font-size="8.00" fill="#333333">v₁</text>
</g>
<!-- t_L2_v₂ -->
<g id="node14" class="node">
<title>t_L2_v₂</title>
<ellipse fill="#fde8d0" stroke="#f28e2b" cx="116.84" cy="-443" rx="11" ry="11"/>
<text text-anchor="middle" x="116.84" y="-441.1" font-family="CMU Serif" font-size="8.00" fill="#333333">v₂</text>
</g>
<!-- t_L2_v₁&#45;&gt;t_L2_v₂ -->
<g id="edge17" class="edge">
<title>t_L2_v₁&#45;&gt;t_L2_v₂</title>
<path fill="none" stroke="#f28e2b" stroke-opacity="0.501961" d="M117.45,-503.75C117.33,-491.88 117.14,-473.05 117,-459.5"/>
<polygon fill="#f28e2b" fill-opacity="0.501961" stroke="#f28e2b" stroke-opacity="0.501961" points="118.75,-459.39 116.95,-454.41 115.25,-459.43 118.75,-459.39"/>
</g>
<!-- t_L2_v₃ -->
<g id="node15" class="node">
<title>t_L2_v₃</title>
<ellipse fill="#fde8d0" stroke="#f28e2b" cx="51.32" cy="-473.24" rx="11" ry="11"/>
<text text-anchor="middle" x="51.32" y="-471.34" font-family="CMU Serif" font-size="8.00" fill="#333333">v₃</text>
</g>
<!-- t_L2_v₁&#45;&gt;t_L2_v₃ -->
<g id="edge18" class="edge">
<title>t_L2_v₁&#45;&gt;t_L2_v₃</title>
<path fill="none" stroke="#f28e2b" stroke-opacity="0.501961" d="M108.07,-509.02C96.85,-501.95 78.1,-490.12 65.24,-482.01"/>
<polygon fill="#f28e2b" fill-opacity="0.501961" stroke="#f28e2b" stroke-opacity="0.501961" points="65.96,-480.4 60.79,-479.21 64.09,-483.36 65.96,-480.4"/>
</g>
<!-- t_L2_v₂&#45;&gt;t_L2_v₃ -->
<g id="edge19" class="edge">
<title>t_L2_v₂&#45;&gt;t_L2_v₃</title>
<path fill="none" stroke="#f28e2b" stroke-opacity="0.501961" d="M106.6,-447.72C95.8,-452.71 78.66,-460.62 66.33,-466.31"/>
<polygon fill="#f28e2b" fill-opacity="0.501961" stroke="#f28e2b" stroke-opacity="0.501961" points="65.51,-464.76 61.7,-468.45 66.98,-467.94 65.51,-464.76"/>
</g>
<!-- t_L2_v₃&#45;&gt;t_L2_v₄ -->
<g id="edge20" class="edge">
<title>t_L2_v₃&#45;&gt;t_L2_v₄</title>
<path fill="none" stroke="#f28e2b" stroke-opacity="0.501961" d="M45.54,-482.83C38.72,-494.17 27.3,-513.13 19.47,-526.13"/>
<polygon fill="#f28e2b" fill-opacity="0.501961" stroke="#f28e2b" stroke-opacity="0.501961" points="17.85,-525.44 16.77,-530.62 20.84,-527.24 17.85,-525.44"/>
</g>
<!-- t_L2_v₅&#45;&gt;t_jk -->
<g id="edge23" class="edge">
<title>t_L2_v₅&#45;&gt;t_jk</title>
<path fill="none" stroke="#f28e2b" stroke-dasharray="5,2" d="M77.84,-570.01C83.5,-522.04 105.7,-333.82 113.56,-267.18"/>
<polygon fill="#f28e2b" stroke="#f28e2b" points="115.34,-267.02 114.18,-261.85 111.86,-266.61 115.34,-267.02"/>
</g>
<!-- t_L2_v₅&#45;&gt;t_L2_v₁ -->
<g id="edge22" class="edge">
<title>t_L2_v₅&#45;&gt;t_L2_v₁</title>
<path fill="none" stroke="#f28e2b" stroke-opacity="0.501961" d="M82.4,-571.75C89.35,-560.53 100.97,-541.78 108.94,-528.92"/>
<polygon fill="#f28e2b" fill-opacity="0.501961" stroke="#f28e2b" stroke-opacity="0.501961" points="110.55,-529.65 111.69,-524.47 107.57,-527.8 110.55,-529.65"/>
</g>
<!-- s_fc -->
<g id="node18" class="node">
<title>s_fc</title>
<path fill="#fde8d0" stroke="#f28e2b" d="M307.57,-184.64C307.57,-184.64 268.57,-184.64 268.57,-184.64 262.57,-184.64 256.57,-178.64 256.57,-172.64 256.57,-172.64 256.57,-160.64 256.57,-160.64 256.57,-154.64 262.57,-148.64 268.57,-148.64 268.57,-148.64 307.57,-148.64 307.57,-148.64 313.57,-148.64 319.57,-154.64 319.57,-160.64 319.57,-160.64 319.57,-172.64 319.57,-172.64 319.57,-178.64 313.57,-184.64 307.57,-184.64"/>
<text text-anchor="middle" x="288.07" y="-164.44" font-family="CMU Serif" font-size="9.00" fill="#333333">FC → class</text>
</g>
<!-- t_fc&#45;&gt;s_fc -->
<g id="edge25" class="edge">
<title>t_fc&#45;&gt;s_fc</title>
<path fill="none" stroke="#e15759" stroke-width="2" stroke-dasharray="5,2" d="M237.31,-187.32C242.01,-185.41 246.88,-183.42 251.66,-181.47"/>
<polygon fill="#e15759" stroke="#e15759" stroke-width="2" points="252.44,-183.05 256.41,-179.54 251.12,-179.81 252.44,-183.05"/>
<text text-anchor="middle" x="248.99" y="-186.6" font-family="CMU Serif" font-size="6.00" fill="grey">KD</text>
</g>
<!-- s_L0_v₁ -->
<g id="node19" class="node">
<title>s_L0_v₁</title>
<ellipse fill="#fde8d0" stroke="#f28e2b" cx="587" cy="-72.92" rx="11" ry="11"/>
<text text-anchor="middle" x="587" y="-71.02" font-family="CMU Serif" font-size="8.00" fill="#333333">v₁</text>
</g>
<!-- s_L0_v₂ -->
<g id="node20" class="node">
<title>s_L0_v₂</title>
<ellipse fill="#fde8d0" stroke="#f28e2b" cx="659" cy="-73.64" rx="11" ry="11"/>
<text text-anchor="middle" x="659" y="-71.74" font-family="CMU Serif" font-size="8.00" fill="#333333">v₂</text>
</g>
<!-- s_L0_v₁&#45;&gt;s_L0_v₂ -->
<g id="edge26" class="edge">
<title>s_L0_v₁&#45;&gt;s_L0_v₂</title>
<path fill="none" stroke="#f28e2b" stroke-opacity="0.501961" d="M598.25,-73.03C610.12,-73.15 628.95,-73.34 642.5,-73.48"/>
<polygon fill="#f28e2b" fill-opacity="0.501961" stroke="#f28e2b" stroke-opacity="0.501961" points="642.57,-75.23 647.59,-73.53 642.61,-71.73 642.57,-75.23"/>
</g>
<!-- s_L0_v₃ -->
<g id="node21" class="node">
<title>s_L0_v₃</title>
<ellipse fill="#fde8d0" stroke="#f28e2b" cx="623" cy="-11" rx="11" ry="11"/>
<text text-anchor="middle" x="623" y="-9.1" font-family="CMU Serif" font-size="8.00" fill="#333333">v₃</text>
</g>
<!-- s_L0_v₂&#45;&gt;s_L0_v₃ -->
<g id="edge27" class="edge">
<title>s_L0_v₂&#45;&gt;s_L0_v₃</title>
<path fill="none" stroke="#f28e2b" stroke-opacity="0.501961" d="M653.38,-63.85C647.44,-53.52 638.02,-37.14 631.25,-25.35"/>
<polygon fill="#f28e2b" fill-opacity="0.501961" stroke="#f28e2b" stroke-opacity="0.501961" points="632.71,-24.39 628.7,-20.93 629.68,-26.13 632.71,-24.39"/>
</g>
<!-- s_L1_v₁ -->
<g id="node22" class="node">
<title>s_L1_v₁</title>
<ellipse fill="#fde8d0" stroke="#f28e2b" cx="587" cy="-288.92" rx="11" ry="11"/>
<text text-anchor="middle" x="587" y="-287.02" font-family="CMU Serif" font-size="8.00" fill="#333333">v₁</text>
</g>
<!-- s_L0_v₂&#45;&gt;s_L1_v₁ -->
<g id="edge28" class="edge">
<title>s_L0_v₂&#45;&gt;s_L1_v₁</title>
<path fill="none" stroke="#f28e2b" stroke-dasharray="5,2" d="M655.43,-84.32C643.67,-119.46 606.14,-231.69 592.24,-273.25"/>
<polygon fill="#f28e2b" stroke="#f28e2b" points="590.52,-272.88 590.59,-278.18 593.84,-273.99 590.52,-272.88"/>
</g>
<!-- s_L0_v₃&#45;&gt;s_L0_v₁ -->
<g id="edge29" class="edge">
<title>s_L0_v₃&#45;&gt;s_L0_v₁</title>
<path fill="none" stroke="#f28e2b" stroke-opacity="0.501961" d="M617.38,-20.67C611.44,-30.88 602.02,-47.08 595.25,-58.73"/>
<polygon fill="#f28e2b" fill-opacity="0.501961" stroke="#f28e2b" stroke-opacity="0.501961" points="593.7,-57.91 592.7,-63.11 596.73,-59.67 593.7,-57.91"/>
</g>
<!-- s_jk -->
<g id="node23" class="node">
<title>s_jk</title>
<path fill="#fde8d0" stroke="#f28e2b" d="M390.72,-169.71C390.72,-169.71 354.72,-169.71 354.72,-169.71 348.72,-169.71 342.72,-163.71 342.72,-157.71 342.72,-157.71 342.72,-145.71 342.72,-145.71 342.72,-139.71 348.72,-133.71 354.72,-133.71 354.72,-133.71 390.72,-133.71 390.72,-133.71 396.72,-133.71 402.72,-139.71 402.72,-145.71 402.72,-145.71 402.72,-157.71 402.72,-157.71 402.72,-163.71 396.72,-169.71 390.72,-169.71"/>
<text text-anchor="middle" x="372.72" y="-149.51" font-family="CMU Serif" font-size="9.00" fill="#333333">JK Concat</text>
</g>
<!-- s_L0_v₃&#45;&gt;s_jk -->
<g id="edge30" class="edge">
<title>s_L0_v₃&#45;&gt;s_jk</title>
<path fill="none" stroke="#f28e2b" stroke-dasharray="5,2" d="M613.19,-16.52C579.19,-35.63 465.33,-99.65 407.32,-132.26"/>
<polygon fill="#f28e2b" stroke="#f28e2b" points="406.41,-130.77 402.91,-134.74 408.12,-133.82 406.41,-130.77"/>
</g>
<!-- s_L1_v₂ -->
<g id="node24" class="node">
<title>s_L1_v₂</title>
<ellipse fill="#fde8d0" stroke="#f28e2b" cx="659" cy="-289.64" rx="11" ry="11"/>
<text text-anchor="middle" x="659" y="-287.74" font-family="CMU Serif" font-size="8.00" fill="#333333">v₂</text>
</g>
<!-- s_L1_v₁&#45;&gt;s_L1_v₂ -->
<g id="edge31" class="edge">
<title>s_L1_v₁&#45;&gt;s_L1_v₂</title>
<path fill="none" stroke="#f28e2b" stroke-opacity="0.501961" d="M598.25,-289.03C610.12,-289.15 628.95,-289.34 642.5,-289.48"/>
<polygon fill="#f28e2b" fill-opacity="0.501961" stroke="#f28e2b" stroke-opacity="0.501961" points="642.57,-291.23 647.59,-289.53 642.61,-287.73 642.57,-291.23"/>
</g>
<!-- s_jk&#45;&gt;s_fc -->
<g id="edge35" class="edge">
<title>s_jk&#45;&gt;s_fc</title>
<path fill="none" stroke="#f28e2b" d="M342.64,-157.02C336.85,-158.04 330.72,-159.12 324.75,-160.18"/>
<polygon fill="#f28e2b" stroke="#f28e2b" points="324.39,-158.46 319.77,-161.05 325,-161.91 324.39,-158.46"/>
</g>
<!-- s_L1_v₃ -->
<g id="node25" class="node">
<title>s_L1_v₃</title>
<ellipse fill="#fde8d0" stroke="#f28e2b" cx="623" cy="-227" rx="11" ry="11"/>
<text text-anchor="middle" x="623" y="-225.1" font-family="CMU Serif" font-size="8.00" fill="#333333">v₃</text>
</g>
<!-- s_L1_v₂&#45;&gt;s_L1_v₃ -->
<g id="edge32" class="edge">
<title>s_L1_v₂&#45;&gt;s_L1_v₃</title>
<path fill="none" stroke="#f28e2b" stroke-opacity="0.501961" d="M653.38,-279.85C647.44,-269.52 638.02,-253.14 631.25,-241.35"/>
<polygon fill="#f28e2b" fill-opacity="0.501961" stroke="#f28e2b" stroke-opacity="0.501961" points="632.71,-240.39 628.7,-236.93 629.68,-242.13 632.71,-240.39"/>
</g>
<!-- s_L1_v₃&#45;&gt;s_L1_v₁ -->
<g id="edge33" class="edge">
<title>s_L1_v₃&#45;&gt;s_L1_v₁</title>
<path fill="none" stroke="#f28e2b" stroke-opacity="0.501961" d="M617.38,-236.67C611.44,-246.88 602.02,-263.08 595.25,-274.73"/>
<polygon fill="#f28e2b" fill-opacity="0.501961" stroke="#f28e2b" stroke-opacity="0.501961" points="593.7,-273.91 592.7,-279.11 596.73,-275.67 593.7,-273.91"/>
</g>
<!-- s_L1_v₃&#45;&gt;s_jk -->
<g id="edge34" class="edge">
<title>s_L1_v₃&#45;&gt;s_jk</title>
<path fill="none" stroke="#f28e2b" stroke-dasharray="5,2" d="M612.25,-223.77C577.28,-213.25 465.74,-179.7 408.05,-162.34"/>
<polygon fill="#f28e2b" stroke="#f28e2b" points="408.27,-160.58 402.97,-160.81 407.26,-163.93 408.27,-160.58"/>
</g>
</g>
</svg>
