<?xml version="1.0" encoding="UTF-8" standalone="no"?>
<!DOCTYPE svg PUBLIC "-//W3C//DTD SVG 1.1//EN"
 "http://www.w3.org/Graphics/SVG/1.1/DTD/svg11.dtd">
<!-- Generated by graphviz version 2.44.0 (0)
 -->
<!-- Pages: 1 -->
<svg width="879pt" height="699pt"
 viewBox="14.40 14.40 864.52 684.40" xmlns="http://www.w3.org/2000/svg" xmlns:xlink="http://www.w3.org/1999/xlink">
<g id="graph0" class="graph" transform="scale(1 1) rotate(0) translate(18.4 680.4)">
<g id="clust1" class="cluster">
<title>cluster_teacher</title>
</g>
<g id="clust5" class="cluster">
<title>cluster_student</title>
</g>
<!-- teacher_L0_0 -->
<g id="node1" class="node">
<title>teacher_L0_0</title>
<ellipse fill="#fde8d0" stroke="#f28e2b" cx="53.12" cy="-403" rx="11" ry="11"/>
<text text-anchor="middle" x="53.12" y="-401.4" font-family="CMU Serif" font-size="7.00" fill="#333333">v₁</text>
</g>
<!-- teacher_L0_1 -->
<g id="node2" class="node">
<title>teacher_L0_1</title>
<ellipse fill="#fde8d0" stroke="#f28e2b" cx="53.12" cy="-483" rx="11" ry="11"/>
<text text-anchor="middle" x="53.12" y="-481.4" font-family="CMU Serif" font-size="7.00" fill="#333333">v₂</text>
</g>
<!-- teacher_L0_0&#45;&gt;teacher_L0_1 -->
<g id="edge1" class="edge">
<title>teacher_L0_0&#45;&gt;teacher_L0_1</title>
<path fill="none" stroke="#f28e2b" stroke-width="0.6" stroke-opacity="0.501961" d="M53.12,-414.25C53.12,-431.69 53.12,-449.13 53.12,-466.58"/>
<polygon fill="#f28e2b" fill-opacity="0.501961" stroke="#f28e2b" stroke-width="0.6" stroke-opacity="0.501961" points="51.37,-466.99 53.12,-471.99 54.87,-466.99 51.37,-466.99"/>
</g>
<!-- teacher_L0_2 -->
<g id="node3" class="node">
<title>teacher_L0_2</title>
<ellipse fill="#fde8d0" stroke="#f28e2b" cx="53.12" cy="-563" rx="11" ry="11"/>
<text text-anchor="middle" x="53.12" y="-561.4" font-family="CMU Serif" font-size="7.00" fill="#333333">v₃</text>
</g>
<!-- teacher_L0_0&#45;&gt;teacher_L0_2 -->
<g id="edge2" class="edge">
<title>teacher_L0_0&#45;&gt;teacher_L0_2</title>
<path fill="none" stroke="#f28e2b" stroke-width="0.6" stroke-opacity="0.501961" d="M45.64,-411.3C32.36,-427.05 6.85,-462.53 15.12,-494.5 20.51,-515.32 33.74,-536.55 43.07,-549.75"/>
<polygon fill="#f28e2b" fill-opacity="0.501961" stroke="#f28e2b" stroke-width="0.6" stroke-opacity="0.501961" points="41.72,-550.87 46.07,-553.9 44.56,-548.82 41.72,-550.87"/>
</g>
<!-- teacher_L0_1&#45;&gt;teacher_L0_2 -->
<g id="edge3" class="edge">
<title>teacher_L0_1&#45;&gt;teacher_L0_2</title>
<path fill="none" stroke="#f28e2b" stroke-width="0.6" stroke-opacity="0.501961" d="M53.12,-494.25C53.12,-511.69 53.12,-529.13 53.12,-546.58"/>
<polygon fill="#f28e2b" fill-opacity="0.501961" stroke="#f28e2b" stroke-width="0.6" stroke-opacity="0.501961" points="51.37,-546.99 53.12,-551.99 54.87,-546.99 51.37,-546.99"/>
</g>
<!-- teacher_L0_3 -->
<g id="node4" class="node">
<title>teacher_L0_3</title>
<ellipse fill="#fde8d0" stroke="#f28e2b" cx="53.12" cy="-643" rx="11" ry="11"/>
<text text-anchor="middle" x="53.12" y="-641.4" font-family="CMU Serif" font-size="7.00" fill="#333333">v₄</text>
</g>
<!-- teacher_L0_2&#45;&gt;teacher_L0_3 -->
<g id="edge4" class="edge">
<title>teacher_L0_2&#45;&gt;teacher_L0_3</title>
<path fill="none" stroke="#f28e2b" stroke-width="0.6" stroke-opacity="0.501961" d="M53.12,-574.25C53.12,-591.69 53.12,-609.13 53.12,-626.58"/>
<polygon fill="#f28e2b" fill-opacity="0.501961" stroke="#f28e2b" stroke-width="0.6" stroke-opacity="0.501961" points="51.37,-626.99 53.12,-631.99 54.87,-626.99 51.37,-626.99"/>
</g>
<!-- teacher_L0_4 -->
<g id="node5" class="node">
<title>teacher_L0_4</title>
<ellipse fill="#fde8d0" stroke="#f28e2b" cx="53.12" cy="-323" rx="11" ry="11"/>
<text text-anchor="middle" x="53.12" y="-321.4" font-family="CMU Serif" font-size="7.00" fill="#333333">v₅</text>
</g>
<!-- teacher_L0_3&#45;&gt;teacher_L0_4 -->
<g id="edge5" class="edge">
<title>teacher_L0_3&#45;&gt;teacher_L0_4</title>
<path fill="none" stroke="#f28e2b" stroke-width="0.6" stroke-opacity="0.501961" d="M46.07,-633.9C36.83,-621.36 21.12,-597.67 15.12,-574.5 -5.14,-496.19 -4.9,-470.87 15.12,-392.5 20.57,-371.19 34.04,-349.38 43.39,-336.02"/>
<polygon fill="#f28e2b" fill-opacity="0.501961" stroke="#f28e2b" stroke-width="0.6" stroke-opacity="0.501961" points="44.9,-336.91 46.38,-331.82 42.05,-334.87 44.9,-336.91"/>
</g>
<!-- teacher_L0_4&#45;&gt;teacher_L0_0 -->
<g id="edge6" class="edge">
<title>teacher_L0_4&#45;&gt;teacher_L0_0</title>
<path fill="none" stroke="#f28e2b" stroke-width="0.6" stroke-opacity="0.501961" d="M53.12,-334.25C53.12,-351.69 53.12,-369.13 53.12,-386.58"/>
<polygon fill="#f28e2b" fill-opacity="0.501961" stroke="#f28e2b" stroke-width="0.6" stroke-opacity="0.501961" points="51.37,-386.99 53.12,-391.99 54.87,-386.99 51.37,-386.99"/>
</g>
<!-- teacher_L1_0 -->
<g id="node11" class="node">
<title>teacher_L1_0</title>
<ellipse fill="#fde8d0" stroke="#f28e2b" cx="184.12" cy="-341" rx="11" ry="11"/>
<text text-anchor="middle" x="184.12" y="-339.4" font-family="CMU Serif" font-size="7.00" fill="#333333">v₁</text>
</g>
<!-- teacher_L0_4&#45;&gt;teacher_L1_0 -->
<g id="edge7" class="edge">
<title>teacher_L0_4&#45;&gt;teacher_L1_0</title>
<path fill="none" stroke="grey" stroke-dasharray="5,2" d="M64.25,-324.41C86.76,-327.55 141.09,-335.13 167.79,-338.86"/>
<polygon fill="grey" stroke="grey" points="167.86,-340.64 173.05,-339.59 168.34,-337.17 167.86,-340.64"/>
</g>
<!-- teacher_jk -->
<g id="node16" class="node">
<title>teacher_jk</title>
<path fill="#fde8d0" stroke="#f28e2b" d="M478.12,-620C478.12,-620 447.12,-620 447.12,-620 441.12,-620 435.12,-614 435.12,-608 435.12,-608 435.12,-596 435.12,-596 435.12,-590 441.12,-584 447.12,-584 447.12,-584 478.12,-584 478.12,-584 484.12,-584 490.12,-590 490.12,-596 490.12,-596 490.12,-608 490.12,-608 490.12,-614 484.12,-620 478.12,-620"/>
<text text-anchor="middle" x="462.62" y="-600.1" font-family="CMU Serif" font-size="8.00" fill="#333333">JK Concat</text>
</g>
<!-- teacher_L0_4&#45;&gt;teacher_jk -->
<g id="edge8" class="edge">
<title>teacher_L0_4&#45;&gt;teacher_jk</title>
<path fill="none" stroke="grey" stroke-width="0.6" stroke-dasharray="5,2" d="M56.99,-333.52C70.05,-380.57 125.27,-571.02 173.12,-607 247.5,-662.93 289.45,-647.01 381.12,-631 397.82,-628.08 415.63,-622.01 430.23,-616.16"/>
<polygon fill="grey" stroke="grey" stroke-width="0.6" points="431.09,-617.71 435.06,-614.2 429.77,-614.46 431.09,-617.71"/>
</g>
<!-- teacher_L2_0 -->
<g id="node6" class="node">
<title>teacher_L2_0</title>
<ellipse fill="#fde8d0" stroke="#f28e2b" cx="315.12" cy="-261" rx="11" ry="11"/>
<text text-anchor="middle" x="315.12" y="-259.4" font-family="CMU Serif" font-size="7.00" fill="#333333">v₁</text>
</g>
<!-- teacher_L2_1 -->
<g id="node7" class="node">
<title>teacher_L2_1</title>
<ellipse fill="#fde8d0" stroke="#f28e2b" cx="315.12" cy="-341" rx="11" ry="11"/>
<text text-anchor="middle" x="315.12" y="-339.4" font-family="CMU Serif" font-size="7.00" fill="#333333">v₂</text>
</g>
<!-- teacher_L2_0&#45;&gt;teacher_L2_1 -->
<g id="edge17" class="edge">
<title>teacher_L2_0&#45;&gt;teacher_L2_1</title>
<path fill="none" stroke="#f28e2b" stroke-width="0.6" stroke-opacity="0.501961" d="M315.12,-272.25C315.12,-289.69 315.12,-307.13 315.12,-324.58"/>
<polygon fill="#f28e2b" fill-opacity="0.501961" stroke="#f28e2b" stroke-width="0.6" stroke-opacity="0.501961" points="313.37,-324.99 315.12,-329.99 316.87,-324.99 313.37,-324.99"/>
</g>
<!-- teacher_L2_2 -->
<g id="node8" class="node">
<title>teacher_L2_2</title>
<ellipse fill="#fde8d0" stroke="#f28e2b" cx="315.12" cy="-421" rx="11" ry="11"/>
<text text-anchor="middle" x="315.12" y="-419.4" font-family="CMU Serif" font-size="7.00" fill="#333333">v₃</text>
</g>
<!-- teacher_L2_0&#45;&gt;teacher_L2_2 -->
<g id="edge18" class="edge">
<title>teacher_L2_0&#45;&gt;teacher_L2_2</title>
<path fill="none" stroke="#f28e2b" stroke-width="0.6" stroke-opacity="0.501961" d="M305.66,-267.32C290.42,-278.14 261,-301.84 249.62,-330.5 236.14,-364.47 278,-397.46 301.03,-412.51"/>
<polygon fill="#f28e2b" fill-opacity="0.501961" stroke="#f28e2b" stroke-width="0.6" stroke-opacity="0.501961" points="300.21,-414.07 305.36,-415.28 302.09,-411.12 300.21,-414.07"/>
</g>
<!-- teacher_L2_1&#45;&gt;teacher_L2_2 -->
<g id="edge19" class="edge">
<title>teacher_L2_1&#45;&gt;teacher_L2_2</title>
<path fill="none" stroke="#f28e2b" stroke-width="0.6" stroke-opacity="0.501961" d="M315.12,-352.25C315.12,-369.69 315.12,-387.13 315.12,-404.58"/>
<polygon fill="#f28e2b" fill-opacity="0.501961" stroke="#f28e2b" stroke-width="0.6" stroke-opacity="0.501961" points="313.37,-404.99 315.12,-409.99 316.87,-404.99 313.37,-404.99"/>
</g>
<!-- teacher_L2_3 -->
<g id="node9" class="node">
<title>teacher_L2_3</title>
<ellipse fill="#fde8d0" stroke="#f28e2b" cx="315.12" cy="-501" rx="11" ry="11"/>
<text text-anchor="middle" x="315.12" y="-499.4" font-family="CMU Serif" font-size="7.00" fill="#333333">v₄</text>
</g>
<!-- teacher_L2_2&#45;&gt;teacher_L2_3 -->
<g id="edge20" class="edge">
<title>teacher_L2_2&#45;&gt;teacher_L2_3</title>
<path fill="none" stroke="#f28e2b" stroke-width="0.6" stroke-opacity="0.501961" d="M315.12,-432.25C315.12,-449.69 315.12,-467.13 315.12,-484.58"/>
<polygon fill="#f28e2b" fill-opacity="0.501961" stroke="#f28e2b" stroke-width="0.6" stroke-opacity="0.501961" points="313.37,-484.99 315.12,-489.99 316.87,-484.99 313.37,-484.99"/>
</g>
<!-- teacher_L2_4 -->
<g id="node10" class="node">
<title>teacher_L2_4</title>
<ellipse fill="#fde8d0" stroke="#f28e2b" cx="315.12" cy="-581" rx="11" ry="11"/>
<text text-anchor="middle" x="315.12" y="-579.4" font-family="CMU Serif" font-size="7.00" fill="#333333">v₅</text>
</g>
<!-- teacher_L2_3&#45;&gt;teacher_L2_4 -->
<g id="edge21" class="edge">
<title>teacher_L2_3&#45;&gt;teacher_L2_4</title>
<path fill="none" stroke="#f28e2b" stroke-width="0.6" stroke-opacity="0.501961" d="M315.12,-512.25C315.12,-529.69 315.12,-547.13 315.12,-564.58"/>
<polygon fill="#f28e2b" fill-opacity="0.501961" stroke="#f28e2b" stroke-width="0.6" stroke-opacity="0.501961" points="313.37,-564.99 315.12,-569.99 316.87,-564.99 313.37,-564.99"/>
</g>
<!-- teacher_L2_4&#45;&gt;teacher_L2_0 -->
<g id="edge22" class="edge">
<title>teacher_L2_4&#45;&gt;teacher_L2_0</title>
<path fill="none" stroke="#f28e2b" stroke-width="0.6" stroke-opacity="0.501961" d="M305.67,-574.81C290.43,-564.19 261.02,-540.9 249.62,-512.5 219.51,-437.43 219.78,-405.68 249.62,-330.5 260.03,-304.3 285.5,-282.25 301.44,-270.39"/>
<polygon fill="#f28e2b" fill-opacity="0.501961" stroke="#f28e2b" stroke-width="0.6" stroke-opacity="0.501961" points="302.65,-271.67 305.66,-267.32 300.59,-268.84 302.65,-271.67"/>
</g>
<!-- teacher_L2_4&#45;&gt;teacher_jk -->
<g id="edge23" class="edge">
<title>teacher_L2_4&#45;&gt;teacher_jk</title>
<path fill="none" stroke="grey" stroke-width="0.6" stroke-dasharray="5,2" d="M326.13,-582.44C347.15,-585.48 396.71,-592.63 429.71,-597.39"/>
<polygon fill="grey" stroke="grey" stroke-width="0.6" points="429.65,-599.15 434.85,-598.14 430.15,-595.69 429.65,-599.15"/>
</g>
<!-- teacher_L1_1 -->
<g id="node12" class="node">
<title>teacher_L1_1</title>
<ellipse fill="#fde8d0" stroke="#f28e2b" cx="184.12" cy="-421" rx="11" ry="11"/>
<text text-anchor="middle" x="184.12" y="-419.4" font-family="CMU Serif" font-size="7.00" fill="#333333">v₂</text>
</g>
<!-- teacher_L1_0&#45;&gt;teacher_L1_1 -->
<g id="edge9" class="edge">
<title>teacher_L1_0&#45;&gt;teacher_L1_1</title>
<path fill="none" stroke="#f28e2b" stroke-width="0.6" stroke-opacity="0.501961" d="M184.12,-352.25C184.12,-369.69 184.12,-387.13 184.12,-404.58"/>
<polygon fill="#f28e2b" fill-opacity="0.501961" stroke="#f28e2b" stroke-width="0.6" stroke-opacity="0.501961" points="182.37,-404.99 184.12,-409.99 185.87,-404.99 182.37,-404.99"/>
</g>
<!-- teacher_L1_2 -->
<g id="node13" class="node">
<title>teacher_L1_2</title>
<ellipse fill="#fde8d0" stroke="#f28e2b" cx="184.12" cy="-501" rx="11" ry="11"/>
<text text-anchor="middle" x="184.12" y="-499.4" font-family="CMU Serif" font-size="7.00" fill="#333333">v₃</text>
</g>
<!-- teacher_L1_0&#45;&gt;teacher_L1_2 -->
<g id="edge10" class="edge">
<title>teacher_L1_0&#45;&gt;teacher_L1_2</title>
<path fill="none" stroke="#f28e2b" stroke-width="0.6" stroke-opacity="0.501961" d="M174.66,-347.32C159.42,-358.14 130,-381.84 118.62,-410.5 105.14,-444.47 147,-477.46 170.03,-492.51"/>
<polygon fill="#f28e2b" fill-opacity="0.501961" stroke="#f28e2b" stroke-width="0.6" stroke-opacity="0.501961" points="169.21,-494.07 174.36,-495.28 171.09,-491.12 169.21,-494.07"/>
</g>
<!-- teacher_L1_1&#45;&gt;teacher_L1_2 -->
<g id="edge11" class="edge">
<title>teacher_L1_1&#45;&gt;teacher_L1_2</title>
<path fill="none" stroke="#f28e2b" stroke-width="0.6" stroke-opacity="0.501961" d="M184.12,-432.25C184.12,-449.69 184.12,-467.13 184.12,-484.58"/>
<polygon fill="#f28e2b" fill-opacity="0.501961" stroke="#f28e2b" stroke-width="0.6" stroke-opacity="0.501961" points="182.37,-484.99 184.12,-489.99 185.87,-484.99 182.37,-484.99"/>
</g>
<!-- teacher_L1_3 -->
<g id="node14" class="node">
<title>teacher_L1_3</title>
<ellipse fill="#fde8d0" stroke="#f28e2b" cx="184.12" cy="-581" rx="11" ry="11"/>
<text text-anchor="middle" x="184.12" y="-579.4" font-family="CMU Serif" font-size="7.00" fill="#333333">v₄</text>
</g>
<!-- teacher_L1_2&#45;&gt;teacher_L1_3 -->
<g id="edge12" class="edge">
<title>teacher_L1_2&#45;&gt;teacher_L1_3</title>
<path fill="none" stroke="#f28e2b" stroke-width="0.6" stroke-opacity="0.501961" d="M184.12,-512.25C184.12,-529.69 184.12,-547.13 184.12,-564.58"/>
<polygon fill="#f28e2b" fill-opacity="0.501961" stroke="#f28e2b" stroke-width="0.6" stroke-opacity="0.501961" points="182.37,-564.99 184.12,-569.99 185.87,-564.99 182.37,-564.99"/>
</g>
<!-- teacher_L1_4 -->
<g id="node15" class="node">
<title>teacher_L1_4</title>
<ellipse fill="#fde8d0" stroke="#f28e2b" cx="184.12" cy="-261" rx="11" ry="11"/>
<text text-anchor="middle" x="184.12" y="-259.4" font-family="CMU Serif" font-size="7.00" fill="#333333">v₅</text>
</g>
<!-- teacher_L1_3&#45;&gt;teacher_L1_4 -->
<g id="edge13" class="edge">
<title>teacher_L1_3&#45;&gt;teacher_L1_4</title>
<path fill="none" stroke="#f28e2b" stroke-width="0.6" stroke-opacity="0.501961" d="M174.67,-574.81C159.43,-564.19 130.02,-540.9 118.62,-512.5 88.51,-437.43 88.78,-405.68 118.62,-330.5 129.03,-304.3 154.5,-282.25 170.44,-270.39"/>
<polygon fill="#f28e2b" fill-opacity="0.501961" stroke="#f28e2b" stroke-width="0.6" stroke-opacity="0.501961" points="171.65,-271.67 174.66,-267.32 169.59,-268.84 171.65,-271.67"/>
</g>
<!-- teacher_L1_4&#45;&gt;teacher_L2_0 -->
<g id="edge15" class="edge">
<title>teacher_L1_4&#45;&gt;teacher_L2_0</title>
<path fill="none" stroke="grey" stroke-dasharray="5,2" d="M195.25,-261C217.76,-261 272.09,-261 298.79,-261"/>
<polygon fill="grey" stroke="grey" points="299.05,-262.75 304.05,-261 299.05,-259.25 299.05,-262.75"/>
</g>
<!-- teacher_L1_4&#45;&gt;teacher_L1_0 -->
<g id="edge14" class="edge">
<title>teacher_L1_4&#45;&gt;teacher_L1_0</title>
<path fill="none" stroke="#f28e2b" stroke-width="0.6" stroke-opacity="0.501961" d="M184.12,-272.25C184.12,-289.69 184.12,-307.13 184.12,-324.58"/>
<polygon fill="#f28e2b" fill-opacity="0.501961" stroke="#f28e2b" stroke-width="0.6" stroke-opacity="0.501961" points="182.37,-324.99 184.12,-329.99 185.87,-324.99 182.37,-324.99"/>
</g>
<!-- teacher_L1_4&#45;&gt;teacher_jk -->
<g id="edge16" class="edge">
<title>teacher_L1_4&#45;&gt;teacher_jk</title>
<path fill="none" stroke="grey" stroke-width="0.6" stroke-dasharray="5,2" d="M187.1,-271.7C197.26,-325.46 245.44,-565.12 304.12,-607 340.84,-633.2 395.6,-623.58 429.93,-613.41"/>
<polygon fill="grey" stroke="grey" stroke-width="0.6" points="430.57,-615.04 434.84,-611.91 429.55,-611.69 430.57,-615.04"/>
</g>
<!-- teacher_fc -->
<g id="node17" class="node">
<title>teacher_fc</title>
<path fill="#fde8d0" stroke="#f28e2b" d="M646.12,-463C646.12,-463 611.12,-463 611.12,-463 605.12,-463 599.12,-457 599.12,-451 599.12,-451 599.12,-439 599.12,-439 599.12,-433 605.12,-427 611.12,-427 611.12,-427 646.12,-427 646.12,-427 652.12,-427 658.12,-433 658.12,-439 658.12,-439 658.12,-451 658.12,-451 658.12,-457 652.12,-463 646.12,-463"/>
<text text-anchor="middle" x="628.62" y="-443.1" font-family="CMU Serif" font-size="8.00" fill="#333333">FC → class</text>
</g>
<!-- teacher_jk&#45;&gt;teacher_fc -->
<g id="edge24" class="edge">
<title>teacher_jk&#45;&gt;teacher_fc</title>
<path fill="none" stroke="grey" d="M482.44,-583.99C512.76,-554.97 572.32,-497.95 604.94,-466.72"/>
<polygon fill="grey" stroke="grey" points="606.38,-467.76 608.78,-463.04 603.96,-465.23 606.38,-467.76"/>
</g>
<!-- student_fc -->
<g id="node25" class="node">
<title>student_fc</title>
<path fill="#fde8d0" stroke="#f28e2b" d="M822.12,-221C822.12,-221 787.12,-221 787.12,-221 781.12,-221 775.12,-215 775.12,-209 775.12,-209 775.12,-197 775.12,-197 775.12,-191 781.12,-185 787.12,-185 787.12,-185 822.12,-185 822.12,-185 828.12,-185 834.12,-191 834.12,-197 834.12,-197 834.12,-209 834.12,-209 834.12,-215 828.12,-221 822.12,-221"/>
<text text-anchor="middle" x="804.62" y="-201.1" font-family="CMU Serif" font-size="8.00" fill="#333333">FC → class</text>
</g>
<!-- teacher_fc&#45;&gt;student_fc -->
<g id="edge35" class="edge">
<title>teacher_fc&#45;&gt;student_fc</title>
<path fill="none" stroke="#e15759" stroke-width="2" stroke-dasharray="5,2" d="M642.7,-426.81C673.2,-384.4 749.12,-278.81 784.68,-229.35"/>
<polygon fill="#e15759" stroke="#e15759" stroke-width="2" points="787.64,-231.23 790.63,-221.07 781.95,-227.15 787.64,-231.23"/>
<text text-anchor="middle" x="716.62" y="-326.2" font-family="CMU Serif" font-size="6.00" fill="grey">KD</text>
</g>
<!-- student_L0_0 -->
<g id="node18" class="node">
<title>student_L0_0</title>
<ellipse fill="#fde8d0" stroke="#f28e2b" cx="315.12" cy="-130" rx="11" ry="11"/>
<text text-anchor="middle" x="315.12" y="-128.4" font-family="CMU Serif" font-size="7.00" fill="#333333">v₁</text>
</g>
<!-- student_L0_1 -->
<g id="node19" class="node">
<title>student_L0_1</title>
<ellipse fill="#fde8d0" stroke="#f28e2b" cx="315.12" cy="-210" rx="11" ry="11"/>
<text text-anchor="middle" x="315.12" y="-208.4" font-family="CMU Serif" font-size="7.00" fill="#333333">v₂</text>
</g>
<!-- student_L0_0&#45;&gt;student_L0_1 -->
<g id="edge25" class="edge">
<title>student_L0_0&#45;&gt;student_L0_1</title>
<path fill="none" stroke="#f28e2b" stroke-width="0.6" stroke-opacity="0.501961" d="M315.12,-141.25C315.12,-158.69 315.12,-176.13 315.12,-193.58"/>
<polygon fill="#f28e2b" fill-opacity="0.501961" stroke="#f28e2b" stroke-width="0.6" stroke-opacity="0.501961" points="313.37,-193.99 315.12,-198.99 316.87,-193.99 313.37,-193.99"/>
</g>
<!-- student_L0_2 -->
<g id="node20" class="node">
<title>student_L0_2</title>
<ellipse fill="#fde8d0" stroke="#f28e2b" cx="315.12" cy="-50" rx="11" ry="11"/>
<text text-anchor="middle" x="315.12" y="-48.4" font-family="CMU Serif" font-size="7.00" fill="#333333">v₃</text>
</g>
<!-- student_L0_1&#45;&gt;student_L0_2 -->
<g id="edge26" class="edge">
<title>student_L0_1&#45;&gt;student_L0_2</title>
<path fill="none" stroke="#f28e2b" stroke-width="0.6" stroke-opacity="0.501961" d="M305.36,-204.28C283.82,-190.86 235.24,-155.73 249.62,-119.5 260.03,-93.3 285.5,-71.25 301.44,-59.39"/>
<polygon fill="#f28e2b" fill-opacity="0.501961" stroke="#f28e2b" stroke-width="0.6" stroke-opacity="0.501961" points="302.65,-60.67 305.66,-56.32 300.59,-57.84 302.65,-60.67"/>
</g>
<!-- student_L0_2&#45;&gt;student_L0_0 -->
<g id="edge27" class="edge">
<title>student_L0_2&#45;&gt;student_L0_0</title>
<path fill="none" stroke="#f28e2b" stroke-width="0.6" stroke-opacity="0.501961" d="M315.12,-61.25C315.12,-78.69 315.12,-96.13 315.12,-113.58"/>
<polygon fill="#f28e2b" fill-opacity="0.501961" stroke="#f28e2b" stroke-width="0.6" stroke-opacity="0.501961" points="313.37,-113.99 315.12,-118.99 316.87,-113.99 313.37,-113.99"/>
</g>
<!-- student_L1_0 -->
<g id="node21" class="node">
<title>student_L1_0</title>
<ellipse fill="#fde8d0" stroke="#f28e2b" cx="462.62" cy="-99" rx="11" ry="11"/>
<text text-anchor="middle" x="462.62" y="-97.4" font-family="CMU Serif" font-size="7.00" fill="#333333">v₁</text>
</g>
<!-- student_L0_2&#45;&gt;student_L1_0 -->
<g id="edge28" class="edge">
<title>student_L0_2&#45;&gt;student_L1_0</title>
<path fill="none" stroke="grey" stroke-dasharray="5,2" d="M325.67,-53.22C350.53,-61.59 417.41,-84.11 447.09,-94.1"/>
<polygon fill="grey" stroke="grey" points="446.55,-95.77 451.85,-95.71 447.67,-92.45 446.55,-95.77"/>
</g>
<!-- student_jk -->
<g id="node24" class="node">
<title>student_jk</title>
<path fill="#fde8d0" stroke="#f28e2b" d="M644.12,-221C644.12,-221 613.12,-221 613.12,-221 607.12,-221 601.12,-215 601.12,-209 601.12,-209 601.12,-197 601.12,-197 601.12,-191 607.12,-185 613.12,-185 613.12,-185 644.12,-185 644.12,-185 650.12,-185 656.12,-191 656.12,-197 656.12,-197 656.12,-209 656.12,-209 656.12,-215 650.12,-221 644.12,-221"/>
<text text-anchor="middle" x="628.62" y="-201.1" font-family="CMU Serif" font-size="8.00" fill="#333333">JK Concat</text>
</g>
<!-- student_L0_2&#45;&gt;student_jk -->
<g id="edge29" class="edge">
<title>student_L0_2&#45;&gt;student_jk</title>
<path fill="none" stroke="grey" stroke-width="0.6" stroke-dasharray="5,2" d="M320.08,-60.16C332.08,-89.38 371.22,-173.5 435.12,-205 486.76,-230.46 556.07,-220.75 595.89,-211.67"/>
<polygon fill="grey" stroke="grey" stroke-width="0.6" points="596.6,-213.3 601.07,-210.46 595.8,-209.9 596.6,-213.3"/>
</g>
<!-- student_L1_1 -->
<g id="node22" class="node">
<title>student_L1_1</title>
<ellipse fill="#fde8d0" stroke="#f28e2b" cx="462.62" cy="-179" rx="11" ry="11"/>
<text text-anchor="middle" x="462.62" y="-177.4" font-family="CMU Serif" font-size="7.00" fill="#333333">v₂</text>
</g>
<!-- student_L1_0&#45;&gt;student_L1_1 -->
<g id="edge30" class="edge">
<title>student_L1_0&#45;&gt;student_L1_1</title>
<path fill="none" stroke="#f28e2b" stroke-width="0.6" stroke-opacity="0.501961" d="M462.62,-110.25C462.62,-127.69 462.62,-145.13 462.62,-162.58"/>
<polygon fill="#f28e2b" fill-opacity="0.501961" stroke="#f28e2b" stroke-width="0.6" stroke-opacity="0.501961" points="460.87,-162.99 462.62,-167.99 464.37,-162.99 460.87,-162.99"/>
</g>
<!-- student_L1_2 -->
<g id="node23" class="node">
<title>student_L1_2</title>
<ellipse fill="#fde8d0" stroke="#f28e2b" cx="462.62" cy="-19" rx="11" ry="11"/>
<text text-anchor="middle" x="462.62" y="-17.4" font-family="CMU Serif" font-size="7.00" fill="#333333">v₃</text>
</g>
<!-- student_L1_1&#45;&gt;student_L1_2 -->
<g id="edge31" class="edge">
<title>student_L1_1&#45;&gt;student_L1_2</title>
<path fill="none" stroke="#f28e2b" stroke-width="0.6" stroke-opacity="0.501961" d="M452.36,-174.53C426.55,-162.58 362.26,-128.13 380.62,-88.5 394.51,-58.53 428.39,-36.78 447.98,-26.21"/>
<polygon fill="#f28e2b" fill-opacity="0.501961" stroke="#f28e2b" stroke-width="0.6" stroke-opacity="0.501961" points="449.02,-27.64 452.64,-23.76 447.4,-24.54 449.02,-27.64"/>
</g>
<!-- student_L1_2&#45;&gt;student_L1_0 -->
<g id="edge32" class="edge">
<title>student_L1_2&#45;&gt;student_L1_0</title>
<path fill="none" stroke="#f28e2b" stroke-width="0.6" stroke-opacity="0.501961" d="M462.62,-30.25C462.62,-47.69 462.62,-65.13 462.62,-82.58"/>
<polygon fill="#f28e2b" fill-opacity="0.501961" stroke="#f28e2b" stroke-width="0.6" stroke-opacity="0.501961" points="460.87,-82.99 462.62,-87.99 464.37,-82.99 460.87,-82.99"/>
</g>
<!-- student_L1_2&#45;&gt;student_jk -->
<g id="edge33" class="edge">
<title>student_L1_2&#45;&gt;student_jk</title>
<path fill="none" stroke="grey" stroke-width="0.6" stroke-dasharray="5,2" d="M470.67,-26.91C494.31,-53.43 571.35,-139.87 607.96,-180.94"/>
<polygon fill="grey" stroke="grey" stroke-width="0.6" points="606.74,-182.2 611.38,-184.77 609.35,-179.87 606.74,-182.2"/>
</g>
<!-- student_jk&#45;&gt;student_fc -->
<g id="edge34" class="edge">
<title>student_jk&#45;&gt;student_fc</title>
<path fill="none" stroke="grey" d="M656.43,-203C686.93,-203 736.77,-203 769.89,-203"/>
<polygon fill="grey" stroke="grey" points="770.05,-204.75 775.05,-203 770.05,-201.25 770.05,-204.75"/>
</g>
</g>
</svg>
