<?xml version="1.0" encoding="utf-8" standalone="no"?>
<!DOCTYPE svg PUBLIC "-//W3C//DTD SVG 1.1//EN"
  "http://www.w3.org/Graphics/SVG/1.1/DTD/svg11.dtd">
<svg xmlns:xlink="http://www.w3.org/1999/xlink" width="856.8pt" height="611.846809pt" viewBox="0 0 856.8 611.846809" xmlns="http://www.w3.org/2000/svg" version="1.1">
 <metadata>
  <rdf:RDF xmlns:dc="http://purl.org/dc/elements/1.1/" xmlns:cc="http://creativecommons.org/ns#" xmlns:rdf="http://www.w3.org/1999/02/22-rdf-syntax-ns#">
   <cc:Work>
    <dc:type rdf:resource="http://purl.org/dc/dcmitype/StillImage"/>
    <dc:date>2026-03-24T14:09:27.056272</dc:date>
    <dc:format>image/svg+xml</dc:format>
    <dc:creator>
     <cc:Agent>
      <dc:title>Matplotlib v3.8.4, https://matplotlib.org/</dc:title>
     </cc:Agent>
    </dc:creator>
   </cc:Work>
  </rdf:RDF>
 </metadata>
 <defs>
  <style type="text/css">*{stroke-linejoin: round; stroke-linecap: butt}</style>
 </defs>
 <g id="figure_1">
  <g id="patch_1">
   <path d="M 0 611.846809 
L 856.8 611.846809 
L 856.8 0 
L 0 0 
L 0 611.846809 
z
" style="fill: none"/>
  </g>
  <g id="axes_1">
   <g id="LineCollection_1">
    <path d="M 127.454686 59.044558 
L 186.705609 59.044558 
" clip-path="url(#p55feadac2a)" style="fill: none; stroke: #4e79a7; stroke-opacity: 0.6"/>
    <path d="M 127.454686 59.044558 
L 245.956532 59.044558 
" clip-path="url(#p55feadac2a)" style="fill: none; stroke: #4e79a7; stroke-opacity: 0.6"/>
    <path d="M 127.454686 59.044558 
L 305.207456 59.044558 
" clip-path="url(#p55feadac2a)" style="fill: none; stroke: #4e79a7; stroke-opacity: 0.6"/>
    <path d="M 127.454686 59.044558 
L 364.458379 59.044558 
" clip-path="url(#p55feadac2a)" style="fill: none; stroke: #4e79a7; stroke-opacity: 0.6"/>
    <path d="M 186.705609 59.044558 
L 245.956532 59.044558 
" clip-path="url(#p55feadac2a)" style="fill: none; stroke: #4e79a7; stroke-opacity: 0.6"/>
    <path d="M 186.705609 59.044558 
L 305.207456 59.044558 
" clip-path="url(#p55feadac2a)" style="fill: none; stroke: #4e79a7; stroke-opacity: 0.6"/>
    <path d="M 186.705609 59.044558 
L 364.458379 59.044558 
" clip-path="url(#p55feadac2a)" style="fill: none; stroke: #4e79a7; stroke-opacity: 0.6"/>
    <path d="M 245.956532 59.044558 
L 305.207456 59.044558 
" clip-path="url(#p55feadac2a)" style="fill: none; stroke: #4e79a7; stroke-opacity: 0.6"/>
    <path d="M 245.956532 59.044558 
L 364.458379 59.044558 
" clip-path="url(#p55feadac2a)" style="fill: none; stroke: #4e79a7; stroke-opacity: 0.6"/>
    <path d="M 305.207456 59.044558 
L 364.458379 59.044558 
" clip-path="url(#p55feadac2a)" style="fill: none; stroke: #4e79a7; stroke-opacity: 0.6"/>
    <path d="M 186.705609 157.796096 
L 245.956532 157.796096 
" clip-path="url(#p55feadac2a)" style="fill: none; stroke: #4e79a7; stroke-opacity: 0.6"/>
    <path d="M 186.705609 157.796096 
L 305.207456 157.796096 
" clip-path="url(#p55feadac2a)" style="fill: none; stroke: #4e79a7; stroke-opacity: 0.6"/>
    <path d="M 245.956532 157.796096 
L 305.207456 157.796096 
" clip-path="url(#p55feadac2a)" style="fill: none; stroke: #4e79a7; stroke-opacity: 0.6"/>
    <path d="M 127.454686 552.802251 
L 186.705609 552.802251 
" clip-path="url(#p55feadac2a)" style="fill: none; stroke: #4e79a7; stroke-opacity: 0.6"/>
    <path d="M 127.454686 552.802251 
L 245.956532 552.802251 
" clip-path="url(#p55feadac2a)" style="fill: none; stroke: #4e79a7; stroke-opacity: 0.6"/>
    <path d="M 127.454686 552.802251 
L 305.207456 552.802251 
" clip-path="url(#p55feadac2a)" style="fill: none; stroke: #4e79a7; stroke-opacity: 0.6"/>
    <path d="M 127.454686 552.802251 
L 364.458379 552.802251 
" clip-path="url(#p55feadac2a)" style="fill: none; stroke: #4e79a7; stroke-opacity: 0.6"/>
    <path d="M 186.705609 552.802251 
L 245.956532 552.802251 
" clip-path="url(#p55feadac2a)" style="fill: none; stroke: #4e79a7; stroke-opacity: 0.6"/>
    <path d="M 186.705609 552.802251 
L 305.207456 552.802251 
" clip-path="url(#p55feadac2a)" style="fill: none; stroke: #4e79a7; stroke-opacity: 0.6"/>
    <path d="M 186.705609 552.802251 
L 364.458379 552.802251 
" clip-path="url(#p55feadac2a)" style="fill: none; stroke: #4e79a7; stroke-opacity: 0.6"/>
    <path d="M 245.956532 552.802251 
L 305.207456 552.802251 
" clip-path="url(#p55feadac2a)" style="fill: none; stroke: #4e79a7; stroke-opacity: 0.6"/>
    <path d="M 245.956532 552.802251 
L 364.458379 552.802251 
" clip-path="url(#p55feadac2a)" style="fill: none; stroke: #4e79a7; stroke-opacity: 0.6"/>
    <path d="M 305.207456 552.802251 
L 364.458379 552.802251 
" clip-path="url(#p55feadac2a)" style="fill: none; stroke: #4e79a7; stroke-opacity: 0.6"/>
    <path d="M 611.337225 59.044558 
L 670.588148 59.044558 
" clip-path="url(#p55feadac2a)" style="fill: none; stroke: #4e79a7; stroke-opacity: 0.6"/>
    <path d="M 611.337225 59.044558 
L 729.839072 59.044558 
" clip-path="url(#p55feadac2a)" style="fill: none; stroke: #4e79a7; stroke-opacity: 0.6"/>
    <path d="M 670.588148 59.044558 
L 729.839072 59.044558 
" clip-path="url(#p55feadac2a)" style="fill: none; stroke: #4e79a7; stroke-opacity: 0.6"/>
    <path d="M 640.962687 157.796096 
L 700.21361 157.796096 
" clip-path="url(#p55feadac2a)" style="fill: none; stroke: #4e79a7; stroke-opacity: 0.6"/>
    <path d="M 611.337225 552.802251 
L 670.588148 552.802251 
" clip-path="url(#p55feadac2a)" style="fill: none; stroke: #4e79a7; stroke-opacity: 0.6"/>
    <path d="M 611.337225 552.802251 
L 729.839072 552.802251 
" clip-path="url(#p55feadac2a)" style="fill: none; stroke: #4e79a7; stroke-opacity: 0.6"/>
    <path d="M 670.588148 552.802251 
L 729.839072 552.802251 
" clip-path="url(#p55feadac2a)" style="fill: none; stroke: #4e79a7; stroke-opacity: 0.6"/>
   </g>
   <g id="patch_2">
    <path d="M 359.107027 62.017531 
Q 275.582991 108.419773 193.036293 154.27905 
" clip-path="url(#p55feadac2a)" style="fill: none; stroke-dasharray: 3.7,1.6; stroke-dashoffset: 0; stroke: #808080; stroke-opacity: 0.6; stroke-linecap: round"/>
    <path d="M 197.504208 154.084793 
L 193.036293 154.27905 
L 195.561636 150.588164 
z
" clip-path="url(#p55feadac2a)" style="fill: #808080; fill-opacity: 0.6; stroke-dasharray: 3.7,1.6; stroke-dashoffset: 0; stroke: #808080; stroke-opacity: 0.6; stroke-linecap: round"/>
   </g>
   <g id="patch_3">
    <path d="M 299.589545 160.238666 
Q 191.641308 207.172682 84.718386 253.660909 
" clip-path="url(#p55feadac2a)" style="fill: none; stroke-dasharray: 3.7,1.6; stroke-dashoffset: 0; stroke: #808080; stroke-opacity: 0.6; stroke-linecap: round"/>
    <path d="M 89.184118 253.900145 
L 84.718386 253.660909 
L 87.589214 250.231865 
z
" clip-path="url(#p55feadac2a)" style="fill: #808080; fill-opacity: 0.6; stroke-dasharray: 3.7,1.6; stroke-dashoffset: 0; stroke: #808080; stroke-opacity: 0.6; stroke-linecap: round"/>
   </g>
   <g id="patch_4">
    <path d="M 304.598395 163.886699 
Q 300.270043 207.170226 296.052938 249.341268 
" clip-path="url(#p55feadac2a)" style="fill: none; stroke-dasharray: 3.7,1.6; stroke-dashoffset: 0; stroke: #808080; stroke-opacity: 0.6; stroke-linecap: round"/>
    <path d="M 298.441028 245.560126 
L 296.052938 249.341268 
L 294.460879 245.162112 
z
" clip-path="url(#p55feadac2a)" style="fill: #808080; fill-opacity: 0.6; stroke-dasharray: 3.7,1.6; stroke-dashoffset: 0; stroke: #808080; stroke-opacity: 0.6; stroke-linecap: round"/>
   </g>
   <g id="patch_5">
    <path d="M 235.089282 463.106754 
Q 183.625506 505.993234 133.020626 548.163967 
" clip-path="url(#p55feadac2a)" style="fill: none; stroke-dasharray: 3.7,1.6; stroke-dashoffset: 0; stroke: #808080; stroke-opacity: 0.6; stroke-linecap: round"/>
    <path d="M 137.37388 547.139672 
L 133.020626 548.163967 
L 134.813143 544.066787 
z
" clip-path="url(#p55feadac2a)" style="fill: #808080; fill-opacity: 0.6; stroke-dasharray: 3.7,1.6; stroke-dashoffset: 0; stroke: #808080; stroke-opacity: 0.6; stroke-linecap: round"/>
   </g>
   <g id="patch_6">
    <path d="M 370.582809 552.802251 
Q 547.147976 552.802251 721.477075 552.802251 
" clip-path="url(#p55feadac2a)" style="fill: none; stroke-dasharray: 7.4,3.2; stroke-dashoffset: 0; stroke: #e15759; stroke-opacity: 0.6; stroke-width: 2; stroke-linecap: round"/>
    <path d="M 717.477075 550.802251 
L 721.477075 552.802251 
L 717.477075 554.802251 
z
" clip-path="url(#p55feadac2a)" style="fill: #e15759; fill-opacity: 0.6; stroke-dasharray: 7.4,3.2; stroke-dashoffset: 0; stroke: #e15759; stroke-opacity: 0.6; stroke-width: 2; stroke-linecap: round"/>
   </g>
   <g id="patch_7">
    <path d="M 725.740798 63.598195 
Q 685.399529 108.421827 645.806186 152.414431 
" clip-path="url(#p55feadac2a)" style="fill: none; stroke-dasharray: 3.7,1.6; stroke-dashoffset: 0; stroke: #808080; stroke-opacity: 0.6; stroke-linecap: round"/>
    <path d="M 649.968633 150.779184 
L 645.806186 152.414431 
L 646.995456 148.103325 
z
" clip-path="url(#p55feadac2a)" style="fill: #808080; fill-opacity: 0.6; stroke-dasharray: 3.7,1.6; stroke-dashoffset: 0; stroke: #808080; stroke-opacity: 0.6; stroke-linecap: round"/>
   </g>
   <g id="patch_8">
    <path d="M 695.228719 161.356733 
Q 631.086121 207.172874 567.853305 252.339171 
" clip-path="url(#p55feadac2a)" style="fill: none; stroke-dasharray: 3.7,1.6; stroke-dashoffset: 0; stroke: #808080; stroke-opacity: 0.6; stroke-linecap: round"/>
    <path d="M 572.270716 251.641685 
L 567.853305 252.339171 
L 569.945763 248.386751 
z
" clip-path="url(#p55feadac2a)" style="fill: #808080; fill-opacity: 0.6; stroke-dasharray: 3.7,1.6; stroke-dashoffset: 0; stroke: #808080; stroke-opacity: 0.6; stroke-linecap: round"/>
   </g>
   <g id="patch_9">
    <path d="M 701.414854 163.802316 
Q 710.089066 207.173376 718.544013 249.448114 
" clip-path="url(#p55feadac2a)" style="fill: none; stroke-dasharray: 3.7,1.6; stroke-dashoffset: 0; stroke: #808080; stroke-opacity: 0.6; stroke-linecap: round"/>
    <path d="M 719.72071 245.133559 
L 718.544013 249.448114 
L 715.798388 245.918023 
z
" clip-path="url(#p55feadac2a)" style="fill: #808080; fill-opacity: 0.6; stroke-dasharray: 3.7,1.6; stroke-dashoffset: 0; stroke: #808080; stroke-opacity: 0.6; stroke-linecap: round"/>
   </g>
   <g id="patch_10">
    <path d="M 663.313781 466.174657 
Q 638.901392 506.861974 615.064226 546.590583 
" clip-path="url(#p55feadac2a)" style="fill: none; stroke-dasharray: 3.7,1.6; stroke-dashoffset: 0; stroke: #808080; stroke-opacity: 0.6; stroke-linecap: round"/>
    <path d="M 618.837194 544.189603 
L 615.064226 546.590583 
L 615.407223 542.13162 
z
" clip-path="url(#p55feadac2a)" style="fill: #808080; fill-opacity: 0.6; stroke-dasharray: 3.7,1.6; stroke-dashoffset: 0; stroke: #808080; stroke-opacity: 0.6; stroke-linecap: round"/>
   </g>
   <g id="patch_11">
    <path d="M 141.861477 260.667305 
Q 191.642409 305.922697 240.596062 350.426019 
" clip-path="url(#p55feadac2a)" style="fill: none; stroke: #808080; stroke-opacity: 0.6; stroke-linecap: round"/>
    <path d="M 238.981647 346.255447 
L 240.596062 350.426019 
L 236.290956 349.215208 
z
" clip-path="url(#p55feadac2a)" style="fill: #808080; fill-opacity: 0.6; stroke: #808080; stroke-opacity: 0.6; stroke-linecap: round"/>
   </g>
   <g id="patch_12">
    <path d="M 350.051588 260.667305 
Q 300.270656 305.922697 251.317003 350.426019 
" clip-path="url(#p55feadac2a)" style="fill: none; stroke: #808080; stroke-opacity: 0.6; stroke-linecap: round"/>
    <path d="M 255.622109 349.215208 
L 251.317003 350.426019 
L 252.931418 346.255447 
z
" clip-path="url(#p55feadac2a)" style="fill: #808080; fill-opacity: 0.6; stroke: #808080; stroke-opacity: 0.6; stroke-linecap: round"/>
   </g>
   <g id="patch_13">
    <path d="M 302.055772 360.551979 
Q 277.645036 401.23654 253.809523 440.962394 
" clip-path="url(#p55feadac2a)" style="fill: none; stroke: #808080; stroke-opacity: 0.6; stroke-linecap: round"/>
    <path d="M 257.582492 438.561414 
L 253.809523 440.962394 
L 254.15252 436.503431 
z
" clip-path="url(#p55feadac2a)" style="fill: #808080; fill-opacity: 0.6; stroke: #808080; stroke-opacity: 0.6; stroke-linecap: round"/>
   </g>
   <g id="patch_14">
    <path d="M 625.038519 261.33031 
Q 660.713881 305.924512 695.690812 349.645676 
" clip-path="url(#p55feadac2a)" style="fill: none; stroke: #808080; stroke-opacity: 0.6; stroke-linecap: round"/>
    <path d="M 694.75377 345.272811 
L 695.690812 349.645676 
L 691.630294 347.771591 
z
" clip-path="url(#p55feadac2a)" style="fill: #808080; fill-opacity: 0.6; stroke: #808080; stroke-opacity: 0.6; stroke-linecap: round"/>
   </g>
   <g id="patch_15">
    <path d="M 775.388701 261.33031 
Q 739.713339 305.924512 704.736408 349.645676 
" clip-path="url(#p55feadac2a)" style="fill: none; stroke: #808080; stroke-opacity: 0.6; stroke-linecap: round"/>
    <path d="M 708.796926 347.771591 
L 704.736408 349.645676 
L 705.67345 345.272811 
z
" clip-path="url(#p55feadac2a)" style="fill: #808080; fill-opacity: 0.6; stroke: #808080; stroke-opacity: 0.6; stroke-linecap: round"/>
   </g>
   <g id="patch_16">
    <path d="M 698.453332 361.166765 
Q 686.552719 400.835478 674.973369 439.433309 
" clip-path="url(#p55feadac2a)" style="fill: none; stroke: #808080; stroke-opacity: 0.6; stroke-linecap: round"/>
    <path d="M 678.038413 436.1767 
L 674.973369 439.433309 
L 674.207108 435.027308 
z
" clip-path="url(#p55feadac2a)" style="fill: #808080; fill-opacity: 0.6; stroke: #808080; stroke-opacity: 0.6; stroke-linecap: round"/>
   </g>
   <g id="text_1">
    <g id="patch_17">
     <path d="M 542.871381 557.505688 
L 551.426069 557.505688 
Q 553.226069 557.505688 553.226069 555.705688 
L 553.226069 549.898813 
Q 553.226069 548.098813 551.426069 548.098813 
L 542.871381 548.098813 
Q 541.071381 548.098813 541.071381 549.898813 
L 541.071381 555.705688 
Q 541.071381 557.505688 542.871381 557.505688 
z
" clip-path="url(#p55feadac2a)" style="fill: #ffffff; stroke: #ffffff; stroke-linejoin: miter"/>
    </g>
    <g clip-path="url(#p55feadac2a)">
     <!-- KD -->
     <g style="fill: #808080" transform="translate(542.871381 554.457876) scale(0.06 -0.06)">
      <defs>
       <path id="DejaVuSans-4b" d="M 628 4666 
L 1259 4666 
L 1259 2694 
L 3353 4666 
L 4166 4666 
L 1850 2491 
L 4331 0 
L 3500 0 
L 1259 2247 
L 1259 0 
L 628 0 
L 628 4666 
z
" transform="scale(0.015625)"/>
       <path id="DejaVuSans-44" d="M 1259 4147 
L 1259 519 
L 2022 519 
Q 2988 519 3436 956 
Q 3884 1394 3884 2338 
Q 3884 3275 3436 3711 
Q 2988 4147 2022 4147 
L 1259 4147 
z
M 628 4666 
L 1925 4666 
Q 3281 4666 3915 4102 
Q 4550 3538 4550 2338 
Q 4550 1131 3912 565 
Q 3275 0 1925 0 
L 628 0 
L 628 4666 
z
" transform="scale(0.015625)"/>
      </defs>
      <use xlink:href="#DejaVuSans-4b"/>
      <use xlink:href="#DejaVuSans-44" x="65.576172"/>
     </g>
    </g>
   </g>
   <g id="PathCollection_1">
    <path d="M 127.454686 65.168282 
C 129.078717 65.168282 130.63645 64.523048 131.784813 63.374685 
C 132.933176 62.226322 133.57841 60.668588 133.57841 59.044558 
C 133.57841 57.420527 132.933176 55.862794 131.784813 54.714431 
C 130.63645 53.566068 129.078717 52.920833 127.454686 52.920833 
C 125.830655 52.920833 124.272922 53.566068 123.124559 54.714431 
C 121.976196 55.862794 121.330962 57.420527 121.330962 59.044558 
C 121.330962 60.668588 121.976196 62.226322 123.124559 63.374685 
C 124.272922 64.523048 125.830655 65.168282 127.454686 65.168282 
z
" clip-path="url(#p55feadac2a)" style="fill: #dae3ef; stroke: #4e79a7"/>
    <path d="M 186.705609 65.168282 
C 188.32964 65.168282 189.887373 64.523048 191.035736 63.374685 
C 192.184099 62.226322 192.829334 60.668588 192.829334 59.044558 
C 192.829334 57.420527 192.184099 55.862794 191.035736 54.714431 
C 189.887373 53.566068 188.32964 52.920833 186.705609 52.920833 
C 185.081579 52.920833 183.523845 53.566068 182.375482 54.714431 
C 181.227119 55.862794 180.581885 57.420527 180.581885 59.044558 
C 180.581885 60.668588 181.227119 62.226322 182.375482 63.374685 
C 183.523845 64.523048 185.081579 65.168282 186.705609 65.168282 
z
" clip-path="url(#p55feadac2a)" style="fill: #dae3ef; stroke: #4e79a7"/>
    <path d="M 245.956532 65.168282 
C 247.580563 65.168282 249.138296 64.523048 250.286659 63.374685 
C 251.435023 62.226322 252.080257 60.668588 252.080257 59.044558 
C 252.080257 57.420527 251.435023 55.862794 250.286659 54.714431 
C 249.138296 53.566068 247.580563 52.920833 245.956532 52.920833 
C 244.332502 52.920833 242.774769 53.566068 241.626405 54.714431 
C 240.478042 55.862794 239.832808 57.420527 239.832808 59.044558 
C 239.832808 60.668588 240.478042 62.226322 241.626405 63.374685 
C 242.774769 64.523048 244.332502 65.168282 245.956532 65.168282 
z
" clip-path="url(#p55feadac2a)" style="fill: #dae3ef; stroke: #4e79a7"/>
    <path d="M 305.207456 65.168282 
C 306.831486 65.168282 308.38922 64.523048 309.537583 63.374685 
C 310.685946 62.226322 311.33118 60.668588 311.33118 59.044558 
C 311.33118 57.420527 310.685946 55.862794 309.537583 54.714431 
C 308.38922 53.566068 306.831486 52.920833 305.207456 52.920833 
C 303.583425 52.920833 302.025692 53.566068 300.877329 54.714431 
C 299.728965 55.862794 299.083731 57.420527 299.083731 59.044558 
C 299.083731 60.668588 299.728965 62.226322 300.877329 63.374685 
C 302.025692 64.523048 303.583425 65.168282 305.207456 65.168282 
z
" clip-path="url(#p55feadac2a)" style="fill: #dae3ef; stroke: #4e79a7"/>
    <path d="M 364.458379 65.168282 
C 366.082409 65.168282 367.640143 64.523048 368.788506 63.374685 
C 369.936869 62.226322 370.582103 60.668588 370.582103 59.044558 
C 370.582103 57.420527 369.936869 55.862794 368.788506 54.714431 
C 367.640143 53.566068 366.082409 52.920833 364.458379 52.920833 
C 362.834348 52.920833 361.276615 53.566068 360.128252 54.714431 
C 358.979889 55.862794 358.334654 57.420527 358.334654 59.044558 
C 358.334654 60.668588 358.979889 62.226322 360.128252 63.374685 
C 361.276615 64.523048 362.834348 65.168282 364.458379 65.168282 
z
" clip-path="url(#p55feadac2a)" style="fill: #dae3ef; stroke: #4e79a7"/>
    <path d="M 186.705609 163.919821 
C 188.32964 163.919821 189.887373 163.274586 191.035736 162.126223 
C 192.184099 160.97786 192.829334 159.420127 192.829334 157.796096 
C 192.829334 156.172066 192.184099 154.614332 191.035736 153.465969 
C 189.887373 152.317606 188.32964 151.672372 186.705609 151.672372 
C 185.081579 151.672372 183.523845 152.317606 182.375482 153.465969 
C 181.227119 154.614332 180.581885 156.172066 180.581885 157.796096 
C 180.581885 159.420127 181.227119 160.97786 182.375482 162.126223 
C 183.523845 163.274586 185.081579 163.919821 186.705609 163.919821 
z
" clip-path="url(#p55feadac2a)" style="fill: #dae3ef; stroke: #4e79a7"/>
    <path d="M 245.956532 163.919821 
C 247.580563 163.919821 249.138296 163.274586 250.286659 162.126223 
C 251.435023 160.97786 252.080257 159.420127 252.080257 157.796096 
C 252.080257 156.172066 251.435023 154.614332 250.286659 153.465969 
C 249.138296 152.317606 247.580563 151.672372 245.956532 151.672372 
C 244.332502 151.672372 242.774769 152.317606 241.626405 153.465969 
C 240.478042 154.614332 239.832808 156.172066 239.832808 157.796096 
C 239.832808 159.420127 240.478042 160.97786 241.626405 162.126223 
C 242.774769 163.274586 244.332502 163.919821 245.956532 163.919821 
z
" clip-path="url(#p55feadac2a)" style="fill: #dae3ef; stroke: #4e79a7"/>
    <path d="M 305.207456 163.919821 
C 306.831486 163.919821 308.38922 163.274586 309.537583 162.126223 
C 310.685946 160.97786 311.33118 159.420127 311.33118 157.796096 
C 311.33118 156.172066 310.685946 154.614332 309.537583 153.465969 
C 308.38922 152.317606 306.831486 151.672372 305.207456 151.672372 
C 303.583425 151.672372 302.025692 152.317606 300.877329 153.465969 
C 299.728965 154.614332 299.083731 156.172066 299.083731 157.796096 
C 299.083731 159.420127 299.728965 160.97786 300.877329 162.126223 
C 302.025692 163.274586 303.583425 163.919821 305.207456 163.919821 
z
" clip-path="url(#p55feadac2a)" style="fill: #dae3ef; stroke: #4e79a7"/>
    <path d="M 78.078917 262.671359 
C 79.702948 262.671359 81.260681 262.026125 82.409044 260.877762 
C 83.557407 259.729399 84.202641 258.171666 84.202641 256.547635 
C 84.202641 254.923604 83.557407 253.365871 82.409044 252.217508 
C 81.260681 251.069145 79.702948 250.423911 78.078917 250.423911 
C 76.454886 250.423911 74.897153 251.069145 73.74879 252.217508 
C 72.600427 253.365871 71.955192 254.923604 71.955192 256.547635 
C 71.955192 258.171666 72.600427 259.729399 73.74879 260.877762 
C 74.897153 262.026125 76.454886 262.671359 78.078917 262.671359 
z
" clip-path="url(#p55feadac2a)" style="fill: #e6d9e1; stroke: #b07aa1"/>
    <path d="M 137.32984 262.671359 
C 138.953871 262.671359 140.511604 262.026125 141.659967 260.877762 
C 142.80833 259.729399 143.453564 258.171666 143.453564 256.547635 
C 143.453564 254.923604 142.80833 253.365871 141.659967 252.217508 
C 140.511604 251.069145 138.953871 250.423911 137.32984 250.423911 
C 135.705809 250.423911 134.148076 251.069145 132.999713 252.217508 
C 131.85135 253.365871 131.206116 254.923604 131.206116 256.547635 
C 131.206116 258.171666 131.85135 259.729399 132.999713 260.877762 
C 134.148076 262.026125 135.705809 262.671359 137.32984 262.671359 
z
" clip-path="url(#p55feadac2a)" style="fill: #e6d9e1; stroke: #b07aa1"/>
    <path d="M 196.580763 262.671359 
C 198.204794 262.671359 199.762527 262.026125 200.91089 260.877762 
C 202.059253 259.729399 202.704488 258.171666 202.704488 256.547635 
C 202.704488 254.923604 202.059253 253.365871 200.91089 252.217508 
C 199.762527 251.069145 198.204794 250.423911 196.580763 250.423911 
C 194.956732 250.423911 193.398999 251.069145 192.250636 252.217508 
C 191.102273 253.365871 190.457039 254.923604 190.457039 256.547635 
C 190.457039 258.171666 191.102273 259.729399 192.250636 260.877762 
C 193.398999 262.026125 194.956732 262.671359 196.580763 262.671359 
z
" clip-path="url(#p55feadac2a)" style="fill: #e6d9e1; stroke: #b07aa1"/>
    <path d="M 295.332302 262.671359 
C 296.956332 262.671359 298.514066 262.026125 299.662429 260.877762 
C 300.810792 259.729399 301.456026 258.171666 301.456026 256.547635 
C 301.456026 254.923604 300.810792 253.365871 299.662429 252.217508 
C 298.514066 251.069145 296.956332 250.423911 295.332302 250.423911 
C 293.708271 250.423911 292.150538 251.069145 291.002175 252.217508 
C 289.853812 253.365871 289.208577 254.923604 289.208577 256.547635 
C 289.208577 258.171666 289.853812 259.729399 291.002175 260.877762 
C 292.150538 262.026125 293.708271 262.671359 295.332302 262.671359 
z
" clip-path="url(#p55feadac2a)" style="fill: #e6d9e1; stroke: #b07aa1"/>
    <path d="M 354.583225 262.671359 
C 356.207256 262.671359 357.764989 262.026125 358.913352 260.877762 
C 360.061715 259.729399 360.706949 258.171666 360.706949 256.547635 
C 360.706949 254.923604 360.061715 253.365871 358.913352 252.217508 
C 357.764989 251.069145 356.207256 250.423911 354.583225 250.423911 
C 352.959194 250.423911 351.401461 251.069145 350.253098 252.217508 
C 349.104735 253.365871 348.459501 254.923604 348.459501 256.547635 
C 348.459501 258.171666 349.104735 259.729399 350.253098 260.877762 
C 351.401461 262.026125 352.959194 262.671359 354.583225 262.671359 
z
" clip-path="url(#p55feadac2a)" style="fill: #e6d9e1; stroke: #b07aa1"/>
    <path d="M 413.834148 262.671359 
C 415.458179 262.671359 417.015912 262.026125 418.164275 260.877762 
C 419.312638 259.729399 419.957872 258.171666 419.957872 256.547635 
C 419.957872 254.923604 419.312638 253.365871 418.164275 252.217508 
C 417.015912 251.069145 415.458179 250.423911 413.834148 250.423911 
C 412.210117 250.423911 410.652384 251.069145 409.504021 252.217508 
C 408.355658 253.365871 407.710424 254.923604 407.710424 256.547635 
C 407.710424 258.171666 408.355658 259.729399 409.504021 260.877762 
C 410.652384 262.026125 412.210117 262.671359 413.834148 262.671359 
z
" clip-path="url(#p55feadac2a)" style="fill: #e6d9e1; stroke: #b07aa1"/>
    <path d="M 186.705609 361.422898 
C 188.32964 361.422898 189.887373 360.777664 191.035736 359.629301 
C 192.184099 358.480937 192.829334 356.923204 192.829334 355.299174 
C 192.829334 353.675143 192.184099 352.11741 191.035736 350.969047 
C 189.887373 349.820683 188.32964 349.175449 186.705609 349.175449 
C 185.081579 349.175449 183.523845 349.820683 182.375482 350.969047 
C 181.227119 352.11741 180.581885 353.675143 180.581885 355.299174 
C 180.581885 356.923204 181.227119 358.480937 182.375482 359.629301 
C 183.523845 360.777664 185.081579 361.422898 186.705609 361.422898 
z
" clip-path="url(#p55feadac2a)" style="fill: #d7e8d3; stroke: #59a14f"/>
    <path d="M 245.956532 361.422898 
C 247.580563 361.422898 249.138296 360.777664 250.286659 359.629301 
C 251.435023 358.480937 252.080257 356.923204 252.080257 355.299174 
C 252.080257 353.675143 251.435023 352.11741 250.286659 350.969047 
C 249.138296 349.820683 247.580563 349.175449 245.956532 349.175449 
C 244.332502 349.175449 242.774769 349.820683 241.626405 350.969047 
C 240.478042 352.11741 239.832808 353.675143 239.832808 355.299174 
C 239.832808 356.923204 240.478042 358.480937 241.626405 359.629301 
C 242.774769 360.777664 244.332502 361.422898 245.956532 361.422898 
z
" clip-path="url(#p55feadac2a)" style="fill: #d7e8d3; stroke: #59a14f"/>
    <path d="M 305.207456 361.422898 
C 306.831486 361.422898 308.38922 360.777664 309.537583 359.629301 
C 310.685946 358.480937 311.33118 356.923204 311.33118 355.299174 
C 311.33118 353.675143 310.685946 352.11741 309.537583 350.969047 
C 308.38922 349.820683 306.831486 349.175449 305.207456 349.175449 
C 303.583425 349.175449 302.025692 349.820683 300.877329 350.969047 
C 299.728965 352.11741 299.083731 353.675143 299.083731 355.299174 
C 299.083731 356.923204 299.728965 358.480937 300.877329 359.629301 
C 302.025692 360.777664 303.583425 361.422898 305.207456 361.422898 
z
" clip-path="url(#p55feadac2a)" style="fill: #d7e8d3; stroke: #59a14f"/>
    <path d="M 127.454686 558.925975 
C 129.078717 558.925975 130.63645 558.280741 131.784813 557.132378 
C 132.933176 555.984015 133.57841 554.426281 133.57841 552.802251 
C 133.57841 551.17822 132.933176 549.620487 131.784813 548.472124 
C 130.63645 547.323761 129.078717 546.678526 127.454686 546.678526 
C 125.830655 546.678526 124.272922 547.323761 123.124559 548.472124 
C 121.976196 549.620487 121.330962 551.17822 121.330962 552.802251 
C 121.330962 554.426281 121.976196 555.984015 123.124559 557.132378 
C 124.272922 558.280741 125.830655 558.925975 127.454686 558.925975 
z
" clip-path="url(#p55feadac2a)" style="fill: #dae3ef; stroke: #4e79a7"/>
    <path d="M 186.705609 558.925975 
C 188.32964 558.925975 189.887373 558.280741 191.035736 557.132378 
C 192.184099 555.984015 192.829334 554.426281 192.829334 552.802251 
C 192.829334 551.17822 192.184099 549.620487 191.035736 548.472124 
C 189.887373 547.323761 188.32964 546.678526 186.705609 546.678526 
C 185.081579 546.678526 183.523845 547.323761 182.375482 548.472124 
C 181.227119 549.620487 180.581885 551.17822 180.581885 552.802251 
C 180.581885 554.426281 181.227119 555.984015 182.375482 557.132378 
C 183.523845 558.280741 185.081579 558.925975 186.705609 558.925975 
z
" clip-path="url(#p55feadac2a)" style="fill: #dae3ef; stroke: #4e79a7"/>
    <path d="M 245.956532 558.925975 
C 247.580563 558.925975 249.138296 558.280741 250.286659 557.132378 
C 251.435023 555.984015 252.080257 554.426281 252.080257 552.802251 
C 252.080257 551.17822 251.435023 549.620487 250.286659 548.472124 
C 249.138296 547.323761 247.580563 546.678526 245.956532 546.678526 
C 244.332502 546.678526 242.774769 547.323761 241.626405 548.472124 
C 240.478042 549.620487 239.832808 551.17822 239.832808 552.802251 
C 239.832808 554.426281 240.478042 555.984015 241.626405 557.132378 
C 242.774769 558.280741 244.332502 558.925975 245.956532 558.925975 
z
" clip-path="url(#p55feadac2a)" style="fill: #dae3ef; stroke: #4e79a7"/>
    <path d="M 305.207456 558.925975 
C 306.831486 558.925975 308.38922 558.280741 309.537583 557.132378 
C 310.685946 555.984015 311.33118 554.426281 311.33118 552.802251 
C 311.33118 551.17822 310.685946 549.620487 309.537583 548.472124 
C 308.38922 547.323761 306.831486 546.678526 305.207456 546.678526 
C 303.583425 546.678526 302.025692 547.323761 300.877329 548.472124 
C 299.728965 549.620487 299.083731 551.17822 299.083731 552.802251 
C 299.083731 554.426281 299.728965 555.984015 300.877329 557.132378 
C 302.025692 558.280741 303.583425 558.925975 305.207456 558.925975 
z
" clip-path="url(#p55feadac2a)" style="fill: #dae3ef; stroke: #4e79a7"/>
    <path d="M 364.458379 558.925975 
C 366.082409 558.925975 367.640143 558.280741 368.788506 557.132378 
C 369.936869 555.984015 370.582103 554.426281 370.582103 552.802251 
C 370.582103 551.17822 369.936869 549.620487 368.788506 548.472124 
C 367.640143 547.323761 366.082409 546.678526 364.458379 546.678526 
C 362.834348 546.678526 361.276615 547.323761 360.128252 548.472124 
C 358.979889 549.620487 358.334654 551.17822 358.334654 552.802251 
C 358.334654 554.426281 358.979889 555.984015 360.128252 557.132378 
C 361.276615 558.280741 362.834348 558.925975 364.458379 558.925975 
z
" clip-path="url(#p55feadac2a)" style="fill: #dae3ef; stroke: #4e79a7"/>
    <path d="M 611.337225 65.168282 
C 612.961256 65.168282 614.518989 64.523048 615.667352 63.374685 
C 616.815715 62.226322 617.46095 60.668588 617.46095 59.044558 
C 617.46095 57.420527 616.815715 55.862794 615.667352 54.714431 
C 614.518989 53.566068 612.961256 52.920833 611.337225 52.920833 
C 609.713195 52.920833 608.155461 53.566068 607.007098 54.714431 
C 605.858735 55.862794 605.213501 57.420527 605.213501 59.044558 
C 605.213501 60.668588 605.858735 62.226322 607.007098 63.374685 
C 608.155461 64.523048 609.713195 65.168282 611.337225 65.168282 
z
" clip-path="url(#p55feadac2a)" style="fill: #dae3ef; stroke: #4e79a7"/>
    <path d="M 670.588148 65.168282 
C 672.212179 65.168282 673.769912 64.523048 674.918275 63.374685 
C 676.066639 62.226322 676.711873 60.668588 676.711873 59.044558 
C 676.711873 57.420527 676.066639 55.862794 674.918275 54.714431 
C 673.769912 53.566068 672.212179 52.920833 670.588148 52.920833 
C 668.964118 52.920833 667.406384 53.566068 666.258021 54.714431 
C 665.109658 55.862794 664.464424 57.420527 664.464424 59.044558 
C 664.464424 60.668588 665.109658 62.226322 666.258021 63.374685 
C 667.406384 64.523048 668.964118 65.168282 670.588148 65.168282 
z
" clip-path="url(#p55feadac2a)" style="fill: #dae3ef; stroke: #4e79a7"/>
    <path d="M 729.839072 65.168282 
C 731.463102 65.168282 733.020835 64.523048 734.169199 63.374685 
C 735.317562 62.226322 735.962796 60.668588 735.962796 59.044558 
C 735.962796 57.420527 735.317562 55.862794 734.169199 54.714431 
C 733.020835 53.566068 731.463102 52.920833 729.839072 52.920833 
C 728.215041 52.920833 726.657308 53.566068 725.508945 54.714431 
C 724.360581 55.862794 723.715347 57.420527 723.715347 59.044558 
C 723.715347 60.668588 724.360581 62.226322 725.508945 63.374685 
C 726.657308 64.523048 728.215041 65.168282 729.839072 65.168282 
z
" clip-path="url(#p55feadac2a)" style="fill: #dae3ef; stroke: #4e79a7"/>
    <path d="M 640.962687 163.919821 
C 642.586718 163.919821 644.144451 163.274586 645.292814 162.126223 
C 646.441177 160.97786 647.086411 159.420127 647.086411 157.796096 
C 647.086411 156.172066 646.441177 154.614332 645.292814 153.465969 
C 644.144451 152.317606 642.586718 151.672372 640.962687 151.672372 
C 639.338656 151.672372 637.780923 152.317606 636.63256 153.465969 
C 635.484197 154.614332 634.838962 156.172066 634.838962 157.796096 
C 634.838962 159.420127 635.484197 160.97786 636.63256 162.126223 
C 637.780923 163.274586 639.338656 163.919821 640.962687 163.919821 
z
" clip-path="url(#p55feadac2a)" style="fill: #dae3ef; stroke: #4e79a7"/>
    <path d="M 700.21361 163.919821 
C 701.837641 163.919821 703.395374 163.274586 704.543737 162.126223 
C 705.6921 160.97786 706.337334 159.420127 706.337334 157.796096 
C 706.337334 156.172066 705.6921 154.614332 704.543737 153.465969 
C 703.395374 152.317606 701.837641 151.672372 700.21361 151.672372 
C 698.589579 151.672372 697.031846 152.317606 695.883483 153.465969 
C 694.73512 154.614332 694.089886 156.172066 694.089886 157.796096 
C 694.089886 159.420127 694.73512 160.97786 695.883483 162.126223 
C 697.031846 163.274586 698.589579 163.919821 700.21361 163.919821 
z
" clip-path="url(#p55feadac2a)" style="fill: #dae3ef; stroke: #4e79a7"/>
    <path d="M 561.961456 262.671359 
C 563.585487 262.671359 565.14322 262.026125 566.291583 260.877762 
C 567.439946 259.729399 568.08518 258.171666 568.08518 256.547635 
C 568.08518 254.923604 567.439946 253.365871 566.291583 252.217508 
C 565.14322 251.069145 563.585487 250.423911 561.961456 250.423911 
C 560.337425 250.423911 558.779692 251.069145 557.631329 252.217508 
C 556.482966 253.365871 555.837732 254.923604 555.837732 256.547635 
C 555.837732 258.171666 556.482966 259.729399 557.631329 260.877762 
C 558.779692 262.026125 560.337425 262.671359 561.961456 262.671359 
z
" clip-path="url(#p55feadac2a)" style="fill: #e6d9e1; stroke: #b07aa1"/>
    <path d="M 621.212379 262.671359 
C 622.83641 262.671359 624.394143 262.026125 625.542506 260.877762 
C 626.690869 259.729399 627.336103 258.171666 627.336103 256.547635 
C 627.336103 254.923604 626.690869 253.365871 625.542506 252.217508 
C 624.394143 251.069145 622.83641 250.423911 621.212379 250.423911 
C 619.588348 250.423911 618.030615 251.069145 616.882252 252.217508 
C 615.733889 253.365871 615.088655 254.923604 615.088655 256.547635 
C 615.088655 258.171666 615.733889 259.729399 616.882252 260.877762 
C 618.030615 262.026125 619.588348 262.671359 621.212379 262.671359 
z
" clip-path="url(#p55feadac2a)" style="fill: #e6d9e1; stroke: #b07aa1"/>
    <path d="M 719.963918 262.671359 
C 721.587948 262.671359 723.145682 262.026125 724.294045 260.877762 
C 725.442408 259.729399 726.087642 258.171666 726.087642 256.547635 
C 726.087642 254.923604 725.442408 253.365871 724.294045 252.217508 
C 723.145682 251.069145 721.587948 250.423911 719.963918 250.423911 
C 718.339887 250.423911 716.782154 251.069145 715.633791 252.217508 
C 714.485428 253.365871 713.840193 254.923604 713.840193 256.547635 
C 713.840193 258.171666 714.485428 259.729399 715.633791 260.877762 
C 716.782154 262.026125 718.339887 262.671359 719.963918 262.671359 
z
" clip-path="url(#p55feadac2a)" style="fill: #e6d9e1; stroke: #b07aa1"/>
    <path d="M 779.214841 262.671359 
C 780.838872 262.671359 782.396605 262.026125 783.544968 260.877762 
C 784.693331 259.729399 785.338565 258.171666 785.338565 256.547635 
C 785.338565 254.923604 784.693331 253.365871 783.544968 252.217508 
C 782.396605 251.069145 780.838872 250.423911 779.214841 250.423911 
C 777.59081 250.423911 776.033077 251.069145 774.884714 252.217508 
C 773.736351 253.365871 773.091117 254.923604 773.091117 256.547635 
C 773.091117 258.171666 773.736351 259.729399 774.884714 260.877762 
C 776.033077 262.026125 777.59081 262.671359 779.214841 262.671359 
z
" clip-path="url(#p55feadac2a)" style="fill: #e6d9e1; stroke: #b07aa1"/>
    <path d="M 640.962687 361.422898 
C 642.586718 361.422898 644.144451 360.777664 645.292814 359.629301 
C 646.441177 358.480937 647.086411 356.923204 647.086411 355.299174 
C 647.086411 353.675143 646.441177 352.11741 645.292814 350.969047 
C 644.144451 349.820683 642.586718 349.175449 640.962687 349.175449 
C 639.338656 349.175449 637.780923 349.820683 636.63256 350.969047 
C 635.484197 352.11741 634.838962 353.675143 634.838962 355.299174 
C 634.838962 356.923204 635.484197 358.480937 636.63256 359.629301 
C 637.780923 360.777664 639.338656 361.422898 640.962687 361.422898 
z
" clip-path="url(#p55feadac2a)" style="fill: #d7e8d3; stroke: #59a14f"/>
    <path d="M 700.21361 361.422898 
C 701.837641 361.422898 703.395374 360.777664 704.543737 359.629301 
C 705.6921 358.480937 706.337334 356.923204 706.337334 355.299174 
C 706.337334 353.675143 705.6921 352.11741 704.543737 350.969047 
C 703.395374 349.820683 701.837641 349.175449 700.21361 349.175449 
C 698.589579 349.175449 697.031846 349.820683 695.883483 350.969047 
C 694.73512 352.11741 694.089886 353.675143 694.089886 355.299174 
C 694.089886 356.923204 694.73512 358.480937 695.883483 359.629301 
C 697.031846 360.777664 698.589579 361.422898 700.21361 361.422898 
z
" clip-path="url(#p55feadac2a)" style="fill: #d7e8d3; stroke: #59a14f"/>
    <path d="M 611.337225 558.925975 
C 612.961256 558.925975 614.518989 558.280741 615.667352 557.132378 
C 616.815715 555.984015 617.46095 554.426281 617.46095 552.802251 
C 617.46095 551.17822 616.815715 549.620487 615.667352 548.472124 
C 614.518989 547.323761 612.961256 546.678526 611.337225 546.678526 
C 609.713195 546.678526 608.155461 547.323761 607.007098 548.472124 
C 605.858735 549.620487 605.213501 551.17822 605.213501 552.802251 
C 605.213501 554.426281 605.858735 555.984015 607.007098 557.132378 
C 608.155461 558.280741 609.713195 558.925975 611.337225 558.925975 
z
" clip-path="url(#p55feadac2a)" style="fill: #dae3ef; stroke: #4e79a7"/>
    <path d="M 670.588148 558.925975 
C 672.212179 558.925975 673.769912 558.280741 674.918275 557.132378 
C 676.066639 555.984015 676.711873 554.426281 676.711873 552.802251 
C 676.711873 551.17822 676.066639 549.620487 674.918275 548.472124 
C 673.769912 547.323761 672.212179 546.678526 670.588148 546.678526 
C 668.964118 546.678526 667.406384 547.323761 666.258021 548.472124 
C 665.109658 549.620487 664.464424 551.17822 664.464424 552.802251 
C 664.464424 554.426281 665.109658 555.984015 666.258021 557.132378 
C 667.406384 558.280741 668.964118 558.925975 670.588148 558.925975 
z
" clip-path="url(#p55feadac2a)" style="fill: #dae3ef; stroke: #4e79a7"/>
    <path d="M 729.839072 558.925975 
C 731.463102 558.925975 733.020835 558.280741 734.169199 557.132378 
C 735.317562 555.984015 735.962796 554.426281 735.962796 552.802251 
C 735.962796 551.17822 735.317562 549.620487 734.169199 548.472124 
C 733.020835 547.323761 731.463102 546.678526 729.839072 546.678526 
C 728.215041 546.678526 726.657308 547.323761 725.508945 548.472124 
C 724.360581 549.620487 723.715347 551.17822 723.715347 552.802251 
C 723.715347 554.426281 724.360581 555.984015 725.508945 557.132378 
C 726.657308 558.280741 728.215041 558.925975 729.839072 558.925975 
z
" clip-path="url(#p55feadac2a)" style="fill: #dae3ef; stroke: #4e79a7"/>
   </g>
   <g id="PathCollection_2">
    <path d="M 231.814397 468.192848 
L 260.098668 468.192848 
L 260.098668 439.908577 
L 231.814397 439.908577 
z
" clip-path="url(#p55feadac2a)" style="fill: #808080; stroke: #bab0ac"/>
    <path d="M 656.446013 468.192848 
L 684.730284 468.192848 
L 684.730284 439.908577 
L 656.446013 439.908577 
z
" clip-path="url(#p55feadac2a)" style="fill: #808080; stroke: #bab0ac"/>
   </g>
   <g id="text_2">
    <g clip-path="url(#p55feadac2a)">
     <!-- μ₁ -->
     <g transform="translate(73.930167 258.755135) scale(0.08 -0.08)">
      <defs>
       <path id="DejaVuSans-3bc" d="M 544 -1331 
L 544 3500 
L 1119 3500 
L 1119 1325 
Q 1119 872 1334 640 
Q 1550 409 1972 409 
Q 2434 409 2667 671 
Q 2900 934 2900 1459 
L 2900 3500 
L 3475 3500 
L 3475 806 
Q 3475 619 3529 530 
Q 3584 441 3700 441 
Q 3728 441 3778 458 
Q 3828 475 3916 513 
L 3916 50 
Q 3788 -22 3673 -56 
Q 3559 -91 3450 -91 
Q 3234 -91 3106 31 
Q 2978 153 2931 403 
Q 2775 156 2548 32 
Q 2322 -91 2016 -91 
Q 1697 -91 1473 31 
Q 1250 153 1119 397 
L 1119 -1331 
L 544 -1331 
z
" transform="scale(0.015625)"/>
       <path id="DejaVuSans-2081" d="M 488 343 
L 1125 343 
L 1125 2253 
L 428 2125 
L 428 2487 
L 1147 2609 
L 1575 2609 
L 1575 343 
L 2216 343 
L 2216 0 
L 488 0 
L 488 343 
z
" transform="scale(0.015625)"/>
      </defs>
      <use xlink:href="#DejaVuSans-3bc"/>
      <use xlink:href="#DejaVuSans-2081" x="63.623047"/>
     </g>
    </g>
   </g>
   <g id="text_3">
    <g clip-path="url(#p55feadac2a)">
     <!-- μ₂ -->
     <g transform="translate(133.18109 258.755135) scale(0.08 -0.08)">
      <defs>
       <path id="DejaVuSans-2082" d="M 838 356 
L 2163 356 
L 2163 0 
L 294 0 
L 294 343 
Q 400 440 597 615 
Q 1672 1568 1672 1862 
Q 1672 2068 1509 2194 
Q 1347 2321 1081 2321 
Q 919 2321 728 2266 
Q 538 2212 313 2103 
L 313 2487 
Q 553 2575 761 2618 
Q 969 2662 1147 2662 
Q 1600 2662 1872 2456 
Q 2144 2250 2144 1912 
Q 2144 1478 1109 590 
Q 934 440 838 356 
z
" transform="scale(0.015625)"/>
      </defs>
      <use xlink:href="#DejaVuSans-3bc"/>
      <use xlink:href="#DejaVuSans-2082" x="63.623047"/>
     </g>
    </g>
   </g>
   <g id="text_4">
    <g clip-path="url(#p55feadac2a)">
     <!-- μ₃ -->
     <g transform="translate(192.432013 258.755135) scale(0.08 -0.08)">
      <defs>
       <path id="DejaVuSans-2083" d="M 1638 1412 
Q 1925 1356 2083 1185 
Q 2241 1015 2241 759 
Q 2241 371 1944 162 
Q 1647 -47 1094 -47 
Q 916 -47 720 -14 
Q 525 18 306 81 
L 306 459 
Q 469 375 655 334 
Q 841 293 1050 293 
Q 1391 293 1578 416 
Q 1766 540 1766 759 
Q 1766 990 1592 1109 
Q 1419 1228 1081 1228 
L 813 1228 
L 813 1565 
L 1106 1565 
Q 1400 1565 1551 1663 
Q 1703 1762 1703 1950 
Q 1703 2131 1547 2226 
Q 1391 2321 1094 2321 
Q 969 2321 809 2293 
Q 650 2265 397 2193 
L 397 2553 
Q 625 2606 825 2634 
Q 1025 2662 1197 2662 
Q 1647 2662 1911 2477 
Q 2175 2293 2175 1984 
Q 2175 1768 2034 1618 
Q 1894 1468 1638 1412 
z
" transform="scale(0.015625)"/>
      </defs>
      <use xlink:href="#DejaVuSans-3bc"/>
      <use xlink:href="#DejaVuSans-2083" x="63.623047"/>
     </g>
    </g>
   </g>
   <g id="text_5">
    <g clip-path="url(#p55feadac2a)">
     <!-- σ₁ -->
     <g transform="translate(291.193552 258.755135) scale(0.08 -0.08)">
      <defs>
       <path id="DejaVuSans-3c3" d="M 1959 3044 
Q 1484 3044 1228 2700 
Q 959 2341 959 1747 
Q 959 1119 1226 758 
Q 1494 397 1959 397 
Q 2419 397 2687 759 
Q 2956 1122 2956 1747 
Q 2956 2319 2688 2700 
Q 2441 3044 1959 3044 
z
M 1959 3500 
L 3869 3500 
L 3869 2925 
L 3225 2925 
Q 3566 2438 3566 1747 
Q 3566 888 3138 400 
Q 2709 -91 1959 -91 
Q 1206 -91 781 400 
Q 353 888 353 1747 
Q 353 2613 781 3097 
Q 1134 3500 1959 3500 
z
" transform="scale(0.015625)"/>
      </defs>
      <use xlink:href="#DejaVuSans-3c3"/>
      <use xlink:href="#DejaVuSans-2081" x="63.378906"/>
     </g>
    </g>
   </g>
   <g id="text_6">
    <g clip-path="url(#p55feadac2a)">
     <!-- σ₂ -->
     <g transform="translate(350.444475 258.755135) scale(0.08 -0.08)">
      <use xlink:href="#DejaVuSans-3c3"/>
      <use xlink:href="#DejaVuSans-2082" x="63.378906"/>
     </g>
    </g>
   </g>
   <g id="text_7">
    <g clip-path="url(#p55feadac2a)">
     <!-- σ₃ -->
     <g transform="translate(409.695398 258.755135) scale(0.08 -0.08)">
      <use xlink:href="#DejaVuSans-3c3"/>
      <use xlink:href="#DejaVuSans-2083" x="63.378906"/>
     </g>
    </g>
   </g>
   <g id="text_8">
    <g clip-path="url(#p55feadac2a)">
     <!-- z₁ -->
     <g transform="translate(183.002484 357.506674) scale(0.08 -0.08)">
      <defs>
       <path id="DejaVuSans-7a" d="M 353 3500 
L 3084 3500 
L 3084 2975 
L 922 459 
L 3084 459 
L 3084 0 
L 275 0 
L 275 525 
L 2438 3041 
L 353 3041 
L 353 3500 
z
" transform="scale(0.015625)"/>
      </defs>
      <use xlink:href="#DejaVuSans-7a"/>
      <use xlink:href="#DejaVuSans-2081" x="52.490234"/>
     </g>
    </g>
   </g>
   <g id="text_9">
    <g clip-path="url(#p55feadac2a)">
     <!-- z₂ -->
     <g transform="translate(242.253407 357.506674) scale(0.08 -0.08)">
      <use xlink:href="#DejaVuSans-7a"/>
      <use xlink:href="#DejaVuSans-2082" x="52.490234"/>
     </g>
    </g>
   </g>
   <g id="text_10">
    <g clip-path="url(#p55feadac2a)">
     <!-- z₃ -->
     <g transform="translate(301.504331 357.506674) scale(0.08 -0.08)">
      <use xlink:href="#DejaVuSans-7a"/>
      <use xlink:href="#DejaVuSans-2083" x="52.490234"/>
     </g>
    </g>
   </g>
   <g id="text_11">
    <g clip-path="url(#p55feadac2a)">
     <!-- $z^T z$ -->
     <g transform="translate(239.756532 456.258212) scale(0.08 -0.08)">
      <defs>
       <path id="DejaVuSans-Oblique-7a" d="M 744 3500 
L 3475 3500 
L 3372 2975 
L 738 459 
L 2913 459 
L 2822 0 
L -19 0 
L 84 525 
L 2719 3041 
L 653 3041 
L 744 3500 
z
" transform="scale(0.015625)"/>
       <path id="DejaVuSans-Oblique-54" d="M 378 4666 
L 4325 4666 
L 4225 4134 
L 2559 4134 
L 1759 0 
L 1125 0 
L 1925 4134 
L 275 4134 
L 378 4666 
z
" transform="scale(0.015625)"/>
      </defs>
      <use xlink:href="#DejaVuSans-Oblique-7a" transform="translate(0 0.684375)"/>
      <use xlink:href="#DejaVuSans-Oblique-54" transform="translate(56.95638 38.965625) scale(0.7)"/>
      <use xlink:href="#DejaVuSans-Oblique-7a" transform="translate(102.449544 0.684375)"/>
     </g>
    </g>
   </g>
   <g id="text_12">
    <g clip-path="url(#p55feadac2a)">
     <!-- μ₁ -->
     <g transform="translate(557.812706 258.755135) scale(0.08 -0.08)">
      <use xlink:href="#DejaVuSans-3bc"/>
      <use xlink:href="#DejaVuSans-2081" x="63.623047"/>
     </g>
    </g>
   </g>
   <g id="text_13">
    <g clip-path="url(#p55feadac2a)">
     <!-- μ₂ -->
     <g transform="translate(617.063629 258.755135) scale(0.08 -0.08)">
      <use xlink:href="#DejaVuSans-3bc"/>
      <use xlink:href="#DejaVuSans-2082" x="63.623047"/>
     </g>
    </g>
   </g>
   <g id="text_14">
    <g clip-path="url(#p55feadac2a)">
     <!-- σ₁ -->
     <g transform="translate(715.825168 258.755135) scale(0.08 -0.08)">
      <use xlink:href="#DejaVuSans-3c3"/>
      <use xlink:href="#DejaVuSans-2081" x="63.378906"/>
     </g>
    </g>
   </g>
   <g id="text_15">
    <g clip-path="url(#p55feadac2a)">
     <!-- σ₂ -->
     <g transform="translate(775.076091 258.755135) scale(0.08 -0.08)">
      <use xlink:href="#DejaVuSans-3c3"/>
      <use xlink:href="#DejaVuSans-2082" x="63.378906"/>
     </g>
    </g>
   </g>
   <g id="text_16">
    <g clip-path="url(#p55feadac2a)">
     <!-- z₁ -->
     <g transform="translate(637.259562 357.506674) scale(0.08 -0.08)">
      <use xlink:href="#DejaVuSans-7a"/>
      <use xlink:href="#DejaVuSans-2081" x="52.490234"/>
     </g>
    </g>
   </g>
   <g id="text_17">
    <g clip-path="url(#p55feadac2a)">
     <!-- z₂ -->
     <g transform="translate(696.510485 357.506674) scale(0.08 -0.08)">
      <use xlink:href="#DejaVuSans-7a"/>
      <use xlink:href="#DejaVuSans-2082" x="52.490234"/>
     </g>
    </g>
   </g>
   <g id="text_18">
    <g clip-path="url(#p55feadac2a)">
     <!-- $z^T z$ -->
     <g transform="translate(664.388148 456.258212) scale(0.08 -0.08)">
      <use xlink:href="#DejaVuSans-Oblique-7a" transform="translate(0 0.684375)"/>
      <use xlink:href="#DejaVuSans-Oblique-54" transform="translate(56.95638 38.965625) scale(0.7)"/>
      <use xlink:href="#DejaVuSans-Oblique-7a" transform="translate(102.449544 0.684375)"/>
     </g>
    </g>
   </g>
  </g>
 </g>
 <defs>
  <clipPath id="p55feadac2a">
   <rect x="7.2" y="7.2" width="842.4" height="597.446809"/>
  </clipPath>
 </defs>
</svg>
