<?xml version="1.0" encoding="UTF-8" standalone="no"?>
<!DOCTYPE svg PUBLIC "-//W3C//DTD SVG 1.1//EN"
 "http://www.w3.org/Graphics/SVG/1.1/DTD/svg11.dtd">
<!-- Generated by graphviz version 2.44.0 (0)
 -->
<!-- Pages: 1 -->
<svg width="764pt" height="1077pt"
 viewBox="14.40 14.40 750.00 1062.61" xmlns="http://www.w3.org/2000/svg" xmlns:xlink="http://www.w3.org/1999/xlink">
<g id="graph0" class="graph" transform="scale(1 1) rotate(0) translate(18.4 1058.61)">
<!-- t_enc0_0 -->
<g id="node1" class="node">
<title>t_enc0_0</title>
<ellipse fill="#dae3ef" stroke="#4e79a7" cx="16.76" cy="-45.56" rx="11" ry="11"/>
</g>
<!-- t_enc0_1 -->
<g id="node2" class="node">
<title>t_enc0_1</title>
<ellipse fill="#dae3ef" stroke="#4e79a7" cx="100.28" cy="-37.64" rx="11" ry="11"/>
</g>
<!-- t_enc0_0&#45;&gt;t_enc0_1 -->
<g id="edge1" class="edge">
<title>t_enc0_0&#45;&gt;t_enc0_1</title>
<path fill="none" stroke="#4e79a7" stroke-opacity="0.501961" d="M28.02,-44.49C44.05,-42.97 73.26,-40.2 89.19,-38.69"/>
</g>
<!-- t_enc0_2 -->
<g id="node3" class="node">
<title>t_enc0_2</title>
<ellipse fill="#dae3ef" stroke="#4e79a7" cx="55.64" cy="-11" rx="11" ry="11"/>
</g>
<!-- t_enc0_0&#45;&gt;t_enc0_2 -->
<g id="edge2" class="edge">
<title>t_enc0_0&#45;&gt;t_enc0_2</title>
<path fill="none" stroke="#4e79a7" stroke-opacity="0.501961" d="M25.01,-38.23C31.6,-32.37 40.81,-24.18 47.41,-18.32"/>
</g>
<!-- t_enc0_3 -->
<g id="node4" class="node">
<title>t_enc0_3</title>
<ellipse fill="#dae3ef" stroke="#4e79a7" cx="36.92" cy="-93.08" rx="11" ry="11"/>
</g>
<!-- t_enc0_0&#45;&gt;t_enc0_3 -->
<g id="edge3" class="edge">
<title>t_enc0_0&#45;&gt;t_enc0_3</title>
<path fill="none" stroke="#4e79a7" stroke-opacity="0.501961" d="M21.23,-56.11C24.62,-64.09 29.25,-74.99 32.6,-82.89"/>
</g>
<!-- t_enc0_4 -->
<g id="node5" class="node">
<title>t_enc0_4</title>
<ellipse fill="#dae3ef" stroke="#4e79a7" cx="88.76" cy="-88.04" rx="11" ry="11"/>
</g>
<!-- t_enc0_0&#45;&gt;t_enc0_4 -->
<g id="edge4" class="edge">
<title>t_enc0_0&#45;&gt;t_enc0_4</title>
<path fill="none" stroke="#4e79a7" stroke-opacity="0.501961" d="M26.47,-51.29C40.29,-59.44 65.47,-74.3 79.2,-82.4"/>
</g>
<!-- t_enc0_1&#45;&gt;t_enc0_2 -->
<g id="edge5" class="edge">
<title>t_enc0_1&#45;&gt;t_enc0_2</title>
<path fill="none" stroke="#4e79a7" stroke-opacity="0.501961" d="M90.81,-31.99C83.24,-27.47 72.67,-21.16 65.09,-16.64"/>
</g>
<!-- t_enc0_1&#45;&gt;t_enc0_3 -->
<g id="edge6" class="edge">
<title>t_enc0_1&#45;&gt;t_enc0_3</title>
<path fill="none" stroke="#4e79a7" stroke-opacity="0.501961" d="M92,-44.89C79.92,-55.45 57.6,-74.99 45.41,-85.65"/>
</g>
<!-- t_enc0_1&#45;&gt;t_enc0_4 -->
<g id="edge7" class="edge">
<title>t_enc0_1&#45;&gt;t_enc0_4</title>
<path fill="none" stroke="#4e79a7" stroke-opacity="0.501961" d="M97.72,-48.83C95.79,-57.29 93.14,-68.86 91.23,-77.23"/>
</g>
<!-- t_enc0_2&#45;&gt;t_enc0_3 -->
<g id="edge8" class="edge">
<title>t_enc0_2&#45;&gt;t_enc0_3</title>
<path fill="none" stroke="#4e79a7" stroke-opacity="0.501961" d="M53.19,-21.73C49.61,-37.46 42.96,-66.61 39.37,-82.35"/>
</g>
<!-- t_enc0_2&#45;&gt;t_enc0_4 -->
<g id="edge9" class="edge">
<title>t_enc0_2&#45;&gt;t_enc0_4</title>
<path fill="none" stroke="#4e79a7" stroke-opacity="0.501961" d="M60.11,-21.39C66.46,-36.18 78.05,-63.12 84.36,-77.81"/>
</g>
<!-- t_enc0_3&#45;&gt;t_enc0_4 -->
<g id="edge10" class="edge">
<title>t_enc0_3&#45;&gt;t_enc0_4</title>
<path fill="none" stroke="#4e79a7" stroke-opacity="0.501961" d="M47.91,-92.01C56.71,-91.16 68.99,-89.96 77.78,-89.11"/>
</g>
<!-- t_enc1_0 -->
<g id="node6" class="node">
<title>t_enc1_0</title>
<ellipse fill="#dae3ef" stroke="#4e79a7" cx="16.76" cy="-288.92" rx="11" ry="11"/>
</g>
<!-- t_enc0_4&#45;&gt;t_enc1_0 -->
<g id="edge11" class="edge">
<title>t_enc0_4&#45;&gt;t_enc1_0</title>
<path fill="none" stroke="#4e79a7" stroke-dasharray="5,2" d="M84.99,-98.56C73.08,-131.78 36.24,-234.58 22.24,-273.64"/>
<polygon fill="#4e79a7" stroke="#4e79a7" points="20.53,-273.21 20.49,-278.51 23.83,-274.39 20.53,-273.21"/>
</g>
<!-- t_enc1_1 -->
<g id="node7" class="node">
<title>t_enc1_1</title>
<ellipse fill="#dae3ef" stroke="#4e79a7" cx="88.76" cy="-289.64" rx="11" ry="11"/>
</g>
<!-- t_enc1_0&#45;&gt;t_enc1_1 -->
<g id="edge12" class="edge">
<title>t_enc1_0&#45;&gt;t_enc1_1</title>
<path fill="none" stroke="#4e79a7" stroke-opacity="0.501961" d="M28.01,-289.03C41.46,-289.17 63.83,-289.39 77.35,-289.53"/>
</g>
<!-- t_enc1_2 -->
<g id="node8" class="node">
<title>t_enc1_2</title>
<ellipse fill="#dae3ef" stroke="#4e79a7" cx="52.76" cy="-227" rx="11" ry="11"/>
</g>
<!-- t_enc1_0&#45;&gt;t_enc1_2 -->
<g id="edge13" class="edge">
<title>t_enc1_0&#45;&gt;t_enc1_2</title>
<path fill="none" stroke="#4e79a7" stroke-opacity="0.501961" d="M22.38,-279.24C29.11,-267.68 40.3,-248.44 47.06,-236.81"/>
</g>
<!-- t_enc1_1&#45;&gt;t_enc1_2 -->
<g id="edge14" class="edge">
<title>t_enc1_1&#45;&gt;t_enc1_2</title>
<path fill="none" stroke="#4e79a7" stroke-opacity="0.501961" d="M83.13,-279.85C76.41,-268.15 65.22,-248.69 58.46,-236.93"/>
</g>
<!-- t_mu_μ₁ -->
<g id="node9" class="node">
<title>t_mu_μ₁</title>
<ellipse fill="#e6d9e1" stroke="#b07aa1" cx="11" cy="-425" rx="11" ry="11"/>
<text text-anchor="middle" x="11" y="-423.1" font-family="CMU Serif" font-size="8.00" fill="#333333">μ₁</text>
</g>
<!-- t_enc1_2&#45;&gt;t_mu_μ₁ -->
<g id="edge15" class="edge">
<title>t_enc1_2&#45;&gt;t_mu_μ₁</title>
<path fill="none" stroke="#4e79a7" stroke-dasharray="5,2" d="M50.46,-237.93C43.51,-270.84 22.77,-369.2 14.48,-408.51"/>
<polygon fill="#4e79a7" stroke="#4e79a7" points="12.67,-408.61 13.35,-413.86 16.09,-409.33 12.67,-408.61"/>
</g>
<!-- t_sigma_σ₁ -->
<g id="node10" class="node">
<title>t_sigma_σ₁</title>
<ellipse fill="#e6d9e1" stroke="#b07aa1" cx="140.6" cy="-425" rx="11" ry="11"/>
<text text-anchor="middle" x="140.6" y="-423.1" font-family="CMU Serif" font-size="8.00" fill="#333333">σ₁</text>
</g>
<!-- t_enc1_2&#45;&gt;t_sigma_σ₁ -->
<g id="edge16" class="edge">
<title>t_enc1_2&#45;&gt;t_sigma_σ₁</title>
<path fill="none" stroke="#4e79a7" stroke-dasharray="5,2" d="M57.24,-237.09C71.62,-269.52 116.74,-371.21 133.89,-409.88"/>
<polygon fill="#4e79a7" stroke="#4e79a7" points="132.4,-410.83 136.03,-414.69 135.6,-409.41 132.4,-410.83"/>
</g>
<!-- t_mu_μ₂ -->
<g id="node11" class="node">
<title>t_mu_μ₂</title>
<ellipse fill="#e6d9e1" stroke="#b07aa1" cx="54.2" cy="-425" rx="11" ry="11"/>
<text text-anchor="middle" x="54.2" y="-423.1" font-family="CMU Serif" font-size="8.00" fill="#333333">μ₂</text>
</g>
<!-- t_z_z₂ -->
<g id="node12" class="node">
<title>t_z_z₂</title>
<ellipse fill="#d7e8d3" stroke="#59a14f" cx="75.8" cy="-569" rx="11" ry="11"/>
<text text-anchor="middle" x="75.8" y="-567.1" font-family="CMU Serif" font-size="8.00" fill="#333333">z₂</text>
</g>
<!-- t_mu_μ₂&#45;&gt;t_z_z₂ -->
<g id="edge17" class="edge">
<title>t_mu_μ₂&#45;&gt;t_z_z₂</title>
<path fill="none" stroke="#b07aa1" d="M55.89,-436.3C59.7,-461.64 68.91,-523.1 73.34,-552.63"/>
<polygon fill="#b07aa1" stroke="#b07aa1" points="71.64,-553.07 74.11,-557.75 75.1,-552.55 71.64,-553.07"/>
</g>
<!-- t_mu_μ₃ -->
<g id="node13" class="node">
<title>t_mu_μ₃</title>
<ellipse fill="#e6d9e1" stroke="#b07aa1" cx="97.4" cy="-425" rx="11" ry="11"/>
<text text-anchor="middle" x="97.4" y="-423.1" font-family="CMU Serif" font-size="8.00" fill="#333333">μ₃</text>
</g>
<!-- t_sigma_σ₂ -->
<g id="node14" class="node">
<title>t_sigma_σ₂</title>
<ellipse fill="#e6d9e1" stroke="#b07aa1" cx="183.8" cy="-425" rx="11" ry="11"/>
<text text-anchor="middle" x="183.8" y="-423.1" font-family="CMU Serif" font-size="8.00" fill="#333333">σ₂</text>
</g>
<!-- t_sigma_σ₂&#45;&gt;t_z_z₂ -->
<g id="edge18" class="edge">
<title>t_sigma_σ₂&#45;&gt;t_z_z₂</title>
<path fill="none" stroke="#b07aa1" d="M177.04,-434.01C158.63,-458.56 107.51,-526.72 85.78,-555.69"/>
<polygon fill="#b07aa1" stroke="#b07aa1" points="84.15,-554.95 82.55,-560 86.95,-557.05 84.15,-554.95"/>
</g>
<!-- t_sigma_σ₃ -->
<g id="node15" class="node">
<title>t_sigma_σ₃</title>
<ellipse fill="#e6d9e1" stroke="#b07aa1" cx="227" cy="-425" rx="11" ry="11"/>
<text text-anchor="middle" x="227" y="-423.1" font-family="CMU Serif" font-size="8.00" fill="#333333">σ₃</text>
</g>
<!-- t_z_z₁ -->
<g id="node16" class="node">
<title>t_z_z₁</title>
<ellipse fill="#d7e8d3" stroke="#59a14f" cx="32.6" cy="-569" rx="11" ry="11"/>
<text text-anchor="middle" x="32.6" y="-567.1" font-family="CMU Serif" font-size="8.00" fill="#333333">z₁</text>
</g>
<!-- t_z_z₃ -->
<g id="node17" class="node">
<title>t_z_z₃</title>
<ellipse fill="#d7e8d3" stroke="#59a14f" cx="119" cy="-569" rx="11" ry="11"/>
<text text-anchor="middle" x="119" y="-567.1" font-family="CMU Serif" font-size="8.00" fill="#333333">z₃</text>
</g>
<!-- t_dec -->
<g id="node18" class="node">
<title>t_dec</title>
<path fill="grey" stroke="#bab0ac" d="M243.22,-1040.21C243.22,-1040.21 213.22,-1040.21 213.22,-1040.21 207.22,-1040.21 201.22,-1034.21 201.22,-1028.21 201.22,-1028.21 201.22,-1016.21 201.22,-1016.21 201.22,-1010.21 207.22,-1004.21 213.22,-1004.21 213.22,-1004.21 243.22,-1004.21 243.22,-1004.21 249.22,-1004.21 255.22,-1010.21 255.22,-1016.21 255.22,-1016.21 255.22,-1028.21 255.22,-1028.21 255.22,-1034.21 249.22,-1040.21 243.22,-1040.21"/>
<text text-anchor="middle" x="228.22" y="-1020.01" font-family="CMU Serif" font-size="9.00" fill="#333333">zᵀz</text>
</g>
<!-- t_z_z₃&#45;&gt;t_dec -->
<g id="edge19" class="edge">
<title>t_z_z₃&#45;&gt;t_dec</title>
<path fill="none" stroke="#59a14f" d="M121.59,-579.76C135.63,-637.99 202.62,-915.98 222.59,-998.85"/>
<polygon fill="#59a14f" stroke="#59a14f" points="220.96,-999.57 223.83,-1004.02 224.36,-998.75 220.96,-999.57"/>
</g>
<!-- t_recon_0 -->
<g id="node19" class="node">
<title>t_recon_0</title>
<ellipse fill="#dae3ef" stroke="#4e79a7" cx="16.76" cy="-909.56" rx="11" ry="11"/>
</g>
<!-- t_dec&#45;&gt;t_recon_0 -->
<g id="edge20" class="edge">
<title>t_dec&#45;&gt;t_recon_0</title>
<path fill="none" stroke="#bab0ac" stroke-dasharray="5,2" d="M201,-1007.71C155.71,-983.58 66.39,-936 31.35,-917.33"/>
<polygon fill="#bab0ac" stroke="#bab0ac" points="31.82,-915.6 26.59,-914.79 30.18,-918.69 31.82,-915.6"/>
</g>
<!-- t_recon_1 -->
<g id="node20" class="node">
<title>t_recon_1</title>
<ellipse fill="#dae3ef" stroke="#4e79a7" cx="100.28" cy="-901.64" rx="11" ry="11"/>
</g>
<!-- t_recon_0&#45;&gt;t_recon_1 -->
<g id="edge21" class="edge">
<title>t_recon_0&#45;&gt;t_recon_1</title>
<path fill="none" stroke="#4e79a7" stroke-opacity="0.501961" d="M28.02,-908.49C44.05,-906.97 73.26,-904.2 89.19,-902.69"/>
</g>
<!-- t_recon_2 -->
<g id="node21" class="node">
<title>t_recon_2</title>
<ellipse fill="#dae3ef" stroke="#4e79a7" cx="55.64" cy="-875" rx="11" ry="11"/>
</g>
<!-- t_recon_0&#45;&gt;t_recon_2 -->
<g id="edge22" class="edge">
<title>t_recon_0&#45;&gt;t_recon_2</title>
<path fill="none" stroke="#4e79a7" stroke-opacity="0.501961" d="M25.01,-902.23C31.6,-896.37 40.81,-888.18 47.41,-882.32"/>
</g>
<!-- t_recon_3 -->
<g id="node22" class="node">
<title>t_recon_3</title>
<ellipse fill="#dae3ef" stroke="#4e79a7" cx="36.92" cy="-957.08" rx="11" ry="11"/>
</g>
<!-- t_recon_0&#45;&gt;t_recon_3 -->
<g id="edge23" class="edge">
<title>t_recon_0&#45;&gt;t_recon_3</title>
<path fill="none" stroke="#4e79a7" stroke-opacity="0.501961" d="M21.23,-920.11C24.62,-928.09 29.25,-938.99 32.6,-946.89"/>
</g>
<!-- t_recon_4 -->
<g id="node23" class="node">
<title>t_recon_4</title>
<ellipse fill="#dae3ef" stroke="#4e79a7" cx="88.76" cy="-952.04" rx="11" ry="11"/>
</g>
<!-- t_recon_0&#45;&gt;t_recon_4 -->
<g id="edge24" class="edge">
<title>t_recon_0&#45;&gt;t_recon_4</title>
<path fill="none" stroke="#4e79a7" stroke-opacity="0.501961" d="M26.47,-915.29C40.29,-923.44 65.47,-938.3 79.2,-946.4"/>
</g>
<!-- t_recon_1&#45;&gt;t_recon_2 -->
<g id="edge25" class="edge">
<title>t_recon_1&#45;&gt;t_recon_2</title>
<path fill="none" stroke="#4e79a7" stroke-opacity="0.501961" d="M90.81,-895.99C83.24,-891.47 72.67,-885.16 65.09,-880.64"/>
</g>
<!-- t_recon_1&#45;&gt;t_recon_3 -->
<g id="edge26" class="edge">
<title>t_recon_1&#45;&gt;t_recon_3</title>
<path fill="none" stroke="#4e79a7" stroke-opacity="0.501961" d="M92,-908.89C79.92,-919.45 57.6,-938.99 45.41,-949.65"/>
</g>
<!-- t_recon_1&#45;&gt;t_recon_4 -->
<g id="edge27" class="edge">
<title>t_recon_1&#45;&gt;t_recon_4</title>
<path fill="none" stroke="#4e79a7" stroke-opacity="0.501961" d="M97.72,-912.83C95.79,-921.29 93.14,-932.86 91.23,-941.23"/>
</g>
<!-- t_recon_2&#45;&gt;t_recon_3 -->
<g id="edge28" class="edge">
<title>t_recon_2&#45;&gt;t_recon_3</title>
<path fill="none" stroke="#4e79a7" stroke-opacity="0.501961" d="M53.19,-885.73C49.61,-901.46 42.96,-930.61 39.37,-946.35"/>
</g>
<!-- t_recon_2&#45;&gt;t_recon_4 -->
<g id="edge29" class="edge">
<title>t_recon_2&#45;&gt;t_recon_4</title>
<path fill="none" stroke="#4e79a7" stroke-opacity="0.501961" d="M60.11,-885.39C66.46,-900.18 78.05,-927.12 84.36,-941.81"/>
</g>
<!-- t_recon_3&#45;&gt;t_recon_4 -->
<g id="edge30" class="edge">
<title>t_recon_3&#45;&gt;t_recon_4</title>
<path fill="none" stroke="#4e79a7" stroke-opacity="0.501961" d="M47.91,-956.01C56.71,-955.16 68.99,-953.96 77.78,-953.11"/>
</g>
<!-- s_recon_2 -->
<g id="node24" class="node">
<title>s_recon_2</title>
<ellipse fill="#dae3ef" stroke="#4e79a7" cx="628.76" cy="-875" rx="11" ry="11"/>
</g>
<!-- t_recon_4&#45;&gt;s_recon_2 -->
<g id="edge31" class="edge">
<title>t_recon_4&#45;&gt;s_recon_2</title>
<path fill="none" stroke="#e15759" stroke-width="2" stroke-dasharray="5,2" d="M100.04,-950.43C168.67,-940.64 529.94,-889.1 612.12,-877.37"/>
<polygon fill="#e15759" stroke="#e15759" stroke-width="2" points="612.84,-879.04 617.54,-876.6 612.35,-875.57 612.84,-879.04"/>
<text text-anchor="middle" x="351.58" y="-916.1" font-family="CMU Serif" font-size="6.00" fill="grey">KD</text>
</g>
<!-- s_enc0_0 -->
<g id="node25" class="node">
<title>s_enc0_0</title>
<ellipse fill="#dae3ef" stroke="#4e79a7" cx="592.76" cy="-72.92" rx="11" ry="11"/>
</g>
<!-- s_enc0_1 -->
<g id="node26" class="node">
<title>s_enc0_1</title>
<ellipse fill="#dae3ef" stroke="#4e79a7" cx="664.76" cy="-73.64" rx="11" ry="11"/>
</g>
<!-- s_enc0_0&#45;&gt;s_enc0_1 -->
<g id="edge32" class="edge">
<title>s_enc0_0&#45;&gt;s_enc0_1</title>
<path fill="none" stroke="#4e79a7" stroke-opacity="0.501961" d="M604.01,-73.03C617.46,-73.17 639.83,-73.39 653.35,-73.53"/>
</g>
<!-- s_enc0_2 -->
<g id="node27" class="node">
<title>s_enc0_2</title>
<ellipse fill="#dae3ef" stroke="#4e79a7" cx="628.76" cy="-11" rx="11" ry="11"/>
</g>
<!-- s_enc0_0&#45;&gt;s_enc0_2 -->
<g id="edge33" class="edge">
<title>s_enc0_0&#45;&gt;s_enc0_2</title>
<path fill="none" stroke="#4e79a7" stroke-opacity="0.501961" d="M598.38,-63.24C605.11,-51.68 616.3,-32.44 623.06,-20.81"/>
</g>
<!-- s_enc0_1&#45;&gt;s_enc0_2 -->
<g id="edge34" class="edge">
<title>s_enc0_1&#45;&gt;s_enc0_2</title>
<path fill="none" stroke="#4e79a7" stroke-opacity="0.501961" d="M659.13,-63.85C652.41,-52.15 641.22,-32.69 634.46,-20.93"/>
</g>
<!-- s_enc1_0 -->
<g id="node28" class="node">
<title>s_enc1_0</title>
<ellipse fill="#dae3ef" stroke="#4e79a7" cx="607.16" cy="-245" rx="11" ry="11"/>
</g>
<!-- s_enc0_2&#45;&gt;s_enc1_0 -->
<g id="edge35" class="edge">
<title>s_enc0_2&#45;&gt;s_enc1_0</title>
<path fill="none" stroke="#4e79a7" stroke-dasharray="5,2" d="M627.75,-21.97C624.27,-59.66 612.8,-183.92 608.66,-228.72"/>
<polygon fill="#4e79a7" stroke="#4e79a7" points="606.91,-228.64 608.2,-233.78 610.4,-228.96 606.91,-228.64"/>
</g>
<!-- s_enc1_1 -->
<g id="node29" class="node">
<title>s_enc1_1</title>
<ellipse fill="#dae3ef" stroke="#4e79a7" cx="650.36" cy="-245" rx="11" ry="11"/>
</g>
<!-- s_enc1_0&#45;&gt;s_enc1_1 -->
<g id="edge36" class="edge">
<title>s_enc1_0&#45;&gt;s_enc1_1</title>
<path fill="none" stroke="#4e79a7" stroke-opacity="0.501961" d="M618.51,-245C624.91,-245 632.87,-245 639.23,-245"/>
</g>
<!-- s_mu_μ₁ -->
<g id="node30" class="node">
<title>s_mu_μ₁</title>
<ellipse fill="#e6d9e1" stroke="#b07aa1" cx="587" cy="-425" rx="11" ry="11"/>
<text text-anchor="middle" x="587" y="-423.1" font-family="CMU Serif" font-size="8.00" fill="#333333">μ₁</text>
</g>
<!-- s_enc1_1&#45;&gt;s_mu_μ₁ -->
<g id="edge37" class="edge">
<title>s_enc1_1&#45;&gt;s_mu_μ₁</title>
<path fill="none" stroke="#4e79a7" stroke-dasharray="5,2" d="M646.68,-255.46C636.01,-285.78 605,-373.86 592.41,-409.63"/>
<polygon fill="#4e79a7" stroke="#4e79a7" points="590.7,-409.22 590.69,-414.52 594,-410.38 590.7,-409.22"/>
</g>
<!-- s_sigma_σ₁ -->
<g id="node31" class="node">
<title>s_sigma_σ₁</title>
<ellipse fill="#e6d9e1" stroke="#b07aa1" cx="673.4" cy="-425" rx="11" ry="11"/>
<text text-anchor="middle" x="673.4" y="-423.1" font-family="CMU Serif" font-size="8.00" fill="#333333">σ₁</text>
</g>
<!-- s_enc1_1&#45;&gt;s_sigma_σ₁ -->
<g id="edge38" class="edge">
<title>s_enc1_1&#45;&gt;s_sigma_σ₁</title>
<path fill="none" stroke="#4e79a7" stroke-dasharray="5,2" d="M651.77,-255.99C655.66,-286.42 666.61,-371.93 671.26,-408.3"/>
<polygon fill="#4e79a7" stroke="#4e79a7" points="669.58,-408.96 671.95,-413.7 673.05,-408.51 669.58,-408.96"/>
</g>
<!-- s_z_z₁ -->
<g id="node32" class="node">
<title>s_z_z₁</title>
<ellipse fill="#d7e8d3" stroke="#59a14f" cx="623" cy="-569" rx="11" ry="11"/>
<text text-anchor="middle" x="623" y="-567.1" font-family="CMU Serif" font-size="8.00" fill="#333333">z₁</text>
</g>
<!-- s_mu_μ₁&#45;&gt;s_z_z₁ -->
<g id="edge39" class="edge">
<title>s_mu_μ₁&#45;&gt;s_z_z₁</title>
<path fill="none" stroke="#b07aa1" d="M589.71,-435.82C595.99,-460.95 611.58,-523.32 618.98,-552.92"/>
<polygon fill="#b07aa1" stroke="#b07aa1" points="617.35,-553.62 620.26,-558.05 620.75,-552.78 617.35,-553.62"/>
</g>
<!-- s_sigma_σ₁&#45;&gt;s_z_z₁ -->
<g id="edge40" class="edge">
<title>s_sigma_σ₁&#45;&gt;s_z_z₁</title>
<path fill="none" stroke="#b07aa1" d="M669.61,-435.82C660.74,-461.17 638.59,-524.46 628.35,-553.72"/>
<polygon fill="#b07aa1" stroke="#b07aa1" points="626.7,-553.14 626.7,-558.44 630,-554.3 626.7,-553.14"/>
</g>
<!-- s_mu_μ₂ -->
<g id="node33" class="node">
<title>s_mu_μ₂</title>
<ellipse fill="#e6d9e1" stroke="#b07aa1" cx="630.2" cy="-425" rx="11" ry="11"/>
<text text-anchor="middle" x="630.2" y="-423.1" font-family="CMU Serif" font-size="8.00" fill="#333333">μ₂</text>
</g>
<!-- s_sigma_σ₂ -->
<g id="node34" class="node">
<title>s_sigma_σ₂</title>
<ellipse fill="#e6d9e1" stroke="#b07aa1" cx="716.6" cy="-425" rx="11" ry="11"/>
<text text-anchor="middle" x="716.6" y="-423.1" font-family="CMU Serif" font-size="8.00" fill="#333333">σ₂</text>
</g>
<!-- s_z_z₂ -->
<g id="node35" class="node">
<title>s_z_z₂</title>
<ellipse fill="#d7e8d3" stroke="#59a14f" cx="666.2" cy="-569" rx="11" ry="11"/>
<text text-anchor="middle" x="666.2" y="-567.1" font-family="CMU Serif" font-size="8.00" fill="#333333">z₂</text>
</g>
<!-- s_dec -->
<g id="node36" class="node">
<title>s_dec</title>
<path fill="grey" stroke="#bab0ac" d="M389.02,-1025.89C389.02,-1025.89 359.02,-1025.89 359.02,-1025.89 353.02,-1025.89 347.02,-1019.89 347.02,-1013.89 347.02,-1013.89 347.02,-1001.89 347.02,-1001.89 347.02,-995.89 353.02,-989.89 359.02,-989.89 359.02,-989.89 389.02,-989.89 389.02,-989.89 395.02,-989.89 401.02,-995.89 401.02,-1001.89 401.02,-1001.89 401.02,-1013.89 401.02,-1013.89 401.02,-1019.89 395.02,-1025.89 389.02,-1025.89"/>
<text text-anchor="middle" x="374.02" y="-1005.69" font-family="CMU Serif" font-size="9.00" fill="#333333">zᵀz</text>
</g>
<!-- s_z_z₂&#45;&gt;s_dec -->
<g id="edge41" class="edge">
<title>s_z_z₂&#45;&gt;s_dec</title>
<path fill="none" stroke="#59a14f" d="M660.1,-578.17C624.46,-631.69 443.01,-904.26 389.12,-985.2"/>
<polygon fill="#59a14f" stroke="#59a14f" points="387.37,-984.67 386.06,-989.81 390.28,-986.61 387.37,-984.67"/>
</g>
<!-- s_recon_0 -->
<g id="node37" class="node">
<title>s_recon_0</title>
<ellipse fill="#dae3ef" stroke="#4e79a7" cx="592.76" cy="-936.92" rx="11" ry="11"/>
</g>
<!-- s_dec&#45;&gt;s_recon_0 -->
<g id="edge42" class="edge">
<title>s_dec&#45;&gt;s_recon_0</title>
<path fill="none" stroke="#bab0ac" stroke-dasharray="5,2" d="M401.28,-999.05C447.56,-984.03 540.08,-954.01 577.01,-942.03"/>
<polygon fill="#bab0ac" stroke="#bab0ac" points="577.82,-943.61 582.04,-940.4 576.74,-940.28 577.82,-943.61"/>
</g>
<!-- s_recon_0&#45;&gt;s_recon_2 -->
<g id="edge44" class="edge">
<title>s_recon_0&#45;&gt;s_recon_2</title>
<path fill="none" stroke="#4e79a7" stroke-opacity="0.501961" d="M598.38,-927.24C605.11,-915.68 616.3,-896.44 623.06,-884.81"/>
</g>
<!-- s_recon_1 -->
<g id="node38" class="node">
<title>s_recon_1</title>
<ellipse fill="#dae3ef" stroke="#4e79a7" cx="664.76" cy="-937.64" rx="11" ry="11"/>
</g>
<!-- s_recon_0&#45;&gt;s_recon_1 -->
<g id="edge43" class="edge">
<title>s_recon_0&#45;&gt;s_recon_1</title>
<path fill="none" stroke="#4e79a7" stroke-opacity="0.501961" d="M604.01,-937.03C617.46,-937.17 639.83,-937.39 653.35,-937.53"/>
</g>
<!-- s_recon_1&#45;&gt;s_recon_2 -->
<g id="edge45" class="edge">
<title>s_recon_1&#45;&gt;s_recon_2</title>
<path fill="none" stroke="#4e79a7" stroke-opacity="0.501961" d="M659.13,-927.85C652.41,-916.15 641.22,-896.69 634.46,-884.93"/>
</g>
</g>
</svg>
