<?xml version="1.0" encoding="UTF-8" standalone="no"?>
<!DOCTYPE svg PUBLIC "-//W3C//DTD SVG 1.1//EN"
 "http://www.w3.org/Graphics/SVG/1.1/DTD/svg11.dtd">
<!-- Generated by graphviz version 2.44.0 (0)
 -->
<!-- Pages: 1 -->
<svg width="967pt" height="853pt"
 viewBox="14.40 14.40 952.52 838.40" xmlns="http://www.w3.org/2000/svg" xmlns:xlink="http://www.w3.org/1999/xlink">
<g id="graph0" class="graph" transform="scale(1 1) rotate(0) translate(18.4 834.4)">
<g id="clust1" class="cluster">
<title>cluster_student</title>
</g>
<g id="clust7" class="cluster">
<title>cluster_teacher</title>
</g>
<!-- student_e0_0 -->
<g id="node1" class="node">
<title>student_e0_0</title>
<ellipse fill="#dae3ef" stroke="#4e79a7" cx="184.12" cy="-499" rx="11" ry="11"/>
</g>
<!-- student_e0_1 -->
<g id="node2" class="node">
<title>student_e0_1</title>
<ellipse fill="#dae3ef" stroke="#4e79a7" cx="184.12" cy="-579" rx="11" ry="11"/>
</g>
<!-- student_e0_0&#45;&gt;student_e0_1 -->
<g id="edge1" class="edge">
<title>student_e0_0&#45;&gt;student_e0_1</title>
<path fill="none" stroke="#4e79a7" stroke-width="0.6" stroke-opacity="0.501961" d="M184.12,-510.25C184.12,-529.5 184.12,-548.74 184.12,-567.99"/>
</g>
<!-- student_e0_2 -->
<g id="node3" class="node">
<title>student_e0_2</title>
<ellipse fill="#dae3ef" stroke="#4e79a7" cx="184.12" cy="-659" rx="11" ry="11"/>
</g>
<!-- student_e0_0&#45;&gt;student_e0_2 -->
<g id="edge2" class="edge">
<title>student_e0_0&#45;&gt;student_e0_2</title>
<path fill="none" stroke="#4e79a7" stroke-width="0.6" stroke-opacity="0.501961" d="M174.66,-505.32C159.42,-516.14 130,-539.84 118.62,-568.5 104.24,-604.73 152.82,-639.86 174.36,-653.28"/>
</g>
<!-- student_e0_1&#45;&gt;student_e0_2 -->
<g id="edge3" class="edge">
<title>student_e0_1&#45;&gt;student_e0_2</title>
<path fill="none" stroke="#4e79a7" stroke-width="0.6" stroke-opacity="0.501961" d="M184.12,-590.25C184.12,-609.5 184.12,-628.74 184.12,-647.99"/>
</g>
<!-- student_e1_0 -->
<g id="node4" class="node">
<title>student_e1_0</title>
<ellipse fill="#dae3ef" stroke="#4e79a7" cx="315.12" cy="-637" rx="11" ry="11"/>
</g>
<!-- student_e0_2&#45;&gt;student_e1_0 -->
<g id="edge4" class="edge">
<title>student_e0_2&#45;&gt;student_e1_0</title>
<path fill="none" stroke="grey" stroke-dasharray="5,2" d="M195.25,-657.27C217.76,-653.43 272.09,-644.17 298.79,-639.61"/>
<polygon fill="grey" stroke="grey" points="299.41,-641.28 304.05,-638.72 298.83,-637.83 299.41,-641.28"/>
</g>
<!-- student_e1_1 -->
<g id="node5" class="node">
<title>student_e1_1</title>
<ellipse fill="#dae3ef" stroke="#4e79a7" cx="315.12" cy="-717" rx="11" ry="11"/>
</g>
<!-- student_e1_0&#45;&gt;student_e1_1 -->
<g id="edge5" class="edge">
<title>student_e1_0&#45;&gt;student_e1_1</title>
<path fill="none" stroke="#4e79a7" stroke-width="0.6" stroke-opacity="0.501961" d="M315.12,-648.25C315.12,-667.5 315.12,-686.74 315.12,-705.99"/>
</g>
<!-- student_mu_0 -->
<g id="node6" class="node">
<title>student_mu_0</title>
<ellipse fill="#e6d9e1" stroke="#b07aa1" cx="446.12" cy="-499" rx="11" ry="11"/>
<text text-anchor="middle" x="446.12" y="-497.4" font-family="CMU Serif" font-size="7.00" fill="#333333">μ₁</text>
</g>
<!-- student_e1_1&#45;&gt;student_mu_0 -->
<g id="edge6" class="edge">
<title>student_e1_1&#45;&gt;student_mu_0</title>
<path fill="none" stroke="grey" stroke-dasharray="5,2" d="M321.5,-707.91C341.66,-673.84 412.83,-553.57 437.01,-512.71"/>
<polygon fill="grey" stroke="grey" points="438.68,-513.32 439.72,-508.13 435.67,-511.54 438.68,-513.32"/>
</g>
<!-- student_si_0 -->
<g id="node8" class="node">
<title>student_si_0</title>
<ellipse fill="#e6d9e1" stroke="#b07aa1" cx="446.12" cy="-717" rx="11" ry="11"/>
<text text-anchor="middle" x="446.12" y="-715.4" font-family="CMU Serif" font-size="7.00" fill="#333333">σ₁</text>
</g>
<!-- student_e1_1&#45;&gt;student_si_0 -->
<g id="edge7" class="edge">
<title>student_e1_1&#45;&gt;student_si_0</title>
<path fill="none" stroke="grey" stroke-dasharray="5,2" d="M326.25,-717C348.76,-717 403.09,-717 429.79,-717"/>
<polygon fill="grey" stroke="grey" points="430.05,-718.75 435.05,-717 430.05,-715.25 430.05,-718.75"/>
</g>
<!-- student_mu_1 -->
<g id="node7" class="node">
<title>student_mu_1</title>
<ellipse fill="#e6d9e1" stroke="#b07aa1" cx="446.12" cy="-579" rx="11" ry="11"/>
<text text-anchor="middle" x="446.12" y="-577.4" font-family="CMU Serif" font-size="7.00" fill="#333333">μ₂</text>
</g>
<!-- student_mu_0&#45;&gt;student_mu_1 -->
<!-- student_mu_1&#45;&gt;student_si_0 -->
<!-- student_z_1 -->
<g id="node11" class="node">
<title>student_z_1</title>
<ellipse fill="#d7e8d3" stroke="#59a14f" cx="593.12" cy="-579" rx="11" ry="11"/>
<text text-anchor="middle" x="593.12" y="-577.4" font-family="CMU Serif" font-size="7.00" fill="#333333">z₂</text>
</g>
<!-- student_mu_1&#45;&gt;student_z_1 -->
<g id="edge10" class="edge">
<title>student_mu_1&#45;&gt;student_z_1</title>
<path fill="none" stroke="grey" d="M457.55,-579C482.74,-579 546.99,-579 576.67,-579"/>
<polygon fill="grey" stroke="grey" points="576.79,-580.75 581.79,-579 576.79,-577.25 576.79,-580.75"/>
</g>
<!-- student_si_1 -->
<g id="node9" class="node">
<title>student_si_1</title>
<ellipse fill="#e6d9e1" stroke="#b07aa1" cx="446.12" cy="-797" rx="11" ry="11"/>
<text text-anchor="middle" x="446.12" y="-795.4" font-family="CMU Serif" font-size="7.00" fill="#333333">σ₂</text>
</g>
<!-- student_si_0&#45;&gt;student_si_1 -->
<!-- student_si_1&#45;&gt;student_z_1 -->
<g id="edge12" class="edge">
<title>student_si_1&#45;&gt;student_z_1</title>
<path fill="none" stroke="grey" d="M452.99,-788.18C475.49,-754.35 556.41,-632.7 583.34,-592.21"/>
<polygon fill="grey" stroke="grey" points="585.03,-592.82 586.35,-587.69 582.12,-590.88 585.03,-592.82"/>
</g>
<!-- student_z_0 -->
<g id="node10" class="node">
<title>student_z_0</title>
<ellipse fill="#d7e8d3" stroke="#59a14f" cx="593.12" cy="-514" rx="11" ry="11"/>
<text text-anchor="middle" x="593.12" y="-512.4" font-family="CMU Serif" font-size="7.00" fill="#333333">z₁</text>
</g>
<!-- student_dec -->
<g id="node15" class="node">
<title>student_dec</title>
<path fill="#eeeeee" stroke="grey" d="M771.12,-597C771.12,-597 741.12,-597 741.12,-597 735.12,-597 729.12,-591 729.12,-585 729.12,-585 729.12,-573 729.12,-573 729.12,-567 735.12,-561 741.12,-561 741.12,-561 771.12,-561 771.12,-561 777.12,-561 783.12,-567 783.12,-573 783.12,-573 783.12,-585 783.12,-585 783.12,-591 777.12,-597 771.12,-597"/>
<text text-anchor="middle" x="756.12" y="-577.1" font-family="CMU Serif" font-size="8.00" fill="#333333">zᵀz</text>
</g>
<!-- student_z_1&#45;&gt;student_dec -->
<g id="edge13" class="edge">
<title>student_z_1&#45;&gt;student_dec</title>
<path fill="none" stroke="grey" d="M604.2,-579C627.69,-579 686.9,-579 723.79,-579"/>
<polygon fill="grey" stroke="grey" points="724.06,-580.75 729.06,-579 724.06,-577.25 724.06,-580.75"/>
</g>
<!-- student_ro_0 -->
<g id="node12" class="node">
<title>student_ro_0</title>
<ellipse fill="#dae3ef" stroke="#4e79a7" cx="911.12" cy="-579" rx="11" ry="11"/>
</g>
<!-- student_ro_1 -->
<g id="node13" class="node">
<title>student_ro_1</title>
<ellipse fill="#dae3ef" stroke="#4e79a7" cx="911.12" cy="-659" rx="11" ry="11"/>
</g>
<!-- student_ro_0&#45;&gt;student_ro_1 -->
<g id="edge15" class="edge">
<title>student_ro_0&#45;&gt;student_ro_1</title>
<path fill="none" stroke="#4e79a7" stroke-width="0.6" stroke-opacity="0.501961" d="M911.12,-590.25C911.12,-609.5 911.12,-628.74 911.12,-647.99"/>
</g>
<!-- student_ro_2 -->
<g id="node14" class="node">
<title>student_ro_2</title>
<ellipse fill="#dae3ef" stroke="#4e79a7" cx="911.12" cy="-499" rx="11" ry="11"/>
</g>
<!-- student_ro_0&#45;&gt;student_ro_2 -->
<g id="edge16" class="edge">
<title>student_ro_0&#45;&gt;student_ro_2</title>
<path fill="none" stroke="#4e79a7" stroke-width="0.6" stroke-opacity="0.501961" d="M911.12,-567.99C911.12,-548.74 911.12,-529.5 911.12,-510.25"/>
</g>
<!-- student_ro_1&#45;&gt;student_ro_2 -->
<g id="edge17" class="edge">
<title>student_ro_1&#45;&gt;student_ro_2</title>
<path fill="none" stroke="#4e79a7" stroke-width="0.6" stroke-opacity="0.501961" d="M901.44,-653.75C878.95,-640.79 826.23,-605.65 841.62,-568.5 853.9,-538.86 885.63,-515.27 901.62,-504.83"/>
</g>
<!-- student_dec&#45;&gt;student_ro_0 -->
<g id="edge14" class="edge">
<title>student_dec&#45;&gt;student_ro_0</title>
<path fill="none" stroke="grey" stroke-dasharray="5,2" d="M783.43,-579C815.49,-579 868.63,-579 894.71,-579"/>
<polygon fill="grey" stroke="grey" points="894.85,-580.75 899.85,-579 894.85,-577.25 894.85,-580.75"/>
</g>
<!-- teacher_e0_0 -->
<g id="node16" class="node">
<title>teacher_e0_0</title>
<ellipse fill="#dae3ef" stroke="#4e79a7" cx="53.12" cy="-19" rx="11" ry="11"/>
</g>
<!-- teacher_e0_1 -->
<g id="node17" class="node">
<title>teacher_e0_1</title>
<ellipse fill="#dae3ef" stroke="#4e79a7" cx="53.12" cy="-99" rx="11" ry="11"/>
</g>
<!-- teacher_e0_0&#45;&gt;teacher_e0_1 -->
<g id="edge18" class="edge">
<title>teacher_e0_0&#45;&gt;teacher_e0_1</title>
<path fill="none" stroke="#4e79a7" stroke-width="0.6" stroke-opacity="0.501961" d="M53.12,-30.25C53.12,-49.5 53.12,-68.74 53.12,-87.99"/>
</g>
<!-- teacher_e0_2 -->
<g id="node18" class="node">
<title>teacher_e0_2</title>
<ellipse fill="#dae3ef" stroke="#4e79a7" cx="53.12" cy="-179" rx="11" ry="11"/>
</g>
<!-- teacher_e0_0&#45;&gt;teacher_e0_2 -->
<g id="edge19" class="edge">
<title>teacher_e0_0&#45;&gt;teacher_e0_2</title>
<path fill="none" stroke="#4e79a7" stroke-width="0.6" stroke-opacity="0.501961" d="M46.07,-28.1C36.83,-40.64 21.12,-64.33 15.12,-87.5 6.85,-119.47 32.36,-154.95 45.64,-170.7"/>
</g>
<!-- teacher_e0_3 -->
<g id="node19" class="node">
<title>teacher_e0_3</title>
<ellipse fill="#dae3ef" stroke="#4e79a7" cx="53.12" cy="-259" rx="11" ry="11"/>
</g>
<!-- teacher_e0_0&#45;&gt;teacher_e0_3 -->
<g id="edge20" class="edge">
<title>teacher_e0_0&#45;&gt;teacher_e0_3</title>
<path fill="none" stroke="#4e79a7" stroke-width="0.6" stroke-opacity="0.501961" d="M46.07,-28.1C36.83,-40.64 21.12,-64.33 15.12,-87.5 3.77,-131.39 3.9,-145.58 15.12,-189.5 21.18,-213.22 37.19,-237.55 46.38,-250.18"/>
</g>
<!-- teacher_e0_4 -->
<g id="node20" class="node">
<title>teacher_e0_4</title>
<ellipse fill="#dae3ef" stroke="#4e79a7" cx="53.12" cy="-339" rx="11" ry="11"/>
</g>
<!-- teacher_e0_0&#45;&gt;teacher_e0_4 -->
<g id="edge21" class="edge">
<title>teacher_e0_0&#45;&gt;teacher_e0_4</title>
<path fill="none" stroke="#4e79a7" stroke-width="0.6" stroke-opacity="0.501961" d="M46.07,-28.1C36.83,-40.64 21.12,-64.33 15.12,-87.5 -5.14,-165.81 -4.9,-191.13 15.12,-269.5 21.18,-293.22 37.19,-317.55 46.38,-330.18"/>
</g>
<!-- teacher_e0_1&#45;&gt;teacher_e0_2 -->
<g id="edge22" class="edge">
<title>teacher_e0_1&#45;&gt;teacher_e0_2</title>
<path fill="none" stroke="#4e79a7" stroke-width="0.6" stroke-opacity="0.501961" d="M53.12,-110.25C53.12,-129.5 53.12,-148.74 53.12,-167.99"/>
</g>
<!-- teacher_e0_1&#45;&gt;teacher_e0_3 -->
<g id="edge23" class="edge">
<title>teacher_e0_1&#45;&gt;teacher_e0_3</title>
<path fill="none" stroke="#4e79a7" stroke-width="0.6" stroke-opacity="0.501961" d="M46.07,-108.1C36.83,-120.64 21.12,-144.33 15.12,-167.5 6.85,-199.47 32.36,-234.95 45.64,-250.7"/>
</g>
<!-- teacher_e0_1&#45;&gt;teacher_e0_4 -->
<g id="edge24" class="edge">
<title>teacher_e0_1&#45;&gt;teacher_e0_4</title>
<path fill="none" stroke="#4e79a7" stroke-width="0.6" stroke-opacity="0.501961" d="M46.07,-108.1C36.83,-120.64 21.12,-144.33 15.12,-167.5 3.77,-211.39 3.9,-225.58 15.12,-269.5 21.18,-293.22 37.19,-317.55 46.38,-330.18"/>
</g>
<!-- teacher_e0_2&#45;&gt;teacher_e0_3 -->
<g id="edge25" class="edge">
<title>teacher_e0_2&#45;&gt;teacher_e0_3</title>
<path fill="none" stroke="#4e79a7" stroke-width="0.6" stroke-opacity="0.501961" d="M53.12,-190.25C53.12,-209.5 53.12,-228.74 53.12,-247.99"/>
</g>
<!-- teacher_e0_2&#45;&gt;teacher_e0_4 -->
<g id="edge26" class="edge">
<title>teacher_e0_2&#45;&gt;teacher_e0_4</title>
<path fill="none" stroke="#4e79a7" stroke-width="0.6" stroke-opacity="0.501961" d="M46.07,-188.1C36.83,-200.64 21.12,-224.33 15.12,-247.5 6.85,-279.47 32.36,-314.95 45.64,-330.7"/>
</g>
<!-- teacher_e0_3&#45;&gt;teacher_e0_4 -->
<g id="edge27" class="edge">
<title>teacher_e0_3&#45;&gt;teacher_e0_4</title>
<path fill="none" stroke="#4e79a7" stroke-width="0.6" stroke-opacity="0.501961" d="M53.12,-270.25C53.12,-289.5 53.12,-308.74 53.12,-327.99"/>
</g>
<!-- teacher_e1_0 -->
<g id="node32" class="node">
<title>teacher_e1_0</title>
<ellipse fill="#dae3ef" stroke="#4e79a7" cx="184.12" cy="-157" rx="11" ry="11"/>
</g>
<!-- teacher_e0_4&#45;&gt;teacher_e1_0 -->
<g id="edge28" class="edge">
<title>teacher_e0_4&#45;&gt;teacher_e1_0</title>
<path fill="none" stroke="grey" stroke-dasharray="5,2" d="M60.35,-330.22C81.25,-300.73 149.04,-205.09 173.89,-170.03"/>
<polygon fill="grey" stroke="grey" points="175.5,-170.78 176.97,-165.69 172.65,-168.76 175.5,-170.78"/>
</g>
<!-- teacher_mu_0 -->
<g id="node21" class="node">
<title>teacher_mu_0</title>
<ellipse fill="#e6d9e1" stroke="#b07aa1" cx="315.12" cy="-19" rx="11" ry="11"/>
<text text-anchor="middle" x="315.12" y="-17.4" font-family="CMU Serif" font-size="7.00" fill="#333333">μ₁</text>
</g>
<!-- teacher_mu_1 -->
<g id="node22" class="node">
<title>teacher_mu_1</title>
<ellipse fill="#e6d9e1" stroke="#b07aa1" cx="315.12" cy="-99" rx="11" ry="11"/>
<text text-anchor="middle" x="315.12" y="-97.4" font-family="CMU Serif" font-size="7.00" fill="#333333">μ₂</text>
</g>
<!-- teacher_mu_0&#45;&gt;teacher_mu_1 -->
<!-- teacher_mu_2 -->
<g id="node23" class="node">
<title>teacher_mu_2</title>
<ellipse fill="#e6d9e1" stroke="#b07aa1" cx="315.12" cy="-179" rx="11" ry="11"/>
<text text-anchor="middle" x="315.12" y="-177.4" font-family="CMU Serif" font-size="7.00" fill="#333333">μ₃</text>
</g>
<!-- teacher_mu_1&#45;&gt;teacher_mu_2 -->
<!-- teacher_z_1 -->
<g id="node36" class="node">
<title>teacher_z_1</title>
<ellipse fill="#d7e8d3" stroke="#59a14f" cx="446.12" cy="-362" rx="11" ry="11"/>
<text text-anchor="middle" x="446.12" y="-360.4" font-family="CMU Serif" font-size="7.00" fill="#333333">z₂</text>
</g>
<!-- teacher_mu_1&#45;&gt;teacher_z_1 -->
<g id="edge36" class="edge">
<title>teacher_mu_1&#45;&gt;teacher_z_1</title>
<path fill="none" stroke="grey" d="M320.87,-108.67C340.43,-148.55 414.88,-300.34 438.14,-347.76"/>
<polygon fill="grey" stroke="grey" points="436.7,-348.8 440.47,-352.52 439.84,-347.26 436.7,-348.8"/>
</g>
<!-- teacher_si_0 -->
<g id="node24" class="node">
<title>teacher_si_0</title>
<ellipse fill="#e6d9e1" stroke="#b07aa1" cx="315.12" cy="-317" rx="11" ry="11"/>
<text text-anchor="middle" x="315.12" y="-315.4" font-family="CMU Serif" font-size="7.00" fill="#333333">σ₁</text>
</g>
<!-- teacher_mu_2&#45;&gt;teacher_si_0 -->
<!-- teacher_si_1 -->
<g id="node25" class="node">
<title>teacher_si_1</title>
<ellipse fill="#e6d9e1" stroke="#b07aa1" cx="315.12" cy="-397" rx="11" ry="11"/>
<text text-anchor="middle" x="315.12" y="-395.4" font-family="CMU Serif" font-size="7.00" fill="#333333">σ₂</text>
</g>
<!-- teacher_si_0&#45;&gt;teacher_si_1 -->
<!-- teacher_si_2 -->
<g id="node26" class="node">
<title>teacher_si_2</title>
<ellipse fill="#e6d9e1" stroke="#b07aa1" cx="315.12" cy="-477" rx="11" ry="11"/>
<text text-anchor="middle" x="315.12" y="-475.4" font-family="CMU Serif" font-size="7.00" fill="#333333">σ₃</text>
</g>
<!-- teacher_si_1&#45;&gt;teacher_si_2 -->
<!-- teacher_si_1&#45;&gt;teacher_z_1 -->
<g id="edge40" class="edge">
<title>teacher_si_1&#45;&gt;teacher_z_1</title>
<path fill="none" stroke="grey" d="M325.82,-394.37C348.23,-388.29 403.74,-373.23 430.39,-366"/>
<polygon fill="grey" stroke="grey" points="430.95,-367.66 435.32,-364.66 430.03,-364.28 430.95,-367.66"/>
</g>
<!-- teacher_ro_0 -->
<g id="node27" class="node">
<title>teacher_ro_0</title>
<ellipse fill="#dae3ef" stroke="#4e79a7" cx="756.12" cy="-157" rx="11" ry="11"/>
</g>
<!-- teacher_ro_1 -->
<g id="node28" class="node">
<title>teacher_ro_1</title>
<ellipse fill="#dae3ef" stroke="#4e79a7" cx="756.12" cy="-237" rx="11" ry="11"/>
</g>
<!-- teacher_ro_0&#45;&gt;teacher_ro_1 -->
<g id="edge43" class="edge">
<title>teacher_ro_0&#45;&gt;teacher_ro_1</title>
<path fill="none" stroke="#4e79a7" stroke-width="0.6" stroke-opacity="0.501961" d="M756.12,-168.25C756.12,-187.5 756.12,-206.74 756.12,-225.99"/>
</g>
<!-- teacher_ro_2 -->
<g id="node29" class="node">
<title>teacher_ro_2</title>
<ellipse fill="#dae3ef" stroke="#4e79a7" cx="756.12" cy="-317" rx="11" ry="11"/>
</g>
<!-- teacher_ro_0&#45;&gt;teacher_ro_2 -->
<g id="edge44" class="edge">
<title>teacher_ro_0&#45;&gt;teacher_ro_2</title>
<path fill="none" stroke="#4e79a7" stroke-width="0.6" stroke-opacity="0.501961" d="M745.92,-161.48C720.27,-173.45 656.37,-207.95 674.62,-247.5 689.58,-279.92 727.95,-302.8 746.2,-312.22"/>
</g>
<!-- teacher_ro_3 -->
<g id="node30" class="node">
<title>teacher_ro_3</title>
<ellipse fill="#dae3ef" stroke="#4e79a7" cx="756.12" cy="-397" rx="11" ry="11"/>
</g>
<!-- teacher_ro_0&#45;&gt;teacher_ro_3 -->
<g id="edge45" class="edge">
<title>teacher_ro_0&#45;&gt;teacher_ro_3</title>
<path fill="none" stroke="#4e79a7" stroke-width="0.6" stroke-opacity="0.501961" d="M745.91,-161.82C727.56,-171.12 689.53,-193.5 674.62,-225.5 655.29,-267 655.29,-287 674.62,-328.5 689.53,-360.5 727.56,-382.88 745.91,-392.18"/>
</g>
<!-- teacher_ro_4 -->
<g id="node31" class="node">
<title>teacher_ro_4</title>
<ellipse fill="#dae3ef" stroke="#4e79a7" cx="756.12" cy="-477" rx="11" ry="11"/>
</g>
<!-- teacher_ro_0&#45;&gt;teacher_ro_4 -->
<g id="edge46" class="edge">
<title>teacher_ro_0&#45;&gt;teacher_ro_4</title>
<path fill="none" stroke="#4e79a7" stroke-width="0.6" stroke-opacity="0.501961" d="M745.91,-161.82C727.56,-171.12 689.53,-193.5 674.62,-225.5 640.28,-299.23 640.28,-334.77 674.62,-408.5 689.53,-440.5 727.56,-462.88 745.91,-472.18"/>
</g>
<!-- teacher_ro_1&#45;&gt;teacher_ro_2 -->
<g id="edge47" class="edge">
<title>teacher_ro_1&#45;&gt;teacher_ro_2</title>
<path fill="none" stroke="#4e79a7" stroke-width="0.6" stroke-opacity="0.501961" d="M756.12,-248.25C756.12,-267.5 756.12,-286.74 756.12,-305.99"/>
</g>
<!-- teacher_ro_1&#45;&gt;teacher_ro_3 -->
<g id="edge48" class="edge">
<title>teacher_ro_1&#45;&gt;teacher_ro_3</title>
<path fill="none" stroke="#4e79a7" stroke-width="0.6" stroke-opacity="0.501961" d="M745.91,-241.82C727.56,-251.12 689.53,-273.5 674.62,-305.5 656.12,-345.22 720.17,-380.27 745.89,-392.44"/>
</g>
<!-- teacher_ro_1&#45;&gt;teacher_ro_4 -->
<g id="edge49" class="edge">
<title>teacher_ro_1&#45;&gt;teacher_ro_4</title>
<path fill="none" stroke="#4e79a7" stroke-width="0.6" stroke-opacity="0.501961" d="M745.91,-241.82C727.56,-251.12 689.53,-273.5 674.62,-305.5 655.29,-347 655.29,-367 674.62,-408.5 689.53,-440.5 727.56,-462.88 745.91,-472.18"/>
</g>
<!-- teacher_ro_2&#45;&gt;teacher_ro_3 -->
<g id="edge50" class="edge">
<title>teacher_ro_2&#45;&gt;teacher_ro_3</title>
<path fill="none" stroke="#4e79a7" stroke-width="0.6" stroke-opacity="0.501961" d="M756.12,-328.25C756.12,-347.5 756.12,-366.74 756.12,-385.99"/>
</g>
<!-- teacher_ro_2&#45;&gt;teacher_ro_4 -->
<g id="edge51" class="edge">
<title>teacher_ro_2&#45;&gt;teacher_ro_4</title>
<path fill="none" stroke="#4e79a7" stroke-width="0.6" stroke-opacity="0.501961" d="M746.2,-321.78C727.95,-331.2 689.58,-354.08 674.62,-386.5 656.37,-426.05 720.27,-460.55 745.92,-472.52"/>
</g>
<!-- teacher_ro_3&#45;&gt;teacher_ro_4 -->
<g id="edge52" class="edge">
<title>teacher_ro_3&#45;&gt;teacher_ro_4</title>
<path fill="none" stroke="#4e79a7" stroke-width="0.6" stroke-opacity="0.501961" d="M756.12,-408.25C756.12,-427.5 756.12,-446.74 756.12,-465.99"/>
</g>
<!-- teacher_ro_4&#45;&gt;student_ro_2 -->
<g id="edge53" class="edge">
<title>teacher_ro_4&#45;&gt;student_ro_2</title>
<path fill="none" stroke="#e15759" stroke-width="2" stroke-dasharray="5,2" d="M767.16,-478.44C792.01,-482.02 856.76,-491.33 889.92,-496.09"/>
<polygon fill="#e15759" stroke="#e15759" stroke-width="2" points="889.45,-499.56 899.85,-497.52 890.45,-492.63 889.45,-499.56"/>
<text text-anchor="middle" x="841.62" y="-491.2" font-family="CMU Serif" font-size="6.00" fill="grey">KD</text>
</g>
<!-- teacher_e1_1 -->
<g id="node33" class="node">
<title>teacher_e1_1</title>
<ellipse fill="#dae3ef" stroke="#4e79a7" cx="184.12" cy="-237" rx="11" ry="11"/>
</g>
<!-- teacher_e1_0&#45;&gt;teacher_e1_1 -->
<g id="edge29" class="edge">
<title>teacher_e1_0&#45;&gt;teacher_e1_1</title>
<path fill="none" stroke="#4e79a7" stroke-width="0.6" stroke-opacity="0.501961" d="M184.12,-168.25C184.12,-187.5 184.12,-206.74 184.12,-225.99"/>
</g>
<!-- teacher_e1_2 -->
<g id="node34" class="node">
<title>teacher_e1_2</title>
<ellipse fill="#dae3ef" stroke="#4e79a7" cx="184.12" cy="-317" rx="11" ry="11"/>
</g>
<!-- teacher_e1_0&#45;&gt;teacher_e1_2 -->
<g id="edge30" class="edge">
<title>teacher_e1_0&#45;&gt;teacher_e1_2</title>
<path fill="none" stroke="#4e79a7" stroke-width="0.6" stroke-opacity="0.501961" d="M174.36,-162.72C152.82,-176.14 104.24,-211.27 118.62,-247.5 130,-276.16 159.42,-299.86 174.66,-310.68"/>
</g>
<!-- teacher_e1_1&#45;&gt;teacher_e1_2 -->
<g id="edge31" class="edge">
<title>teacher_e1_1&#45;&gt;teacher_e1_2</title>
<path fill="none" stroke="#4e79a7" stroke-width="0.6" stroke-opacity="0.501961" d="M184.12,-248.25C184.12,-267.5 184.12,-286.74 184.12,-305.99"/>
</g>
<!-- teacher_e1_2&#45;&gt;teacher_mu_0 -->
<g id="edge32" class="edge">
<title>teacher_e1_2&#45;&gt;teacher_mu_0</title>
<path fill="none" stroke="grey" stroke-dasharray="5,2" d="M189.42,-307.09C208.43,-263.16 285.14,-85.95 307.8,-33.62"/>
<polygon fill="grey" stroke="grey" points="309.44,-34.24 309.82,-28.95 306.22,-32.85 309.44,-34.24"/>
</g>
<!-- teacher_e1_2&#45;&gt;teacher_si_0 -->
<g id="edge33" class="edge">
<title>teacher_e1_2&#45;&gt;teacher_si_0</title>
<path fill="none" stroke="grey" stroke-dasharray="5,2" d="M195.25,-317C217.76,-317 272.09,-317 298.79,-317"/>
<polygon fill="grey" stroke="grey" points="299.05,-318.75 304.05,-317 299.05,-315.25 299.05,-318.75"/>
</g>
<!-- teacher_z_0 -->
<g id="node35" class="node">
<title>teacher_z_0</title>
<ellipse fill="#d7e8d3" stroke="#59a14f" cx="446.12" cy="-277" rx="11" ry="11"/>
<text text-anchor="middle" x="446.12" y="-275.4" font-family="CMU Serif" font-size="7.00" fill="#333333">z₁</text>
</g>
<!-- teacher_z_2 -->
<g id="node37" class="node">
<title>teacher_z_2</title>
<ellipse fill="#d7e8d3" stroke="#59a14f" cx="446.12" cy="-157" rx="11" ry="11"/>
<text text-anchor="middle" x="446.12" y="-155.4" font-family="CMU Serif" font-size="7.00" fill="#333333">z₃</text>
</g>
<!-- teacher_dec -->
<g id="node38" class="node">
<title>teacher_dec</title>
<path fill="#eeeeee" stroke="grey" d="M608.12,-175C608.12,-175 578.12,-175 578.12,-175 572.12,-175 566.12,-169 566.12,-163 566.12,-163 566.12,-151 566.12,-151 566.12,-145 572.12,-139 578.12,-139 578.12,-139 608.12,-139 608.12,-139 614.12,-139 620.12,-145 620.12,-151 620.12,-151 620.12,-163 620.12,-163 620.12,-169 614.12,-175 608.12,-175"/>
<text text-anchor="middle" x="593.12" y="-155.1" font-family="CMU Serif" font-size="8.00" fill="#333333">zᵀz</text>
</g>
<!-- teacher_z_2&#45;&gt;teacher_dec -->
<g id="edge41" class="edge">
<title>teacher_z_2&#45;&gt;teacher_dec</title>
<path fill="none" stroke="grey" d="M457.55,-157C478.88,-157 528.22,-157 560.86,-157"/>
<polygon fill="grey" stroke="grey" points="560.94,-158.75 565.94,-157 560.94,-155.25 560.94,-158.75"/>
</g>
<!-- teacher_dec&#45;&gt;teacher_ro_0 -->
<g id="edge42" class="edge">
<title>teacher_dec&#45;&gt;teacher_ro_0</title>
<path fill="none" stroke="grey" stroke-dasharray="5,2" d="M620.35,-157C654.27,-157 712.24,-157 739.76,-157"/>
<polygon fill="grey" stroke="grey" points="739.84,-158.75 744.84,-157 739.84,-155.25 739.84,-158.75"/>
</g>
</g>
</svg>
