<?xml version="1.0" encoding="UTF-8" standalone="no"?>
<!DOCTYPE svg PUBLIC "-//W3C//DTD SVG 1.1//EN"
 "http://www.w3.org/Graphics/SVG/1.1/DTD/svg11.dtd">
<!-- Generated by graphviz version 2.44.0 (0)
 -->
<!-- Pages: 1 -->
<svg width="275pt" height="1186pt"
 viewBox="14.40 14.40 260.40 1171.47" xmlns="http://www.w3.org/2000/svg" xmlns:xlink="http://www.w3.org/1999/xlink">
<g id="graph0" class="graph" transform="scale(1 1) rotate(0) translate(18.4 1167.47)">
<g id="clust1" class="cluster">
<title>cluster_enc0</title>
<polygon fill="#4e79a7" fill-opacity="0.062745" stroke="#4e79a7" stroke-dasharray="5,2" stroke-opacity="0.376471" points="5.76,0 5.76,-104.08 111.28,-104.08 111.28,0 5.76,0"/>
<text text-anchor="middle" x="41.26" y="-92.88" font-family="CMU Serif" font-size="9.00" fill="#4e79a7" fill-opacity="0.564706">VGAE Model</text>
</g>
<!-- enc0_0 -->
<g id="node1" class="node">
<title>enc0_0</title>
<ellipse fill="#dae3ef" stroke="#4e79a7" cx="16.76" cy="-45.56" rx="11" ry="11"/>
</g>
<!-- enc0_1 -->
<g id="node2" class="node">
<title>enc0_1</title>
<ellipse fill="#dae3ef" stroke="#4e79a7" cx="100.28" cy="-37.64" rx="11" ry="11"/>
</g>
<!-- enc0_0&#45;&gt;enc0_1 -->
<g id="edge1" class="edge">
<title>enc0_0&#45;&gt;enc0_1</title>
<path fill="none" stroke="#4e79a7" stroke-opacity="0.501961" d="M28.02,-44.49C44.05,-42.97 73.26,-40.2 89.19,-38.69"/>
</g>
<!-- enc0_2 -->
<g id="node3" class="node">
<title>enc0_2</title>
<ellipse fill="#dae3ef" stroke="#4e79a7" cx="55.64" cy="-11" rx="11" ry="11"/>
</g>
<!-- enc0_0&#45;&gt;enc0_2 -->
<g id="edge2" class="edge">
<title>enc0_0&#45;&gt;enc0_2</title>
<path fill="none" stroke="#4e79a7" stroke-opacity="0.501961" d="M25.01,-38.23C31.6,-32.37 40.81,-24.18 47.41,-18.32"/>
</g>
<!-- enc0_3 -->
<g id="node4" class="node">
<title>enc0_3</title>
<ellipse fill="#dae3ef" stroke="#4e79a7" cx="36.92" cy="-93.08" rx="11" ry="11"/>
</g>
<!-- enc0_0&#45;&gt;enc0_3 -->
<g id="edge3" class="edge">
<title>enc0_0&#45;&gt;enc0_3</title>
<path fill="none" stroke="#4e79a7" stroke-opacity="0.501961" d="M21.23,-56.11C24.62,-64.09 29.25,-74.99 32.6,-82.89"/>
</g>
<!-- enc0_4 -->
<g id="node5" class="node">
<title>enc0_4</title>
<ellipse fill="#dae3ef" stroke="#4e79a7" cx="88.76" cy="-88.04" rx="11" ry="11"/>
</g>
<!-- enc0_0&#45;&gt;enc0_4 -->
<g id="edge4" class="edge">
<title>enc0_0&#45;&gt;enc0_4</title>
<path fill="none" stroke="#4e79a7" stroke-opacity="0.501961" d="M26.47,-51.29C40.29,-59.44 65.47,-74.3 79.2,-82.4"/>
</g>
<!-- enc0_1&#45;&gt;enc0_2 -->
<g id="edge5" class="edge">
<title>enc0_1&#45;&gt;enc0_2</title>
<path fill="none" stroke="#4e79a7" stroke-opacity="0.501961" d="M90.81,-31.99C83.24,-27.47 72.67,-21.16 65.09,-16.64"/>
</g>
<!-- enc0_1&#45;&gt;enc0_3 -->
<g id="edge6" class="edge">
<title>enc0_1&#45;&gt;enc0_3</title>
<path fill="none" stroke="#4e79a7" stroke-opacity="0.501961" d="M92,-44.89C79.92,-55.45 57.6,-74.99 45.41,-85.65"/>
</g>
<!-- enc0_1&#45;&gt;enc0_4 -->
<g id="edge7" class="edge">
<title>enc0_1&#45;&gt;enc0_4</title>
<path fill="none" stroke="#4e79a7" stroke-opacity="0.501961" d="M97.72,-48.83C95.79,-57.29 93.14,-68.86 91.23,-77.23"/>
</g>
<!-- enc0_2&#45;&gt;enc0_3 -->
<g id="edge8" class="edge">
<title>enc0_2&#45;&gt;enc0_3</title>
<path fill="none" stroke="#4e79a7" stroke-opacity="0.501961" d="M53.19,-21.73C49.61,-37.46 42.96,-66.61 39.37,-82.35"/>
</g>
<!-- enc0_2&#45;&gt;enc0_4 -->
<g id="edge9" class="edge">
<title>enc0_2&#45;&gt;enc0_4</title>
<path fill="none" stroke="#4e79a7" stroke-opacity="0.501961" d="M60.11,-21.39C66.46,-36.18 78.05,-63.12 84.36,-77.81"/>
</g>
<!-- enc0_3&#45;&gt;enc0_4 -->
<g id="edge10" class="edge">
<title>enc0_3&#45;&gt;enc0_4</title>
<path fill="none" stroke="#4e79a7" stroke-opacity="0.501961" d="M47.91,-92.01C56.71,-91.16 68.99,-89.96 77.78,-89.11"/>
</g>
<!-- enc1_0 -->
<g id="node6" class="node">
<title>enc1_0</title>
<ellipse fill="#dae3ef" stroke="#4e79a7" cx="16.76" cy="-288.92" rx="11" ry="11"/>
</g>
<!-- enc0_4&#45;&gt;enc1_0 -->
<g id="edge11" class="edge">
<title>enc0_4&#45;&gt;enc1_0</title>
<path fill="none" stroke="#4e79a7" stroke-dasharray="5,2" d="M84.99,-98.56C73.08,-131.78 36.24,-234.58 22.24,-273.64"/>
<polygon fill="#4e79a7" stroke="#4e79a7" points="20.53,-273.21 20.49,-278.51 23.83,-274.39 20.53,-273.21"/>
</g>
<!-- enc1_1 -->
<g id="node7" class="node">
<title>enc1_1</title>
<ellipse fill="#dae3ef" stroke="#4e79a7" cx="88.76" cy="-289.64" rx="11" ry="11"/>
</g>
<!-- enc1_0&#45;&gt;enc1_1 -->
<g id="edge12" class="edge">
<title>enc1_0&#45;&gt;enc1_1</title>
<path fill="none" stroke="#4e79a7" stroke-opacity="0.501961" d="M28.01,-289.03C41.46,-289.17 63.83,-289.39 77.35,-289.53"/>
</g>
<!-- enc1_2 -->
<g id="node8" class="node">
<title>enc1_2</title>
<ellipse fill="#dae3ef" stroke="#4e79a7" cx="52.76" cy="-227" rx="11" ry="11"/>
</g>
<!-- enc1_0&#45;&gt;enc1_2 -->
<g id="edge13" class="edge">
<title>enc1_0&#45;&gt;enc1_2</title>
<path fill="none" stroke="#4e79a7" stroke-opacity="0.501961" d="M22.38,-279.25C29.11,-267.68 40.3,-248.44 47.06,-236.81"/>
</g>
<!-- enc1_1&#45;&gt;enc1_2 -->
<g id="edge14" class="edge">
<title>enc1_1&#45;&gt;enc1_2</title>
<path fill="none" stroke="#4e79a7" stroke-opacity="0.501961" d="M83.13,-279.85C76.41,-268.15 65.22,-248.69 58.46,-236.93"/>
</g>
<!-- mu_μ₁ -->
<g id="node9" class="node">
<title>mu_μ₁</title>
<ellipse fill="#e6d9e1" stroke="#b07aa1" cx="11" cy="-425" rx="11" ry="11"/>
<text text-anchor="middle" x="11" y="-423.1" font-family="CMU Serif" font-size="8.00" fill="#333333">μ₁</text>
</g>
<!-- enc1_2&#45;&gt;mu_μ₁ -->
<g id="edge15" class="edge">
<title>enc1_2&#45;&gt;mu_μ₁</title>
<path fill="none" stroke="#4e79a7" stroke-dasharray="5,2" d="M50.46,-237.93C43.51,-270.84 22.77,-369.2 14.48,-408.51"/>
<polygon fill="#4e79a7" stroke="#4e79a7" points="12.67,-408.61 13.35,-413.86 16.09,-409.33 12.67,-408.61"/>
</g>
<!-- sigma_σ₁ -->
<g id="node10" class="node">
<title>sigma_σ₁</title>
<ellipse fill="#e6d9e1" stroke="#b07aa1" cx="140.6" cy="-425" rx="11" ry="11"/>
<text text-anchor="middle" x="140.6" y="-423.1" font-family="CMU Serif" font-size="8.00" fill="#333333">σ₁</text>
</g>
<!-- enc1_2&#45;&gt;sigma_σ₁ -->
<g id="edge16" class="edge">
<title>enc1_2&#45;&gt;sigma_σ₁</title>
<path fill="none" stroke="#4e79a7" stroke-dasharray="5,2" d="M57.24,-237.09C71.62,-269.52 116.74,-371.21 133.89,-409.88"/>
<polygon fill="#4e79a7" stroke="#4e79a7" points="132.4,-410.83 136.03,-414.69 135.6,-409.41 132.4,-410.83"/>
</g>
<!-- mu_μ₂ -->
<g id="node11" class="node">
<title>mu_μ₂</title>
<ellipse fill="#e6d9e1" stroke="#b07aa1" cx="54.2" cy="-425" rx="11" ry="11"/>
<text text-anchor="middle" x="54.2" y="-423.1" font-family="CMU Serif" font-size="8.00" fill="#333333">μ₂</text>
</g>
<!-- z_z₂ -->
<g id="node12" class="node">
<title>z_z₂</title>
<ellipse fill="#d7e8d3" stroke="#59a14f" cx="75.8" cy="-569" rx="11" ry="11"/>
<text text-anchor="middle" x="75.8" y="-567.1" font-family="CMU Serif" font-size="8.00" fill="#333333">z₂</text>
</g>
<!-- mu_μ₂&#45;&gt;z_z₂ -->
<g id="edge17" class="edge">
<title>mu_μ₂&#45;&gt;z_z₂</title>
<path fill="none" stroke="#b07aa1" d="M55.89,-436.3C59.7,-461.64 68.91,-523.1 73.34,-552.63"/>
<polygon fill="#b07aa1" stroke="#b07aa1" points="71.64,-553.07 74.11,-557.75 75.1,-552.55 71.64,-553.07"/>
</g>
<!-- mu_μ₃ -->
<g id="node13" class="node">
<title>mu_μ₃</title>
<ellipse fill="#e6d9e1" stroke="#b07aa1" cx="97.4" cy="-425" rx="11" ry="11"/>
<text text-anchor="middle" x="97.4" y="-423.1" font-family="CMU Serif" font-size="8.00" fill="#333333">μ₃</text>
</g>
<!-- sigma_σ₂ -->
<g id="node14" class="node">
<title>sigma_σ₂</title>
<ellipse fill="#e6d9e1" stroke="#b07aa1" cx="183.8" cy="-425" rx="11" ry="11"/>
<text text-anchor="middle" x="183.8" y="-423.1" font-family="CMU Serif" font-size="8.00" fill="#333333">σ₂</text>
</g>
<!-- sigma_σ₂&#45;&gt;z_z₂ -->
<g id="edge18" class="edge">
<title>sigma_σ₂&#45;&gt;z_z₂</title>
<path fill="none" stroke="#b07aa1" d="M177.04,-434.01C158.63,-458.56 107.51,-526.72 85.78,-555.69"/>
<polygon fill="#b07aa1" stroke="#b07aa1" points="84.15,-554.95 82.55,-560 86.95,-557.05 84.15,-554.95"/>
</g>
<!-- sigma_σ₃ -->
<g id="node15" class="node">
<title>sigma_σ₃</title>
<ellipse fill="#e6d9e1" stroke="#b07aa1" cx="227" cy="-425" rx="11" ry="11"/>
<text text-anchor="middle" x="227" y="-423.1" font-family="CMU Serif" font-size="8.00" fill="#333333">σ₃</text>
</g>
<!-- z_z₁ -->
<g id="node16" class="node">
<title>z_z₁</title>
<ellipse fill="#d7e8d3" stroke="#59a14f" cx="32.6" cy="-569" rx="11" ry="11"/>
<text text-anchor="middle" x="32.6" y="-567.1" font-family="CMU Serif" font-size="8.00" fill="#333333">z₁</text>
</g>
<!-- z_z₃ -->
<g id="node17" class="node">
<title>z_z₃</title>
<ellipse fill="#d7e8d3" stroke="#59a14f" cx="119" cy="-569" rx="11" ry="11"/>
<text text-anchor="middle" x="119" y="-567.1" font-family="CMU Serif" font-size="8.00" fill="#333333">z₃</text>
</g>
<!-- dec -->
<g id="node18" class="node">
<title>dec</title>
<path fill="grey" stroke="#bab0ac" d="M105.72,-1149.07C105.72,-1149.07 75.72,-1149.07 75.72,-1149.07 69.72,-1149.07 63.72,-1143.07 63.72,-1137.07 63.72,-1137.07 63.72,-1125.07 63.72,-1125.07 63.72,-1119.07 69.72,-1113.07 75.72,-1113.07 75.72,-1113.07 105.72,-1113.07 105.72,-1113.07 111.72,-1113.07 117.72,-1119.07 117.72,-1125.07 117.72,-1125.07 117.72,-1137.07 117.72,-1137.07 117.72,-1143.07 111.72,-1149.07 105.72,-1149.07"/>
<text text-anchor="middle" x="90.72" y="-1128.87" font-family="CMU Serif" font-size="9.00" fill="#333333">zᵀz</text>
</g>
<!-- z_z₃&#45;&gt;dec -->
<g id="edge19" class="edge">
<title>z_z₃&#45;&gt;dec</title>
<path fill="none" stroke="#59a14f" d="M118.44,-580.23C114.98,-648.87 96.7,-1012.09 91.88,-1107.89"/>
<polygon fill="#59a14f" stroke="#59a14f" points="90.13,-1107.95 91.62,-1113.03 93.62,-1108.13 90.13,-1107.95"/>
</g>
<!-- recon_0 -->
<g id="node19" class="node">
<title>recon_0</title>
<ellipse fill="#dae3ef" stroke="#4e79a7" cx="16.76" cy="-909.56" rx="11" ry="11"/>
</g>
<!-- dec&#45;&gt;recon_0 -->
<g id="edge20" class="edge">
<title>dec&#45;&gt;recon_0</title>
<path fill="none" stroke="#bab0ac" stroke-dasharray="5,2" d="M84.66,-1112.95C70.47,-1070.42 35.22,-964.86 21.94,-925.07"/>
<polygon fill="#bab0ac" stroke="#bab0ac" points="23.53,-924.31 20.29,-920.12 20.21,-925.42 23.53,-924.31"/>
</g>
<!-- recon_1 -->
<g id="node20" class="node">
<title>recon_1</title>
<ellipse fill="#dae3ef" stroke="#4e79a7" cx="100.28" cy="-901.64" rx="11" ry="11"/>
</g>
<!-- recon_0&#45;&gt;recon_1 -->
<g id="edge21" class="edge">
<title>recon_0&#45;&gt;recon_1</title>
<path fill="none" stroke="#4e79a7" stroke-opacity="0.501961" d="M28.02,-908.49C44.05,-906.97 73.26,-904.2 89.19,-902.69"/>
</g>
<!-- recon_2 -->
<g id="node21" class="node">
<title>recon_2</title>
<ellipse fill="#dae3ef" stroke="#4e79a7" cx="55.64" cy="-875" rx="11" ry="11"/>
</g>
<!-- recon_0&#45;&gt;recon_2 -->
<g id="edge22" class="edge">
<title>recon_0&#45;&gt;recon_2</title>
<path fill="none" stroke="#4e79a7" stroke-opacity="0.501961" d="M25.01,-902.23C31.6,-896.37 40.81,-888.18 47.41,-882.32"/>
</g>
<!-- recon_3 -->
<g id="node22" class="node">
<title>recon_3</title>
<ellipse fill="#dae3ef" stroke="#4e79a7" cx="36.92" cy="-957.08" rx="11" ry="11"/>
</g>
<!-- recon_0&#45;&gt;recon_3 -->
<g id="edge23" class="edge">
<title>recon_0&#45;&gt;recon_3</title>
<path fill="none" stroke="#4e79a7" stroke-opacity="0.501961" d="M21.23,-920.11C24.62,-928.09 29.25,-938.99 32.6,-946.89"/>
</g>
<!-- recon_4 -->
<g id="node23" class="node">
<title>recon_4</title>
<ellipse fill="#dae3ef" stroke="#4e79a7" cx="88.76" cy="-952.04" rx="11" ry="11"/>
</g>
<!-- recon_0&#45;&gt;recon_4 -->
<g id="edge24" class="edge">
<title>recon_0&#45;&gt;recon_4</title>
<path fill="none" stroke="#4e79a7" stroke-opacity="0.501961" d="M26.47,-915.29C40.29,-923.44 65.47,-938.3 79.2,-946.4"/>
</g>
<!-- recon_1&#45;&gt;recon_2 -->
<g id="edge25" class="edge">
<title>recon_1&#45;&gt;recon_2</title>
<path fill="none" stroke="#4e79a7" stroke-opacity="0.501961" d="M90.81,-895.99C83.24,-891.47 72.67,-885.16 65.09,-880.64"/>
</g>
<!-- recon_1&#45;&gt;recon_3 -->
<g id="edge26" class="edge">
<title>recon_1&#45;&gt;recon_3</title>
<path fill="none" stroke="#4e79a7" stroke-opacity="0.501961" d="M92,-908.89C79.92,-919.45 57.6,-938.99 45.41,-949.65"/>
</g>
<!-- recon_1&#45;&gt;recon_4 -->
<g id="edge27" class="edge">
<title>recon_1&#45;&gt;recon_4</title>
<path fill="none" stroke="#4e79a7" stroke-opacity="0.501961" d="M97.72,-912.83C95.79,-921.29 93.14,-932.86 91.23,-941.23"/>
</g>
<!-- recon_2&#45;&gt;recon_3 -->
<g id="edge28" class="edge">
<title>recon_2&#45;&gt;recon_3</title>
<path fill="none" stroke="#4e79a7" stroke-opacity="0.501961" d="M53.19,-885.73C49.61,-901.46 42.96,-930.61 39.37,-946.35"/>
</g>
<!-- recon_2&#45;&gt;recon_4 -->
<g id="edge29" class="edge">
<title>recon_2&#45;&gt;recon_4</title>
<path fill="none" stroke="#4e79a7" stroke-opacity="0.501961" d="M60.11,-885.39C66.46,-900.18 78.05,-927.12 84.36,-941.81"/>
</g>
<!-- recon_3&#45;&gt;recon_4 -->
<g id="edge30" class="edge">
<title>recon_3&#45;&gt;recon_4</title>
<path fill="none" stroke="#4e79a7" stroke-opacity="0.501961" d="M47.91,-956.01C56.71,-955.16 68.99,-953.96 77.78,-953.11"/>
</g>
</g>
</svg>
