<?xml version="1.0" encoding="utf-8" standalone="no"?>
<!DOCTYPE svg PUBLIC "-//W3C//DTD SVG 1.1//EN"
  "http://www.w3.org/Graphics/SVG/1.1/DTD/svg11.dtd">
<svg xmlns:xlink="http://www.w3.org/1999/xlink" width="424.8pt" height="574.036364pt" viewBox="0 0 424.8 574.036364" xmlns="http://www.w3.org/2000/svg" version="1.1">
 <metadata>
  <rdf:RDF xmlns:dc="http://purl.org/dc/elements/1.1/" xmlns:cc="http://creativecommons.org/ns#" xmlns:rdf="http://www.w3.org/1999/02/22-rdf-syntax-ns#">
   <cc:Work>
    <dc:type rdf:resource="http://purl.org/dc/dcmitype/StillImage"/>
    <dc:date>2026-03-24T14:09:27.207487</dc:date>
    <dc:format>image/svg+xml</dc:format>
    <dc:creator>
     <cc:Agent>
      <dc:title>Matplotlib v3.8.4, https://matplotlib.org/</dc:title>
     </cc:Agent>
    </dc:creator>
   </cc:Work>
  </rdf:RDF>
 </metadata>
 <defs>
  <style type="text/css">*{stroke-linejoin: round; stroke-linecap: butt}</style>
 </defs>
 <g id="figure_1">
  <g id="patch_1">
   <path d="M 0 574.036364 
L 424.8 574.036364 
L 424.8 0 
L 0 0 
L 0 574.036364 
z
" style="fill: none"/>
  </g>
  <g id="axes_1">
   <g id="patch_2">
    <path d="M 34.333884 541.398347 
L 390.466116 541.398347 
Q 398.945455 541.398347 398.945455 532.919008 
L 398.945455 41.117355 
Q 398.945455 32.638017 390.466116 32.638017 
L 34.333884 32.638017 
Q 25.854545 32.638017 25.854545 41.117355 
L 25.854545 532.919008 
Q 25.854545 541.398347 34.333884 541.398347 
z
" clip-path="url(#p58b00044ea)" style="fill: #4e79a7; fill-opacity: 0.062745; stroke-dasharray: 3.7,1.6; stroke-dashoffset: 0; stroke: #4e79a7; stroke-opacity: 0.376471; stroke-linejoin: miter"/>
   </g>
   <g id="LineCollection_1">
    <path d="M 110.647934 75.034711 
L 161.523967 75.034711 
" clip-path="url(#p58b00044ea)" style="fill: none; stroke: #4e79a7; stroke-opacity: 0.6"/>
    <path d="M 110.647934 75.034711 
L 212.4 75.034711 
" clip-path="url(#p58b00044ea)" style="fill: none; stroke: #4e79a7; stroke-opacity: 0.6"/>
    <path d="M 110.647934 75.034711 
L 263.276033 75.034711 
" clip-path="url(#p58b00044ea)" style="fill: none; stroke: #4e79a7; stroke-opacity: 0.6"/>
    <path d="M 110.647934 75.034711 
L 314.152066 75.034711 
" clip-path="url(#p58b00044ea)" style="fill: none; stroke: #4e79a7; stroke-opacity: 0.6"/>
    <path d="M 161.523967 75.034711 
L 212.4 75.034711 
" clip-path="url(#p58b00044ea)" style="fill: none; stroke: #4e79a7; stroke-opacity: 0.6"/>
    <path d="M 161.523967 75.034711 
L 263.276033 75.034711 
" clip-path="url(#p58b00044ea)" style="fill: none; stroke: #4e79a7; stroke-opacity: 0.6"/>
    <path d="M 161.523967 75.034711 
L 314.152066 75.034711 
" clip-path="url(#p58b00044ea)" style="fill: none; stroke: #4e79a7; stroke-opacity: 0.6"/>
    <path d="M 212.4 75.034711 
L 263.276033 75.034711 
" clip-path="url(#p58b00044ea)" style="fill: none; stroke: #4e79a7; stroke-opacity: 0.6"/>
    <path d="M 212.4 75.034711 
L 314.152066 75.034711 
" clip-path="url(#p58b00044ea)" style="fill: none; stroke: #4e79a7; stroke-opacity: 0.6"/>
    <path d="M 263.276033 75.034711 
L 314.152066 75.034711 
" clip-path="url(#p58b00044ea)" style="fill: none; stroke: #4e79a7; stroke-opacity: 0.6"/>
    <path d="M 161.523967 159.828099 
L 212.4 159.828099 
" clip-path="url(#p58b00044ea)" style="fill: none; stroke: #4e79a7; stroke-opacity: 0.6"/>
    <path d="M 161.523967 159.828099 
L 263.276033 159.828099 
" clip-path="url(#p58b00044ea)" style="fill: none; stroke: #4e79a7; stroke-opacity: 0.6"/>
    <path d="M 212.4 159.828099 
L 263.276033 159.828099 
" clip-path="url(#p58b00044ea)" style="fill: none; stroke: #4e79a7; stroke-opacity: 0.6"/>
    <path d="M 110.647934 499.001653 
L 161.523967 499.001653 
" clip-path="url(#p58b00044ea)" style="fill: none; stroke: #4e79a7; stroke-opacity: 0.6"/>
    <path d="M 110.647934 499.001653 
L 212.4 499.001653 
" clip-path="url(#p58b00044ea)" style="fill: none; stroke: #4e79a7; stroke-opacity: 0.6"/>
    <path d="M 110.647934 499.001653 
L 263.276033 499.001653 
" clip-path="url(#p58b00044ea)" style="fill: none; stroke: #4e79a7; stroke-opacity: 0.6"/>
    <path d="M 110.647934 499.001653 
L 314.152066 499.001653 
" clip-path="url(#p58b00044ea)" style="fill: none; stroke: #4e79a7; stroke-opacity: 0.6"/>
    <path d="M 161.523967 499.001653 
L 212.4 499.001653 
" clip-path="url(#p58b00044ea)" style="fill: none; stroke: #4e79a7; stroke-opacity: 0.6"/>
    <path d="M 161.523967 499.001653 
L 263.276033 499.001653 
" clip-path="url(#p58b00044ea)" style="fill: none; stroke: #4e79a7; stroke-opacity: 0.6"/>
    <path d="M 161.523967 499.001653 
L 314.152066 499.001653 
" clip-path="url(#p58b00044ea)" style="fill: none; stroke: #4e79a7; stroke-opacity: 0.6"/>
    <path d="M 212.4 499.001653 
L 263.276033 499.001653 
" clip-path="url(#p58b00044ea)" style="fill: none; stroke: #4e79a7; stroke-opacity: 0.6"/>
    <path d="M 212.4 499.001653 
L 314.152066 499.001653 
" clip-path="url(#p58b00044ea)" style="fill: none; stroke: #4e79a7; stroke-opacity: 0.6"/>
    <path d="M 263.276033 499.001653 
L 314.152066 499.001653 
" clip-path="url(#p58b00044ea)" style="fill: none; stroke: #4e79a7; stroke-opacity: 0.6"/>
   </g>
   <g id="patch_3">
    <path d="M 308.797879 78.009259 
Q 237.838488 117.431143 167.856433 156.310062 
" clip-path="url(#p58b00044ea)" style="fill: none; stroke-dasharray: 3.7,1.6; stroke-dashoffset: 0; stroke: #808080; stroke-opacity: 0.6; stroke-linecap: round"/>
    <path d="M 172.324348 156.115805 
L 167.856433 156.310062 
L 170.381777 152.619176 
z
" clip-path="url(#p58b00044ea)" style="fill: #808080; fill-opacity: 0.6; stroke-dasharray: 3.7,1.6; stroke-dashoffset: 0; stroke: #808080; stroke-opacity: 0.6; stroke-linecap: round"/>
   </g>
   <g id="patch_4">
    <path d="M 257.660619 162.269584 
Q 165.763718 202.224758 74.892132 241.734143 
" clip-path="url(#p58b00044ea)" style="fill: none; stroke-dasharray: 3.7,1.6; stroke-dashoffset: 0; stroke: #808080; stroke-opacity: 0.6; stroke-linecap: round"/>
    <path d="M 79.357864 241.973379 
L 74.892132 241.734143 
L 77.76296 238.305099 
z
" clip-path="url(#p58b00044ea)" style="fill: #808080; fill-opacity: 0.6; stroke-dasharray: 3.7,1.6; stroke-dashoffset: 0; stroke: #808080; stroke-opacity: 0.6; stroke-linecap: round"/>
   </g>
   <g id="patch_5">
    <path d="M 262.666632 165.922106 
Q 259.036441 202.224021 255.517498 237.413451 
" clip-path="url(#p58b00044ea)" style="fill: none; stroke-dasharray: 3.7,1.6; stroke-dashoffset: 0; stroke: #808080; stroke-opacity: 0.6; stroke-linecap: round"/>
    <path d="M 257.905587 233.632309 
L 255.517498 237.413451 
L 253.925438 233.234295 
z
" clip-path="url(#p58b00044ea)" style="fill: #808080; fill-opacity: 0.6; stroke-dasharray: 3.7,1.6; stroke-dashoffset: 0; stroke: #808080; stroke-opacity: 0.6; stroke-linecap: round"/>
   </g>
   <g id="patch_6">
    <path d="M 201.534812 423.262588 
Q 158.444813 459.17092 116.213711 494.363505 
" clip-path="url(#p58b00044ea)" style="fill: none; stroke-dasharray: 3.7,1.6; stroke-dashoffset: 0; stroke: #808080; stroke-opacity: 0.6; stroke-linecap: round"/>
    <path d="M 120.566965 493.33921 
L 116.213711 494.363505 
L 118.006227 490.266325 
z
" clip-path="url(#p58b00044ea)" style="fill: #808080; fill-opacity: 0.6; stroke-dasharray: 3.7,1.6; stroke-dashoffset: 0; stroke: #808080; stroke-opacity: 0.6; stroke-linecap: round"/>
   </g>
   <g id="patch_7">
    <path d="M 123.655987 248.738501 
Q 165.76254 287.017185 207.041816 324.543799 
" clip-path="url(#p58b00044ea)" style="fill: none; stroke: #808080; stroke-opacity: 0.6; stroke-linecap: round"/>
    <path d="M 205.427401 320.373228 
L 207.041816 324.543799 
L 202.73671 323.332988 
z
" clip-path="url(#p58b00044ea)" style="fill: #808080; fill-opacity: 0.6; stroke: #808080; stroke-opacity: 0.6; stroke-linecap: round"/>
   </g>
   <g id="patch_8">
    <path d="M 301.144013 248.738501 
Q 259.03746 287.017185 217.758184 324.543799 
" clip-path="url(#p58b00044ea)" style="fill: none; stroke: #808080; stroke-opacity: 0.6; stroke-linecap: round"/>
    <path d="M 222.06329 323.332988 
L 217.758184 324.543799 
L 219.372599 320.373228 
z
" clip-path="url(#p58b00044ea)" style="fill: #808080; fill-opacity: 0.6; stroke: #808080; stroke-opacity: 0.6; stroke-linecap: round"/>
   </g>
   <g id="patch_9">
    <path d="M 260.125781 334.665297 
Q 239.900437 368.374202 220.250318 401.124402 
" clip-path="url(#p58b00044ea)" style="fill: none; stroke: #808080; stroke-opacity: 0.6; stroke-linecap: round"/>
    <path d="M 224.023286 398.723422 
L 220.250318 401.124402 
L 220.593315 396.665439 
z
" clip-path="url(#p58b00044ea)" style="fill: #808080; fill-opacity: 0.6; stroke: #808080; stroke-opacity: 0.6; stroke-linecap: round"/>
   </g>
   <g id="PathCollection_1">
    <path d="M 110.647934 81.158435 
C 112.271965 81.158435 113.829698 80.513201 114.978061 79.364838 
C 116.126424 78.216475 116.771658 76.658741 116.771658 75.034711 
C 116.771658 73.41068 116.126424 71.852947 114.978061 70.704584 
C 113.829698 69.556221 112.271965 68.910986 110.647934 68.910986 
C 109.023903 68.910986 107.46617 69.556221 106.317807 70.704584 
C 105.169444 71.852947 104.52421 73.41068 104.52421 75.034711 
C 104.52421 76.658741 105.169444 78.216475 106.317807 79.364838 
C 107.46617 80.513201 109.023903 81.158435 110.647934 81.158435 
z
" clip-path="url(#p58b00044ea)" style="fill: #dae3ef; stroke: #4e79a7"/>
    <path d="M 161.523967 81.158435 
C 163.147998 81.158435 164.705731 80.513201 165.854094 79.364838 
C 167.002457 78.216475 167.647691 76.658741 167.647691 75.034711 
C 167.647691 73.41068 167.002457 71.852947 165.854094 70.704584 
C 164.705731 69.556221 163.147998 68.910986 161.523967 68.910986 
C 159.899936 68.910986 158.342203 69.556221 157.19384 70.704584 
C 156.045477 71.852947 155.400243 73.41068 155.400243 75.034711 
C 155.400243 76.658741 156.045477 78.216475 157.19384 79.364838 
C 158.342203 80.513201 159.899936 81.158435 161.523967 81.158435 
z
" clip-path="url(#p58b00044ea)" style="fill: #dae3ef; stroke: #4e79a7"/>
    <path d="M 212.4 81.158435 
C 214.024031 81.158435 215.581764 80.513201 216.730127 79.364838 
C 217.87849 78.216475 218.523724 76.658741 218.523724 75.034711 
C 218.523724 73.41068 217.87849 71.852947 216.730127 70.704584 
C 215.581764 69.556221 214.024031 68.910986 212.4 68.910986 
C 210.775969 68.910986 209.218236 69.556221 208.069873 70.704584 
C 206.92151 71.852947 206.276276 73.41068 206.276276 75.034711 
C 206.276276 76.658741 206.92151 78.216475 208.069873 79.364838 
C 209.218236 80.513201 210.775969 81.158435 212.4 81.158435 
z
" clip-path="url(#p58b00044ea)" style="fill: #dae3ef; stroke: #4e79a7"/>
    <path d="M 263.276033 81.158435 
C 264.900064 81.158435 266.457797 80.513201 267.60616 79.364838 
C 268.754523 78.216475 269.399757 76.658741 269.399757 75.034711 
C 269.399757 73.41068 268.754523 71.852947 267.60616 70.704584 
C 266.457797 69.556221 264.900064 68.910986 263.276033 68.910986 
C 261.652002 68.910986 260.094269 69.556221 258.945906 70.704584 
C 257.797543 71.852947 257.152309 73.41068 257.152309 75.034711 
C 257.152309 76.658741 257.797543 78.216475 258.945906 79.364838 
C 260.094269 80.513201 261.652002 81.158435 263.276033 81.158435 
z
" clip-path="url(#p58b00044ea)" style="fill: #dae3ef; stroke: #4e79a7"/>
    <path d="M 314.152066 81.158435 
C 315.776097 81.158435 317.33383 80.513201 318.482193 79.364838 
C 319.630556 78.216475 320.27579 76.658741 320.27579 75.034711 
C 320.27579 73.41068 319.630556 71.852947 318.482193 70.704584 
C 317.33383 69.556221 315.776097 68.910986 314.152066 68.910986 
C 312.528035 68.910986 310.970302 69.556221 309.821939 70.704584 
C 308.673576 71.852947 308.028342 73.41068 308.028342 75.034711 
C 308.028342 76.658741 308.673576 78.216475 309.821939 79.364838 
C 310.970302 80.513201 312.528035 81.158435 314.152066 81.158435 
z
" clip-path="url(#p58b00044ea)" style="fill: #dae3ef; stroke: #4e79a7"/>
    <path d="M 161.523967 165.951824 
C 163.147998 165.951824 164.705731 165.306589 165.854094 164.158226 
C 167.002457 163.009863 167.647691 161.45213 167.647691 159.828099 
C 167.647691 158.204068 167.002457 156.646335 165.854094 155.497972 
C 164.705731 154.349609 163.147998 153.704375 161.523967 153.704375 
C 159.899936 153.704375 158.342203 154.349609 157.19384 155.497972 
C 156.045477 156.646335 155.400243 158.204068 155.400243 159.828099 
C 155.400243 161.45213 156.045477 163.009863 157.19384 164.158226 
C 158.342203 165.306589 159.899936 165.951824 161.523967 165.951824 
z
" clip-path="url(#p58b00044ea)" style="fill: #dae3ef; stroke: #4e79a7"/>
    <path d="M 212.4 165.951824 
C 214.024031 165.951824 215.581764 165.306589 216.730127 164.158226 
C 217.87849 163.009863 218.523724 161.45213 218.523724 159.828099 
C 218.523724 158.204068 217.87849 156.646335 216.730127 155.497972 
C 215.581764 154.349609 214.024031 153.704375 212.4 153.704375 
C 210.775969 153.704375 209.218236 154.349609 208.069873 155.497972 
C 206.92151 156.646335 206.276276 158.204068 206.276276 159.828099 
C 206.276276 161.45213 206.92151 163.009863 208.069873 164.158226 
C 209.218236 165.306589 210.775969 165.951824 212.4 165.951824 
z
" clip-path="url(#p58b00044ea)" style="fill: #dae3ef; stroke: #4e79a7"/>
    <path d="M 263.276033 165.951824 
C 264.900064 165.951824 266.457797 165.306589 267.60616 164.158226 
C 268.754523 163.009863 269.399757 161.45213 269.399757 159.828099 
C 269.399757 158.204068 268.754523 156.646335 267.60616 155.497972 
C 266.457797 154.349609 264.900064 153.704375 263.276033 153.704375 
C 261.652002 153.704375 260.094269 154.349609 258.945906 155.497972 
C 257.797543 156.646335 257.152309 158.204068 257.152309 159.828099 
C 257.152309 161.45213 257.797543 163.009863 258.945906 164.158226 
C 260.094269 165.306589 261.652002 165.951824 263.276033 165.951824 
z
" clip-path="url(#p58b00044ea)" style="fill: #dae3ef; stroke: #4e79a7"/>
    <path d="M 68.25124 250.745212 
C 69.87527 250.745212 71.433004 250.099978 72.581367 248.951615 
C 73.72973 247.803252 74.374964 246.245518 74.374964 244.621488 
C 74.374964 242.997457 73.72973 241.439724 72.581367 240.291361 
C 71.433004 239.142997 69.87527 238.497763 68.25124 238.497763 
C 66.627209 238.497763 65.069476 239.142997 63.921113 240.291361 
C 62.77275 241.439724 62.127515 242.997457 62.127515 244.621488 
C 62.127515 246.245518 62.77275 247.803252 63.921113 248.951615 
C 65.069476 250.099978 66.627209 250.745212 68.25124 250.745212 
z
" clip-path="url(#p58b00044ea)" style="fill: #e6d9e1; stroke: #b07aa1"/>
    <path d="M 119.127273 250.745212 
C 120.751303 250.745212 122.309037 250.099978 123.4574 248.951615 
C 124.605763 247.803252 125.250997 246.245518 125.250997 244.621488 
C 125.250997 242.997457 124.605763 241.439724 123.4574 240.291361 
C 122.309037 239.142997 120.751303 238.497763 119.127273 238.497763 
C 117.503242 238.497763 115.945509 239.142997 114.797146 240.291361 
C 113.648783 241.439724 113.003548 242.997457 113.003548 244.621488 
C 113.003548 246.245518 113.648783 247.803252 114.797146 248.951615 
C 115.945509 250.099978 117.503242 250.745212 119.127273 250.745212 
z
" clip-path="url(#p58b00044ea)" style="fill: #e6d9e1; stroke: #b07aa1"/>
    <path d="M 170.003306 250.745212 
C 171.627336 250.745212 173.18507 250.099978 174.333433 248.951615 
C 175.481796 247.803252 176.12703 246.245518 176.12703 244.621488 
C 176.12703 242.997457 175.481796 241.439724 174.333433 240.291361 
C 173.18507 239.142997 171.627336 238.497763 170.003306 238.497763 
C 168.379275 238.497763 166.821542 239.142997 165.673179 240.291361 
C 164.524816 241.439724 163.879581 242.997457 163.879581 244.621488 
C 163.879581 246.245518 164.524816 247.803252 165.673179 248.951615 
C 166.821542 250.099978 168.379275 250.745212 170.003306 250.745212 
z
" clip-path="url(#p58b00044ea)" style="fill: #e6d9e1; stroke: #b07aa1"/>
    <path d="M 254.796694 250.745212 
C 256.420725 250.745212 257.978458 250.099978 259.126821 248.951615 
C 260.275184 247.803252 260.920419 246.245518 260.920419 244.621488 
C 260.920419 242.997457 260.275184 241.439724 259.126821 240.291361 
C 257.978458 239.142997 256.420725 238.497763 254.796694 238.497763 
C 253.172664 238.497763 251.61493 239.142997 250.466567 240.291361 
C 249.318204 241.439724 248.67297 242.997457 248.67297 244.621488 
C 248.67297 246.245518 249.318204 247.803252 250.466567 248.951615 
C 251.61493 250.099978 253.172664 250.745212 254.796694 250.745212 
z
" clip-path="url(#p58b00044ea)" style="fill: #e6d9e1; stroke: #b07aa1"/>
    <path d="M 305.672727 250.745212 
C 307.296758 250.745212 308.854491 250.099978 310.002854 248.951615 
C 311.151217 247.803252 311.796452 246.245518 311.796452 244.621488 
C 311.796452 242.997457 311.151217 241.439724 310.002854 240.291361 
C 308.854491 239.142997 307.296758 238.497763 305.672727 238.497763 
C 304.048697 238.497763 302.490963 239.142997 301.3426 240.291361 
C 300.194237 241.439724 299.549003 242.997457 299.549003 244.621488 
C 299.549003 246.245518 300.194237 247.803252 301.3426 248.951615 
C 302.490963 250.099978 304.048697 250.745212 305.672727 250.745212 
z
" clip-path="url(#p58b00044ea)" style="fill: #e6d9e1; stroke: #b07aa1"/>
    <path d="M 356.54876 250.745212 
C 358.172791 250.745212 359.730524 250.099978 360.878887 248.951615 
C 362.02725 247.803252 362.672485 246.245518 362.672485 244.621488 
C 362.672485 242.997457 362.02725 241.439724 360.878887 240.291361 
C 359.730524 239.142997 358.172791 238.497763 356.54876 238.497763 
C 354.92473 238.497763 353.366996 239.142997 352.218633 240.291361 
C 351.07027 241.439724 350.425036 242.997457 350.425036 244.621488 
C 350.425036 246.245518 351.07027 247.803252 352.218633 248.951615 
C 353.366996 250.099978 354.92473 250.745212 356.54876 250.745212 
z
" clip-path="url(#p58b00044ea)" style="fill: #e6d9e1; stroke: #b07aa1"/>
    <path d="M 161.523967 335.5386 
C 163.147998 335.5386 164.705731 334.893366 165.854094 333.745003 
C 167.002457 332.59664 167.647691 331.038907 167.647691 329.414876 
C 167.647691 327.790845 167.002457 326.233112 165.854094 325.084749 
C 164.705731 323.936386 163.147998 323.291152 161.523967 323.291152 
C 159.899936 323.291152 158.342203 323.936386 157.19384 325.084749 
C 156.045477 326.233112 155.400243 327.790845 155.400243 329.414876 
C 155.400243 331.038907 156.045477 332.59664 157.19384 333.745003 
C 158.342203 334.893366 159.899936 335.5386 161.523967 335.5386 
z
" clip-path="url(#p58b00044ea)" style="fill: #d7e8d3; stroke: #59a14f"/>
    <path d="M 212.4 335.5386 
C 214.024031 335.5386 215.581764 334.893366 216.730127 333.745003 
C 217.87849 332.59664 218.523724 331.038907 218.523724 329.414876 
C 218.523724 327.790845 217.87849 326.233112 216.730127 325.084749 
C 215.581764 323.936386 214.024031 323.291152 212.4 323.291152 
C 210.775969 323.291152 209.218236 323.936386 208.069873 325.084749 
C 206.92151 326.233112 206.276276 327.790845 206.276276 329.414876 
C 206.276276 331.038907 206.92151 332.59664 208.069873 333.745003 
C 209.218236 334.893366 210.775969 335.5386 212.4 335.5386 
z
" clip-path="url(#p58b00044ea)" style="fill: #d7e8d3; stroke: #59a14f"/>
    <path d="M 263.276033 335.5386 
C 264.900064 335.5386 266.457797 334.893366 267.60616 333.745003 
C 268.754523 332.59664 269.399757 331.038907 269.399757 329.414876 
C 269.399757 327.790845 268.754523 326.233112 267.60616 325.084749 
C 266.457797 323.936386 264.900064 323.291152 263.276033 323.291152 
C 261.652002 323.291152 260.094269 323.936386 258.945906 325.084749 
C 257.797543 326.233112 257.152309 327.790845 257.152309 329.414876 
C 257.152309 331.038907 257.797543 332.59664 258.945906 333.745003 
C 260.094269 334.893366 261.652002 335.5386 263.276033 335.5386 
z
" clip-path="url(#p58b00044ea)" style="fill: #d7e8d3; stroke: #59a14f"/>
    <path d="M 110.647934 505.125377 
C 112.271965 505.125377 113.829698 504.480143 114.978061 503.33178 
C 116.126424 502.183417 116.771658 500.625684 116.771658 499.001653 
C 116.771658 497.377622 116.126424 495.819889 114.978061 494.671526 
C 113.829698 493.523163 112.271965 492.877929 110.647934 492.877929 
C 109.023903 492.877929 107.46617 493.523163 106.317807 494.671526 
C 105.169444 495.819889 104.52421 497.377622 104.52421 499.001653 
C 104.52421 500.625684 105.169444 502.183417 106.317807 503.33178 
C 107.46617 504.480143 109.023903 505.125377 110.647934 505.125377 
z
" clip-path="url(#p58b00044ea)" style="fill: #dae3ef; stroke: #4e79a7"/>
    <path d="M 161.523967 505.125377 
C 163.147998 505.125377 164.705731 504.480143 165.854094 503.33178 
C 167.002457 502.183417 167.647691 500.625684 167.647691 499.001653 
C 167.647691 497.377622 167.002457 495.819889 165.854094 494.671526 
C 164.705731 493.523163 163.147998 492.877929 161.523967 492.877929 
C 159.899936 492.877929 158.342203 493.523163 157.19384 494.671526 
C 156.045477 495.819889 155.400243 497.377622 155.400243 499.001653 
C 155.400243 500.625684 156.045477 502.183417 157.19384 503.33178 
C 158.342203 504.480143 159.899936 505.125377 161.523967 505.125377 
z
" clip-path="url(#p58b00044ea)" style="fill: #dae3ef; stroke: #4e79a7"/>
    <path d="M 212.4 505.125377 
C 214.024031 505.125377 215.581764 504.480143 216.730127 503.33178 
C 217.87849 502.183417 218.523724 500.625684 218.523724 499.001653 
C 218.523724 497.377622 217.87849 495.819889 216.730127 494.671526 
C 215.581764 493.523163 214.024031 492.877929 212.4 492.877929 
C 210.775969 492.877929 209.218236 493.523163 208.069873 494.671526 
C 206.92151 495.819889 206.276276 497.377622 206.276276 499.001653 
C 206.276276 500.625684 206.92151 502.183417 208.069873 503.33178 
C 209.218236 504.480143 210.775969 505.125377 212.4 505.125377 
z
" clip-path="url(#p58b00044ea)" style="fill: #dae3ef; stroke: #4e79a7"/>
    <path d="M 263.276033 505.125377 
C 264.900064 505.125377 266.457797 504.480143 267.60616 503.33178 
C 268.754523 502.183417 269.399757 500.625684 269.399757 499.001653 
C 269.399757 497.377622 268.754523 495.819889 267.60616 494.671526 
C 266.457797 493.523163 264.900064 492.877929 263.276033 492.877929 
C 261.652002 492.877929 260.094269 493.523163 258.945906 494.671526 
C 257.797543 495.819889 257.152309 497.377622 257.152309 499.001653 
C 257.152309 500.625684 257.797543 502.183417 258.945906 503.33178 
C 260.094269 504.480143 261.652002 505.125377 263.276033 505.125377 
z
" clip-path="url(#p58b00044ea)" style="fill: #dae3ef; stroke: #4e79a7"/>
    <path d="M 314.152066 505.125377 
C 315.776097 505.125377 317.33383 504.480143 318.482193 503.33178 
C 319.630556 502.183417 320.27579 500.625684 320.27579 499.001653 
C 320.27579 497.377622 319.630556 495.819889 318.482193 494.671526 
C 317.33383 493.523163 315.776097 492.877929 314.152066 492.877929 
C 312.528035 492.877929 310.970302 493.523163 309.821939 494.671526 
C 308.673576 495.819889 308.028342 497.377622 308.028342 499.001653 
C 308.028342 500.625684 308.673576 502.183417 309.821939 503.33178 
C 310.970302 504.480143 312.528035 505.125377 314.152066 505.125377 
z
" clip-path="url(#p58b00044ea)" style="fill: #dae3ef; stroke: #4e79a7"/>
   </g>
   <g id="PathCollection_2">
    <defs>
     <path id="mca3ca0e216" d="M -14.142136 14.142136 
L 14.142136 14.142136 
L 14.142136 -14.142136 
L -14.142136 -14.142136 
z
" style="stroke: #bab0ac"/>
    </defs>
    <g clip-path="url(#p58b00044ea)">
     <use xlink:href="#mca3ca0e216" x="212.4" y="414.208264" style="fill: #808080; stroke: #bab0ac"/>
    </g>
   </g>
   <g id="text_1">
    <!-- VGAE Model -->
    <g style="fill: #4e79a7; opacity: 0.564706" transform="translate(47.052893 59.15527) scale(0.07 -0.07)">
     <defs>
      <path id="DejaVuSans-Oblique-56" d="M 1319 0 
L 500 4666 
L 1119 4666 
L 1797 653 
L 4063 4666 
L 4750 4666 
L 2053 0 
L 1319 0 
z
" transform="scale(0.015625)"/>
      <path id="DejaVuSans-Oblique-47" d="M 3494 697 
L 3738 1919 
L 2700 1919 
L 2797 2438 
L 4453 2438 
L 4050 384 
Q 3634 156 3143 32 
Q 2653 -91 2156 -91 
Q 1278 -91 783 396 
Q 288 884 288 1753 
Q 288 2475 589 3126 
Q 891 3778 1422 4213 
Q 1756 4484 2153 4617 
Q 2550 4750 3034 4750 
Q 3472 4750 3873 4639 
Q 4275 4528 4641 4306 
L 4513 3634 
Q 4231 3928 3853 4083 
Q 3475 4238 3047 4238 
Q 2550 4238 2172 4048 
Q 1794 3859 1497 3463 
Q 1244 3125 1098 2667 
Q 953 2209 953 1734 
Q 953 1081 1287 751 
Q 1622 422 2284 422 
Q 2616 422 2925 492 
Q 3234 563 3494 697 
z
" transform="scale(0.015625)"/>
      <path id="DejaVuSans-Oblique-41" d="M 2356 4666 
L 3072 4666 
L 3938 0 
L 3278 0 
L 3084 1197 
L 984 1197 
L 325 0 
L -341 0 
L 2356 4666 
z
M 2584 4044 
L 1275 1722 
L 2988 1722 
L 2584 4044 
z
" transform="scale(0.015625)"/>
      <path id="DejaVuSans-Oblique-45" d="M 1081 4666 
L 4031 4666 
L 3928 4134 
L 1606 4134 
L 1338 2753 
L 3566 2753 
L 3463 2222 
L 1234 2222 
L 909 531 
L 3284 531 
L 3181 0 
L 172 0 
L 1081 4666 
z
" transform="scale(0.015625)"/>
      <path id="DejaVuSans-Oblique-20" transform="scale(0.015625)"/>
      <path id="DejaVuSans-Oblique-4d" d="M 1081 4666 
L 2028 4666 
L 2572 1522 
L 4378 4666 
L 5350 4666 
L 4441 0 
L 3828 0 
L 4622 4091 
L 2791 897 
L 2175 897 
L 1581 4103 
L 788 0 
L 172 0 
L 1081 4666 
z
" transform="scale(0.015625)"/>
      <path id="DejaVuSans-Oblique-6f" d="M 1625 -91 
Q 1009 -91 651 289 
Q 294 669 294 1325 
Q 294 1706 417 2101 
Q 541 2497 738 2766 
Q 1047 3184 1428 3384 
Q 1809 3584 2291 3584 
Q 2888 3584 3255 3212 
Q 3622 2841 3622 2241 
Q 3622 1825 3500 1412 
Q 3378 1000 3181 728 
Q 2875 309 2494 109 
Q 2113 -91 1625 -91 
z
M 891 1344 
Q 891 869 1089 633 
Q 1288 397 1691 397 
Q 2269 397 2648 901 
Q 3028 1406 3028 2181 
Q 3028 2634 2825 2865 
Q 2622 3097 2228 3097 
Q 1903 3097 1650 2945 
Q 1397 2794 1197 2484 
Q 1050 2253 970 1956 
Q 891 1659 891 1344 
z
" transform="scale(0.015625)"/>
      <path id="DejaVuSans-Oblique-64" d="M 2675 525 
Q 2444 222 2128 65 
Q 1813 -91 1428 -91 
Q 903 -91 598 267 
Q 294 625 294 1247 
Q 294 1766 478 2236 
Q 663 2706 1013 3078 
Q 1244 3325 1534 3454 
Q 1825 3584 2144 3584 
Q 2481 3584 2739 3421 
Q 2997 3259 3138 2956 
L 3513 4863 
L 4091 4863 
L 3144 0 
L 2566 0 
L 2675 525 
z
M 891 1350 
Q 891 897 1095 644 
Q 1300 391 1663 391 
Q 1931 391 2161 520 
Q 2391 650 2566 903 
Q 2750 1166 2856 1509 
Q 2963 1853 2963 2188 
Q 2963 2622 2758 2865 
Q 2553 3109 2194 3109 
Q 1922 3109 1687 2981 
Q 1453 2853 1288 2613 
Q 1106 2353 998 2009 
Q 891 1666 891 1350 
z
" transform="scale(0.015625)"/>
      <path id="DejaVuSans-Oblique-65" d="M 3078 2063 
Q 3088 2113 3092 2166 
Q 3097 2219 3097 2272 
Q 3097 2653 2873 2875 
Q 2650 3097 2266 3097 
Q 1838 3097 1509 2826 
Q 1181 2556 1013 2059 
L 3078 2063 
z
M 3578 1613 
L 903 1613 
Q 884 1494 878 1425 
Q 872 1356 872 1306 
Q 872 872 1139 634 
Q 1406 397 1894 397 
Q 2269 397 2603 481 
Q 2938 566 3225 728 
L 3116 159 
Q 2806 34 2476 -28 
Q 2147 -91 1806 -91 
Q 1078 -91 686 257 
Q 294 606 294 1247 
Q 294 1794 489 2264 
Q 684 2734 1063 3103 
Q 1306 3334 1642 3459 
Q 1978 3584 2356 3584 
Q 2950 3584 3301 3228 
Q 3653 2872 3653 2272 
Q 3653 2128 3634 1964 
Q 3616 1800 3578 1613 
z
" transform="scale(0.015625)"/>
      <path id="DejaVuSans-Oblique-6c" d="M 1172 4863 
L 1747 4863 
L 800 0 
L 225 0 
L 1172 4863 
z
" transform="scale(0.015625)"/>
     </defs>
     <use xlink:href="#DejaVuSans-Oblique-56"/>
     <use xlink:href="#DejaVuSans-Oblique-47" x="68.408203"/>
     <use xlink:href="#DejaVuSans-Oblique-41" x="145.898438"/>
     <use xlink:href="#DejaVuSans-Oblique-45" x="214.306641"/>
     <use xlink:href="#DejaVuSans-Oblique-20" x="277.490234"/>
     <use xlink:href="#DejaVuSans-Oblique-4d" x="309.277344"/>
     <use xlink:href="#DejaVuSans-Oblique-6f" x="395.556641"/>
     <use xlink:href="#DejaVuSans-Oblique-64" x="456.738281"/>
     <use xlink:href="#DejaVuSans-Oblique-65" x="520.214844"/>
     <use xlink:href="#DejaVuSans-Oblique-6c" x="581.738281"/>
    </g>
   </g>
   <g id="text_2">
    <g clip-path="url(#p58b00044ea)">
     <!-- μ₁ -->
     <g transform="translate(64.10249 246.828988) scale(0.08 -0.08)">
      <defs>
       <path id="DejaVuSans-3bc" d="M 544 -1331 
L 544 3500 
L 1119 3500 
L 1119 1325 
Q 1119 872 1334 640 
Q 1550 409 1972 409 
Q 2434 409 2667 671 
Q 2900 934 2900 1459 
L 2900 3500 
L 3475 3500 
L 3475 806 
Q 3475 619 3529 530 
Q 3584 441 3700 441 
Q 3728 441 3778 458 
Q 3828 475 3916 513 
L 3916 50 
Q 3788 -22 3673 -56 
Q 3559 -91 3450 -91 
Q 3234 -91 3106 31 
Q 2978 153 2931 403 
Q 2775 156 2548 32 
Q 2322 -91 2016 -91 
Q 1697 -91 1473 31 
Q 1250 153 1119 397 
L 1119 -1331 
L 544 -1331 
z
" transform="scale(0.015625)"/>
       <path id="DejaVuSans-2081" d="M 488 343 
L 1125 343 
L 1125 2253 
L 428 2125 
L 428 2487 
L 1147 2609 
L 1575 2609 
L 1575 343 
L 2216 343 
L 2216 0 
L 488 0 
L 488 343 
z
" transform="scale(0.015625)"/>
      </defs>
      <use xlink:href="#DejaVuSans-3bc"/>
      <use xlink:href="#DejaVuSans-2081" x="63.623047"/>
     </g>
    </g>
   </g>
   <g id="text_3">
    <g clip-path="url(#p58b00044ea)">
     <!-- μ₂ -->
     <g transform="translate(114.978523 246.828988) scale(0.08 -0.08)">
      <defs>
       <path id="DejaVuSans-2082" d="M 838 356 
L 2163 356 
L 2163 0 
L 294 0 
L 294 343 
Q 400 440 597 615 
Q 1672 1568 1672 1862 
Q 1672 2068 1509 2194 
Q 1347 2321 1081 2321 
Q 919 2321 728 2266 
Q 538 2212 313 2103 
L 313 2487 
Q 553 2575 761 2618 
Q 969 2662 1147 2662 
Q 1600 2662 1872 2456 
Q 2144 2250 2144 1912 
Q 2144 1478 1109 590 
Q 934 440 838 356 
z
" transform="scale(0.015625)"/>
      </defs>
      <use xlink:href="#DejaVuSans-3bc"/>
      <use xlink:href="#DejaVuSans-2082" x="63.623047"/>
     </g>
    </g>
   </g>
   <g id="text_4">
    <g clip-path="url(#p58b00044ea)">
     <!-- μ₃ -->
     <g transform="translate(165.854556 246.828988) scale(0.08 -0.08)">
      <defs>
       <path id="DejaVuSans-2083" d="M 1638 1412 
Q 1925 1356 2083 1185 
Q 2241 1015 2241 759 
Q 2241 371 1944 162 
Q 1647 -47 1094 -47 
Q 916 -47 720 -14 
Q 525 18 306 81 
L 306 459 
Q 469 375 655 334 
Q 841 293 1050 293 
Q 1391 293 1578 416 
Q 1766 540 1766 759 
Q 1766 990 1592 1109 
Q 1419 1228 1081 1228 
L 813 1228 
L 813 1565 
L 1106 1565 
Q 1400 1565 1551 1663 
Q 1703 1762 1703 1950 
Q 1703 2131 1547 2226 
Q 1391 2321 1094 2321 
Q 969 2321 809 2293 
Q 650 2265 397 2193 
L 397 2553 
Q 625 2606 825 2634 
Q 1025 2662 1197 2662 
Q 1647 2662 1911 2477 
Q 2175 2293 2175 1984 
Q 2175 1768 2034 1618 
Q 1894 1468 1638 1412 
z
" transform="scale(0.015625)"/>
      </defs>
      <use xlink:href="#DejaVuSans-3bc"/>
      <use xlink:href="#DejaVuSans-2083" x="63.623047"/>
     </g>
    </g>
   </g>
   <g id="text_5">
    <g clip-path="url(#p58b00044ea)">
     <!-- σ₁ -->
     <g transform="translate(250.657944 246.828988) scale(0.08 -0.08)">
      <defs>
       <path id="DejaVuSans-3c3" d="M 1959 3044 
Q 1484 3044 1228 2700 
Q 959 2341 959 1747 
Q 959 1119 1226 758 
Q 1494 397 1959 397 
Q 2419 397 2687 759 
Q 2956 1122 2956 1747 
Q 2956 2319 2688 2700 
Q 2441 3044 1959 3044 
z
M 1959 3500 
L 3869 3500 
L 3869 2925 
L 3225 2925 
Q 3566 2438 3566 1747 
Q 3566 888 3138 400 
Q 2709 -91 1959 -91 
Q 1206 -91 781 400 
Q 353 888 353 1747 
Q 353 2613 781 3097 
Q 1134 3500 1959 3500 
z
" transform="scale(0.015625)"/>
      </defs>
      <use xlink:href="#DejaVuSans-3c3"/>
      <use xlink:href="#DejaVuSans-2081" x="63.378906"/>
     </g>
    </g>
   </g>
   <g id="text_6">
    <g clip-path="url(#p58b00044ea)">
     <!-- σ₂ -->
     <g transform="translate(301.533977 246.828988) scale(0.08 -0.08)">
      <use xlink:href="#DejaVuSans-3c3"/>
      <use xlink:href="#DejaVuSans-2082" x="63.378906"/>
     </g>
    </g>
   </g>
   <g id="text_7">
    <g clip-path="url(#p58b00044ea)">
     <!-- σ₃ -->
     <g transform="translate(352.41001 246.828988) scale(0.08 -0.08)">
      <use xlink:href="#DejaVuSans-3c3"/>
      <use xlink:href="#DejaVuSans-2083" x="63.378906"/>
     </g>
    </g>
   </g>
   <g id="text_8">
    <g clip-path="url(#p58b00044ea)">
     <!-- z₁ -->
     <g transform="translate(157.820842 331.622376) scale(0.08 -0.08)">
      <defs>
       <path id="DejaVuSans-7a" d="M 353 3500 
L 3084 3500 
L 3084 2975 
L 922 459 
L 3084 459 
L 3084 0 
L 275 0 
L 275 525 
L 2438 3041 
L 353 3041 
L 353 3500 
z
" transform="scale(0.015625)"/>
      </defs>
      <use xlink:href="#DejaVuSans-7a"/>
      <use xlink:href="#DejaVuSans-2081" x="52.490234"/>
     </g>
    </g>
   </g>
   <g id="text_9">
    <g clip-path="url(#p58b00044ea)">
     <!-- z₂ -->
     <g transform="translate(208.696875 331.622376) scale(0.08 -0.08)">
      <use xlink:href="#DejaVuSans-7a"/>
      <use xlink:href="#DejaVuSans-2082" x="52.490234"/>
     </g>
    </g>
   </g>
   <g id="text_10">
    <g clip-path="url(#p58b00044ea)">
     <!-- z₃ -->
     <g transform="translate(259.572908 331.622376) scale(0.08 -0.08)">
      <use xlink:href="#DejaVuSans-7a"/>
      <use xlink:href="#DejaVuSans-2083" x="52.490234"/>
     </g>
    </g>
   </g>
   <g id="text_11">
    <g clip-path="url(#p58b00044ea)">
     <!-- $z^T z$ -->
     <g transform="translate(206.2 416.415764) scale(0.08 -0.08)">
      <defs>
       <path id="DejaVuSans-Oblique-7a" d="M 744 3500 
L 3475 3500 
L 3372 2975 
L 738 459 
L 2913 459 
L 2822 0 
L -19 0 
L 84 525 
L 2719 3041 
L 653 3041 
L 744 3500 
z
" transform="scale(0.015625)"/>
       <path id="DejaVuSans-Oblique-54" d="M 378 4666 
L 4325 4666 
L 4225 4134 
L 2559 4134 
L 1759 0 
L 1125 0 
L 1925 4134 
L 275 4134 
L 378 4666 
z
" transform="scale(0.015625)"/>
      </defs>
      <use xlink:href="#DejaVuSans-Oblique-7a" transform="translate(0 0.684375)"/>
      <use xlink:href="#DejaVuSans-Oblique-54" transform="translate(56.95638 38.965625) scale(0.7)"/>
      <use xlink:href="#DejaVuSans-Oblique-7a" transform="translate(102.449544 0.684375)"/>
     </g>
    </g>
   </g>
  </g>
 </g>
 <defs>
  <clipPath id="p58b00044ea">
   <rect x="7.2" y="7.2" width="410.4" height="559.636364"/>
  </clipPath>
 </defs>
</svg>
