<?xml version="1.0" encoding="UTF-8" standalone="no"?>
<!DOCTYPE svg PUBLIC "-//W3C//DTD SVG 1.1//EN"
 "http://www.w3.org/Graphics/SVG/1.1/DTD/svg11.dtd">
<!-- Generated by graphviz version 2.44.0 (0)
 -->
<!-- Pages: 1 -->
<svg width="359pt" height="825pt"
 viewBox="14.40 14.40 344.40 810.40" xmlns="http://www.w3.org/2000/svg" xmlns:xlink="http://www.w3.org/1999/xlink">
<g id="graph0" class="graph" transform="scale(1 1) rotate(0) translate(18.4 806.4)">
<g id="clust1" class="cluster">
<title>cluster_vgae</title>
<polygon fill="#4e79a7" fill-opacity="0.062745" stroke="#4e79a7" stroke-dasharray="5,2" stroke-opacity="0.376471" points="8,-8 8,-712 314,-712 314,-8 8,-8"/>
<text text-anchor="middle" x="43.5" y="-700.8" font-family="CMU Serif" font-size="9.00" fill="#4e79a7" fill-opacity="0.564706">VGAE Model</text>
</g>
<!-- vgae_e0_0 -->
<g id="node1" class="node">
<title>vgae_e0_0</title>
<ellipse fill="#dae3ef" stroke="#4e79a7" cx="19" cy="-683" rx="11" ry="11"/>
</g>
<!-- vgae_e0_1 -->
<g id="node2" class="node">
<title>vgae_e0_1</title>
<ellipse fill="#dae3ef" stroke="#4e79a7" cx="70" cy="-683" rx="11" ry="11"/>
</g>
<!-- vgae_e0_0&#45;&gt;vgae_e0_1 -->
<g id="edge1" class="edge">
<title>vgae_e0_0&#45;&gt;vgae_e0_1</title>
<path fill="none" stroke="#4e79a7" stroke-width="0.6" stroke-opacity="0.501961" d="M30.16,-683C39.7,-683 49.25,-683 58.79,-683"/>
</g>
<!-- vgae_e0_2 -->
<g id="node3" class="node">
<title>vgae_e0_2</title>
<ellipse fill="#dae3ef" stroke="#4e79a7" cx="121" cy="-683" rx="11" ry="11"/>
</g>
<!-- vgae_e0_0&#45;&gt;vgae_e0_2 -->
<g id="edge2" class="edge">
<title>vgae_e0_0&#45;&gt;vgae_e0_2</title>
<path fill="none" stroke="#4e79a7" stroke-width="0.6" stroke-opacity="0.501961" d="M21.73,-693.92C28.96,-720.64 50.23,-785.75 81.5,-766 106.87,-749.98 116.28,-712.73 119.49,-694.07"/>
</g>
<!-- vgae_e0_3 -->
<g id="node4" class="node">
<title>vgae_e0_3</title>
<ellipse fill="#dae3ef" stroke="#4e79a7" cx="172" cy="-683" rx="11" ry="11"/>
</g>
<!-- vgae_e0_0&#45;&gt;vgae_e0_3 -->
<g id="edge3" class="edge">
<title>vgae_e0_0&#45;&gt;vgae_e0_3</title>
<path fill="none" stroke="#4e79a7" stroke-width="0.6" stroke-opacity="0.501961" d="M20.64,-694.08C24.08,-712.75 33.94,-750.03 59.5,-766 87.02,-783.19 105.07,-783.32 132.5,-766 157.87,-749.98 167.28,-712.73 170.49,-694.07"/>
</g>
<!-- vgae_e0_4 -->
<g id="node5" class="node">
<title>vgae_e0_4</title>
<ellipse fill="#dae3ef" stroke="#4e79a7" cx="223" cy="-683" rx="11" ry="11"/>
</g>
<!-- vgae_e0_0&#45;&gt;vgae_e0_4 -->
<g id="edge4" class="edge">
<title>vgae_e0_0&#45;&gt;vgae_e0_4</title>
<path fill="none" stroke="#4e79a7" stroke-width="0.6" stroke-opacity="0.501961" d="M20.64,-694.08C24.08,-712.75 33.94,-750.03 59.5,-766 106.24,-795.2 136.9,-795.43 183.5,-766 208.87,-749.98 218.28,-712.73 221.49,-694.07"/>
</g>
<!-- vgae_e0_1&#45;&gt;vgae_e0_2 -->
<g id="edge5" class="edge">
<title>vgae_e0_1&#45;&gt;vgae_e0_2</title>
<path fill="none" stroke="#4e79a7" stroke-width="0.6" stroke-opacity="0.501961" d="M81.16,-683C90.7,-683 100.25,-683 109.79,-683"/>
</g>
<!-- vgae_e0_1&#45;&gt;vgae_e0_3 -->
<g id="edge6" class="edge">
<title>vgae_e0_1&#45;&gt;vgae_e0_3</title>
<path fill="none" stroke="#4e79a7" stroke-width="0.6" stroke-opacity="0.501961" d="M72.73,-693.92C79.96,-720.64 101.23,-785.75 132.5,-766 157.87,-749.98 167.28,-712.73 170.49,-694.07"/>
</g>
<!-- vgae_e0_1&#45;&gt;vgae_e0_4 -->
<g id="edge7" class="edge">
<title>vgae_e0_1&#45;&gt;vgae_e0_4</title>
<path fill="none" stroke="#4e79a7" stroke-width="0.6" stroke-opacity="0.501961" d="M71.64,-694.08C75.08,-712.75 84.94,-750.03 110.5,-766 138.02,-783.19 156.07,-783.32 183.5,-766 208.87,-749.98 218.28,-712.73 221.49,-694.07"/>
</g>
<!-- vgae_e0_2&#45;&gt;vgae_e0_3 -->
<g id="edge8" class="edge">
<title>vgae_e0_2&#45;&gt;vgae_e0_3</title>
<path fill="none" stroke="#4e79a7" stroke-width="0.6" stroke-opacity="0.501961" d="M132.16,-683C141.7,-683 151.25,-683 160.79,-683"/>
</g>
<!-- vgae_e0_2&#45;&gt;vgae_e0_4 -->
<g id="edge9" class="edge">
<title>vgae_e0_2&#45;&gt;vgae_e0_4</title>
<path fill="none" stroke="#4e79a7" stroke-width="0.6" stroke-opacity="0.501961" d="M123.73,-693.92C130.96,-720.64 152.23,-785.75 183.5,-766 208.87,-749.98 218.28,-712.73 221.49,-694.07"/>
</g>
<!-- vgae_e0_3&#45;&gt;vgae_e0_4 -->
<g id="edge10" class="edge">
<title>vgae_e0_3&#45;&gt;vgae_e0_4</title>
<path fill="none" stroke="#4e79a7" stroke-width="0.6" stroke-opacity="0.501961" d="M183.16,-683C192.7,-683 202.25,-683 211.79,-683"/>
</g>
<!-- vgae_e1_0 -->
<g id="node11" class="node">
<title>vgae_e1_0</title>
<ellipse fill="#dae3ef" stroke="#4e79a7" cx="99" cy="-553" rx="11" ry="11"/>
</g>
<!-- vgae_e0_4&#45;&gt;vgae_e1_0 -->
<g id="edge11" class="edge">
<title>vgae_e0_4&#45;&gt;vgae_e1_0</title>
<path fill="none" stroke="grey" stroke-dasharray="5,2" d="M215.61,-674.38C194.63,-652.72 134.58,-590.73 109.85,-565.2"/>
<polygon fill="grey" stroke="grey" points="110.93,-563.8 106.19,-561.42 108.41,-566.23 110.93,-563.8"/>
</g>
<!-- vgae_ro_0 -->
<g id="node6" class="node">
<title>vgae_ro_0</title>
<ellipse fill="#dae3ef" stroke="#4e79a7" cx="99" cy="-19" rx="11" ry="11"/>
</g>
<!-- vgae_ro_1 -->
<g id="node7" class="node">
<title>vgae_ro_1</title>
<ellipse fill="#dae3ef" stroke="#4e79a7" cx="150" cy="-19" rx="11" ry="11"/>
</g>
<!-- vgae_ro_0&#45;&gt;vgae_ro_1 -->
<g id="edge26" class="edge">
<title>vgae_ro_0&#45;&gt;vgae_ro_1</title>
<path fill="none" stroke="#4e79a7" stroke-width="0.6" stroke-opacity="0.501961" d="M110.16,-19C119.7,-19 129.25,-19 138.79,-19"/>
</g>
<!-- vgae_ro_2 -->
<g id="node8" class="node">
<title>vgae_ro_2</title>
<ellipse fill="#dae3ef" stroke="#4e79a7" cx="201" cy="-19" rx="11" ry="11"/>
</g>
<!-- vgae_ro_0&#45;&gt;vgae_ro_2 -->
<g id="edge27" class="edge">
<title>vgae_ro_0&#45;&gt;vgae_ro_2</title>
<path fill="none" stroke="#4e79a7" stroke-width="0.6" stroke-opacity="0.501961" d="M102.06,-29.71C107.05,-44.97 118.58,-72.38 139.5,-84 148.05,-88.75 152.98,-88.79 161.5,-84 182.22,-72.35 193.33,-44.95 198.1,-29.7"/>
</g>
<!-- vgae_ro_3 -->
<g id="node9" class="node">
<title>vgae_ro_3</title>
<ellipse fill="#dae3ef" stroke="#4e79a7" cx="252" cy="-19" rx="11" ry="11"/>
</g>
<!-- vgae_ro_0&#45;&gt;vgae_ro_3 -->
<g id="edge28" class="edge">
<title>vgae_ro_0&#45;&gt;vgae_ro_3</title>
<path fill="none" stroke="#4e79a7" stroke-width="0.6" stroke-opacity="0.501961" d="M102.06,-29.71C107.05,-44.97 118.58,-72.38 139.5,-84 167.87,-99.75 184.22,-99.91 212.5,-84 233.22,-72.35 244.33,-44.95 249.1,-29.7"/>
</g>
<!-- vgae_ro_4 -->
<g id="node10" class="node">
<title>vgae_ro_4</title>
<ellipse fill="#dae3ef" stroke="#4e79a7" cx="303" cy="-19" rx="11" ry="11"/>
</g>
<!-- vgae_ro_0&#45;&gt;vgae_ro_4 -->
<g id="edge29" class="edge">
<title>vgae_ro_0&#45;&gt;vgae_ro_4</title>
<path fill="none" stroke="#4e79a7" stroke-width="0.6" stroke-opacity="0.501961" d="M102.06,-29.71C107.05,-44.97 118.58,-72.38 139.5,-84 187.68,-110.75 215.47,-111.02 263.5,-84 284.22,-72.35 295.33,-44.95 300.1,-29.7"/>
</g>
<!-- vgae_ro_1&#45;&gt;vgae_ro_2 -->
<g id="edge30" class="edge">
<title>vgae_ro_1&#45;&gt;vgae_ro_2</title>
<path fill="none" stroke="#4e79a7" stroke-width="0.6" stroke-opacity="0.501961" d="M161.16,-19C170.7,-19 180.25,-19 189.79,-19"/>
</g>
<!-- vgae_ro_1&#45;&gt;vgae_ro_3 -->
<g id="edge31" class="edge">
<title>vgae_ro_1&#45;&gt;vgae_ro_3</title>
<path fill="none" stroke="#4e79a7" stroke-width="0.6" stroke-opacity="0.501961" d="M153.06,-29.71C158.05,-44.97 169.58,-72.38 190.5,-84 199.05,-88.75 203.98,-88.79 212.5,-84 233.22,-72.35 244.33,-44.95 249.1,-29.7"/>
</g>
<!-- vgae_ro_1&#45;&gt;vgae_ro_4 -->
<g id="edge32" class="edge">
<title>vgae_ro_1&#45;&gt;vgae_ro_4</title>
<path fill="none" stroke="#4e79a7" stroke-width="0.6" stroke-opacity="0.501961" d="M153.06,-29.71C158.05,-44.97 169.58,-72.38 190.5,-84 218.87,-99.75 235.22,-99.91 263.5,-84 284.22,-72.35 295.33,-44.95 300.1,-29.7"/>
</g>
<!-- vgae_ro_2&#45;&gt;vgae_ro_3 -->
<g id="edge33" class="edge">
<title>vgae_ro_2&#45;&gt;vgae_ro_3</title>
<path fill="none" stroke="#4e79a7" stroke-width="0.6" stroke-opacity="0.501961" d="M212.16,-19C221.7,-19 231.25,-19 240.79,-19"/>
</g>
<!-- vgae_ro_2&#45;&gt;vgae_ro_4 -->
<g id="edge34" class="edge">
<title>vgae_ro_2&#45;&gt;vgae_ro_4</title>
<path fill="none" stroke="#4e79a7" stroke-width="0.6" stroke-opacity="0.501961" d="M204.06,-29.71C209.05,-44.97 220.58,-72.38 241.5,-84 250.05,-88.75 254.98,-88.79 263.5,-84 284.22,-72.35 295.33,-44.95 300.1,-29.7"/>
</g>
<!-- vgae_ro_3&#45;&gt;vgae_ro_4 -->
<g id="edge35" class="edge">
<title>vgae_ro_3&#45;&gt;vgae_ro_4</title>
<path fill="none" stroke="#4e79a7" stroke-width="0.6" stroke-opacity="0.501961" d="M263.16,-19C272.7,-19 282.25,-19 291.79,-19"/>
</g>
<!-- vgae_e1_1 -->
<g id="node12" class="node">
<title>vgae_e1_1</title>
<ellipse fill="#dae3ef" stroke="#4e79a7" cx="150" cy="-553" rx="11" ry="11"/>
</g>
<!-- vgae_e1_0&#45;&gt;vgae_e1_1 -->
<g id="edge12" class="edge">
<title>vgae_e1_0&#45;&gt;vgae_e1_1</title>
<path fill="none" stroke="#4e79a7" stroke-width="0.6" stroke-opacity="0.501961" d="M110.16,-553C119.7,-553 129.25,-553 138.79,-553"/>
</g>
<!-- vgae_e1_2 -->
<g id="node13" class="node">
<title>vgae_e1_2</title>
<ellipse fill="#dae3ef" stroke="#4e79a7" cx="201" cy="-553" rx="11" ry="11"/>
</g>
<!-- vgae_e1_0&#45;&gt;vgae_e1_2 -->
<g id="edge13" class="edge">
<title>vgae_e1_0&#45;&gt;vgae_e1_2</title>
<path fill="none" stroke="#4e79a7" stroke-width="0.6" stroke-opacity="0.501961" d="M102.06,-563.71C107.05,-578.97 118.58,-606.38 139.5,-618 148.05,-622.75 152.98,-622.79 161.5,-618 182.22,-606.35 193.33,-578.95 198.1,-563.7"/>
</g>
<!-- vgae_e1_1&#45;&gt;vgae_e1_2 -->
<g id="edge14" class="edge">
<title>vgae_e1_1&#45;&gt;vgae_e1_2</title>
<path fill="none" stroke="#4e79a7" stroke-width="0.6" stroke-opacity="0.501961" d="M161.16,-553C170.7,-553 180.25,-553 189.79,-553"/>
</g>
<!-- vgae_mu_0 -->
<g id="node17" class="node">
<title>vgae_mu_0</title>
<ellipse fill="#e6d9e1" stroke="#b07aa1" cx="19" cy="-423" rx="11" ry="11"/>
<text text-anchor="middle" x="19" y="-421.4" font-family="CMU Serif" font-size="7.00" fill="#333333">μ₁</text>
</g>
<!-- vgae_e1_2&#45;&gt;vgae_mu_0 -->
<g id="edge15" class="edge">
<title>vgae_e1_2&#45;&gt;vgae_mu_0</title>
<path fill="none" stroke="grey" stroke-dasharray="5,2" d="M192.22,-545.83C162.73,-525.08 67.09,-457.82 32.03,-433.17"/>
<polygon fill="grey" stroke="grey" points="32.79,-431.56 27.69,-430.11 30.77,-434.42 32.79,-431.56"/>
</g>
<!-- vgae_si_0 -->
<g id="node20" class="node">
<title>vgae_si_0</title>
<ellipse fill="#e6d9e1" stroke="#b07aa1" cx="201" cy="-423" rx="11" ry="11"/>
<text text-anchor="middle" x="201" y="-421.4" font-family="CMU Serif" font-size="7.00" fill="#333333">σ₁</text>
</g>
<!-- vgae_e1_2&#45;&gt;vgae_si_0 -->
<g id="edge16" class="edge">
<title>vgae_e1_2&#45;&gt;vgae_si_0</title>
<path fill="none" stroke="grey" stroke-dasharray="5,2" d="M201,-541.96C201,-519.73 201,-466.24 201,-439.61"/>
<polygon fill="grey" stroke="grey" points="202.75,-439.35 201,-434.35 199.25,-439.35 202.75,-439.35"/>
</g>
<!-- vgae_z_0 -->
<g id="node14" class="node">
<title>vgae_z_0</title>
<ellipse fill="#d7e8d3" stroke="#59a14f" cx="237" cy="-293" rx="11" ry="11"/>
<text text-anchor="middle" x="237" y="-291.4" font-family="CMU Serif" font-size="7.00" fill="#333333">z₁</text>
</g>
<!-- vgae_z_1 -->
<g id="node15" class="node">
<title>vgae_z_1</title>
<ellipse fill="#d7e8d3" stroke="#59a14f" cx="70" cy="-293" rx="11" ry="11"/>
<text text-anchor="middle" x="70" y="-291.4" font-family="CMU Serif" font-size="7.00" fill="#333333">z₂</text>
</g>
<!-- vgae_z_2 -->
<g id="node16" class="node">
<title>vgae_z_2</title>
<ellipse fill="#d7e8d3" stroke="#59a14f" cx="121" cy="-293" rx="11" ry="11"/>
<text text-anchor="middle" x="121" y="-291.4" font-family="CMU Serif" font-size="7.00" fill="#333333">z₃</text>
</g>
<!-- vgae_dec -->
<g id="node23" class="node">
<title>vgae_dec</title>
<path fill="#eeeeee" stroke="grey" d="M125,-174C125,-174 95,-174 95,-174 89,-174 83,-168 83,-162 83,-162 83,-150 83,-150 83,-144 89,-138 95,-138 95,-138 125,-138 125,-138 131,-138 137,-144 137,-150 137,-150 137,-162 137,-162 137,-168 131,-174 125,-174"/>
<text text-anchor="middle" x="110" y="-154.1" font-family="CMU Serif" font-size="8.00" fill="#333333">zᵀz</text>
</g>
<!-- vgae_z_2&#45;&gt;vgae_dec -->
<g id="edge24" class="edge">
<title>vgae_z_2&#45;&gt;vgae_dec</title>
<path fill="none" stroke="grey" d="M120.17,-281.85C118.41,-260.26 114.26,-209.33 111.84,-179.61"/>
<polygon fill="grey" stroke="grey" points="113.56,-179.16 111.41,-174.32 110.07,-179.45 113.56,-179.16"/>
</g>
<!-- vgae_mu_1 -->
<g id="node18" class="node">
<title>vgae_mu_1</title>
<ellipse fill="#e6d9e1" stroke="#b07aa1" cx="70" cy="-423" rx="11" ry="11"/>
<text text-anchor="middle" x="70" y="-421.4" font-family="CMU Serif" font-size="7.00" fill="#333333">μ₂</text>
</g>
<!-- vgae_mu_0&#45;&gt;vgae_mu_1 -->
<!-- vgae_mu_1&#45;&gt;vgae_z_1 -->
<g id="edge19" class="edge">
<title>vgae_mu_1&#45;&gt;vgae_z_1</title>
<path fill="none" stroke="grey" d="M70,-411.96C70,-389.73 70,-336.24 70,-309.61"/>
<polygon fill="grey" stroke="grey" points="71.75,-309.35 70,-304.35 68.25,-309.35 71.75,-309.35"/>
</g>
<!-- vgae_mu_2 -->
<g id="node19" class="node">
<title>vgae_mu_2</title>
<ellipse fill="#e6d9e1" stroke="#b07aa1" cx="121" cy="-423" rx="11" ry="11"/>
<text text-anchor="middle" x="121" y="-421.4" font-family="CMU Serif" font-size="7.00" fill="#333333">μ₃</text>
</g>
<!-- vgae_mu_1&#45;&gt;vgae_mu_2 -->
<!-- vgae_mu_2&#45;&gt;vgae_si_0 -->
<!-- vgae_si_1 -->
<g id="node21" class="node">
<title>vgae_si_1</title>
<ellipse fill="#e6d9e1" stroke="#b07aa1" cx="252" cy="-423" rx="11" ry="11"/>
<text text-anchor="middle" x="252" y="-421.4" font-family="CMU Serif" font-size="7.00" fill="#333333">σ₂</text>
</g>
<!-- vgae_si_0&#45;&gt;vgae_si_1 -->
<!-- vgae_si_1&#45;&gt;vgae_z_1 -->
<g id="edge23" class="edge">
<title>vgae_si_1&#45;&gt;vgae_z_1</title>
<path fill="none" stroke="grey" d="M243.22,-415.83C213.73,-395.08 118.09,-327.82 83.03,-303.17"/>
<polygon fill="grey" stroke="grey" points="83.79,-301.56 78.69,-300.11 81.77,-304.42 83.79,-301.56"/>
</g>
<!-- vgae_si_2 -->
<g id="node22" class="node">
<title>vgae_si_2</title>
<ellipse fill="#e6d9e1" stroke="#b07aa1" cx="303" cy="-423" rx="11" ry="11"/>
<text text-anchor="middle" x="303" y="-421.4" font-family="CMU Serif" font-size="7.00" fill="#333333">σ₃</text>
</g>
<!-- vgae_si_1&#45;&gt;vgae_si_2 -->
<!-- vgae_dec&#45;&gt;vgae_ro_0 -->
<g id="edge25" class="edge">
<title>vgae_dec&#45;&gt;vgae_ro_0</title>
<path fill="none" stroke="grey" stroke-dasharray="5,2" d="M108.61,-137.9C106.44,-111.27 102.29,-60.33 100.22,-35.03"/>
<polygon fill="grey" stroke="grey" points="101.97,-34.88 99.82,-30.04 98.48,-35.16 101.97,-34.88"/>
</g>
</g>
</svg>
